<?xml version="1.0" encoding="utf-8" standalone="no"?>
<!DOCTYPE svg PUBLIC "-//W3C//DTD SVG 1.1//EN"
  "http://www.w3.org/Graphics/SVG/1.1/DTD/svg11.dtd">
<svg height="216pt" version="1.1" viewBox="0 0 201.6 216" width="201.6pt" xmlns="http://www.w3.org/2000/svg" xmlns:xlink="http://www.w3.org/1999/xlink">
 <metadata>
  <rdf:RDF xmlns:cc="http://creativecommons.org/ns#" xmlns:dc="http://purl.org/dc/elements/1.1/" xmlns:rdf="http://www.w3.org/1999/02/22-rdf-syntax-ns#">
   <cc:Work>
    <dc:type rdf:resource="http://purl.org/dc/dcmitype/StillImage"/>
    <dc:date>2026-02-12T14:23:44.598405</dc:date>
    <dc:format>image/svg+xml</dc:format>
    <dc:creator>
     <cc:Agent>
      <dc:title>Matplotlib v3.4.2, https://matplotlib.org/</dc:title>
     </cc:Agent>
    </dc:creator>
   </cc:Work>
  </rdf:RDF>
 </metadata>
 <defs>
  <style type="text/css">*{stroke-linecap:butt;stroke-linejoin:round;}</style>
 </defs>
 <g id="figure_1">
  <g id="patch_1">
   <path d="M 0 216 
L 201.6 216 
L 201.6 0 
L 0 0 
z
" style="fill:none;"/>
  </g>
  <g id="axes_1">
   <g id="patch_2">
    <path d="M 33.46 94.83 
L 192.96 94.83 
L 192.96 22.56 
L 33.46 22.56 
z
" style="fill:none;"/>
   </g>
   <g id="PolyCollection_1">
    <defs>
     <path d="M 40.71 -134.371561 
L 40.71 -134.270699 
L 42.669459 -137.490622 
L 44.628919 -139.680214 
L 46.588378 -143.475538 
L 48.547838 -146.684878 
L 50.507297 -146.434627 
L 52.466757 -142.800866 
L 54.426216 -138.534132 
L 56.385676 -135.977861 
L 58.345135 -136.126686 
L 60.304595 -138.220198 
L 62.264054 -140.382512 
L 64.223514 -141.74815 
L 66.182973 -141.535343 
L 68.142432 -139.46067 
L 70.101892 -136.449683 
L 72.061351 -133.744962 
L 74.020811 -132.14588 
L 75.98027 -131.514462 
L 77.93973 -131.31261 
L 79.899189 -131.321107 
L 81.858649 -131.627911 
L 83.818108 -131.931488 
L 85.777568 -131.700693 
L 87.737027 -131.061801 
L 89.696486 -130.229741 
L 91.655946 -129.45469 
L 93.615405 -129.112208 
L 95.574865 -129.247573 
L 97.534324 -129.628941 
L 99.493784 -129.811719 
L 101.453243 -129.582902 
L 103.412703 -129.071428 
L 105.372162 -128.545091 
L 107.331622 -128.34505 
L 109.291081 -128.408578 
L 111.250541 -128.536947 
L 113.21 -128.647797 
L 115.169459 -128.703506 
L 117.128919 -128.74415 
L 119.088378 -128.858033 
L 121.047838 -128.861315 
L 123.007297 -128.543039 
L 124.966757 -128.066836 
L 126.926216 -127.762501 
L 128.885676 -127.716238 
L 130.845135 -127.889233 
L 132.804595 -128.208457 
L 134.764054 -128.475552 
L 136.723514 -128.59513 
L 138.682973 -128.577331 
L 140.642432 -128.467579 
L 142.601892 -128.295464 
L 144.561351 -128.158833 
L 146.520811 -128.097307 
L 148.48027 -128.057521 
L 150.43973 -127.969775 
L 152.399189 -127.929096 
L 154.358649 -128.071072 
L 156.318108 -128.242189 
L 158.277568 -128.24585 
L 160.237027 -128.133198 
L 162.196486 -128.04799 
L 164.155946 -128.018703 
L 166.115405 -128.058253 
L 168.074865 -128.134803 
L 170.034324 -128.168806 
L 171.993784 -128.191025 
L 173.953243 -128.221936 
L 175.912703 -128.240509 
L 177.872162 -128.239205 
L 179.831622 -128.112662 
L 181.791081 -128.049675 
L 183.750541 -129.249611 
L 185.71 -130.014763 
L 185.71 -130.773686 
L 185.71 -130.773686 
L 183.750541 -130.089863 
L 181.791081 -128.919046 
L 179.831622 -128.940853 
L 177.872162 -129.013302 
L 175.912703 -128.942172 
L 173.953243 -128.844341 
L 171.993784 -128.748761 
L 170.034324 -128.676798 
L 168.074865 -128.648434 
L 166.115405 -128.605089 
L 164.155946 -128.577645 
L 162.196486 -128.592945 
L 160.237027 -128.653853 
L 158.277568 -128.704327 
L 156.318108 -128.669164 
L 154.358649 -128.534929 
L 152.399189 -128.446398 
L 150.43973 -128.500464 
L 148.48027 -128.551865 
L 146.520811 -128.588576 
L 144.561351 -128.720333 
L 142.601892 -128.927158 
L 140.642432 -129.118352 
L 138.682973 -129.205707 
L 136.723514 -129.154488 
L 134.764054 -128.947673 
L 132.804595 -128.630831 
L 130.845135 -128.398386 
L 128.885676 -128.431617 
L 126.926216 -128.731343 
L 124.966757 -129.191511 
L 123.007297 -129.680619 
L 121.047838 -129.963082 
L 119.088378 -129.934393 
L 117.128919 -129.722131 
L 115.169459 -129.580811 
L 113.21 -129.511231 
L 111.250541 -129.464208 
L 109.291081 -129.498132 
L 107.331622 -129.683656 
L 105.372162 -130.008959 
L 103.412703 -130.497709 
L 101.453243 -130.890473 
L 99.493784 -130.91491 
L 97.534324 -130.582784 
L 95.574865 -130.247631 
L 93.615405 -130.299048 
L 91.655946 -130.831907 
L 89.696486 -131.712342 
L 87.737027 -132.562209 
L 85.777568 -133.114772 
L 83.818108 -133.220393 
L 81.858649 -132.93783 
L 79.899189 -132.704506 
L 77.93973 -132.936345 
L 75.98027 -133.662462 
L 74.020811 -134.953294 
L 72.061351 -137.190432 
L 70.101892 -140.512174 
L 68.142432 -143.840409 
L 66.182973 -145.819635 
L 64.223514 -145.517444 
L 62.264054 -143.349665 
L 60.304595 -140.875464 
L 58.345135 -139.597124 
L 56.385676 -140.436889 
L 54.426216 -143.476174 
L 52.466757 -147.439605 
L 50.507297 -150.23392 
L 48.547838 -149.604203 
L 46.588378 -145.833854 
L 44.628919 -141.488369 
L 42.669459 -138.236614 
L 40.71 -134.371561 
z
" id="ma3e1e92441"/>
    </defs>
    <g clip-path="url(#p873df87159)">
     <use style="fill:#d9a359;fill-opacity:0.7;" x="0" xlink:href="#ma3e1e92441" y="216"/>
    </g>
   </g>
   <g id="PolyCollection_2">
    <defs>
     <path d="M 40.71 -132.780247 
L 40.71 -132.723443 
L 42.669459 -136.510039 
L 44.628919 -139.996851 
L 46.588378 -144.305016 
L 48.547838 -146.911349 
L 50.507297 -145.253877 
L 52.466757 -140.406421 
L 54.426216 -135.555883 
L 56.385676 -132.957107 
L 58.345135 -133.518806 
L 60.304595 -136.496585 
L 62.264054 -140.009103 
L 64.223514 -142.540518 
L 66.182973 -142.906706 
L 68.142432 -140.822593 
L 70.101892 -137.674239 
L 72.061351 -134.864116 
L 74.020811 -132.950793 
L 75.98027 -131.923834 
L 77.93973 -131.280595 
L 79.899189 -130.810513 
L 81.858649 -130.564762 
L 83.818108 -130.536267 
L 85.777568 -130.750435 
L 87.737027 -130.990323 
L 89.696486 -130.886231 
L 91.655946 -130.438715 
L 93.615405 -130.002825 
L 95.574865 -129.854873 
L 97.534324 -129.865183 
L 99.493784 -129.727042 
L 101.453243 -129.472581 
L 103.412703 -129.185783 
L 105.372162 -128.971426 
L 107.331622 -129.020603 
L 109.291081 -129.25351 
L 111.250541 -129.458074 
L 113.21 -129.571176 
L 115.169459 -129.638854 
L 117.128919 -129.664277 
L 119.088378 -129.654066 
L 121.047838 -129.494656 
L 123.007297 -129.207609 
L 124.966757 -128.880984 
L 126.926216 -128.583796 
L 128.885676 -128.437534 
L 130.845135 -128.479523 
L 132.804595 -128.523074 
L 134.764054 -128.407469 
L 136.723514 -128.183282 
L 138.682973 -127.962403 
L 140.642432 -127.876069 
L 142.601892 -127.950391 
L 144.561351 -128.049155 
L 146.520811 -128.188925 
L 148.48027 -128.365846 
L 150.43973 -128.414823 
L 152.399189 -128.352472 
L 154.358649 -128.299596 
L 156.318108 -128.28371 
L 158.277568 -128.283331 
L 160.237027 -128.334417 
L 162.196486 -128.554541 
L 164.155946 -128.973518 
L 166.115405 -129.39892 
L 168.074865 -129.567358 
L 170.034324 -129.323345 
L 171.993784 -128.90361 
L 173.953243 -128.617282 
L 175.912703 -128.515198 
L 177.872162 -128.461657 
L 179.831622 -128.273738 
L 181.791081 -128.163367 
L 183.750541 -129.388349 
L 185.71 -130.176764 
L 185.71 -130.823103 
L 185.71 -130.823103 
L 183.750541 -130.11541 
L 181.791081 -128.937657 
L 179.831622 -129.03464 
L 177.872162 -129.195227 
L 175.912703 -129.296917 
L 173.953243 -129.483504 
L 171.993784 -129.800044 
L 170.034324 -130.138001 
L 168.074865 -130.202621 
L 166.115405 -129.896178 
L 164.155946 -129.445511 
L 162.196486 -129.108972 
L 160.237027 -128.965206 
L 158.277568 -128.948183 
L 156.318108 -128.976168 
L 154.358649 -128.995225 
L 152.399189 -129.021761 
L 150.43973 -129.02637 
L 148.48027 -128.930231 
L 146.520811 -128.748117 
L 144.561351 -128.597104 
L 142.601892 -128.508048 
L 140.642432 -128.484268 
L 138.682973 -128.581075 
L 136.723514 -128.801104 
L 134.764054 -129.028389 
L 132.804595 -129.144753 
L 130.845135 -129.117985 
L 128.885676 -129.11441 
L 126.926216 -129.297357 
L 124.966757 -129.618831 
L 123.007297 -129.978124 
L 121.047838 -130.282802 
L 119.088378 -130.462797 
L 117.128919 -130.474183 
L 115.169459 -130.450704 
L 113.21 -130.423108 
L 111.250541 -130.349884 
L 109.291081 -130.188605 
L 107.331622 -130.041794 
L 105.372162 -130.105955 
L 103.412703 -130.423703 
L 101.453243 -130.770431 
L 99.493784 -130.891898 
L 97.534324 -130.823381 
L 95.574865 -130.766951 
L 93.615405 -130.93078 
L 91.655946 -131.334708 
L 89.696486 -131.847784 
L 87.737027 -132.198343 
L 85.777568 -132.177082 
L 83.818108 -132.073195 
L 81.858649 -132.168996 
L 79.899189 -132.49776 
L 77.93973 -133.143373 
L 75.98027 -134.260737 
L 74.020811 -136.014361 
L 72.061351 -138.64924 
L 70.101892 -141.869465 
L 68.142432 -144.921453 
L 66.182973 -146.514204 
L 64.223514 -145.382403 
L 62.264054 -142.082676 
L 60.304595 -138.442953 
L 58.345135 -136.30351 
L 56.385676 -136.76129 
L 54.426216 -139.990763 
L 52.466757 -144.72801 
L 50.507297 -148.785234 
L 48.547838 -149.466132 
L 46.588378 -145.976643 
L 44.628919 -141.035002 
L 42.669459 -136.925973 
L 40.71 -132.780247 
z
" id="mdb1858b190"/>
    </defs>
    <g clip-path="url(#p873df87159)">
     <use style="fill:#2f4858;fill-opacity:0.7;" x="0" xlink:href="#mdb1858b190" y="216"/>
    </g>
   </g>
   <g id="matplotlib.axis_1">
    <g id="xtick_1">
     <g id="line2d_1">
      <path clip-path="url(#p873df87159)" d="M 50.507297 94.83 
L 50.507297 22.56 
" style="fill:none;stroke:#b0b0b0;stroke-linecap:square;stroke-width:0.8;"/>
     </g>
     <g id="line2d_2">
      <defs>
       <path d="M 0 0 
L 0 3.5 
" id="m746024fe19" style="stroke:#000000;stroke-width:0.8;"/>
      </defs>
      <g>
       <use style="stroke:#000000;stroke-width:0.8;" x="50.507297" xlink:href="#m746024fe19" y="94.83"/>
      </g>
     </g>
    </g>
    <g id="xtick_2">
     <g id="line2d_3">
      <path clip-path="url(#p873df87159)" d="M 89.696486 94.83 
L 89.696486 22.56 
" style="fill:none;stroke:#b0b0b0;stroke-linecap:square;stroke-width:0.8;"/>
     </g>
     <g id="line2d_4">
      <g>
       <use style="stroke:#000000;stroke-width:0.8;" x="89.696486" xlink:href="#m746024fe19" y="94.83"/>
      </g>
     </g>
    </g>
    <g id="xtick_3">
     <g id="line2d_5">
      <path clip-path="url(#p873df87159)" d="M 128.885676 94.83 
L 128.885676 22.56 
" style="fill:none;stroke:#b0b0b0;stroke-linecap:square;stroke-width:0.8;"/>
     </g>
     <g id="line2d_6">
      <g>
       <use style="stroke:#000000;stroke-width:0.8;" x="128.885676" xlink:href="#m746024fe19" y="94.83"/>
      </g>
     </g>
    </g>
    <g id="xtick_4">
     <g id="line2d_7">
      <path clip-path="url(#p873df87159)" d="M 168.074865 94.83 
L 168.074865 22.56 
" style="fill:none;stroke:#b0b0b0;stroke-linecap:square;stroke-width:0.8;"/>
     </g>
     <g id="line2d_8">
      <g>
       <use style="stroke:#000000;stroke-width:0.8;" x="168.074865" xlink:href="#m746024fe19" y="94.83"/>
      </g>
     </g>
    </g>
   </g>
   <g id="matplotlib.axis_2">
    <g id="ytick_1">
     <g id="line2d_9">
      <path clip-path="url(#p873df87159)" d="M 33.46 91.545 
L 192.96 91.545 
" style="fill:none;stroke:#b0b0b0;stroke-linecap:square;stroke-width:0.8;"/>
     </g>
     <g id="line2d_10">
      <defs>
       <path d="M 0 0 
L -3.5 0 
" id="m2ad4f8581d" style="stroke:#000000;stroke-width:0.8;"/>
      </defs>
      <g>
       <use style="stroke:#000000;stroke-width:0.8;" x="33.46" xlink:href="#m2ad4f8581d" y="91.545"/>
      </g>
     </g>
     <g id="text_1">
      <!-- 0.00 -->
      <g transform="translate(8.6475 94.584375)scale(0.08 -0.08)">
       <defs>
        <path d="M 2034 4250 
Q 1547 4250 1301 3770 
Q 1056 3291 1056 2328 
Q 1056 1369 1301 889 
Q 1547 409 2034 409 
Q 2525 409 2770 889 
Q 3016 1369 3016 2328 
Q 3016 3291 2770 3770 
Q 2525 4250 2034 4250 
z
M 2034 4750 
Q 2819 4750 3233 4129 
Q 3647 3509 3647 2328 
Q 3647 1150 3233 529 
Q 2819 -91 2034 -91 
Q 1250 -91 836 529 
Q 422 1150 422 2328 
Q 422 3509 836 4129 
Q 1250 4750 2034 4750 
z
" id="DejaVuSans-30" transform="scale(0.015625)"/>
        <path d="M 684 794 
L 1344 794 
L 1344 0 
L 684 0 
L 684 794 
z
" id="DejaVuSans-2e" transform="scale(0.015625)"/>
       </defs>
       <use xlink:href="#DejaVuSans-30"/>
       <use x="63.623047" xlink:href="#DejaVuSans-2e"/>
       <use x="95.410156" xlink:href="#DejaVuSans-30"/>
       <use x="159.033203" xlink:href="#DejaVuSans-30"/>
      </g>
     </g>
    </g>
    <g id="ytick_2">
     <g id="line2d_11">
      <path clip-path="url(#p873df87159)" d="M 33.46 74.8746 
L 192.96 74.8746 
" style="fill:none;stroke:#b0b0b0;stroke-linecap:square;stroke-width:0.8;"/>
     </g>
     <g id="line2d_12">
      <g>
       <use style="stroke:#000000;stroke-width:0.8;" x="33.46" xlink:href="#m2ad4f8581d" y="74.8746"/>
      </g>
     </g>
     <g id="text_2">
      <!-- 0.25 -->
      <g transform="translate(8.6475 77.913975)scale(0.08 -0.08)">
       <defs>
        <path d="M 1228 531 
L 3431 531 
L 3431 0 
L 469 0 
L 469 531 
Q 828 903 1448 1529 
Q 2069 2156 2228 2338 
Q 2531 2678 2651 2914 
Q 2772 3150 2772 3378 
Q 2772 3750 2511 3984 
Q 2250 4219 1831 4219 
Q 1534 4219 1204 4116 
Q 875 4013 500 3803 
L 500 4441 
Q 881 4594 1212 4672 
Q 1544 4750 1819 4750 
Q 2544 4750 2975 4387 
Q 3406 4025 3406 3419 
Q 3406 3131 3298 2873 
Q 3191 2616 2906 2266 
Q 2828 2175 2409 1742 
Q 1991 1309 1228 531 
z
" id="DejaVuSans-32" transform="scale(0.015625)"/>
        <path d="M 691 4666 
L 3169 4666 
L 3169 4134 
L 1269 4134 
L 1269 2991 
Q 1406 3038 1543 3061 
Q 1681 3084 1819 3084 
Q 2600 3084 3056 2656 
Q 3513 2228 3513 1497 
Q 3513 744 3044 326 
Q 2575 -91 1722 -91 
Q 1428 -91 1123 -41 
Q 819 9 494 109 
L 494 744 
Q 775 591 1075 516 
Q 1375 441 1709 441 
Q 2250 441 2565 725 
Q 2881 1009 2881 1497 
Q 2881 1984 2565 2268 
Q 2250 2553 1709 2553 
Q 1456 2553 1204 2497 
Q 953 2441 691 2322 
L 691 4666 
z
" id="DejaVuSans-35" transform="scale(0.015625)"/>
       </defs>
       <use xlink:href="#DejaVuSans-30"/>
       <use x="63.623047" xlink:href="#DejaVuSans-2e"/>
       <use x="95.410156" xlink:href="#DejaVuSans-32"/>
       <use x="159.033203" xlink:href="#DejaVuSans-35"/>
      </g>
     </g>
    </g>
    <g id="ytick_3">
     <g id="line2d_13">
      <path clip-path="url(#p873df87159)" d="M 33.46 58.2042 
L 192.96 58.2042 
" style="fill:none;stroke:#b0b0b0;stroke-linecap:square;stroke-width:0.8;"/>
     </g>
     <g id="line2d_14">
      <g>
       <use style="stroke:#000000;stroke-width:0.8;" x="33.46" xlink:href="#m2ad4f8581d" y="58.2042"/>
      </g>
     </g>
     <g id="text_3">
      <!-- 0.50 -->
      <g transform="translate(8.6475 61.243575)scale(0.08 -0.08)">
       <use xlink:href="#DejaVuSans-30"/>
       <use x="63.623047" xlink:href="#DejaVuSans-2e"/>
       <use x="95.410156" xlink:href="#DejaVuSans-35"/>
       <use x="159.033203" xlink:href="#DejaVuSans-30"/>
      </g>
     </g>
    </g>
    <g id="ytick_4">
     <g id="line2d_15">
      <path clip-path="url(#p873df87159)" d="M 33.46 41.533799 
L 192.96 41.533799 
" style="fill:none;stroke:#b0b0b0;stroke-linecap:square;stroke-width:0.8;"/>
     </g>
     <g id="line2d_16">
      <g>
       <use style="stroke:#000000;stroke-width:0.8;" x="33.46" xlink:href="#m2ad4f8581d" y="41.533799"/>
      </g>
     </g>
     <g id="text_4">
      <!-- 0.75 -->
      <g transform="translate(8.6475 44.573174)scale(0.08 -0.08)">
       <defs>
        <path d="M 525 4666 
L 3525 4666 
L 3525 4397 
L 1831 0 
L 1172 0 
L 2766 4134 
L 525 4134 
L 525 4666 
z
" id="DejaVuSans-37" transform="scale(0.015625)"/>
       </defs>
       <use xlink:href="#DejaVuSans-30"/>
       <use x="63.623047" xlink:href="#DejaVuSans-2e"/>
       <use x="95.410156" xlink:href="#DejaVuSans-37"/>
       <use x="159.033203" xlink:href="#DejaVuSans-35"/>
      </g>
     </g>
    </g>
    <g id="ytick_5">
     <g id="line2d_17">
      <path clip-path="url(#p873df87159)" d="M 33.46 24.863399 
L 192.96 24.863399 
" style="fill:none;stroke:#b0b0b0;stroke-linecap:square;stroke-width:0.8;"/>
     </g>
     <g id="line2d_18">
      <g>
       <use style="stroke:#000000;stroke-width:0.8;" x="33.46" xlink:href="#m2ad4f8581d" y="24.863399"/>
      </g>
     </g>
     <g id="text_5">
      <!-- 1.00 -->
      <g transform="translate(8.6475 27.902774)scale(0.08 -0.08)">
       <defs>
        <path d="M 794 531 
L 1825 531 
L 1825 4091 
L 703 3866 
L 703 4441 
L 1819 4666 
L 2450 4666 
L 2450 531 
L 3481 531 
L 3481 0 
L 794 0 
L 794 531 
z
" id="DejaVuSans-31" transform="scale(0.015625)"/>
       </defs>
       <use xlink:href="#DejaVuSans-31"/>
       <use x="63.623047" xlink:href="#DejaVuSans-2e"/>
       <use x="95.410156" xlink:href="#DejaVuSans-30"/>
       <use x="159.033203" xlink:href="#DejaVuSans-30"/>
      </g>
     </g>
    </g>
    <g id="text_6">
     <!-- 1e−3 -->
     <g transform="translate(33.46 19.56)scale(0.08 -0.08)">
      <defs>
       <path d="M 3597 1894 
L 3597 1613 
L 953 1613 
Q 991 1019 1311 708 
Q 1631 397 2203 397 
Q 2534 397 2845 478 
Q 3156 559 3463 722 
L 3463 178 
Q 3153 47 2828 -22 
Q 2503 -91 2169 -91 
Q 1331 -91 842 396 
Q 353 884 353 1716 
Q 353 2575 817 3079 
Q 1281 3584 2069 3584 
Q 2775 3584 3186 3129 
Q 3597 2675 3597 1894 
z
M 3022 2063 
Q 3016 2534 2758 2815 
Q 2500 3097 2075 3097 
Q 1594 3097 1305 2825 
Q 1016 2553 972 2059 
L 3022 2063 
z
" id="DejaVuSans-65" transform="scale(0.015625)"/>
       <path d="M 678 2272 
L 4684 2272 
L 4684 1741 
L 678 1741 
L 678 2272 
z
" id="DejaVuSans-2212" transform="scale(0.015625)"/>
       <path d="M 2597 2516 
Q 3050 2419 3304 2112 
Q 3559 1806 3559 1356 
Q 3559 666 3084 287 
Q 2609 -91 1734 -91 
Q 1441 -91 1130 -33 
Q 819 25 488 141 
L 488 750 
Q 750 597 1062 519 
Q 1375 441 1716 441 
Q 2309 441 2620 675 
Q 2931 909 2931 1356 
Q 2931 1769 2642 2001 
Q 2353 2234 1838 2234 
L 1294 2234 
L 1294 2753 
L 1863 2753 
Q 2328 2753 2575 2939 
Q 2822 3125 2822 3475 
Q 2822 3834 2567 4026 
Q 2313 4219 1838 4219 
Q 1578 4219 1281 4162 
Q 984 4106 628 3988 
L 628 4550 
Q 988 4650 1302 4700 
Q 1616 4750 1894 4750 
Q 2613 4750 3031 4423 
Q 3450 4097 3450 3541 
Q 3450 3153 3228 2886 
Q 3006 2619 2597 2516 
z
" id="DejaVuSans-33" transform="scale(0.015625)"/>
      </defs>
      <use xlink:href="#DejaVuSans-31"/>
      <use x="63.623047" xlink:href="#DejaVuSans-65"/>
      <use x="125.146484" xlink:href="#DejaVuSans-2212"/>
      <use x="208.935547" xlink:href="#DejaVuSans-33"/>
     </g>
    </g>
   </g>
   <g id="line2d_19">
    <path clip-path="url(#p873df87159)" d="M 40.71 81.67887 
L 42.669459 78.136382 
L 44.628919 75.415708 
L 46.588378 71.345304 
L 48.547838 67.855459 
L 50.507297 67.665727 
L 52.466757 70.879764 
L 54.426216 74.994847 
L 56.385676 77.792625 
L 58.345135 78.138095 
L 60.304595 76.452169 
L 62.264054 74.133911 
L 64.223514 72.367203 
L 66.182973 72.322511 
L 68.142432 74.349461 
L 70.101892 77.519072 
L 72.061351 80.532303 
L 74.020811 82.450413 
L 75.98027 83.411538 
L 77.93973 83.875522 
L 79.899189 83.987193 
L 81.858649 83.717129 
L 83.818108 83.424059 
L 85.777568 83.592268 
L 87.737027 84.187995 
L 89.696486 85.028959 
L 91.655946 85.856702 
L 93.615405 86.294372 
L 95.574865 86.252398 
L 97.534324 85.894137 
L 99.493784 85.636685 
L 101.453243 85.763312 
L 103.412703 86.215431 
L 105.372162 86.722975 
L 107.331622 86.985647 
L 109.291081 87.046645 
L 111.250541 86.999422 
L 113.21 86.920486 
L 115.169459 86.857842 
L 117.128919 86.766859 
L 119.088378 86.603787 
L 121.047838 86.587802 
L 123.007297 86.888171 
L 124.966757 87.370826 
L 126.926216 87.753078 
L 128.885676 87.926072 
L 130.845135 87.85619 
L 132.804595 87.580356 
L 134.764054 87.288388 
L 136.723514 87.125191 
L 138.682973 87.108481 
L 140.642432 87.207034 
L 142.601892 87.388689 
L 144.561351 87.560417 
L 146.520811 87.657059 
L 148.48027 87.695307 
L 150.43973 87.76488 
L 152.399189 87.812253 
L 154.358649 87.696999 
L 156.318108 87.544324 
L 158.277568 87.524911 
L 160.237027 87.606475 
L 162.196486 87.679533 
L 164.155946 87.701826 
L 166.115405 87.668329 
L 168.074865 87.608382 
L 170.034324 87.577198 
L 171.993784 87.530107 
L 173.953243 87.466861 
L 175.912703 87.408659 
L 177.872162 87.373746 
L 179.831622 87.473242 
L 181.791081 87.51564 
L 183.750541 86.330263 
L 185.71 85.605776 
" style="fill:none;stroke:#d9a359;stroke-linecap:square;stroke-width:0.5;"/>
   </g>
   <g id="line2d_20">
    <path clip-path="url(#p873df87159)" d="M 40.71 83.248155 
L 42.669459 79.281994 
L 44.628919 75.484073 
L 46.588378 70.85917 
L 48.547838 67.81126 
L 50.507297 68.980445 
L 52.466757 73.432784 
L 54.426216 78.226677 
L 56.385676 81.140801 
L 58.345135 81.088842 
L 60.304595 78.530231 
L 62.264054 74.954111 
L 64.223514 72.03854 
L 66.182973 71.289545 
L 68.142432 73.127977 
L 70.101892 76.228148 
L 72.061351 79.243322 
L 74.020811 81.517423 
L 75.98027 82.907714 
L 77.93973 83.788016 
L 79.899189 84.345864 
L 81.858649 84.633121 
L 83.818108 84.695269 
L 85.777568 84.536241 
L 87.737027 84.405667 
L 89.696486 84.632992 
L 91.655946 85.113289 
L 93.615405 85.533197 
L 95.574865 85.689088 
L 97.534324 85.655718 
L 99.493784 85.69053 
L 101.453243 85.878494 
L 103.412703 86.195257 
L 105.372162 86.46131 
L 107.331622 86.468802 
L 109.291081 86.278943 
L 111.250541 86.096021 
L 113.21 86.002858 
L 115.169459 85.955221 
L 117.128919 85.93077 
L 119.088378 85.941569 
L 121.047838 86.111271 
L 123.007297 86.407134 
L 124.966757 86.750093 
L 126.926216 87.059423 
L 128.885676 87.224028 
L 130.845135 87.201246 
L 132.804595 87.166087 
L 134.764054 87.282071 
L 136.723514 87.507807 
L 138.682973 87.728261 
L 140.642432 87.819831 
L 142.601892 87.770781 
L 144.561351 87.67687 
L 146.520811 87.531479 
L 148.48027 87.351961 
L 150.43973 87.279404 
L 152.399189 87.312883 
L 154.358649 87.352589 
L 156.318108 87.370061 
L 158.277568 87.384243 
L 160.237027 87.350189 
L 162.196486 87.168243 
L 164.155946 86.790486 
L 166.115405 86.352451 
L 168.074865 86.115011 
L 170.034324 86.269327 
L 171.993784 86.648173 
L 173.953243 86.949607 
L 175.912703 87.093942 
L 177.872162 87.171558 
L 179.831622 87.345811 
L 181.791081 87.449488 
L 183.750541 86.248121 
L 185.71 85.500066 
" style="fill:none;stroke:#2f4858;stroke-linecap:square;stroke-width:0.5;"/>
   </g>
   <g id="line2d_21">
    <path clip-path="url(#p873df87159)" style="fill:none;stroke:#ff0000;stroke-linecap:square;stroke-width:2;"/>
   </g>
   <g id="patch_3">
    <path d="M 33.46 94.83 
L 192.96 94.83 
" style="fill:none;stroke:#000000;stroke-linecap:square;stroke-linejoin:miter;stroke-width:0.8;"/>
   </g>
   <g id="text_7">
    <!-- Acoustic Edges -->
    <g transform="translate(75.418594 16.56)scale(0.1 -0.1)">
     <defs>
      <path d="M 2188 4044 
L 1331 1722 
L 3047 1722 
L 2188 4044 
z
M 1831 4666 
L 2547 4666 
L 4325 0 
L 3669 0 
L 3244 1197 
L 1141 1197 
L 716 0 
L 50 0 
L 1831 4666 
z
" id="DejaVuSans-41" transform="scale(0.015625)"/>
      <path d="M 3122 3366 
L 3122 2828 
Q 2878 2963 2633 3030 
Q 2388 3097 2138 3097 
Q 1578 3097 1268 2742 
Q 959 2388 959 1747 
Q 959 1106 1268 751 
Q 1578 397 2138 397 
Q 2388 397 2633 464 
Q 2878 531 3122 666 
L 3122 134 
Q 2881 22 2623 -34 
Q 2366 -91 2075 -91 
Q 1284 -91 818 406 
Q 353 903 353 1747 
Q 353 2603 823 3093 
Q 1294 3584 2113 3584 
Q 2378 3584 2631 3529 
Q 2884 3475 3122 3366 
z
" id="DejaVuSans-63" transform="scale(0.015625)"/>
      <path d="M 1959 3097 
Q 1497 3097 1228 2736 
Q 959 2375 959 1747 
Q 959 1119 1226 758 
Q 1494 397 1959 397 
Q 2419 397 2687 759 
Q 2956 1122 2956 1747 
Q 2956 2369 2687 2733 
Q 2419 3097 1959 3097 
z
M 1959 3584 
Q 2709 3584 3137 3096 
Q 3566 2609 3566 1747 
Q 3566 888 3137 398 
Q 2709 -91 1959 -91 
Q 1206 -91 779 398 
Q 353 888 353 1747 
Q 353 2609 779 3096 
Q 1206 3584 1959 3584 
z
" id="DejaVuSans-6f" transform="scale(0.015625)"/>
      <path d="M 544 1381 
L 544 3500 
L 1119 3500 
L 1119 1403 
Q 1119 906 1312 657 
Q 1506 409 1894 409 
Q 2359 409 2629 706 
Q 2900 1003 2900 1516 
L 2900 3500 
L 3475 3500 
L 3475 0 
L 2900 0 
L 2900 538 
Q 2691 219 2414 64 
Q 2138 -91 1772 -91 
Q 1169 -91 856 284 
Q 544 659 544 1381 
z
M 1991 3584 
L 1991 3584 
z
" id="DejaVuSans-75" transform="scale(0.015625)"/>
      <path d="M 2834 3397 
L 2834 2853 
Q 2591 2978 2328 3040 
Q 2066 3103 1784 3103 
Q 1356 3103 1142 2972 
Q 928 2841 928 2578 
Q 928 2378 1081 2264 
Q 1234 2150 1697 2047 
L 1894 2003 
Q 2506 1872 2764 1633 
Q 3022 1394 3022 966 
Q 3022 478 2636 193 
Q 2250 -91 1575 -91 
Q 1294 -91 989 -36 
Q 684 19 347 128 
L 347 722 
Q 666 556 975 473 
Q 1284 391 1588 391 
Q 1994 391 2212 530 
Q 2431 669 2431 922 
Q 2431 1156 2273 1281 
Q 2116 1406 1581 1522 
L 1381 1569 
Q 847 1681 609 1914 
Q 372 2147 372 2553 
Q 372 3047 722 3315 
Q 1072 3584 1716 3584 
Q 2034 3584 2315 3537 
Q 2597 3491 2834 3397 
z
" id="DejaVuSans-73" transform="scale(0.015625)"/>
      <path d="M 1172 4494 
L 1172 3500 
L 2356 3500 
L 2356 3053 
L 1172 3053 
L 1172 1153 
Q 1172 725 1289 603 
Q 1406 481 1766 481 
L 2356 481 
L 2356 0 
L 1766 0 
Q 1100 0 847 248 
Q 594 497 594 1153 
L 594 3053 
L 172 3053 
L 172 3500 
L 594 3500 
L 594 4494 
L 1172 4494 
z
" id="DejaVuSans-74" transform="scale(0.015625)"/>
      <path d="M 603 3500 
L 1178 3500 
L 1178 0 
L 603 0 
L 603 3500 
z
M 603 4863 
L 1178 4863 
L 1178 4134 
L 603 4134 
L 603 4863 
z
" id="DejaVuSans-69" transform="scale(0.015625)"/>
      <path id="DejaVuSans-20" transform="scale(0.015625)"/>
      <path d="M 628 4666 
L 3578 4666 
L 3578 4134 
L 1259 4134 
L 1259 2753 
L 3481 2753 
L 3481 2222 
L 1259 2222 
L 1259 531 
L 3634 531 
L 3634 0 
L 628 0 
L 628 4666 
z
" id="DejaVuSans-45" transform="scale(0.015625)"/>
      <path d="M 2906 2969 
L 2906 4863 
L 3481 4863 
L 3481 0 
L 2906 0 
L 2906 525 
Q 2725 213 2448 61 
Q 2172 -91 1784 -91 
Q 1150 -91 751 415 
Q 353 922 353 1747 
Q 353 2572 751 3078 
Q 1150 3584 1784 3584 
Q 2172 3584 2448 3432 
Q 2725 3281 2906 2969 
z
M 947 1747 
Q 947 1113 1208 752 
Q 1469 391 1925 391 
Q 2381 391 2643 752 
Q 2906 1113 2906 1747 
Q 2906 2381 2643 2742 
Q 2381 3103 1925 3103 
Q 1469 3103 1208 2742 
Q 947 2381 947 1747 
z
" id="DejaVuSans-64" transform="scale(0.015625)"/>
      <path d="M 2906 1791 
Q 2906 2416 2648 2759 
Q 2391 3103 1925 3103 
Q 1463 3103 1205 2759 
Q 947 2416 947 1791 
Q 947 1169 1205 825 
Q 1463 481 1925 481 
Q 2391 481 2648 825 
Q 2906 1169 2906 1791 
z
M 3481 434 
Q 3481 -459 3084 -895 
Q 2688 -1331 1869 -1331 
Q 1566 -1331 1297 -1286 
Q 1028 -1241 775 -1147 
L 775 -588 
Q 1028 -725 1275 -790 
Q 1522 -856 1778 -856 
Q 2344 -856 2625 -561 
Q 2906 -266 2906 331 
L 2906 616 
Q 2728 306 2450 153 
Q 2172 0 1784 0 
Q 1141 0 747 490 
Q 353 981 353 1791 
Q 353 2603 747 3093 
Q 1141 3584 1784 3584 
Q 2172 3584 2450 3431 
Q 2728 3278 2906 2969 
L 2906 3500 
L 3481 3500 
L 3481 434 
z
" id="DejaVuSans-67" transform="scale(0.015625)"/>
     </defs>
     <use xlink:href="#DejaVuSans-41"/>
     <use x="66.658203" xlink:href="#DejaVuSans-63"/>
     <use x="121.638672" xlink:href="#DejaVuSans-6f"/>
     <use x="182.820312" xlink:href="#DejaVuSans-75"/>
     <use x="246.199219" xlink:href="#DejaVuSans-73"/>
     <use x="298.298828" xlink:href="#DejaVuSans-74"/>
     <use x="337.507812" xlink:href="#DejaVuSans-69"/>
     <use x="365.291016" xlink:href="#DejaVuSans-63"/>
     <use x="420.271484" xlink:href="#DejaVuSans-20"/>
     <use x="452.058594" xlink:href="#DejaVuSans-45"/>
     <use x="515.242188" xlink:href="#DejaVuSans-64"/>
     <use x="578.71875" xlink:href="#DejaVuSans-67"/>
     <use x="642.195312" xlink:href="#DejaVuSans-65"/>
     <use x="703.71875" xlink:href="#DejaVuSans-73"/>
    </g>
   </g>
  </g>
  <g id="axes_2">
   <g id="patch_4">
    <path d="M 33.46 193.16 
L 192.96 193.16 
L 192.96 120.89 
L 33.46 120.89 
z
" style="fill:none;"/>
   </g>
   <g id="PolyCollection_3">
    <defs>
     <path d="M 40.71 -49.260229 
L 40.71 -49.019764 
L 42.669459 -57.609973 
L 44.628919 -60.635506 
L 46.588378 -59.601423 
L 48.547838 -54.508827 
L 50.507297 -49.022398 
L 52.466757 -46.474137 
L 54.426216 -47.682561 
L 56.385676 -52.436051 
L 58.345135 -59.492498 
L 60.304595 -66.500507 
L 62.264054 -71.010956 
L 64.223514 -71.555463 
L 66.182973 -68.590014 
L 68.142432 -63.743221 
L 70.101892 -59.669038 
L 72.061351 -58.704872 
L 74.020811 -59.680764 
L 75.98027 -58.726184 
L 77.93973 -54.469952 
L 79.899189 -49.216692 
L 81.858649 -45.343309 
L 83.818108 -43.149248 
L 85.777568 -41.95696 
L 87.737027 -41.343322 
L 89.696486 -41.113732 
L 91.655946 -40.828044 
L 93.615405 -40.035771 
L 95.574865 -39.186635 
L 97.534324 -38.56768 
L 99.493784 -37.995592 
L 101.453243 -37.523845 
L 103.412703 -37.289497 
L 105.372162 -37.393168 
L 107.331622 -38.83004 
L 109.291081 -42.293781 
L 111.250541 -46.090773 
L 113.21 -49.022679 
L 115.169459 -50.882201 
L 117.128919 -49.224792 
L 119.088378 -46.292315 
L 121.047838 -46.296448 
L 123.007297 -48.953639 
L 124.966757 -51.371901 
L 126.926216 -51.797776 
L 128.885676 -50.526939 
L 130.845135 -48.343317 
L 132.804595 -45.826367 
L 134.764054 -44.348454 
L 136.723514 -45.103164 
L 138.682973 -48.326795 
L 140.642432 -53.339245 
L 142.601892 -57.821093 
L 144.561351 -60.106486 
L 146.520811 -60.198618 
L 148.48027 -57.875001 
L 150.43973 -53.377914 
L 152.399189 -48.273714 
L 154.358649 -44.298308 
L 156.318108 -41.971092 
L 158.277568 -40.249853 
L 160.237027 -38.180745 
L 162.196486 -36.313939 
L 164.155946 -35.685288 
L 166.115405 -36.307322 
L 168.074865 -37.283498 
L 170.034324 -37.796274 
L 171.993784 -37.711486 
L 173.953243 -37.274229 
L 175.912703 -36.554351 
L 177.872162 -35.930812 
L 179.831622 -35.877282 
L 181.791081 -36.042751 
L 183.750541 -36.914802 
L 185.71 -36.242611 
L 185.71 -38.474833 
L 185.71 -38.474833 
L 183.750541 -39.066336 
L 181.791081 -38.383915 
L 179.831622 -38.775378 
L 177.872162 -39.265036 
L 175.912703 -39.967507 
L 173.953243 -40.577297 
L 171.993784 -40.708638 
L 170.034324 -40.38513 
L 168.074865 -39.886751 
L 166.115405 -39.652249 
L 164.155946 -40.186702 
L 162.196486 -41.56615 
L 160.237027 -43.470343 
L 158.277568 -45.717469 
L 156.318108 -48.990369 
L 154.358649 -53.727102 
L 152.399189 -59.343714 
L 150.43973 -64.609466 
L 148.48027 -68.222038 
L 146.520811 -69.068837 
L 144.561351 -66.918204 
L 142.601892 -62.907367 
L 140.642432 -58.070935 
L 138.682973 -53.899215 
L 136.723514 -52.076112 
L 134.764054 -52.615402 
L 132.804595 -54.833963 
L 130.845135 -57.780977 
L 128.885676 -60.065363 
L 126.926216 -60.92183 
L 124.966757 -60.12764 
L 123.007297 -57.8412 
L 121.047838 -55.545304 
L 119.088378 -55.15312 
L 117.128919 -56.87322 
L 115.169459 -57.325056 
L 113.21 -54.158916 
L 111.250541 -50.230731 
L 109.291081 -46.198722 
L 107.331622 -42.842024 
L 105.372162 -41.437782 
L 103.412703 -41.175681 
L 101.453243 -41.167805 
L 99.493784 -41.368429 
L 97.534324 -41.672715 
L 95.574865 -42.153049 
L 93.615405 -42.898574 
L 91.655946 -43.769255 
L 89.696486 -44.396703 
L 87.737027 -45.108796 
L 85.777568 -46.399362 
L 83.818108 -49.071577 
L 81.858649 -53.686401 
L 79.899189 -59.503137 
L 77.93973 -64.803804 
L 75.98027 -67.734429 
L 74.020811 -69.124033 
L 72.061351 -70.661155 
L 70.101892 -73.228838 
L 68.142432 -77.005795 
L 66.182973 -80.816989 
L 64.223514 -82.428121 
L 62.264054 -80.344879 
L 60.304595 -74.67723 
L 58.345135 -66.658107 
L 56.385676 -58.670729 
L 54.426216 -53.642818 
L 52.466757 -53.395693 
L 50.507297 -57.286098 
L 48.547838 -63.087083 
L 46.588378 -67.072841 
L 44.628919 -65.681459 
L 42.669459 -59.479554 
L 40.71 -49.260229 
z
" id="m531aa476a5"/>
    </defs>
    <g clip-path="url(#p6bcb087f4e)">
     <use style="fill:#d9a359;fill-opacity:0.7;" x="0" xlink:href="#m531aa476a5" y="216"/>
    </g>
   </g>
   <g id="PolyCollection_4">
    <defs>
     <path d="M 40.71 -56.766189 
L 40.71 -56.343664 
L 42.669459 -67.227274 
L 44.628919 -71.622086 
L 46.588378 -72.314948 
L 48.547838 -67.723882 
L 50.507297 -60.307982 
L 52.466757 -53.661801 
L 54.426216 -51.045329 
L 56.385676 -54.813015 
L 58.345135 -64.069045 
L 60.304595 -73.717518 
L 62.264054 -78.868442 
L 64.223514 -78.429537 
L 66.182973 -73.709839 
L 68.142432 -67.432062 
L 70.101892 -62.49514 
L 72.061351 -60.139396 
L 74.020811 -59.311683 
L 75.98027 -57.094015 
L 77.93973 -52.215178 
L 79.899189 -46.959794 
L 81.858649 -43.585669 
L 83.818108 -42.527414 
L 85.777568 -42.762137 
L 87.737027 -43.314095 
L 89.696486 -43.559123 
L 91.655946 -42.632558 
L 93.615405 -40.48623 
L 95.574865 -38.208658 
L 97.534324 -37.226711 
L 99.493784 -37.68459 
L 101.453243 -38.706628 
L 103.412703 -39.327933 
L 105.372162 -39.356377 
L 107.331622 -40.545616 
L 109.291081 -44.385146 
L 111.250541 -48.35759 
L 113.21 -50.531835 
L 115.169459 -51.667739 
L 117.128919 -49.050657 
L 119.088378 -44.845608 
L 121.047838 -44.258058 
L 123.007297 -46.294837 
L 124.966757 -47.91568 
L 126.926216 -47.904613 
L 128.885676 -46.546128 
L 130.845135 -44.47742 
L 132.804595 -42.318176 
L 134.764054 -40.681519 
L 136.723514 -39.996092 
L 138.682973 -41.174133 
L 140.642432 -44.679297 
L 142.601892 -49.083472 
L 144.561351 -52.335993 
L 146.520811 -53.329929 
L 148.48027 -51.992394 
L 150.43973 -49.132983 
L 152.399189 -45.823483 
L 154.358649 -43.000134 
L 156.318108 -41.191008 
L 158.277568 -40.009303 
L 160.237027 -38.73865 
L 162.196486 -37.503146 
L 164.155946 -37.003287 
L 166.115405 -37.071163 
L 168.074865 -37.319719 
L 170.034324 -37.825583 
L 171.993784 -38.331149 
L 173.953243 -38.466936 
L 175.912703 -38.374845 
L 177.872162 -38.346394 
L 179.831622 -38.291983 
L 181.791081 -37.763239 
L 183.750541 -38.027446 
L 185.71 -37.057436 
L 185.71 -39.844631 
L 185.71 -39.844631 
L 183.750541 -40.966267 
L 181.791081 -40.711147 
L 179.831622 -41.367686 
L 177.872162 -41.602366 
L 175.912703 -41.623955 
L 173.953243 -41.461629 
L 171.993784 -41.1314 
L 170.034324 -41.007752 
L 168.074865 -41.134859 
L 166.115405 -41.408963 
L 164.155946 -41.735737 
L 162.196486 -42.155941 
L 160.237027 -43.031993 
L 158.277568 -44.491462 
L 156.318108 -46.594666 
L 154.358649 -49.682534 
L 152.399189 -53.502679 
L 150.43973 -57.07985 
L 148.48027 -59.218717 
L 146.520811 -59.18072 
L 144.561351 -56.717534 
L 142.601892 -52.559478 
L 140.642432 -48.061872 
L 138.682973 -44.958529 
L 136.723514 -44.32056 
L 134.764054 -45.68557 
L 132.804595 -48.044557 
L 130.845135 -50.87162 
L 128.885676 -53.503349 
L 126.926216 -54.902837 
L 124.966757 -54.693508 
L 123.007297 -53.504878 
L 121.047838 -52.768383 
L 119.088378 -54.02873 
L 117.128919 -57.502427 
L 115.169459 -59.173903 
L 113.21 -56.577801 
L 111.250541 -53.026478 
L 109.291081 -48.467121 
L 107.331622 -44.267296 
L 105.372162 -42.567694 
L 103.412703 -42.001028 
L 101.453243 -41.184903 
L 99.493784 -40.973029 
L 97.534324 -42.070511 
L 95.574865 -44.063571 
L 93.615405 -46.085912 
L 91.655946 -47.308482 
L 89.696486 -47.428804 
L 87.737027 -47.245853 
L 85.777568 -47.595688 
L 83.818108 -49.150084 
L 81.858649 -52.286688 
L 79.899189 -56.802061 
L 77.93973 -61.711389 
L 75.98027 -65.971045 
L 74.020811 -69.337638 
L 72.061351 -72.565856 
L 70.101892 -76.909891 
L 68.142432 -82.745134 
L 66.182973 -88.750557 
L 64.223514 -91.825 
L 62.264054 -89.74532 
L 60.304595 -82.489653 
L 58.345135 -72.411771 
L 56.385676 -64.082118 
L 54.426216 -61.341767 
L 52.466757 -64.779375 
L 50.507297 -72.193175 
L 48.547838 -79.691338 
L 46.588378 -83.290026 
L 44.628919 -79.79613 
L 42.669459 -70.437143 
L 40.71 -56.766189 
z
" id="m3bce1fb7d4"/>
    </defs>
    <g clip-path="url(#p6bcb087f4e)">
     <use style="fill:#2f4858;fill-opacity:0.7;" x="0" xlink:href="#m3bce1fb7d4" y="216"/>
    </g>
   </g>
   <g id="matplotlib.axis_3">
    <g id="xtick_5">
     <g id="line2d_22">
      <path clip-path="url(#p6bcb087f4e)" d="M 50.507297 193.16 
L 50.507297 120.89 
" style="fill:none;stroke:#b0b0b0;stroke-linecap:square;stroke-width:0.8;"/>
     </g>
     <g id="line2d_23">
      <g>
       <use style="stroke:#000000;stroke-width:0.8;" x="50.507297" xlink:href="#m746024fe19" y="193.16"/>
      </g>
     </g>
     <g id="text_8">
      <!-- 0.0 -->
      <g transform="translate(44.146047 206.23875)scale(0.08 -0.08)">
       <use xlink:href="#DejaVuSans-30"/>
       <use x="63.623047" xlink:href="#DejaVuSans-2e"/>
       <use x="95.410156" xlink:href="#DejaVuSans-30"/>
      </g>
     </g>
    </g>
    <g id="xtick_6">
     <g id="line2d_24">
      <path clip-path="url(#p6bcb087f4e)" d="M 89.696486 193.16 
L 89.696486 120.89 
" style="fill:none;stroke:#b0b0b0;stroke-linecap:square;stroke-width:0.8;"/>
     </g>
     <g id="line2d_25">
      <g>
       <use style="stroke:#000000;stroke-width:0.8;" x="89.696486" xlink:href="#m746024fe19" y="193.16"/>
      </g>
     </g>
     <g id="text_9">
      <!-- 0.2 -->
      <g transform="translate(83.335236 206.23875)scale(0.08 -0.08)">
       <use xlink:href="#DejaVuSans-30"/>
       <use x="63.623047" xlink:href="#DejaVuSans-2e"/>
       <use x="95.410156" xlink:href="#DejaVuSans-32"/>
      </g>
     </g>
    </g>
    <g id="xtick_7">
     <g id="line2d_26">
      <path clip-path="url(#p6bcb087f4e)" d="M 128.885676 193.16 
L 128.885676 120.89 
" style="fill:none;stroke:#b0b0b0;stroke-linecap:square;stroke-width:0.8;"/>
     </g>
     <g id="line2d_27">
      <g>
       <use style="stroke:#000000;stroke-width:0.8;" x="128.885676" xlink:href="#m746024fe19" y="193.16"/>
      </g>
     </g>
     <g id="text_10">
      <!-- 0.4 -->
      <g transform="translate(122.524426 206.23875)scale(0.08 -0.08)">
       <defs>
        <path d="M 2419 4116 
L 825 1625 
L 2419 1625 
L 2419 4116 
z
M 2253 4666 
L 3047 4666 
L 3047 1625 
L 3713 1625 
L 3713 1100 
L 3047 1100 
L 3047 0 
L 2419 0 
L 2419 1100 
L 313 1100 
L 313 1709 
L 2253 4666 
z
" id="DejaVuSans-34" transform="scale(0.015625)"/>
       </defs>
       <use xlink:href="#DejaVuSans-30"/>
       <use x="63.623047" xlink:href="#DejaVuSans-2e"/>
       <use x="95.410156" xlink:href="#DejaVuSans-34"/>
      </g>
     </g>
    </g>
    <g id="xtick_8">
     <g id="line2d_28">
      <path clip-path="url(#p6bcb087f4e)" d="M 168.074865 193.16 
L 168.074865 120.89 
" style="fill:none;stroke:#b0b0b0;stroke-linecap:square;stroke-width:0.8;"/>
     </g>
     <g id="line2d_29">
      <g>
       <use style="stroke:#000000;stroke-width:0.8;" x="168.074865" xlink:href="#m746024fe19" y="193.16"/>
      </g>
     </g>
     <g id="text_11">
      <!-- 0.6 -->
      <g transform="translate(161.713615 206.23875)scale(0.08 -0.08)">
       <defs>
        <path d="M 2113 2584 
Q 1688 2584 1439 2293 
Q 1191 2003 1191 1497 
Q 1191 994 1439 701 
Q 1688 409 2113 409 
Q 2538 409 2786 701 
Q 3034 994 3034 1497 
Q 3034 2003 2786 2293 
Q 2538 2584 2113 2584 
z
M 3366 4563 
L 3366 3988 
Q 3128 4100 2886 4159 
Q 2644 4219 2406 4219 
Q 1781 4219 1451 3797 
Q 1122 3375 1075 2522 
Q 1259 2794 1537 2939 
Q 1816 3084 2150 3084 
Q 2853 3084 3261 2657 
Q 3669 2231 3669 1497 
Q 3669 778 3244 343 
Q 2819 -91 2113 -91 
Q 1303 -91 875 529 
Q 447 1150 447 2328 
Q 447 3434 972 4092 
Q 1497 4750 2381 4750 
Q 2619 4750 2861 4703 
Q 3103 4656 3366 4563 
z
" id="DejaVuSans-36" transform="scale(0.015625)"/>
       </defs>
       <use xlink:href="#DejaVuSans-30"/>
       <use x="63.623047" xlink:href="#DejaVuSans-2e"/>
       <use x="95.410156" xlink:href="#DejaVuSans-36"/>
      </g>
     </g>
    </g>
   </g>
   <g id="matplotlib.axis_4">
    <g id="ytick_6">
     <g id="line2d_30">
      <path clip-path="url(#p6bcb087f4e)" d="M 33.46 189.875 
L 192.96 189.875 
" style="fill:none;stroke:#b0b0b0;stroke-linecap:square;stroke-width:0.8;"/>
     </g>
     <g id="line2d_31">
      <g>
       <use style="stroke:#000000;stroke-width:0.8;" x="33.46" xlink:href="#m2ad4f8581d" y="189.875"/>
      </g>
     </g>
     <g id="text_12">
      <!-- 0.00 -->
      <g transform="translate(8.6475 192.914375)scale(0.08 -0.08)">
       <use xlink:href="#DejaVuSans-30"/>
       <use x="63.623047" xlink:href="#DejaVuSans-2e"/>
       <use x="95.410156" xlink:href="#DejaVuSans-30"/>
       <use x="159.033203" xlink:href="#DejaVuSans-30"/>
      </g>
     </g>
    </g>
    <g id="ytick_7">
     <g id="line2d_32">
      <path clip-path="url(#p6bcb087f4e)" d="M 33.46 173.2046 
L 192.96 173.2046 
" style="fill:none;stroke:#b0b0b0;stroke-linecap:square;stroke-width:0.8;"/>
     </g>
     <g id="line2d_33">
      <g>
       <use style="stroke:#000000;stroke-width:0.8;" x="33.46" xlink:href="#m2ad4f8581d" y="173.2046"/>
      </g>
     </g>
     <g id="text_13">
      <!-- 0.25 -->
      <g transform="translate(8.6475 176.243975)scale(0.08 -0.08)">
       <use xlink:href="#DejaVuSans-30"/>
       <use x="63.623047" xlink:href="#DejaVuSans-2e"/>
       <use x="95.410156" xlink:href="#DejaVuSans-32"/>
       <use x="159.033203" xlink:href="#DejaVuSans-35"/>
      </g>
     </g>
    </g>
    <g id="ytick_8">
     <g id="line2d_34">
      <path clip-path="url(#p6bcb087f4e)" d="M 33.46 156.5342 
L 192.96 156.5342 
" style="fill:none;stroke:#b0b0b0;stroke-linecap:square;stroke-width:0.8;"/>
     </g>
     <g id="line2d_35">
      <g>
       <use style="stroke:#000000;stroke-width:0.8;" x="33.46" xlink:href="#m2ad4f8581d" y="156.5342"/>
      </g>
     </g>
     <g id="text_14">
      <!-- 0.50 -->
      <g transform="translate(8.6475 159.573575)scale(0.08 -0.08)">
       <use xlink:href="#DejaVuSans-30"/>
       <use x="63.623047" xlink:href="#DejaVuSans-2e"/>
       <use x="95.410156" xlink:href="#DejaVuSans-35"/>
       <use x="159.033203" xlink:href="#DejaVuSans-30"/>
      </g>
     </g>
    </g>
    <g id="ytick_9">
     <g id="line2d_36">
      <path clip-path="url(#p6bcb087f4e)" d="M 33.46 139.863799 
L 192.96 139.863799 
" style="fill:none;stroke:#b0b0b0;stroke-linecap:square;stroke-width:0.8;"/>
     </g>
     <g id="line2d_37">
      <g>
       <use style="stroke:#000000;stroke-width:0.8;" x="33.46" xlink:href="#m2ad4f8581d" y="139.863799"/>
      </g>
     </g>
     <g id="text_15">
      <!-- 0.75 -->
      <g transform="translate(8.6475 142.903174)scale(0.08 -0.08)">
       <use xlink:href="#DejaVuSans-30"/>
       <use x="63.623047" xlink:href="#DejaVuSans-2e"/>
       <use x="95.410156" xlink:href="#DejaVuSans-37"/>
       <use x="159.033203" xlink:href="#DejaVuSans-35"/>
      </g>
     </g>
    </g>
    <g id="ytick_10">
     <g id="line2d_38">
      <path clip-path="url(#p6bcb087f4e)" d="M 33.46 123.193399 
L 192.96 123.193399 
" style="fill:none;stroke:#b0b0b0;stroke-linecap:square;stroke-width:0.8;"/>
     </g>
     <g id="line2d_39">
      <g>
       <use style="stroke:#000000;stroke-width:0.8;" x="33.46" xlink:href="#m2ad4f8581d" y="123.193399"/>
      </g>
     </g>
     <g id="text_16">
      <!-- 1.00 -->
      <g transform="translate(8.6475 126.232774)scale(0.08 -0.08)">
       <use xlink:href="#DejaVuSans-31"/>
       <use x="63.623047" xlink:href="#DejaVuSans-2e"/>
       <use x="95.410156" xlink:href="#DejaVuSans-30"/>
       <use x="159.033203" xlink:href="#DejaVuSans-30"/>
      </g>
     </g>
    </g>
    <g id="text_17">
     <!-- 1e−3 -->
     <g transform="translate(33.46 117.89)scale(0.08 -0.08)">
      <use xlink:href="#DejaVuSans-31"/>
      <use x="63.623047" xlink:href="#DejaVuSans-65"/>
      <use x="125.146484" xlink:href="#DejaVuSans-2212"/>
      <use x="208.935547" xlink:href="#DejaVuSans-33"/>
     </g>
    </g>
   </g>
   <g id="line2d_40">
    <path clip-path="url(#p6bcb087f4e)" d="M 40.71 166.860003 
L 42.669459 157.455237 
L 44.628919 152.841518 
L 46.588378 152.662868 
L 48.547838 157.202045 
L 50.507297 162.845752 
L 52.466757 166.065085 
L 54.426216 165.337311 
L 56.385676 160.44661 
L 58.345135 152.924698 
L 60.304595 145.411131 
L 62.264054 140.322083 
L 64.223514 139.008208 
L 66.182973 141.296498 
L 68.142432 145.625492 
L 70.101892 149.551062 
L 72.061351 151.316986 
L 74.020811 151.597601 
L 75.98027 152.769693 
L 77.93973 156.363122 
L 79.899189 161.640085 
L 81.858649 166.485145 
L 83.818108 169.889587 
L 85.777568 171.821839 
L 87.737027 172.773941 
L 89.696486 173.244782 
L 91.655946 173.70135 
L 93.615405 174.532827 
L 95.574865 175.330158 
L 97.534324 175.879803 
L 99.493784 176.31799 
L 101.453243 176.654175 
L 103.412703 176.767411 
L 105.372162 176.584525 
L 107.331622 175.163968 
L 109.291081 171.753748 
L 111.250541 167.839248 
L 113.21 164.409203 
L 115.169459 161.896372 
L 117.128919 162.950994 
L 119.088378 165.277282 
L 121.047838 165.079124 
L 123.007297 162.602581 
L 124.966757 160.250229 
L 126.926216 159.640197 
L 128.885676 160.703849 
L 130.845135 162.937853 
L 132.804595 165.669835 
L 134.764054 167.518072 
L 136.723514 167.410362 
L 138.682973 164.886995 
L 140.642432 160.29491 
L 142.601892 155.63577 
L 144.561351 152.487655 
L 146.520811 151.366273 
L 148.48027 152.951481 
L 150.43973 157.00631 
L 152.399189 162.191286 
L 154.358649 166.987295 
L 156.318108 170.51927 
L 158.277568 173.016339 
L 160.237027 175.174456 
L 162.196486 177.059956 
L 164.155946 178.064005 
L 166.115405 178.020215 
L 168.074865 177.414876 
L 170.034324 176.909298 
L 171.993784 176.789938 
L 173.953243 177.074237 
L 175.912703 177.739071 
L 177.872162 178.402076 
L 179.831622 178.67367 
L 181.791081 178.786667 
L 183.750541 178.009431 
L 185.71 178.641278 
" style="fill:none;stroke:#d9a359;stroke-linecap:square;stroke-width:0.5;"/>
   </g>
   <g id="line2d_41">
    <path clip-path="url(#p6bcb087f4e)" d="M 40.71 159.445073 
L 42.669459 147.167791 
L 44.628919 140.290892 
L 46.588378 138.197513 
L 48.547838 142.29239 
L 50.507297 149.749422 
L 52.466757 156.779412 
L 54.426216 159.806452 
L 56.385676 156.552434 
L 58.345135 147.759592 
L 60.304595 137.896414 
L 62.264054 131.693119 
L 64.223514 130.872732 
L 66.182973 134.769802 
L 68.142432 140.911402 
L 70.101892 146.297484 
L 72.061351 149.647374 
L 74.020811 151.675339 
L 75.98027 154.46747 
L 77.93973 159.036716 
L 79.899189 164.119073 
L 81.858649 168.063822 
L 83.818108 170.161251 
L 85.777568 170.821088 
L 87.737027 170.720026 
L 89.696486 170.506036 
L 91.655946 171.02948 
L 93.615405 172.713929 
L 95.574865 174.863885 
L 97.534324 176.351389 
L 99.493784 176.671191 
L 101.453243 176.054235 
L 103.412703 175.335519 
L 105.372162 175.037964 
L 107.331622 173.593544 
L 109.291081 169.573867 
L 111.250541 165.307966 
L 113.21 162.445182 
L 115.169459 160.579179 
L 117.128919 162.723458 
L 119.088378 166.562831 
L 121.047838 167.48678 
L 123.007297 166.100143 
L 124.966757 164.695406 
L 126.926216 164.596275 
L 128.885676 165.975262 
L 130.845135 168.32548 
L 132.804595 170.818633 
L 134.764054 172.816456 
L 136.723514 173.841674 
L 138.682973 172.933669 
L 140.642432 169.629415 
L 142.601892 165.178525 
L 144.561351 161.473237 
L 146.520811 159.744676 
L 148.48027 160.394444 
L 150.43973 162.893584 
L 152.399189 166.336919 
L 154.358649 169.658666 
L 156.318108 172.107163 
L 158.277568 173.749618 
L 160.237027 175.114678 
L 162.196486 176.170456 
L 164.155946 176.630488 
L 166.115405 176.759937 
L 168.074865 176.772711 
L 170.034324 176.583332 
L 171.993784 176.268725 
L 173.953243 176.035718 
L 175.912703 176.0006 
L 177.872162 176.02562 
L 179.831622 176.170165 
L 181.791081 176.762807 
L 183.750541 176.503144 
L 185.71 177.548966 
" style="fill:none;stroke:#2f4858;stroke-linecap:square;stroke-width:0.5;"/>
   </g>
   <g id="line2d_42">
    <path clip-path="url(#p6bcb087f4e)" d="M 40.71 189.875 
L 42.669459 189.875 
L 44.628919 189.875 
L 46.588378 189.875 
L 48.547838 189.875 
L 50.507297 189.875 
L 52.466757 189.875 
L 54.426216 189.875 
L 56.385676 189.875 
L 58.345135 189.875 
L 60.304595 189.875 
L 62.264054 189.875 
L 64.223514 189.875 
L 66.182973 189.875 
L 68.142432 189.875 
L 70.101892 189.875 
L 72.061351 189.875 
M 119.088378 189.875 
L 121.047838 189.875 
L 123.007297 189.875 
L 124.966757 189.875 
L 126.926216 189.875 
L 128.885676 189.875 
L 130.845135 189.875 
L 132.804595 189.875 
L 134.764054 189.875 
L 136.723514 189.875 
L 138.682973 189.875 
L 140.642432 189.875 
L 142.601892 189.875 
L 144.561351 189.875 
L 146.520811 189.875 
L 148.48027 189.875 
L 150.43973 189.875 
L 152.399189 189.875 
L 154.358649 189.875 
L 156.318108 189.875 
L 158.277568 189.875 
" style="fill:none;stroke:#ff0000;stroke-linecap:square;stroke-width:2;"/>
   </g>
   <g id="patch_5">
    <path d="M 33.46 193.16 
L 192.96 193.16 
" style="fill:none;stroke:#000000;stroke-linecap:square;stroke-linejoin:miter;stroke-width:0.8;"/>
   </g>
   <g id="text_18">
    <!-- Phoneme Features -->
    <g transform="translate(66.69125 114.89)scale(0.1 -0.1)">
     <defs>
      <path d="M 1259 4147 
L 1259 2394 
L 2053 2394 
Q 2494 2394 2734 2622 
Q 2975 2850 2975 3272 
Q 2975 3691 2734 3919 
Q 2494 4147 2053 4147 
L 1259 4147 
z
M 628 4666 
L 2053 4666 
Q 2838 4666 3239 4311 
Q 3641 3956 3641 3272 
Q 3641 2581 3239 2228 
Q 2838 1875 2053 1875 
L 1259 1875 
L 1259 0 
L 628 0 
L 628 4666 
z
" id="DejaVuSans-50" transform="scale(0.015625)"/>
      <path d="M 3513 2113 
L 3513 0 
L 2938 0 
L 2938 2094 
Q 2938 2591 2744 2837 
Q 2550 3084 2163 3084 
Q 1697 3084 1428 2787 
Q 1159 2491 1159 1978 
L 1159 0 
L 581 0 
L 581 4863 
L 1159 4863 
L 1159 2956 
Q 1366 3272 1645 3428 
Q 1925 3584 2291 3584 
Q 2894 3584 3203 3211 
Q 3513 2838 3513 2113 
z
" id="DejaVuSans-68" transform="scale(0.015625)"/>
      <path d="M 3513 2113 
L 3513 0 
L 2938 0 
L 2938 2094 
Q 2938 2591 2744 2837 
Q 2550 3084 2163 3084 
Q 1697 3084 1428 2787 
Q 1159 2491 1159 1978 
L 1159 0 
L 581 0 
L 581 3500 
L 1159 3500 
L 1159 2956 
Q 1366 3272 1645 3428 
Q 1925 3584 2291 3584 
Q 2894 3584 3203 3211 
Q 3513 2838 3513 2113 
z
" id="DejaVuSans-6e" transform="scale(0.015625)"/>
      <path d="M 3328 2828 
Q 3544 3216 3844 3400 
Q 4144 3584 4550 3584 
Q 5097 3584 5394 3201 
Q 5691 2819 5691 2113 
L 5691 0 
L 5113 0 
L 5113 2094 
Q 5113 2597 4934 2840 
Q 4756 3084 4391 3084 
Q 3944 3084 3684 2787 
Q 3425 2491 3425 1978 
L 3425 0 
L 2847 0 
L 2847 2094 
Q 2847 2600 2669 2842 
Q 2491 3084 2119 3084 
Q 1678 3084 1418 2786 
Q 1159 2488 1159 1978 
L 1159 0 
L 581 0 
L 581 3500 
L 1159 3500 
L 1159 2956 
Q 1356 3278 1631 3431 
Q 1906 3584 2284 3584 
Q 2666 3584 2933 3390 
Q 3200 3197 3328 2828 
z
" id="DejaVuSans-6d" transform="scale(0.015625)"/>
      <path d="M 628 4666 
L 3309 4666 
L 3309 4134 
L 1259 4134 
L 1259 2759 
L 3109 2759 
L 3109 2228 
L 1259 2228 
L 1259 0 
L 628 0 
L 628 4666 
z
" id="DejaVuSans-46" transform="scale(0.015625)"/>
      <path d="M 2194 1759 
Q 1497 1759 1228 1600 
Q 959 1441 959 1056 
Q 959 750 1161 570 
Q 1363 391 1709 391 
Q 2188 391 2477 730 
Q 2766 1069 2766 1631 
L 2766 1759 
L 2194 1759 
z
M 3341 1997 
L 3341 0 
L 2766 0 
L 2766 531 
Q 2569 213 2275 61 
Q 1981 -91 1556 -91 
Q 1019 -91 701 211 
Q 384 513 384 1019 
Q 384 1609 779 1909 
Q 1175 2209 1959 2209 
L 2766 2209 
L 2766 2266 
Q 2766 2663 2505 2880 
Q 2244 3097 1772 3097 
Q 1472 3097 1187 3025 
Q 903 2953 641 2809 
L 641 3341 
Q 956 3463 1253 3523 
Q 1550 3584 1831 3584 
Q 2591 3584 2966 3190 
Q 3341 2797 3341 1997 
z
" id="DejaVuSans-61" transform="scale(0.015625)"/>
      <path d="M 2631 2963 
Q 2534 3019 2420 3045 
Q 2306 3072 2169 3072 
Q 1681 3072 1420 2755 
Q 1159 2438 1159 1844 
L 1159 0 
L 581 0 
L 581 3500 
L 1159 3500 
L 1159 2956 
Q 1341 3275 1631 3429 
Q 1922 3584 2338 3584 
Q 2397 3584 2469 3576 
Q 2541 3569 2628 3553 
L 2631 2963 
z
" id="DejaVuSans-72" transform="scale(0.015625)"/>
     </defs>
     <use xlink:href="#DejaVuSans-50"/>
     <use x="60.302734" xlink:href="#DejaVuSans-68"/>
     <use x="123.681641" xlink:href="#DejaVuSans-6f"/>
     <use x="184.863281" xlink:href="#DejaVuSans-6e"/>
     <use x="248.242188" xlink:href="#DejaVuSans-65"/>
     <use x="309.765625" xlink:href="#DejaVuSans-6d"/>
     <use x="407.177734" xlink:href="#DejaVuSans-65"/>
     <use x="468.701172" xlink:href="#DejaVuSans-20"/>
     <use x="500.488281" xlink:href="#DejaVuSans-46"/>
     <use x="552.507812" xlink:href="#DejaVuSans-65"/>
     <use x="614.03125" xlink:href="#DejaVuSans-61"/>
     <use x="675.310547" xlink:href="#DejaVuSans-74"/>
     <use x="714.519531" xlink:href="#DejaVuSans-75"/>
     <use x="777.898438" xlink:href="#DejaVuSans-72"/>
     <use x="816.761719" xlink:href="#DejaVuSans-65"/>
     <use x="878.285156" xlink:href="#DejaVuSans-73"/>
    </g>
   </g>
  </g>
  <g id="text_19">
   <!-- Time (sec) -->
   <g transform="translate(69.414375 216)scale(0.12 -0.12)">
    <defs>
     <path d="M -19 4666 
L 3928 4666 
L 3928 4134 
L 2272 4134 
L 2272 0 
L 1638 0 
L 1638 4134 
L -19 4134 
L -19 4666 
z
" id="DejaVuSans-54" transform="scale(0.015625)"/>
     <path d="M 1984 4856 
Q 1566 4138 1362 3434 
Q 1159 2731 1159 2009 
Q 1159 1288 1364 580 
Q 1569 -128 1984 -844 
L 1484 -844 
Q 1016 -109 783 600 
Q 550 1309 550 2009 
Q 550 2706 781 3412 
Q 1013 4119 1484 4856 
L 1984 4856 
z
" id="DejaVuSans-28" transform="scale(0.015625)"/>
     <path d="M 513 4856 
L 1013 4856 
Q 1481 4119 1714 3412 
Q 1947 2706 1947 2009 
Q 1947 1309 1714 600 
Q 1481 -109 1013 -844 
L 513 -844 
Q 928 -128 1133 580 
Q 1338 1288 1338 2009 
Q 1338 2731 1133 3434 
Q 928 4138 513 4856 
z
" id="DejaVuSans-29" transform="scale(0.015625)"/>
    </defs>
    <use xlink:href="#DejaVuSans-54"/>
    <use x="57.958984" xlink:href="#DejaVuSans-69"/>
    <use x="85.742188" xlink:href="#DejaVuSans-6d"/>
    <use x="183.154297" xlink:href="#DejaVuSans-65"/>
    <use x="244.677734" xlink:href="#DejaVuSans-20"/>
    <use x="276.464844" xlink:href="#DejaVuSans-28"/>
    <use x="315.478516" xlink:href="#DejaVuSans-73"/>
    <use x="367.578125" xlink:href="#DejaVuSans-65"/>
    <use x="429.101562" xlink:href="#DejaVuSans-63"/>
    <use x="484.082031" xlink:href="#DejaVuSans-29"/>
   </g>
  </g>
  <g id="text_20">
   <!-- Power of Weights $\mathregular{\sqrt{w^{2}}}$ -->
   <g transform="translate(15.36 175.74)rotate(-90)scale(0.12 -0.12)">
    <defs>
     <path d="M 269 3500 
L 844 3500 
L 1563 769 
L 2278 3500 
L 2956 3500 
L 3675 769 
L 4391 3500 
L 4966 3500 
L 4050 0 
L 3372 0 
L 2619 2869 
L 1863 0 
L 1184 0 
L 269 3500 
z
" id="DejaVuSans-77" transform="scale(0.015625)"/>
     <path d="M 2375 4863 
L 2375 4384 
L 1825 4384 
Q 1516 4384 1395 4259 
Q 1275 4134 1275 3809 
L 1275 3500 
L 2222 3500 
L 2222 3053 
L 1275 3053 
L 1275 0 
L 697 0 
L 697 3053 
L 147 3053 
L 147 3500 
L 697 3500 
L 697 3744 
Q 697 4328 969 4595 
Q 1241 4863 1831 4863 
L 2375 4863 
z
" id="DejaVuSans-66" transform="scale(0.015625)"/>
     <path d="M 213 4666 
L 850 4666 
L 1831 722 
L 2809 4666 
L 3519 4666 
L 4500 722 
L 5478 4666 
L 6119 4666 
L 4947 0 
L 4153 0 
L 3169 4050 
L 2175 0 
L 1381 0 
L 213 4666 
z
" id="DejaVuSans-57" transform="scale(0.015625)"/>
     <path d="M 6970 9933 
L 3373 -1888 
L 3104 -1888 
L 1626 2918 
Q 1555 3149 1465 3251 
Q 1376 3354 1229 3354 
Q 1011 3354 794 3181 
L 717 3309 
L 1766 4115 
L 1926 4115 
L 3379 -602 
L 3405 -602 
L 6605 9933 
L 6970 9933 
z
" id="STIXSizeOneSym-Regular-221a" transform="scale(0.015625)"/>
    </defs>
    <use transform="translate(0 0.09375)" xlink:href="#DejaVuSans-50"/>
    <use transform="translate(60.302734 0.09375)" xlink:href="#DejaVuSans-6f"/>
    <use transform="translate(121.484375 0.09375)" xlink:href="#DejaVuSans-77"/>
    <use transform="translate(203.271484 0.09375)" xlink:href="#DejaVuSans-65"/>
    <use transform="translate(264.794922 0.09375)" xlink:href="#DejaVuSans-72"/>
    <use transform="translate(305.908203 0.09375)" xlink:href="#DejaVuSans-20"/>
    <use transform="translate(337.695312 0.09375)" xlink:href="#DejaVuSans-6f"/>
    <use transform="translate(398.876953 0.09375)" xlink:href="#DejaVuSans-66"/>
    <use transform="translate(434.082031 0.09375)" xlink:href="#DejaVuSans-20"/>
    <use transform="translate(465.869141 0.09375)" xlink:href="#DejaVuSans-57"/>
    <use transform="translate(564.746094 0.09375)" xlink:href="#DejaVuSans-65"/>
    <use transform="translate(626.269531 0.09375)" xlink:href="#DejaVuSans-69"/>
    <use transform="translate(654.052734 0.09375)" xlink:href="#DejaVuSans-67"/>
    <use transform="translate(717.529297 0.09375)" xlink:href="#DejaVuSans-68"/>
    <use transform="translate(780.908203 0.09375)" xlink:href="#DejaVuSans-74"/>
    <use transform="translate(820.117188 0.09375)" xlink:href="#DejaVuSans-73"/>
    <use transform="translate(872.216797 0.09375)" xlink:href="#DejaVuSans-20"/>
    <use transform="translate(904.003906 19.5625)scale(0.657728)" xlink:href="#STIXSizeOneSym-Regular-221a"/>
    <use transform="translate(986.001648 0.515625)" xlink:href="#DejaVuSans-77"/>
    <use transform="translate(1068.745789 38.796875)scale(0.7)" xlink:href="#DejaVuSans-32"/>
    <path d="M 973.501648 115.5 
L 973.501648 121.75 
L 1128.516296 121.75 
L 1128.516296 115.5 
L 973.501648 115.5 
z
"/>
   </g>
  </g>
 </g>
 <defs>
  <clipPath id="p873df87159">
   <rect height="72.27" width="159.5" x="33.46" y="22.56"/>
  </clipPath>
  <clipPath id="p6bcb087f4e">
   <rect height="72.27" width="159.5" x="33.46" y="120.89"/>
  </clipPath>
 </defs>
</svg>
