<?xml version="1.0" encoding="utf-8" standalone="no"?>
<!DOCTYPE svg PUBLIC "-//W3C//DTD SVG 1.1//EN"
  "http://www.w3.org/Graphics/SVG/1.1/DTD/svg11.dtd">
<svg height="216pt" version="1.1" viewBox="0 0 201.6 216" width="201.6pt" xmlns="http://www.w3.org/2000/svg" xmlns:xlink="http://www.w3.org/1999/xlink">
 <metadata>
  <rdf:RDF xmlns:cc="http://creativecommons.org/ns#" xmlns:dc="http://purl.org/dc/elements/1.1/" xmlns:rdf="http://www.w3.org/1999/02/22-rdf-syntax-ns#">
   <cc:Work>
    <dc:type rdf:resource="http://purl.org/dc/dcmitype/StillImage"/>
    <dc:date>2026-02-12T14:23:47.733298</dc:date>
    <dc:format>image/svg+xml</dc:format>
    <dc:creator>
     <cc:Agent>
      <dc:title>Matplotlib v3.4.2, https://matplotlib.org/</dc:title>
     </cc:Agent>
    </dc:creator>
   </cc:Work>
  </rdf:RDF>
 </metadata>
 <defs>
  <style type="text/css">*{stroke-linecap:butt;stroke-linejoin:round;}</style>
 </defs>
 <g id="figure_1">
  <g id="patch_1">
   <path d="M 0 216 
L 201.6 216 
L 201.6 0 
L 0 0 
z
" style="fill:none;"/>
  </g>
  <g id="axes_1">
   <g id="patch_2">
    <path d="M 28.42 94.83 
L 192.96 94.83 
L 192.96 22.56 
L 28.42 22.56 
z
" style="fill:none;"/>
   </g>
   <g id="PolyCollection_1">
    <defs>
     <path d="M 35.899091 -131.247483 
L 35.899091 -131.20136 
L 37.920467 -134.220707 
L 39.941843 -136.967728 
L 41.963219 -140.372673 
L 43.984595 -142.408756 
L 46.005971 -141.069657 
L 48.027346 -137.204372 
L 50.048722 -133.359864 
L 52.070098 -131.327081 
L 54.091474 -131.78458 
L 56.11285 -134.136667 
L 58.134226 -136.920986 
L 60.155602 -138.932172 
L 62.176978 -139.206458 
L 64.198354 -137.531013 
L 66.21973 -135.029356 
L 68.241106 -132.792617 
L 70.262482 -131.283198 
L 72.283857 -130.470855 
L 74.305233 -129.950451 
L 76.326609 -129.596577 
L 78.347985 -129.414811 
L 80.369361 -129.37514 
L 82.390737 -129.544912 
L 84.412113 -129.758192 
L 86.433489 -129.678286 
L 88.454865 -129.308069 
L 90.476241 -128.924203 
L 92.497617 -128.775713 
L 94.518993 -128.786594 
L 96.540369 -128.690791 
L 98.561744 -128.484322 
L 100.58312 -128.2639 
L 102.604496 -128.10845 
L 104.625872 -128.171959 
L 106.647248 -128.366113 
L 108.668624 -128.526198 
L 110.69 -128.62759 
L 112.711376 -128.670977 
L 114.732752 -128.674127 
L 116.754128 -128.670577 
L 118.775504 -128.541935 
L 120.79688 -128.298945 
L 122.818256 -128.033202 
L 124.839631 -127.802035 
L 126.861007 -127.683633 
L 128.882383 -127.720545 
L 130.903759 -127.783609 
L 132.925135 -127.707437 
L 134.946511 -127.522284 
L 136.967887 -127.322065 
L 138.989263 -127.232228 
L 141.010639 -127.284142 
L 143.032015 -127.387449 
L 145.053391 -127.523098 
L 147.074767 -127.662745 
L 149.096143 -127.70966 
L 151.117518 -127.658948 
L 153.138894 -127.595716 
L 155.16027 -127.564854 
L 157.181646 -127.550213 
L 159.203022 -127.590549 
L 161.224398 -127.803251 
L 163.245774 -128.183018 
L 165.26715 -128.549291 
L 167.288526 -128.668095 
L 169.309902 -128.461624 
L 171.331278 -128.124065 
L 173.352654 -127.896787 
L 175.374029 -127.816581 
L 177.395405 -127.763443 
L 179.416781 -127.59578 
L 181.438157 -127.495123 
L 183.459533 -128.506207 
L 185.480909 -129.160379 
L 185.480909 -129.692964 
L 185.480909 -129.692964 
L 183.459533 -129.100737 
L 181.438157 -128.119518 
L 179.416781 -128.208378 
L 177.395405 -128.350506 
L 175.374029 -128.443201 
L 173.352654 -128.602994 
L 171.331278 -128.868335 
L 169.309902 -129.139054 
L 167.288526 -129.189227 
L 165.26715 -128.951994 
L 163.245774 -128.561719 
L 161.224398 -128.255479 
L 159.203022 -128.111974 
L 157.181646 -128.106859 
L 155.16027 -128.15228 
L 153.138894 -128.184237 
L 151.117518 -128.212215 
L 149.096143 -128.209197 
L 147.074767 -128.125867 
L 145.053391 -127.976677 
L 143.032015 -127.82933 
L 141.010639 -127.738926 
L 138.989263 -127.737786 
L 136.967887 -127.833593 
L 134.946511 -128.027441 
L 132.925135 -128.210159 
L 130.903759 -128.286945 
L 128.882383 -128.23831 
L 126.861007 -128.228897 
L 124.839631 -128.381202 
L 122.818256 -128.63438 
L 120.79688 -128.925608 
L 118.775504 -129.18378 
L 116.754128 -129.324049 
L 114.732752 -129.33126 
L 112.711376 -129.325551 
L 110.69 -129.313323 
L 108.668624 -129.246717 
L 106.647248 -129.117244 
L 104.625872 -128.998374 
L 102.604496 -129.029132 
L 100.58312 -129.26202 
L 98.561744 -129.523749 
L 96.540369 -129.619887 
L 94.518993 -129.564902 
L 92.497617 -129.535706 
L 90.476241 -129.690078 
L 88.454865 -130.033879 
L 86.433489 -130.456917 
L 84.412113 -130.729151 
L 82.390737 -130.681337 
L 80.369361 -130.588503 
L 78.347985 -130.690652 
L 76.326609 -130.955035 
L 74.305233 -131.446523 
L 72.283857 -132.333752 
L 70.262482 -133.724977 
L 68.241106 -135.806281 
L 66.21973 -138.374717 
L 64.198354 -140.80299 
L 62.176978 -142.078569 
L 60.155602 -141.199405 
L 58.134226 -138.588219 
L 56.11285 -135.705513 
L 54.091474 -134.022451 
L 52.070098 -134.377533 
L 50.048722 -136.911673 
L 48.027346 -140.662818 
L 46.005971 -143.904627 
L 43.984595 -144.475666 
L 41.963219 -141.734266 
L 39.941843 -137.811445 
L 37.920467 -134.558356 
L 35.899091 -131.247483 
z
" id="mfbe00b913f"/>
    </defs>
    <g clip-path="url(#p2971fa15b7)">
     <use style="fill:#2f4858;fill-opacity:0.7;" x="0" xlink:href="#mfbe00b913f" y="216"/>
    </g>
   </g>
   <g id="PolyCollection_2">
    <defs>
     <path d="M 35.899091 -131.403882 
L 35.899091 -131.338282 
L 37.920467 -133.321901 
L 39.941843 -134.738501 
L 41.963219 -136.04759 
L 43.984595 -135.456247 
L 46.005971 -133.093242 
L 48.027346 -130.69426 
L 50.048722 -130.181702 
L 52.070098 -132.361336 
L 54.091474 -136.660051 
L 56.11285 -141.456227 
L 58.134226 -144.601337 
L 60.155602 -144.899852 
L 62.176978 -142.713409 
L 64.198354 -139.26744 
L 66.21973 -136.041814 
L 68.241106 -133.632783 
L 70.262482 -132.282308 
L 72.283857 -131.737707 
L 74.305233 -131.333062 
L 76.326609 -130.94141 
L 78.347985 -130.443548 
L 80.369361 -129.715845 
L 82.390737 -129.19208 
L 84.412113 -129.028445 
L 86.433489 -128.934925 
L 88.454865 -128.928278 
L 90.476241 -129.099737 
L 92.497617 -129.329176 
L 94.518993 -129.427885 
L 96.540369 -129.283702 
L 98.561744 -128.866276 
L 100.58312 -128.304177 
L 102.604496 -127.852803 
L 104.625872 -127.731688 
L 106.647248 -127.894766 
L 108.668624 -128.080146 
L 110.69 -128.15126 
L 112.711376 -128.139116 
L 114.732752 -128.056328 
L 116.754128 -127.941296 
L 118.775504 -127.774063 
L 120.79688 -127.506166 
L 122.818256 -127.232106 
L 124.839631 -127.075259 
L 126.861007 -127.088718 
L 128.882383 -127.272726 
L 130.903759 -127.631575 
L 132.925135 -127.98837 
L 134.946511 -128.04187 
L 136.967887 -127.766903 
L 138.989263 -127.353581 
L 141.010639 -127.04918 
L 143.032015 -126.982293 
L 145.053391 -127.085546 
L 147.074767 -127.250333 
L 149.096143 -127.412803 
L 151.117518 -127.588181 
L 153.138894 -127.736742 
L 155.16027 -127.778852 
L 157.181646 -127.806883 
L 159.203022 -127.864634 
L 161.224398 -127.890072 
L 163.245774 -127.856589 
L 165.26715 -127.814862 
L 167.288526 -127.741295 
L 169.309902 -127.586777 
L 171.331278 -127.478889 
L 173.352654 -127.501071 
L 175.374029 -127.569717 
L 177.395405 -127.581407 
L 179.416781 -127.465008 
L 181.438157 -127.45177 
L 183.459533 -128.356439 
L 185.480909 -128.784836 
L 185.480909 -129.153805 
L 185.480909 -129.153805 
L 183.459533 -128.755992 
L 181.438157 -127.889675 
L 179.416781 -127.932938 
L 177.395405 -128.04422 
L 175.374029 -128.002578 
L 173.352654 -127.949243 
L 171.331278 -127.981669 
L 169.309902 -128.110653 
L 167.288526 -128.263667 
L 165.26715 -128.325821 
L 163.245774 -128.321412 
L 161.224398 -128.312317 
L 159.203022 -128.325866 
L 157.181646 -128.37998 
L 155.16027 -128.387003 
L 153.138894 -128.285937 
L 151.117518 -128.090306 
L 149.096143 -127.84022 
L 147.074767 -127.634271 
L 145.053391 -127.474124 
L 143.032015 -127.439678 
L 141.010639 -127.615589 
L 138.989263 -127.969132 
L 136.967887 -128.360805 
L 134.946511 -128.536064 
L 132.925135 -128.403502 
L 130.903759 -128.03274 
L 128.882383 -127.650833 
L 126.861007 -127.488806 
L 124.839631 -127.607472 
L 122.818256 -127.961106 
L 120.79688 -128.399024 
L 118.775504 -128.772681 
L 116.754128 -128.950527 
L 114.732752 -128.955824 
L 112.711376 -128.891959 
L 110.69 -128.797443 
L 108.668624 -128.706707 
L 106.647248 -128.620517 
L 104.625872 -128.609094 
L 102.604496 -128.83229 
L 100.58312 -129.311947 
L 98.561744 -129.877147 
L 96.540369 -130.257431 
L 94.518993 -130.349873 
L 92.497617 -130.254496 
L 90.476241 -130.103632 
L 88.454865 -129.998336 
L 86.433489 -130.075144 
L 84.412113 -130.309207 
L 82.390737 -130.65082 
L 80.369361 -131.18648 
L 78.347985 -131.871217 
L 76.326609 -132.420098 
L 74.305233 -132.906553 
L 72.283857 -133.71193 
L 70.262482 -134.924116 
L 68.241106 -136.979899 
L 66.21973 -140.190156 
L 64.198354 -144.126611 
L 62.176978 -147.748373 
L 60.155602 -149.517517 
L 58.134226 -148.166563 
L 56.11285 -143.791253 
L 54.091474 -138.077663 
L 52.070098 -133.693467 
L 50.048722 -132.206024 
L 48.027346 -133.249058 
L 46.005971 -135.656553 
L 43.984595 -137.634771 
L 41.963219 -137.698325 
L 39.941843 -135.9242 
L 37.920467 -133.806696 
L 35.899091 -131.403882 
z
" id="m391382f59c"/>
    </defs>
    <g clip-path="url(#p2971fa15b7)">
     <use style="fill:#719e87;fill-opacity:0.7;" x="0" xlink:href="#m391382f59c" y="216"/>
    </g>
   </g>
   <g id="matplotlib.axis_1">
    <g id="xtick_1">
     <g id="line2d_1">
      <path clip-path="url(#p2971fa15b7)" d="M 46.005971 94.83 
L 46.005971 22.56 
" style="fill:none;stroke:#b0b0b0;stroke-linecap:square;stroke-width:0.8;"/>
     </g>
     <g id="line2d_2">
      <defs>
       <path d="M 0 0 
L 0 3.5 
" id="mc3ae68b256" style="stroke:#000000;stroke-width:0.8;"/>
      </defs>
      <g>
       <use style="stroke:#000000;stroke-width:0.8;" x="46.005971" xlink:href="#mc3ae68b256" y="94.83"/>
      </g>
     </g>
    </g>
    <g id="xtick_2">
     <g id="line2d_3">
      <path clip-path="url(#p2971fa15b7)" d="M 86.433489 94.83 
L 86.433489 22.56 
" style="fill:none;stroke:#b0b0b0;stroke-linecap:square;stroke-width:0.8;"/>
     </g>
     <g id="line2d_4">
      <g>
       <use style="stroke:#000000;stroke-width:0.8;" x="86.433489" xlink:href="#mc3ae68b256" y="94.83"/>
      </g>
     </g>
    </g>
    <g id="xtick_3">
     <g id="line2d_5">
      <path clip-path="url(#p2971fa15b7)" d="M 126.861007 94.83 
L 126.861007 22.56 
" style="fill:none;stroke:#b0b0b0;stroke-linecap:square;stroke-width:0.8;"/>
     </g>
     <g id="line2d_6">
      <g>
       <use style="stroke:#000000;stroke-width:0.8;" x="126.861007" xlink:href="#mc3ae68b256" y="94.83"/>
      </g>
     </g>
    </g>
    <g id="xtick_4">
     <g id="line2d_7">
      <path clip-path="url(#p2971fa15b7)" d="M 167.288526 94.83 
L 167.288526 22.56 
" style="fill:none;stroke:#b0b0b0;stroke-linecap:square;stroke-width:0.8;"/>
     </g>
     <g id="line2d_8">
      <g>
       <use style="stroke:#000000;stroke-width:0.8;" x="167.288526" xlink:href="#mc3ae68b256" y="94.83"/>
      </g>
     </g>
    </g>
   </g>
   <g id="matplotlib.axis_2">
    <g id="ytick_1">
     <g id="line2d_9">
      <path clip-path="url(#p2971fa15b7)" d="M 28.42 91.545 
L 192.96 91.545 
" style="fill:none;stroke:#b0b0b0;stroke-linecap:square;stroke-width:0.8;"/>
     </g>
     <g id="line2d_10">
      <defs>
       <path d="M 0 0 
L -3.5 0 
" id="mbc4d8b1ad5" style="stroke:#000000;stroke-width:0.8;"/>
      </defs>
      <g>
       <use style="stroke:#000000;stroke-width:0.8;" x="28.42" xlink:href="#mbc4d8b1ad5" y="91.545"/>
      </g>
     </g>
     <g id="text_1">
      <!-- 0.0 -->
      <g transform="translate(8.6975 94.584375)scale(0.08 -0.08)">
       <defs>
        <path d="M 2034 4250 
Q 1547 4250 1301 3770 
Q 1056 3291 1056 2328 
Q 1056 1369 1301 889 
Q 1547 409 2034 409 
Q 2525 409 2770 889 
Q 3016 1369 3016 2328 
Q 3016 3291 2770 3770 
Q 2525 4250 2034 4250 
z
M 2034 4750 
Q 2819 4750 3233 4129 
Q 3647 3509 3647 2328 
Q 3647 1150 3233 529 
Q 2819 -91 2034 -91 
Q 1250 -91 836 529 
Q 422 1150 422 2328 
Q 422 3509 836 4129 
Q 1250 4750 2034 4750 
z
" id="DejaVuSans-30" transform="scale(0.015625)"/>
        <path d="M 684 794 
L 1344 794 
L 1344 0 
L 684 0 
L 684 794 
z
" id="DejaVuSans-2e" transform="scale(0.015625)"/>
       </defs>
       <use xlink:href="#DejaVuSans-30"/>
       <use x="63.623047" xlink:href="#DejaVuSans-2e"/>
       <use x="95.410156" xlink:href="#DejaVuSans-30"/>
      </g>
     </g>
    </g>
    <g id="ytick_2">
     <g id="line2d_11">
      <path clip-path="url(#p2971fa15b7)" d="M 28.42 75.623761 
L 192.96 75.623761 
" style="fill:none;stroke:#b0b0b0;stroke-linecap:square;stroke-width:0.8;"/>
     </g>
     <g id="line2d_12">
      <g>
       <use style="stroke:#000000;stroke-width:0.8;" x="28.42" xlink:href="#mbc4d8b1ad5" y="75.623761"/>
      </g>
     </g>
     <g id="text_2">
      <!-- 0.3 -->
      <g transform="translate(8.6975 78.663136)scale(0.08 -0.08)">
       <defs>
        <path d="M 2597 2516 
Q 3050 2419 3304 2112 
Q 3559 1806 3559 1356 
Q 3559 666 3084 287 
Q 2609 -91 1734 -91 
Q 1441 -91 1130 -33 
Q 819 25 488 141 
L 488 750 
Q 750 597 1062 519 
Q 1375 441 1716 441 
Q 2309 441 2620 675 
Q 2931 909 2931 1356 
Q 2931 1769 2642 2001 
Q 2353 2234 1838 2234 
L 1294 2234 
L 1294 2753 
L 1863 2753 
Q 2328 2753 2575 2939 
Q 2822 3125 2822 3475 
Q 2822 3834 2567 4026 
Q 2313 4219 1838 4219 
Q 1578 4219 1281 4162 
Q 984 4106 628 3988 
L 628 4550 
Q 988 4650 1302 4700 
Q 1616 4750 1894 4750 
Q 2613 4750 3031 4423 
Q 3450 4097 3450 3541 
Q 3450 3153 3228 2886 
Q 3006 2619 2597 2516 
z
" id="DejaVuSans-33" transform="scale(0.015625)"/>
       </defs>
       <use xlink:href="#DejaVuSans-30"/>
       <use x="63.623047" xlink:href="#DejaVuSans-2e"/>
       <use x="95.410156" xlink:href="#DejaVuSans-33"/>
      </g>
     </g>
    </g>
    <g id="ytick_3">
     <g id="line2d_13">
      <path clip-path="url(#p2971fa15b7)" d="M 28.42 59.702522 
L 192.96 59.702522 
" style="fill:none;stroke:#b0b0b0;stroke-linecap:square;stroke-width:0.8;"/>
     </g>
     <g id="line2d_14">
      <g>
       <use style="stroke:#000000;stroke-width:0.8;" x="28.42" xlink:href="#mbc4d8b1ad5" y="59.702522"/>
      </g>
     </g>
     <g id="text_3">
      <!-- 0.6 -->
      <g transform="translate(8.6975 62.741897)scale(0.08 -0.08)">
       <defs>
        <path d="M 2113 2584 
Q 1688 2584 1439 2293 
Q 1191 2003 1191 1497 
Q 1191 994 1439 701 
Q 1688 409 2113 409 
Q 2538 409 2786 701 
Q 3034 994 3034 1497 
Q 3034 2003 2786 2293 
Q 2538 2584 2113 2584 
z
M 3366 4563 
L 3366 3988 
Q 3128 4100 2886 4159 
Q 2644 4219 2406 4219 
Q 1781 4219 1451 3797 
Q 1122 3375 1075 2522 
Q 1259 2794 1537 2939 
Q 1816 3084 2150 3084 
Q 2853 3084 3261 2657 
Q 3669 2231 3669 1497 
Q 3669 778 3244 343 
Q 2819 -91 2113 -91 
Q 1303 -91 875 529 
Q 447 1150 447 2328 
Q 447 3434 972 4092 
Q 1497 4750 2381 4750 
Q 2619 4750 2861 4703 
Q 3103 4656 3366 4563 
z
" id="DejaVuSans-36" transform="scale(0.015625)"/>
       </defs>
       <use xlink:href="#DejaVuSans-30"/>
       <use x="63.623047" xlink:href="#DejaVuSans-2e"/>
       <use x="95.410156" xlink:href="#DejaVuSans-36"/>
      </g>
     </g>
    </g>
    <g id="ytick_4">
     <g id="line2d_15">
      <path clip-path="url(#p2971fa15b7)" d="M 28.42 43.781282 
L 192.96 43.781282 
" style="fill:none;stroke:#b0b0b0;stroke-linecap:square;stroke-width:0.8;"/>
     </g>
     <g id="line2d_16">
      <g>
       <use style="stroke:#000000;stroke-width:0.8;" x="28.42" xlink:href="#mbc4d8b1ad5" y="43.781282"/>
      </g>
     </g>
     <g id="text_4">
      <!-- 0.9 -->
      <g transform="translate(8.6975 46.820657)scale(0.08 -0.08)">
       <defs>
        <path d="M 703 97 
L 703 672 
Q 941 559 1184 500 
Q 1428 441 1663 441 
Q 2288 441 2617 861 
Q 2947 1281 2994 2138 
Q 2813 1869 2534 1725 
Q 2256 1581 1919 1581 
Q 1219 1581 811 2004 
Q 403 2428 403 3163 
Q 403 3881 828 4315 
Q 1253 4750 1959 4750 
Q 2769 4750 3195 4129 
Q 3622 3509 3622 2328 
Q 3622 1225 3098 567 
Q 2575 -91 1691 -91 
Q 1453 -91 1209 -44 
Q 966 3 703 97 
z
M 1959 2075 
Q 2384 2075 2632 2365 
Q 2881 2656 2881 3163 
Q 2881 3666 2632 3958 
Q 2384 4250 1959 4250 
Q 1534 4250 1286 3958 
Q 1038 3666 1038 3163 
Q 1038 2656 1286 2365 
Q 1534 2075 1959 2075 
z
" id="DejaVuSans-39" transform="scale(0.015625)"/>
       </defs>
       <use xlink:href="#DejaVuSans-30"/>
       <use x="63.623047" xlink:href="#DejaVuSans-2e"/>
       <use x="95.410156" xlink:href="#DejaVuSans-39"/>
      </g>
     </g>
    </g>
    <g id="ytick_5">
     <g id="line2d_17">
      <path clip-path="url(#p2971fa15b7)" d="M 28.42 27.860043 
L 192.96 27.860043 
" style="fill:none;stroke:#b0b0b0;stroke-linecap:square;stroke-width:0.8;"/>
     </g>
     <g id="line2d_18">
      <g>
       <use style="stroke:#000000;stroke-width:0.8;" x="28.42" xlink:href="#mbc4d8b1ad5" y="27.860043"/>
      </g>
     </g>
     <g id="text_5">
      <!-- 1.2 -->
      <g transform="translate(8.6975 30.899418)scale(0.08 -0.08)">
       <defs>
        <path d="M 794 531 
L 1825 531 
L 1825 4091 
L 703 3866 
L 703 4441 
L 1819 4666 
L 2450 4666 
L 2450 531 
L 3481 531 
L 3481 0 
L 794 0 
L 794 531 
z
" id="DejaVuSans-31" transform="scale(0.015625)"/>
        <path d="M 1228 531 
L 3431 531 
L 3431 0 
L 469 0 
L 469 531 
Q 828 903 1448 1529 
Q 2069 2156 2228 2338 
Q 2531 2678 2651 2914 
Q 2772 3150 2772 3378 
Q 2772 3750 2511 3984 
Q 2250 4219 1831 4219 
Q 1534 4219 1204 4116 
Q 875 4013 500 3803 
L 500 4441 
Q 881 4594 1212 4672 
Q 1544 4750 1819 4750 
Q 2544 4750 2975 4387 
Q 3406 4025 3406 3419 
Q 3406 3131 3298 2873 
Q 3191 2616 2906 2266 
Q 2828 2175 2409 1742 
Q 1991 1309 1228 531 
z
" id="DejaVuSans-32" transform="scale(0.015625)"/>
       </defs>
       <use xlink:href="#DejaVuSans-31"/>
       <use x="63.623047" xlink:href="#DejaVuSans-2e"/>
       <use x="95.410156" xlink:href="#DejaVuSans-32"/>
      </g>
     </g>
    </g>
    <g id="text_6">
     <!-- 1e−3 -->
     <g transform="translate(28.42 19.56)scale(0.08 -0.08)">
      <defs>
       <path d="M 3597 1894 
L 3597 1613 
L 953 1613 
Q 991 1019 1311 708 
Q 1631 397 2203 397 
Q 2534 397 2845 478 
Q 3156 559 3463 722 
L 3463 178 
Q 3153 47 2828 -22 
Q 2503 -91 2169 -91 
Q 1331 -91 842 396 
Q 353 884 353 1716 
Q 353 2575 817 3079 
Q 1281 3584 2069 3584 
Q 2775 3584 3186 3129 
Q 3597 2675 3597 1894 
z
M 3022 2063 
Q 3016 2534 2758 2815 
Q 2500 3097 2075 3097 
Q 1594 3097 1305 2825 
Q 1016 2553 972 2059 
L 3022 2063 
z
" id="DejaVuSans-65" transform="scale(0.015625)"/>
       <path d="M 678 2272 
L 4684 2272 
L 4684 1741 
L 678 1741 
L 678 2272 
z
" id="DejaVuSans-2212" transform="scale(0.015625)"/>
      </defs>
      <use xlink:href="#DejaVuSans-31"/>
      <use x="63.623047" xlink:href="#DejaVuSans-65"/>
      <use x="125.146484" xlink:href="#DejaVuSans-2212"/>
      <use x="208.935547" xlink:href="#DejaVuSans-33"/>
     </g>
    </g>
   </g>
   <g id="line2d_19">
    <path clip-path="url(#p2971fa15b7)" d="M 35.899091 84.775578 
L 37.920467 81.610469 
L 39.941843 78.610414 
L 41.963219 74.94653 
L 43.984595 72.557789 
L 46.005971 73.512858 
L 48.027346 77.066405 
L 50.048722 80.864231 
L 52.070098 83.147693 
L 54.091474 83.096485 
L 56.11285 81.07891 
L 58.134226 78.245397 
L 60.155602 75.934211 
L 62.176978 75.357487 
L 64.198354 76.832999 
L 66.21973 79.297964 
L 68.241106 81.700551 
L 70.262482 83.495912 
L 72.283857 84.597696 
L 74.305233 85.301513 
L 76.326609 85.724194 
L 78.347985 85.947269 
L 80.369361 86.018179 
L 82.390737 85.886876 
L 84.412113 85.756329 
L 86.433489 85.932399 
L 88.454865 86.329026 
L 90.476241 86.692859 
L 92.497617 86.844291 
L 94.518993 86.824252 
L 96.540369 86.844661 
L 98.561744 86.995965 
L 100.58312 87.23704 
L 102.604496 87.431209 
L 104.625872 87.414834 
L 106.647248 87.258321 
L 108.668624 87.113542 
L 110.69 87.029543 
L 112.711376 87.001736 
L 114.732752 86.997307 
L 116.754128 87.002687 
L 118.775504 87.137142 
L 120.79688 87.387723 
L 122.818256 87.666209 
L 124.839631 87.908381 
L 126.861007 88.043735 
L 128.882383 88.020573 
L 130.903759 87.964723 
L 132.925135 88.041202 
L 134.946511 88.225137 
L 136.967887 88.422171 
L 138.989263 88.514993 
L 141.010639 88.488466 
L 143.032015 88.39161 
L 145.053391 88.250113 
L 147.074767 88.105694 
L 149.096143 88.040571 
L 151.117518 88.064418 
L 153.138894 88.110024 
L 155.16027 88.141433 
L 157.181646 88.171464 
L 159.203022 88.148738 
L 161.224398 87.970635 
L 163.245774 87.627632 
L 165.26715 87.249357 
L 167.288526 87.071339 
L 169.309902 87.199661 
L 171.331278 87.5038 
L 173.352654 87.750109 
L 175.374029 87.870109 
L 177.395405 87.943025 
L 179.416781 88.097921 
L 181.438157 88.19268 
L 183.459533 87.196528 
L 185.480909 86.573328 
" style="fill:none;stroke:#2f4858;stroke-linecap:square;stroke-width:0.5;"/>
   </g>
   <g id="line2d_20">
    <path clip-path="url(#p2971fa15b7)" d="M 35.899091 84.628918 
L 37.920467 82.435702 
L 39.941843 80.66865 
L 41.963219 79.127042 
L 43.984595 79.454491 
L 46.005971 81.625103 
L 48.027346 84.028341 
L 50.048722 84.806137 
L 52.070098 82.972599 
L 54.091474 78.631143 
L 56.11285 73.37626 
L 58.134226 69.61605 
L 60.155602 68.791315 
L 62.176978 70.769109 
L 64.198354 74.302975 
L 66.21973 77.884015 
L 68.241106 80.693659 
L 70.262482 82.396788 
L 72.283857 83.275181 
L 74.305233 83.880193 
L 76.326609 84.319246 
L 78.347985 84.842617 
L 80.369361 85.548837 
L 82.390737 86.07855 
L 84.412113 86.331174 
L 86.433489 86.494965 
L 88.454865 86.536693 
L 90.476241 86.398316 
L 92.497617 86.208164 
L 94.518993 86.111121 
L 96.540369 86.229433 
L 98.561744 86.628288 
L 100.58312 87.191938 
L 102.604496 87.657453 
L 104.625872 87.829609 
L 106.647248 87.742359 
L 108.668624 87.606573 
L 110.69 87.525648 
L 112.711376 87.484463 
L 114.732752 87.493924 
L 116.754128 87.554088 
L 118.775504 87.726628 
L 120.79688 88.047405 
L 122.818256 88.403394 
L 124.839631 88.658634 
L 126.861007 88.711238 
L 128.882383 88.53822 
L 130.903759 88.167843 
L 132.925135 87.804064 
L 134.946511 87.711033 
L 136.967887 87.936146 
L 138.989263 88.338643 
L 141.010639 88.667616 
L 143.032015 88.789015 
L 145.053391 88.720165 
L 147.074767 88.557698 
L 149.096143 88.373489 
L 151.117518 88.160757 
L 153.138894 87.988661 
L 155.16027 87.917072 
L 157.181646 87.906568 
L 159.203022 87.90475 
L 161.224398 87.898806 
L 163.245774 87.911 
L 165.26715 87.929659 
L 167.288526 87.997519 
L 169.309902 88.151285 
L 171.331278 88.269721 
L 173.352654 88.274843 
L 175.374029 88.213853 
L 177.395405 88.187186 
L 179.416781 88.301027 
L 181.438157 88.329277 
L 183.459533 87.443784 
L 185.480909 87.03068 
" style="fill:none;stroke:#719e87;stroke-linecap:square;stroke-width:0.5;"/>
   </g>
   <g id="line2d_21">
    <path clip-path="url(#p2971fa15b7)" d="M 52.070098 91.545 
L 54.091474 91.545 
L 56.11285 91.545 
L 58.134226 91.545 
L 60.155602 91.545 
L 62.176978 91.545 
L 64.198354 91.545 
L 66.21973 91.545 
L 68.241106 91.545 
L 70.262482 91.545 
L 72.283857 91.545 
L 74.305233 91.545 
L 76.326609 91.545 
L 78.347985 91.545 
L 80.369361 91.545 
" style="fill:none;stroke:#ff0000;stroke-linecap:square;stroke-width:2;"/>
   </g>
   <g id="patch_3">
    <path d="M 28.42 94.83 
L 192.96 94.83 
" style="fill:none;stroke:#000000;stroke-linecap:square;stroke-linejoin:miter;stroke-width:0.8;"/>
   </g>
   <g id="text_7">
    <!-- Acoustic Edges -->
    <g transform="translate(72.898594 16.56)scale(0.1 -0.1)">
     <defs>
      <path d="M 2188 4044 
L 1331 1722 
L 3047 1722 
L 2188 4044 
z
M 1831 4666 
L 2547 4666 
L 4325 0 
L 3669 0 
L 3244 1197 
L 1141 1197 
L 716 0 
L 50 0 
L 1831 4666 
z
" id="DejaVuSans-41" transform="scale(0.015625)"/>
      <path d="M 3122 3366 
L 3122 2828 
Q 2878 2963 2633 3030 
Q 2388 3097 2138 3097 
Q 1578 3097 1268 2742 
Q 959 2388 959 1747 
Q 959 1106 1268 751 
Q 1578 397 2138 397 
Q 2388 397 2633 464 
Q 2878 531 3122 666 
L 3122 134 
Q 2881 22 2623 -34 
Q 2366 -91 2075 -91 
Q 1284 -91 818 406 
Q 353 903 353 1747 
Q 353 2603 823 3093 
Q 1294 3584 2113 3584 
Q 2378 3584 2631 3529 
Q 2884 3475 3122 3366 
z
" id="DejaVuSans-63" transform="scale(0.015625)"/>
      <path d="M 1959 3097 
Q 1497 3097 1228 2736 
Q 959 2375 959 1747 
Q 959 1119 1226 758 
Q 1494 397 1959 397 
Q 2419 397 2687 759 
Q 2956 1122 2956 1747 
Q 2956 2369 2687 2733 
Q 2419 3097 1959 3097 
z
M 1959 3584 
Q 2709 3584 3137 3096 
Q 3566 2609 3566 1747 
Q 3566 888 3137 398 
Q 2709 -91 1959 -91 
Q 1206 -91 779 398 
Q 353 888 353 1747 
Q 353 2609 779 3096 
Q 1206 3584 1959 3584 
z
" id="DejaVuSans-6f" transform="scale(0.015625)"/>
      <path d="M 544 1381 
L 544 3500 
L 1119 3500 
L 1119 1403 
Q 1119 906 1312 657 
Q 1506 409 1894 409 
Q 2359 409 2629 706 
Q 2900 1003 2900 1516 
L 2900 3500 
L 3475 3500 
L 3475 0 
L 2900 0 
L 2900 538 
Q 2691 219 2414 64 
Q 2138 -91 1772 -91 
Q 1169 -91 856 284 
Q 544 659 544 1381 
z
M 1991 3584 
L 1991 3584 
z
" id="DejaVuSans-75" transform="scale(0.015625)"/>
      <path d="M 2834 3397 
L 2834 2853 
Q 2591 2978 2328 3040 
Q 2066 3103 1784 3103 
Q 1356 3103 1142 2972 
Q 928 2841 928 2578 
Q 928 2378 1081 2264 
Q 1234 2150 1697 2047 
L 1894 2003 
Q 2506 1872 2764 1633 
Q 3022 1394 3022 966 
Q 3022 478 2636 193 
Q 2250 -91 1575 -91 
Q 1294 -91 989 -36 
Q 684 19 347 128 
L 347 722 
Q 666 556 975 473 
Q 1284 391 1588 391 
Q 1994 391 2212 530 
Q 2431 669 2431 922 
Q 2431 1156 2273 1281 
Q 2116 1406 1581 1522 
L 1381 1569 
Q 847 1681 609 1914 
Q 372 2147 372 2553 
Q 372 3047 722 3315 
Q 1072 3584 1716 3584 
Q 2034 3584 2315 3537 
Q 2597 3491 2834 3397 
z
" id="DejaVuSans-73" transform="scale(0.015625)"/>
      <path d="M 1172 4494 
L 1172 3500 
L 2356 3500 
L 2356 3053 
L 1172 3053 
L 1172 1153 
Q 1172 725 1289 603 
Q 1406 481 1766 481 
L 2356 481 
L 2356 0 
L 1766 0 
Q 1100 0 847 248 
Q 594 497 594 1153 
L 594 3053 
L 172 3053 
L 172 3500 
L 594 3500 
L 594 4494 
L 1172 4494 
z
" id="DejaVuSans-74" transform="scale(0.015625)"/>
      <path d="M 603 3500 
L 1178 3500 
L 1178 0 
L 603 0 
L 603 3500 
z
M 603 4863 
L 1178 4863 
L 1178 4134 
L 603 4134 
L 603 4863 
z
" id="DejaVuSans-69" transform="scale(0.015625)"/>
      <path id="DejaVuSans-20" transform="scale(0.015625)"/>
      <path d="M 628 4666 
L 3578 4666 
L 3578 4134 
L 1259 4134 
L 1259 2753 
L 3481 2753 
L 3481 2222 
L 1259 2222 
L 1259 531 
L 3634 531 
L 3634 0 
L 628 0 
L 628 4666 
z
" id="DejaVuSans-45" transform="scale(0.015625)"/>
      <path d="M 2906 2969 
L 2906 4863 
L 3481 4863 
L 3481 0 
L 2906 0 
L 2906 525 
Q 2725 213 2448 61 
Q 2172 -91 1784 -91 
Q 1150 -91 751 415 
Q 353 922 353 1747 
Q 353 2572 751 3078 
Q 1150 3584 1784 3584 
Q 2172 3584 2448 3432 
Q 2725 3281 2906 2969 
z
M 947 1747 
Q 947 1113 1208 752 
Q 1469 391 1925 391 
Q 2381 391 2643 752 
Q 2906 1113 2906 1747 
Q 2906 2381 2643 2742 
Q 2381 3103 1925 3103 
Q 1469 3103 1208 2742 
Q 947 2381 947 1747 
z
" id="DejaVuSans-64" transform="scale(0.015625)"/>
      <path d="M 2906 1791 
Q 2906 2416 2648 2759 
Q 2391 3103 1925 3103 
Q 1463 3103 1205 2759 
Q 947 2416 947 1791 
Q 947 1169 1205 825 
Q 1463 481 1925 481 
Q 2391 481 2648 825 
Q 2906 1169 2906 1791 
z
M 3481 434 
Q 3481 -459 3084 -895 
Q 2688 -1331 1869 -1331 
Q 1566 -1331 1297 -1286 
Q 1028 -1241 775 -1147 
L 775 -588 
Q 1028 -725 1275 -790 
Q 1522 -856 1778 -856 
Q 2344 -856 2625 -561 
Q 2906 -266 2906 331 
L 2906 616 
Q 2728 306 2450 153 
Q 2172 0 1784 0 
Q 1141 0 747 490 
Q 353 981 353 1791 
Q 353 2603 747 3093 
Q 1141 3584 1784 3584 
Q 2172 3584 2450 3431 
Q 2728 3278 2906 2969 
L 2906 3500 
L 3481 3500 
L 3481 434 
z
" id="DejaVuSans-67" transform="scale(0.015625)"/>
     </defs>
     <use xlink:href="#DejaVuSans-41"/>
     <use x="66.658203" xlink:href="#DejaVuSans-63"/>
     <use x="121.638672" xlink:href="#DejaVuSans-6f"/>
     <use x="182.820312" xlink:href="#DejaVuSans-75"/>
     <use x="246.199219" xlink:href="#DejaVuSans-73"/>
     <use x="298.298828" xlink:href="#DejaVuSans-74"/>
     <use x="337.507812" xlink:href="#DejaVuSans-69"/>
     <use x="365.291016" xlink:href="#DejaVuSans-63"/>
     <use x="420.271484" xlink:href="#DejaVuSans-20"/>
     <use x="452.058594" xlink:href="#DejaVuSans-45"/>
     <use x="515.242188" xlink:href="#DejaVuSans-64"/>
     <use x="578.71875" xlink:href="#DejaVuSans-67"/>
     <use x="642.195312" xlink:href="#DejaVuSans-65"/>
     <use x="703.71875" xlink:href="#DejaVuSans-73"/>
    </g>
   </g>
  </g>
  <g id="axes_2">
   <g id="patch_4">
    <path d="M 28.42 193.16 
L 192.96 193.16 
L 192.96 120.89 
L 28.42 120.89 
z
" style="fill:none;"/>
   </g>
   <g id="PolyCollection_3">
    <defs>
     <path d="M 35.899091 -57.115257 
L 35.899091 -56.733219 
L 37.920467 -67.334395 
L 39.941843 -72.334229 
L 41.963219 -75.084133 
L 43.984595 -73.792037 
L 46.005971 -69.582056 
L 48.027346 -64.193511 
L 50.048722 -60.725622 
L 52.070098 -62.190314 
L 54.091474 -68.315049 
L 56.11285 -75.633253 
L 58.134226 -79.969914 
L 60.155602 -79.532961 
L 62.176978 -75.010887 
L 64.198354 -68.900505 
L 66.21973 -64.276229 
L 68.241106 -62.537592 
L 70.262482 -62.643447 
L 72.283857 -61.784747 
L 74.305233 -57.795816 
L 76.326609 -51.827514 
L 78.347985 -47.112428 
L 80.369361 -45.211512 
L 82.390737 -45.443962 
L 84.412113 -46.638821 
L 86.433489 -47.854128 
L 88.454865 -47.768838 
L 90.476241 -45.63857 
L 92.497617 -42.496752 
L 94.518993 -39.901093 
L 96.540369 -38.817655 
L 98.561744 -39.42495 
L 100.58312 -40.486088 
L 102.604496 -40.767447 
L 104.625872 -42.030994 
L 106.647248 -45.903385 
L 108.668624 -49.95297 
L 110.69 -52.647852 
L 112.711376 -54.542718 
L 114.732752 -52.208752 
L 116.754128 -48.146689 
L 118.775504 -48.196948 
L 120.79688 -51.600821 
L 122.818256 -55.328831 
L 124.839631 -58.135792 
L 126.861007 -59.624993 
L 128.882383 -58.892088 
L 130.903759 -55.942256 
L 132.925135 -52.629203 
L 134.946511 -51.044257 
L 136.967887 -52.129643 
L 138.989263 -55.570095 
L 141.010639 -59.823948 
L 143.032015 -63.22942 
L 145.053391 -64.236884 
L 147.074767 -62.323601 
L 149.096143 -58.434566 
L 151.117518 -54.009416 
L 153.138894 -50.344297 
L 155.16027 -48.06279 
L 157.181646 -46.24986 
L 159.203022 -43.821905 
L 161.224398 -41.587394 
L 163.245774 -40.813159 
L 165.26715 -41.799725 
L 167.288526 -43.706342 
L 169.309902 -45.143695 
L 171.331278 -45.487445 
L 173.352654 -44.559673 
L 175.374029 -42.911936 
L 177.395405 -41.619264 
L 179.416781 -41.060031 
L 181.438157 -40.501137 
L 183.459533 -40.618254 
L 185.480909 -38.813362 
L 185.480909 -42.32424 
L 185.480909 -42.32424 
L 183.459533 -43.974059 
L 181.438157 -43.634275 
L 179.416781 -44.482724 
L 177.395405 -45.702212 
L 175.374029 -47.249349 
L 173.352654 -48.800612 
L 171.331278 -49.628469 
L 169.309902 -49.305922 
L 167.288526 -48.304485 
L 165.26715 -47.244497 
L 163.245774 -46.802661 
L 161.224398 -47.478584 
L 159.203022 -49.403007 
L 157.181646 -52.278518 
L 155.16027 -55.71036 
L 153.138894 -59.714473 
L 151.117518 -64.269846 
L 149.096143 -68.562088 
L 147.074767 -71.517364 
L 145.053391 -72.233609 
L 143.032015 -70.057372 
L 141.010639 -65.853673 
L 138.989263 -61.20982 
L 136.967887 -57.99347 
L 134.946511 -57.808385 
L 132.925135 -60.328381 
L 130.903759 -64.096689 
L 128.882383 -67.026285 
L 126.861007 -67.502445 
L 124.839631 -65.479124 
L 122.818256 -62.091221 
L 120.79688 -58.427497 
L 118.775504 -56.029873 
L 116.754128 -56.661172 
L 114.732752 -60.155133 
L 112.711376 -61.752764 
L 110.69 -58.68531 
L 108.668624 -54.756605 
L 106.647248 -50.040482 
L 104.625872 -45.695239 
L 102.604496 -43.89676 
L 100.58312 -43.516966 
L 98.561744 -43.369313 
L 96.540369 -43.986481 
L 94.518993 -46.013748 
L 92.497617 -48.965807 
L 90.476241 -51.589201 
L 88.454865 -52.870897 
L 86.433489 -52.3193 
L 84.412113 -51.028886 
L 82.390737 -50.807071 
L 80.369361 -52.594966 
L 78.347985 -56.41815 
L 76.326609 -61.572302 
L 74.305233 -66.496608 
L 72.283857 -69.942078 
L 70.262482 -72.261903 
L 68.241106 -74.279842 
L 66.21973 -77.557622 
L 64.198354 -82.797504 
L 62.176978 -88.62176 
L 60.155602 -91.825 
L 58.134226 -90.347325 
L 56.11285 -84.665363 
L 54.091474 -77.152544 
L 52.070098 -71.620248 
L 50.048722 -71.046395 
L 48.027346 -75.151341 
L 46.005971 -80.789132 
L 43.984595 -84.631193 
L 41.963219 -84.794599 
L 39.941843 -79.590851 
L 37.920467 -70.21574 
L 35.899091 -57.115257 
z
" id="m91eccb80d5"/>
    </defs>
    <g clip-path="url(#pf5f0f65529)">
     <use style="fill:#2f4858;fill-opacity:0.7;" x="0" xlink:href="#m91eccb80d5" y="216"/>
    </g>
   </g>
   <g id="PolyCollection_4">
    <defs>
     <path d="M 35.899091 -49.651204 
L 35.899091 -49.358743 
L 37.920467 -58.101731 
L 39.941843 -62.855759 
L 41.963219 -65.925309 
L 43.984595 -64.658181 
L 46.005971 -59.306504 
L 48.027346 -52.426306 
L 50.048722 -47.233596 
L 52.070098 -46.624145 
L 54.091474 -51.383591 
L 56.11285 -58.932301 
L 58.134226 -65.195949 
L 60.155602 -67.571751 
L 62.176978 -65.378991 
L 64.198354 -59.923283 
L 66.21973 -53.529396 
L 68.241106 -48.504228 
L 70.262482 -46.634454 
L 72.283857 -47.341814 
L 74.305233 -47.644235 
L 76.326609 -46.025165 
L 78.347985 -43.675001 
L 80.369361 -41.220445 
L 82.390737 -38.784864 
L 84.412113 -37.138068 
L 86.433489 -36.780994 
L 88.454865 -37.114426 
L 90.476241 -36.791846 
L 92.497617 -35.234236 
L 94.518993 -33.1362 
L 96.540369 -31.605561 
L 98.561744 -31.131171 
L 100.58312 -31.471518 
L 102.604496 -32.362547 
L 104.625872 -33.981488 
L 106.647248 -36.40702 
L 108.668624 -38.90076 
L 110.69 -41.221182 
L 112.711376 -42.946011 
L 114.732752 -41.517886 
L 116.754128 -38.834939 
L 118.775504 -38.859969 
L 120.79688 -41.175321 
L 122.818256 -43.922797 
L 124.839631 -46.352339 
L 126.861007 -47.458376 
L 128.882383 -46.289024 
L 130.903759 -43.443916 
L 132.925135 -40.421742 
L 134.946511 -38.271211 
L 136.967887 -37.724712 
L 138.989263 -38.617162 
L 141.010639 -40.133339 
L 143.032015 -41.900164 
L 145.053391 -43.47476 
L 147.074767 -44.082395 
L 149.096143 -43.396876 
L 151.117518 -41.610711 
L 153.138894 -39.65727 
L 155.16027 -38.094715 
L 157.181646 -36.529135 
L 159.203022 -34.790944 
L 161.224398 -33.350292 
L 163.245774 -32.568607 
L 165.26715 -32.706454 
L 167.288526 -33.873895 
L 169.309902 -35.802703 
L 171.331278 -37.69878 
L 173.352654 -38.635705 
L 175.374029 -38.301471 
L 177.395405 -37.246016 
L 179.416781 -36.210407 
L 181.438157 -35.324999 
L 183.459533 -35.294315 
L 185.480909 -34.379287 
L 185.480909 -36.444008 
L 185.480909 -36.444008 
L 183.459533 -37.722193 
L 181.438157 -38.088753 
L 179.416781 -39.224678 
L 177.395405 -40.313513 
L 175.374029 -41.146219 
L 173.352654 -41.00086 
L 171.331278 -39.529179 
L 169.309902 -37.382552 
L 167.288526 -35.640233 
L 165.26715 -34.905299 
L 163.245774 -35.212926 
L 161.224398 -36.31608 
L 159.203022 -37.907555 
L 157.181646 -39.908667 
L 155.16027 -42.27805 
L 153.138894 -44.567835 
L 151.117518 -46.549412 
L 149.096143 -47.898653 
L 147.074767 -47.853489 
L 145.053391 -46.73372 
L 143.032015 -45.383054 
L 141.010639 -44.00992 
L 138.989263 -42.801425 
L 136.967887 -42.370527 
L 134.946511 -43.374393 
L 132.925135 -45.821858 
L 130.903759 -48.991323 
L 128.882383 -51.546644 
L 126.861007 -52.040344 
L 124.839631 -50.17358 
L 122.818256 -47.230094 
L 120.79688 -44.760858 
L 118.775504 -43.687485 
L 116.754128 -44.30599 
L 114.732752 -46.468438 
L 112.711376 -47.228371 
L 110.69 -44.596507 
L 108.668624 -41.238434 
L 106.647248 -37.938932 
L 104.625872 -35.018793 
L 102.604496 -33.252104 
L 100.58312 -32.591093 
L 98.561744 -32.858336 
L 96.540369 -34.028004 
L 94.518993 -35.939397 
L 92.497617 -38.036054 
L 90.476241 -39.329482 
L 88.454865 -39.421318 
L 86.433489 -39.346174 
L 84.412113 -40.315205 
L 82.390737 -42.837537 
L 80.369361 -46.539497 
L 78.347985 -50.007127 
L 76.326609 -52.419651 
L 74.305233 -53.567768 
L 72.283857 -53.632952 
L 70.262482 -54.927658 
L 68.241106 -59.180546 
L 66.21973 -65.805014 
L 64.198354 -72.665877 
L 62.176978 -77.109961 
L 60.155602 -77.043575 
L 58.134226 -72.070633 
L 56.11285 -63.925105 
L 54.091474 -56.234478 
L 52.070098 -52.657225 
L 50.048722 -54.802476 
L 48.027346 -61.412016 
L 46.005971 -69.102964 
L 43.984595 -74.15449 
L 41.963219 -74.180305 
L 39.941843 -68.726235 
L 37.920467 -60.349198 
L 35.899091 -49.651204 
z
" id="m5310cc6058"/>
    </defs>
    <g clip-path="url(#pf5f0f65529)">
     <use style="fill:#719e87;fill-opacity:0.7;" x="0" xlink:href="#m5310cc6058" y="216"/>
    </g>
   </g>
   <g id="matplotlib.axis_3">
    <g id="xtick_5">
     <g id="line2d_22">
      <path clip-path="url(#pf5f0f65529)" d="M 46.005971 193.16 
L 46.005971 120.89 
" style="fill:none;stroke:#b0b0b0;stroke-linecap:square;stroke-width:0.8;"/>
     </g>
     <g id="line2d_23">
      <g>
       <use style="stroke:#000000;stroke-width:0.8;" x="46.005971" xlink:href="#mc3ae68b256" y="193.16"/>
      </g>
     </g>
     <g id="text_8">
      <!-- 0.0 -->
      <g transform="translate(39.644721 206.23875)scale(0.08 -0.08)">
       <use xlink:href="#DejaVuSans-30"/>
       <use x="63.623047" xlink:href="#DejaVuSans-2e"/>
       <use x="95.410156" xlink:href="#DejaVuSans-30"/>
      </g>
     </g>
    </g>
    <g id="xtick_6">
     <g id="line2d_24">
      <path clip-path="url(#pf5f0f65529)" d="M 86.433489 193.16 
L 86.433489 120.89 
" style="fill:none;stroke:#b0b0b0;stroke-linecap:square;stroke-width:0.8;"/>
     </g>
     <g id="line2d_25">
      <g>
       <use style="stroke:#000000;stroke-width:0.8;" x="86.433489" xlink:href="#mc3ae68b256" y="193.16"/>
      </g>
     </g>
     <g id="text_9">
      <!-- 0.2 -->
      <g transform="translate(80.072239 206.23875)scale(0.08 -0.08)">
       <use xlink:href="#DejaVuSans-30"/>
       <use x="63.623047" xlink:href="#DejaVuSans-2e"/>
       <use x="95.410156" xlink:href="#DejaVuSans-32"/>
      </g>
     </g>
    </g>
    <g id="xtick_7">
     <g id="line2d_26">
      <path clip-path="url(#pf5f0f65529)" d="M 126.861007 193.16 
L 126.861007 120.89 
" style="fill:none;stroke:#b0b0b0;stroke-linecap:square;stroke-width:0.8;"/>
     </g>
     <g id="line2d_27">
      <g>
       <use style="stroke:#000000;stroke-width:0.8;" x="126.861007" xlink:href="#mc3ae68b256" y="193.16"/>
      </g>
     </g>
     <g id="text_10">
      <!-- 0.4 -->
      <g transform="translate(120.499757 206.23875)scale(0.08 -0.08)">
       <defs>
        <path d="M 2419 4116 
L 825 1625 
L 2419 1625 
L 2419 4116 
z
M 2253 4666 
L 3047 4666 
L 3047 1625 
L 3713 1625 
L 3713 1100 
L 3047 1100 
L 3047 0 
L 2419 0 
L 2419 1100 
L 313 1100 
L 313 1709 
L 2253 4666 
z
" id="DejaVuSans-34" transform="scale(0.015625)"/>
       </defs>
       <use xlink:href="#DejaVuSans-30"/>
       <use x="63.623047" xlink:href="#DejaVuSans-2e"/>
       <use x="95.410156" xlink:href="#DejaVuSans-34"/>
      </g>
     </g>
    </g>
    <g id="xtick_8">
     <g id="line2d_28">
      <path clip-path="url(#pf5f0f65529)" d="M 167.288526 193.16 
L 167.288526 120.89 
" style="fill:none;stroke:#b0b0b0;stroke-linecap:square;stroke-width:0.8;"/>
     </g>
     <g id="line2d_29">
      <g>
       <use style="stroke:#000000;stroke-width:0.8;" x="167.288526" xlink:href="#mc3ae68b256" y="193.16"/>
      </g>
     </g>
     <g id="text_11">
      <!-- 0.6 -->
      <g transform="translate(160.927276 206.23875)scale(0.08 -0.08)">
       <use xlink:href="#DejaVuSans-30"/>
       <use x="63.623047" xlink:href="#DejaVuSans-2e"/>
       <use x="95.410156" xlink:href="#DejaVuSans-36"/>
      </g>
     </g>
    </g>
   </g>
   <g id="matplotlib.axis_4">
    <g id="ytick_6">
     <g id="line2d_30">
      <path clip-path="url(#pf5f0f65529)" d="M 28.42 189.875 
L 192.96 189.875 
" style="fill:none;stroke:#b0b0b0;stroke-linecap:square;stroke-width:0.8;"/>
     </g>
     <g id="line2d_31">
      <g>
       <use style="stroke:#000000;stroke-width:0.8;" x="28.42" xlink:href="#mbc4d8b1ad5" y="189.875"/>
      </g>
     </g>
     <g id="text_12">
      <!-- 0.0 -->
      <g transform="translate(8.6975 192.914375)scale(0.08 -0.08)">
       <use xlink:href="#DejaVuSans-30"/>
       <use x="63.623047" xlink:href="#DejaVuSans-2e"/>
       <use x="95.410156" xlink:href="#DejaVuSans-30"/>
      </g>
     </g>
    </g>
    <g id="ytick_7">
     <g id="line2d_32">
      <path clip-path="url(#pf5f0f65529)" d="M 28.42 173.953761 
L 192.96 173.953761 
" style="fill:none;stroke:#b0b0b0;stroke-linecap:square;stroke-width:0.8;"/>
     </g>
     <g id="line2d_33">
      <g>
       <use style="stroke:#000000;stroke-width:0.8;" x="28.42" xlink:href="#mbc4d8b1ad5" y="173.953761"/>
      </g>
     </g>
     <g id="text_13">
      <!-- 0.3 -->
      <g transform="translate(8.6975 176.993136)scale(0.08 -0.08)">
       <use xlink:href="#DejaVuSans-30"/>
       <use x="63.623047" xlink:href="#DejaVuSans-2e"/>
       <use x="95.410156" xlink:href="#DejaVuSans-33"/>
      </g>
     </g>
    </g>
    <g id="ytick_8">
     <g id="line2d_34">
      <path clip-path="url(#pf5f0f65529)" d="M 28.42 158.032522 
L 192.96 158.032522 
" style="fill:none;stroke:#b0b0b0;stroke-linecap:square;stroke-width:0.8;"/>
     </g>
     <g id="line2d_35">
      <g>
       <use style="stroke:#000000;stroke-width:0.8;" x="28.42" xlink:href="#mbc4d8b1ad5" y="158.032522"/>
      </g>
     </g>
     <g id="text_14">
      <!-- 0.6 -->
      <g transform="translate(8.6975 161.071897)scale(0.08 -0.08)">
       <use xlink:href="#DejaVuSans-30"/>
       <use x="63.623047" xlink:href="#DejaVuSans-2e"/>
       <use x="95.410156" xlink:href="#DejaVuSans-36"/>
      </g>
     </g>
    </g>
    <g id="ytick_9">
     <g id="line2d_36">
      <path clip-path="url(#pf5f0f65529)" d="M 28.42 142.111282 
L 192.96 142.111282 
" style="fill:none;stroke:#b0b0b0;stroke-linecap:square;stroke-width:0.8;"/>
     </g>
     <g id="line2d_37">
      <g>
       <use style="stroke:#000000;stroke-width:0.8;" x="28.42" xlink:href="#mbc4d8b1ad5" y="142.111282"/>
      </g>
     </g>
     <g id="text_15">
      <!-- 0.9 -->
      <g transform="translate(8.6975 145.150657)scale(0.08 -0.08)">
       <use xlink:href="#DejaVuSans-30"/>
       <use x="63.623047" xlink:href="#DejaVuSans-2e"/>
       <use x="95.410156" xlink:href="#DejaVuSans-39"/>
      </g>
     </g>
    </g>
    <g id="ytick_10">
     <g id="line2d_38">
      <path clip-path="url(#pf5f0f65529)" d="M 28.42 126.190043 
L 192.96 126.190043 
" style="fill:none;stroke:#b0b0b0;stroke-linecap:square;stroke-width:0.8;"/>
     </g>
     <g id="line2d_39">
      <g>
       <use style="stroke:#000000;stroke-width:0.8;" x="28.42" xlink:href="#mbc4d8b1ad5" y="126.190043"/>
      </g>
     </g>
     <g id="text_16">
      <!-- 1.2 -->
      <g transform="translate(8.6975 129.229418)scale(0.08 -0.08)">
       <use xlink:href="#DejaVuSans-31"/>
       <use x="63.623047" xlink:href="#DejaVuSans-2e"/>
       <use x="95.410156" xlink:href="#DejaVuSans-32"/>
      </g>
     </g>
    </g>
    <g id="text_17">
     <!-- 1e−3 -->
     <g transform="translate(28.42 117.89)scale(0.08 -0.08)">
      <use xlink:href="#DejaVuSans-31"/>
      <use x="63.623047" xlink:href="#DejaVuSans-65"/>
      <use x="125.146484" xlink:href="#DejaVuSans-2212"/>
      <use x="208.935547" xlink:href="#DejaVuSans-33"/>
     </g>
    </g>
   </g>
   <g id="line2d_40">
    <path clip-path="url(#pf5f0f65529)" d="M 35.899091 159.075762 
L 37.920467 147.224933 
L 39.941843 140.03746 
L 41.963219 136.060634 
L 43.984595 136.788385 
L 46.005971 140.814406 
L 48.027346 146.327574 
L 50.048722 150.113991 
L 52.070098 149.094719 
L 54.091474 143.266204 
L 56.11285 135.850692 
L 58.134226 130.84138 
L 60.155602 130.32102 
L 62.176978 134.183676 
L 64.198354 140.150996 
L 66.21973 145.083075 
L 68.241106 147.591283 
L 70.262482 148.547325 
L 72.283857 150.136588 
L 74.305233 153.853788 
L 76.326609 159.300092 
L 78.347985 164.234711 
L 80.369361 167.096761 
L 82.390737 167.874483 
L 84.412113 167.166146 
L 86.433489 165.913286 
L 88.454865 165.680133 
L 90.476241 167.386115 
L 92.497617 170.26872 
L 94.518993 173.04258 
L 96.540369 174.597932 
L 98.561744 174.602869 
L 100.58312 173.998473 
L 102.604496 173.667896 
L 104.625872 172.136883 
L 106.647248 168.028066 
L 108.668624 163.645212 
L 110.69 160.333419 
L 112.711376 157.852259 
L 114.732752 159.818058 
L 116.754128 163.59607 
L 118.775504 163.88659 
L 120.79688 160.985841 
L 122.818256 157.289974 
L 124.839631 154.192542 
L 126.861007 152.436281 
L 128.882383 153.040813 
L 130.903759 155.980527 
L 132.925135 159.521208 
L 134.946511 161.573679 
L 136.967887 160.938443 
L 138.989263 157.610042 
L 141.010639 153.161189 
L 143.032015 149.356604 
L 145.053391 147.764753 
L 147.074767 149.079518 
L 149.096143 152.501673 
L 151.117518 156.860369 
L 153.138894 160.970615 
L 155.16027 164.113425 
L 157.181646 166.735811 
L 159.203022 169.387544 
L 161.224398 171.467011 
L 163.245774 172.19209 
L 165.26715 171.477889 
L 167.288526 169.994586 
L 169.309902 168.775191 
L 171.331278 168.442043 
L 173.352654 169.319858 
L 175.374029 170.919358 
L 177.395405 172.339262 
L 179.416781 173.228623 
L 181.438157 173.932294 
L 183.459533 173.703843 
L 185.480909 175.431199 
" style="fill:none;stroke:#2f4858;stroke-linecap:square;stroke-width:0.5;"/>
   </g>
   <g id="line2d_41">
    <path clip-path="url(#pf5f0f65529)" d="M 35.899091 166.495027 
L 37.920467 156.774535 
L 39.941843 150.209003 
L 41.963219 145.947193 
L 43.984595 146.593665 
L 46.005971 151.795266 
L 48.027346 159.080839 
L 50.048722 164.981964 
L 52.070098 166.359315 
L 54.091474 162.190966 
L 56.11285 154.571297 
L 58.134226 147.366709 
L 60.155602 143.692337 
L 62.176978 144.755524 
L 64.198354 149.70542 
L 66.21973 156.332795 
L 68.241106 162.157613 
L 70.262482 165.218944 
L 72.283857 165.512617 
L 74.305233 165.393998 
L 76.326609 166.777592 
L 78.347985 169.158936 
L 80.369361 172.120029 
L 82.390737 175.1888 
L 84.412113 177.273364 
L 86.433489 177.936416 
L 88.454865 177.732128 
L 90.476241 177.939336 
L 92.497617 179.364855 
L 94.518993 181.462202 
L 96.540369 183.183217 
L 98.561744 184.005246 
L 100.58312 183.968695 
L 102.604496 183.192674 
L 104.625872 181.49986 
L 106.647248 178.827024 
L 108.668624 175.930403 
L 110.69 173.091155 
L 112.711376 170.912809 
L 114.732752 172.006838 
L 116.754128 174.429536 
L 118.775504 174.726273 
L 120.79688 173.03191 
L 122.818256 170.423554 
L 124.839631 167.737041 
L 126.861007 166.25064 
L 128.882383 167.082166 
L 130.903759 169.78238 
L 132.925135 172.8782 
L 134.946511 175.177198 
L 136.967887 175.95238 
L 138.989263 175.290707 
L 141.010639 173.928371 
L 143.032015 172.358391 
L 145.053391 170.89576 
L 147.074767 170.032058 
L 149.096143 170.352235 
L 151.117518 171.919938 
L 153.138894 173.887447 
L 155.16027 175.813617 
L 157.181646 177.781099 
L 159.203022 179.65075 
L 161.224398 181.166814 
L 163.245774 182.109233 
L 165.26715 182.194124 
L 167.288526 181.242936 
L 169.309902 179.407372 
L 171.331278 177.386021 
L 173.352654 176.181718 
L 175.374029 176.276155 
L 177.395405 177.220235 
L 179.416781 178.282458 
L 181.438157 179.293124 
L 183.459533 179.491746 
L 185.480909 180.588352 
" style="fill:none;stroke:#719e87;stroke-linecap:square;stroke-width:0.5;"/>
   </g>
   <g id="line2d_42">
    <path clip-path="url(#pf5f0f65529)" d="M 35.899091 189.875 
L 37.920467 189.875 
L 39.941843 189.875 
L 41.963219 189.875 
L 43.984595 189.875 
L 46.005971 189.875 
L 48.027346 189.875 
L 50.048722 189.875 
L 52.070098 189.875 
L 54.091474 189.875 
L 56.11285 189.875 
L 58.134226 189.875 
L 60.155602 189.875 
L 62.176978 189.875 
L 64.198354 189.875 
L 66.21973 189.875 
L 68.241106 189.875 
L 70.262482 189.875 
L 72.283857 189.875 
L 74.305233 189.875 
L 76.326609 189.875 
L 78.347985 189.875 
L 80.369361 189.875 
L 82.390737 189.875 
L 84.412113 189.875 
L 86.433489 189.875 
L 88.454865 189.875 
L 90.476241 189.875 
L 92.497617 189.875 
L 94.518993 189.875 
L 96.540369 189.875 
L 98.561744 189.875 
L 100.58312 189.875 
L 102.604496 189.875 
L 104.625872 189.875 
L 106.647248 189.875 
L 108.668624 189.875 
L 110.69 189.875 
L 112.711376 189.875 
L 114.732752 189.875 
L 116.754128 189.875 
L 118.775504 189.875 
L 120.79688 189.875 
L 122.818256 189.875 
L 124.839631 189.875 
L 126.861007 189.875 
L 128.882383 189.875 
L 130.903759 189.875 
L 132.925135 189.875 
L 134.946511 189.875 
L 136.967887 189.875 
L 138.989263 189.875 
L 141.010639 189.875 
L 143.032015 189.875 
L 145.053391 189.875 
L 147.074767 189.875 
L 149.096143 189.875 
L 151.117518 189.875 
L 153.138894 189.875 
L 155.16027 189.875 
L 157.181646 189.875 
L 159.203022 189.875 
L 161.224398 189.875 
L 163.245774 189.875 
L 165.26715 189.875 
L 167.288526 189.875 
L 169.309902 189.875 
L 171.331278 189.875 
L 173.352654 189.875 
L 175.374029 189.875 
L 177.395405 189.875 
L 179.416781 189.875 
L 181.438157 189.875 
L 183.459533 189.875 
L 185.480909 189.875 
" style="fill:none;stroke:#ff0000;stroke-linecap:square;stroke-width:2;"/>
   </g>
   <g id="patch_5">
    <path d="M 28.42 193.16 
L 192.96 193.16 
" style="fill:none;stroke:#000000;stroke-linecap:square;stroke-linejoin:miter;stroke-width:0.8;"/>
   </g>
   <g id="text_18">
    <!-- Phoneme Features -->
    <g transform="translate(64.17125 114.89)scale(0.1 -0.1)">
     <defs>
      <path d="M 1259 4147 
L 1259 2394 
L 2053 2394 
Q 2494 2394 2734 2622 
Q 2975 2850 2975 3272 
Q 2975 3691 2734 3919 
Q 2494 4147 2053 4147 
L 1259 4147 
z
M 628 4666 
L 2053 4666 
Q 2838 4666 3239 4311 
Q 3641 3956 3641 3272 
Q 3641 2581 3239 2228 
Q 2838 1875 2053 1875 
L 1259 1875 
L 1259 0 
L 628 0 
L 628 4666 
z
" id="DejaVuSans-50" transform="scale(0.015625)"/>
      <path d="M 3513 2113 
L 3513 0 
L 2938 0 
L 2938 2094 
Q 2938 2591 2744 2837 
Q 2550 3084 2163 3084 
Q 1697 3084 1428 2787 
Q 1159 2491 1159 1978 
L 1159 0 
L 581 0 
L 581 4863 
L 1159 4863 
L 1159 2956 
Q 1366 3272 1645 3428 
Q 1925 3584 2291 3584 
Q 2894 3584 3203 3211 
Q 3513 2838 3513 2113 
z
" id="DejaVuSans-68" transform="scale(0.015625)"/>
      <path d="M 3513 2113 
L 3513 0 
L 2938 0 
L 2938 2094 
Q 2938 2591 2744 2837 
Q 2550 3084 2163 3084 
Q 1697 3084 1428 2787 
Q 1159 2491 1159 1978 
L 1159 0 
L 581 0 
L 581 3500 
L 1159 3500 
L 1159 2956 
Q 1366 3272 1645 3428 
Q 1925 3584 2291 3584 
Q 2894 3584 3203 3211 
Q 3513 2838 3513 2113 
z
" id="DejaVuSans-6e" transform="scale(0.015625)"/>
      <path d="M 3328 2828 
Q 3544 3216 3844 3400 
Q 4144 3584 4550 3584 
Q 5097 3584 5394 3201 
Q 5691 2819 5691 2113 
L 5691 0 
L 5113 0 
L 5113 2094 
Q 5113 2597 4934 2840 
Q 4756 3084 4391 3084 
Q 3944 3084 3684 2787 
Q 3425 2491 3425 1978 
L 3425 0 
L 2847 0 
L 2847 2094 
Q 2847 2600 2669 2842 
Q 2491 3084 2119 3084 
Q 1678 3084 1418 2786 
Q 1159 2488 1159 1978 
L 1159 0 
L 581 0 
L 581 3500 
L 1159 3500 
L 1159 2956 
Q 1356 3278 1631 3431 
Q 1906 3584 2284 3584 
Q 2666 3584 2933 3390 
Q 3200 3197 3328 2828 
z
" id="DejaVuSans-6d" transform="scale(0.015625)"/>
      <path d="M 628 4666 
L 3309 4666 
L 3309 4134 
L 1259 4134 
L 1259 2759 
L 3109 2759 
L 3109 2228 
L 1259 2228 
L 1259 0 
L 628 0 
L 628 4666 
z
" id="DejaVuSans-46" transform="scale(0.015625)"/>
      <path d="M 2194 1759 
Q 1497 1759 1228 1600 
Q 959 1441 959 1056 
Q 959 750 1161 570 
Q 1363 391 1709 391 
Q 2188 391 2477 730 
Q 2766 1069 2766 1631 
L 2766 1759 
L 2194 1759 
z
M 3341 1997 
L 3341 0 
L 2766 0 
L 2766 531 
Q 2569 213 2275 61 
Q 1981 -91 1556 -91 
Q 1019 -91 701 211 
Q 384 513 384 1019 
Q 384 1609 779 1909 
Q 1175 2209 1959 2209 
L 2766 2209 
L 2766 2266 
Q 2766 2663 2505 2880 
Q 2244 3097 1772 3097 
Q 1472 3097 1187 3025 
Q 903 2953 641 2809 
L 641 3341 
Q 956 3463 1253 3523 
Q 1550 3584 1831 3584 
Q 2591 3584 2966 3190 
Q 3341 2797 3341 1997 
z
" id="DejaVuSans-61" transform="scale(0.015625)"/>
      <path d="M 2631 2963 
Q 2534 3019 2420 3045 
Q 2306 3072 2169 3072 
Q 1681 3072 1420 2755 
Q 1159 2438 1159 1844 
L 1159 0 
L 581 0 
L 581 3500 
L 1159 3500 
L 1159 2956 
Q 1341 3275 1631 3429 
Q 1922 3584 2338 3584 
Q 2397 3584 2469 3576 
Q 2541 3569 2628 3553 
L 2631 2963 
z
" id="DejaVuSans-72" transform="scale(0.015625)"/>
     </defs>
     <use xlink:href="#DejaVuSans-50"/>
     <use x="60.302734" xlink:href="#DejaVuSans-68"/>
     <use x="123.681641" xlink:href="#DejaVuSans-6f"/>
     <use x="184.863281" xlink:href="#DejaVuSans-6e"/>
     <use x="248.242188" xlink:href="#DejaVuSans-65"/>
     <use x="309.765625" xlink:href="#DejaVuSans-6d"/>
     <use x="407.177734" xlink:href="#DejaVuSans-65"/>
     <use x="468.701172" xlink:href="#DejaVuSans-20"/>
     <use x="500.488281" xlink:href="#DejaVuSans-46"/>
     <use x="552.507812" xlink:href="#DejaVuSans-65"/>
     <use x="614.03125" xlink:href="#DejaVuSans-61"/>
     <use x="675.310547" xlink:href="#DejaVuSans-74"/>
     <use x="714.519531" xlink:href="#DejaVuSans-75"/>
     <use x="777.898438" xlink:href="#DejaVuSans-72"/>
     <use x="816.761719" xlink:href="#DejaVuSans-65"/>
     <use x="878.285156" xlink:href="#DejaVuSans-73"/>
    </g>
   </g>
  </g>
  <g id="text_19">
   <!-- Time (sec) -->
   <g transform="translate(69.414375 216)scale(0.12 -0.12)">
    <defs>
     <path d="M -19 4666 
L 3928 4666 
L 3928 4134 
L 2272 4134 
L 2272 0 
L 1638 0 
L 1638 4134 
L -19 4134 
L -19 4666 
z
" id="DejaVuSans-54" transform="scale(0.015625)"/>
     <path d="M 1984 4856 
Q 1566 4138 1362 3434 
Q 1159 2731 1159 2009 
Q 1159 1288 1364 580 
Q 1569 -128 1984 -844 
L 1484 -844 
Q 1016 -109 783 600 
Q 550 1309 550 2009 
Q 550 2706 781 3412 
Q 1013 4119 1484 4856 
L 1984 4856 
z
" id="DejaVuSans-28" transform="scale(0.015625)"/>
     <path d="M 513 4856 
L 1013 4856 
Q 1481 4119 1714 3412 
Q 1947 2706 1947 2009 
Q 1947 1309 1714 600 
Q 1481 -109 1013 -844 
L 513 -844 
Q 928 -128 1133 580 
Q 1338 1288 1338 2009 
Q 1338 2731 1133 3434 
Q 928 4138 513 4856 
z
" id="DejaVuSans-29" transform="scale(0.015625)"/>
    </defs>
    <use xlink:href="#DejaVuSans-54"/>
    <use x="57.958984" xlink:href="#DejaVuSans-69"/>
    <use x="85.742188" xlink:href="#DejaVuSans-6d"/>
    <use x="183.154297" xlink:href="#DejaVuSans-65"/>
    <use x="244.677734" xlink:href="#DejaVuSans-20"/>
    <use x="276.464844" xlink:href="#DejaVuSans-28"/>
    <use x="315.478516" xlink:href="#DejaVuSans-73"/>
    <use x="367.578125" xlink:href="#DejaVuSans-65"/>
    <use x="429.101562" xlink:href="#DejaVuSans-63"/>
    <use x="484.082031" xlink:href="#DejaVuSans-29"/>
   </g>
  </g>
  <g id="text_20">
   <!-- Power of Weights $\mathregular{\sqrt{w^{2}}}$ -->
   <g transform="translate(15.36 175.74)rotate(-90)scale(0.12 -0.12)">
    <defs>
     <path d="M 269 3500 
L 844 3500 
L 1563 769 
L 2278 3500 
L 2956 3500 
L 3675 769 
L 4391 3500 
L 4966 3500 
L 4050 0 
L 3372 0 
L 2619 2869 
L 1863 0 
L 1184 0 
L 269 3500 
z
" id="DejaVuSans-77" transform="scale(0.015625)"/>
     <path d="M 2375 4863 
L 2375 4384 
L 1825 4384 
Q 1516 4384 1395 4259 
Q 1275 4134 1275 3809 
L 1275 3500 
L 2222 3500 
L 2222 3053 
L 1275 3053 
L 1275 0 
L 697 0 
L 697 3053 
L 147 3053 
L 147 3500 
L 697 3500 
L 697 3744 
Q 697 4328 969 4595 
Q 1241 4863 1831 4863 
L 2375 4863 
z
" id="DejaVuSans-66" transform="scale(0.015625)"/>
     <path d="M 213 4666 
L 850 4666 
L 1831 722 
L 2809 4666 
L 3519 4666 
L 4500 722 
L 5478 4666 
L 6119 4666 
L 4947 0 
L 4153 0 
L 3169 4050 
L 2175 0 
L 1381 0 
L 213 4666 
z
" id="DejaVuSans-57" transform="scale(0.015625)"/>
     <path d="M 6970 9933 
L 3373 -1888 
L 3104 -1888 
L 1626 2918 
Q 1555 3149 1465 3251 
Q 1376 3354 1229 3354 
Q 1011 3354 794 3181 
L 717 3309 
L 1766 4115 
L 1926 4115 
L 3379 -602 
L 3405 -602 
L 6605 9933 
L 6970 9933 
z
" id="STIXSizeOneSym-Regular-221a" transform="scale(0.015625)"/>
    </defs>
    <use transform="translate(0 0.09375)" xlink:href="#DejaVuSans-50"/>
    <use transform="translate(60.302734 0.09375)" xlink:href="#DejaVuSans-6f"/>
    <use transform="translate(121.484375 0.09375)" xlink:href="#DejaVuSans-77"/>
    <use transform="translate(203.271484 0.09375)" xlink:href="#DejaVuSans-65"/>
    <use transform="translate(264.794922 0.09375)" xlink:href="#DejaVuSans-72"/>
    <use transform="translate(305.908203 0.09375)" xlink:href="#DejaVuSans-20"/>
    <use transform="translate(337.695312 0.09375)" xlink:href="#DejaVuSans-6f"/>
    <use transform="translate(398.876953 0.09375)" xlink:href="#DejaVuSans-66"/>
    <use transform="translate(434.082031 0.09375)" xlink:href="#DejaVuSans-20"/>
    <use transform="translate(465.869141 0.09375)" xlink:href="#DejaVuSans-57"/>
    <use transform="translate(564.746094 0.09375)" xlink:href="#DejaVuSans-65"/>
    <use transform="translate(626.269531 0.09375)" xlink:href="#DejaVuSans-69"/>
    <use transform="translate(654.052734 0.09375)" xlink:href="#DejaVuSans-67"/>
    <use transform="translate(717.529297 0.09375)" xlink:href="#DejaVuSans-68"/>
    <use transform="translate(780.908203 0.09375)" xlink:href="#DejaVuSans-74"/>
    <use transform="translate(820.117188 0.09375)" xlink:href="#DejaVuSans-73"/>
    <use transform="translate(872.216797 0.09375)" xlink:href="#DejaVuSans-20"/>
    <use transform="translate(904.003906 19.5625)scale(0.657728)" xlink:href="#STIXSizeOneSym-Regular-221a"/>
    <use transform="translate(986.001648 0.515625)" xlink:href="#DejaVuSans-77"/>
    <use transform="translate(1068.745789 38.796875)scale(0.7)" xlink:href="#DejaVuSans-32"/>
    <path d="M 973.501648 115.5 
L 973.501648 121.75 
L 1128.516296 121.75 
L 1128.516296 115.5 
L 973.501648 115.5 
z
"/>
   </g>
  </g>
 </g>
 <defs>
  <clipPath id="p2971fa15b7">
   <rect height="72.27" width="164.54" x="28.42" y="22.56"/>
  </clipPath>
  <clipPath id="pf5f0f65529">
   <rect height="72.27" width="164.54" x="28.42" y="120.89"/>
  </clipPath>
 </defs>
</svg>
