<?xml version="1.0" encoding="utf-8" standalone="no"?>
<!DOCTYPE svg PUBLIC "-//W3C//DTD SVG 1.1//EN"
  "http://www.w3.org/Graphics/SVG/1.1/DTD/svg11.dtd">
<svg height="223.934062pt" version="1.1" viewBox="0 0 207.36 223.934062" width="207.36pt" xmlns="http://www.w3.org/2000/svg" xmlns:xlink="http://www.w3.org/1999/xlink">
 <metadata>
  <rdf:RDF xmlns:cc="http://creativecommons.org/ns#" xmlns:dc="http://purl.org/dc/elements/1.1/" xmlns:rdf="http://www.w3.org/1999/02/22-rdf-syntax-ns#">
   <cc:Work>
    <dc:type rdf:resource="http://purl.org/dc/dcmitype/StillImage"/>
    <dc:date>2026-02-07T18:32:45.244568</dc:date>
    <dc:format>image/svg+xml</dc:format>
    <dc:creator>
     <cc:Agent>
      <dc:title>Matplotlib v3.4.2, https://matplotlib.org/</dc:title>
     </cc:Agent>
    </dc:creator>
   </cc:Work>
  </rdf:RDF>
 </metadata>
 <defs>
  <style type="text/css">*{stroke-linecap:butt;stroke-linejoin:round;}</style>
 </defs>
 <g id="figure_1">
  <g id="patch_1">
   <path d="M -0 223.934062 
L 207.36 223.934062 
L 207.36 0 
L -0 0 
z
" style="fill:none;"/>
  </g>
  <g id="axes_1">
   <g id="patch_2">
    <path d="M 27.97 93.068437 
L 200.16 93.068437 
L 200.16 20.798438 
L 27.97 20.798438 
z
" style="fill:none;"/>
   </g>
   <g id="PolyCollection_1">
    <defs>
     <path d="M 35.796818 -150.186005 
L 35.796818 -149.773601 
L 37.912174 -144.415845 
L 40.027531 -137.359291 
L 42.142887 -136.908922 
L 44.258243 -137.807261 
L 46.3736 -138.382878 
L 48.488956 -139.471427 
L 50.604312 -141.800201 
L 52.719668 -146.416038 
L 54.835025 -154.031184 
L 56.950381 -162.147548 
L 59.065737 -163.791034 
L 61.181093 -158.458099 
L 63.29645 -152.212042 
L 65.411806 -148.004258 
L 67.527162 -149.104437 
L 69.642518 -158.252172 
L 71.757875 -170.497574 
L 73.873231 -174.508611 
L 75.988587 -168.548334 
L 78.103943 -158.569303 
L 80.2193 -149.431381 
L 82.334656 -143.773013 
L 84.450012 -143.312148 
L 86.565369 -147.336769 
L 88.680725 -150.150609 
L 90.796081 -147.628848 
L 92.911437 -143.41388 
L 95.026794 -140.972384 
L 97.14215 -140.520157 
L 99.257506 -141.034088 
L 101.372862 -142.352229 
L 103.488219 -143.365104 
L 105.603575 -142.725395 
L 107.718931 -141.157474 
L 109.834287 -140.206317 
L 111.949644 -140.301752 
L 114.065 -140.629589 
L 116.180356 -140.307035 
L 118.295713 -139.435479 
L 120.411069 -139.324463 
L 122.526425 -140.080264 
L 124.641781 -141.277267 
L 126.757138 -142.521874 
L 128.872494 -143.974343 
L 130.98785 -145.588041 
L 133.103206 -145.292847 
L 135.218563 -143.18606 
L 137.333919 -141.77939 
L 139.449275 -140.346039 
L 141.564631 -138.565006 
L 143.679988 -137.706218 
L 145.795344 -137.38091 
L 147.9107 -137.247396 
L 150.026057 -137.312852 
L 152.141413 -137.279306 
L 154.256769 -137.148068 
L 156.372125 -137.076888 
L 158.487482 -137.211507 
L 160.602838 -137.551414 
L 162.718194 -138.05878 
L 164.83355 -138.798059 
L 166.948907 -139.155985 
L 169.064263 -138.451164 
L 171.179619 -137.475549 
L 173.294975 -137.070452 
L 175.410332 -137.253607 
L 177.525688 -137.578386 
L 179.641044 -137.823055 
L 181.7564 -138.198922 
L 183.871757 -138.620753 
L 185.987113 -138.73794 
L 188.102469 -138.577472 
L 190.217826 -139.010125 
L 192.333182 -138.884143 
L 192.333182 -140.30766 
L 192.333182 -140.30766 
L 190.217826 -140.474119 
L 188.102469 -140.061618 
L 185.987113 -140.258152 
L 183.871757 -140.048457 
L 181.7564 -139.553936 
L 179.641044 -139.01753 
L 177.525688 -138.631978 
L 175.410332 -138.761719 
L 173.294975 -139.295832 
L 171.179619 -139.928324 
L 169.064263 -140.332661 
L 166.948907 -140.170451 
L 164.83355 -139.70202 
L 162.718194 -138.953241 
L 160.602838 -138.363276 
L 158.487482 -137.9957 
L 156.372125 -137.92107 
L 154.256769 -138.130924 
L 152.141413 -138.286808 
L 150.026057 -138.341223 
L 147.9107 -138.549314 
L 145.795344 -139.196424 
L 143.679988 -140.703701 
L 141.564631 -142.74067 
L 139.449275 -144.945384 
L 137.333919 -147.534164 
L 135.218563 -149.82281 
L 133.103206 -151.736138 
L 130.98785 -151.382857 
L 128.872494 -148.57307 
L 126.757138 -145.751382 
L 124.641781 -143.372604 
L 122.526425 -141.812793 
L 120.411069 -141.337336 
L 118.295713 -141.735861 
L 116.180356 -142.673307 
L 114.065 -144.012733 
L 111.949644 -144.817118 
L 109.834287 -145.171189 
L 107.718931 -145.505766 
L 105.603575 -145.884677 
L 103.488219 -146.36726 
L 101.372862 -147.108339 
L 99.257506 -148.60767 
L 97.14215 -151.340604 
L 95.026794 -154.97245 
L 92.911437 -158.139338 
L 90.796081 -158.642085 
L 88.680725 -155.889343 
L 86.565369 -153.323285 
L 84.450012 -153.54049 
L 82.334656 -158.202608 
L 80.2193 -167.865142 
L 78.103943 -179.463754 
L 75.988587 -187.062651 
L 73.873231 -184.988049 
L 71.757875 -174.491925 
L 69.642518 -163.104964 
L 67.527162 -156.789204 
L 65.411806 -156.848884 
L 63.29645 -162.197874 
L 61.181093 -168.137765 
L 59.065737 -170.164554 
L 56.950381 -165.46823 
L 54.835025 -155.829925 
L 52.719668 -147.56257 
L 50.604312 -142.659605 
L 48.488956 -140.272165 
L 46.3736 -139.371807 
L 44.258243 -139.140946 
L 42.142887 -140.189117 
L 40.027531 -142.701729 
L 37.912174 -147.224965 
L 35.796818 -150.186005 
z
" id="m5c71451473" style="stroke:#504538;stroke-opacity:0.7;stroke-width:0.2;"/>
    </defs>
    <g clip-path="url(#pc2ec3f20a6)">
     <use style="fill:#504538;fill-opacity:0.7;stroke:#504538;stroke-opacity:0.7;stroke-width:0.2;" x="0" xlink:href="#m5c71451473" y="223.934062"/>
    </g>
   </g>
   <g id="PolyCollection_2">
    <defs>
     <path d="M 35.796818 -146.813373 
L 35.796818 -146.537442 
L 37.912174 -144.565698 
L 40.027531 -139.25548 
L 42.142887 -137.145674 
L 44.258243 -137.135487 
L 46.3736 -137.870381 
L 48.488956 -138.447294 
L 50.604312 -137.929497 
L 52.719668 -137.27353 
L 54.835025 -138.870535 
L 56.950381 -144.805677 
L 59.065737 -155.041169 
L 61.181093 -165.523341 
L 63.29645 -169.26738 
L 65.411806 -163.273275 
L 67.527162 -155.003581 
L 69.642518 -152.175629 
L 71.757875 -154.354025 
L 73.873231 -159.040372 
L 75.988587 -160.743153 
L 78.103943 -155.005371 
L 80.2193 -146.436741 
L 82.334656 -141.411968 
L 84.450012 -139.507507 
L 86.565369 -139.386069 
L 88.680725 -141.849778 
L 90.796081 -144.253049 
L 92.911437 -144.372781 
L 95.026794 -141.87274 
L 97.14215 -140.368829 
L 99.257506 -141.567263 
L 101.372862 -142.522353 
L 103.488219 -142.207721 
L 105.603575 -142.18026 
L 107.718931 -142.174486 
L 109.834287 -140.903935 
L 111.949644 -138.908612 
L 114.065 -137.980011 
L 116.180356 -138.28086 
L 118.295713 -138.441256 
L 120.411069 -138.21116 
L 122.526425 -138.12521 
L 124.641781 -138.023407 
L 126.757138 -137.982086 
L 128.872494 -138.355488 
L 130.98785 -139.017209 
L 133.103206 -139.96549 
L 135.218563 -140.813153 
L 137.333919 -140.993627 
L 139.449275 -140.458933 
L 141.564631 -139.505908 
L 143.679988 -138.269843 
L 145.795344 -137.278565 
L 147.9107 -136.805481 
L 150.026057 -136.62236 
L 152.141413 -136.653067 
L 154.256769 -136.61807 
L 156.372125 -136.513029 
L 158.487482 -136.599047 
L 160.602838 -136.741493 
L 162.718194 -136.76513 
L 164.83355 -136.860096 
L 166.948907 -137.009649 
L 169.064263 -137.128269 
L 171.179619 -137.743862 
L 173.294975 -139.121906 
L 175.410332 -140.335277 
L 177.525688 -140.414432 
L 179.641044 -139.507407 
L 181.7564 -138.332817 
L 183.871757 -137.453016 
L 185.987113 -137.172786 
L 188.102469 -137.352409 
L 190.217826 -138.221474 
L 192.333182 -138.410857 
L 192.333182 -139.446762 
L 192.333182 -139.446762 
L 190.217826 -139.107473 
L 188.102469 -138.203444 
L 185.987113 -138.414362 
L 183.871757 -139.258004 
L 181.7564 -140.700929 
L 179.641044 -142.137533 
L 177.525688 -142.507823 
L 175.410332 -141.509719 
L 173.294975 -139.908983 
L 171.179619 -138.653513 
L 169.064263 -137.993692 
L 166.948907 -137.906307 
L 164.83355 -137.890172 
L 162.718194 -137.617772 
L 160.602838 -137.279713 
L 158.487482 -137.120027 
L 156.372125 -137.254535 
L 154.256769 -137.601479 
L 152.141413 -137.940629 
L 150.026057 -138.156203 
L 147.9107 -138.628487 
L 145.795344 -139.696482 
L 143.679988 -141.061344 
L 141.564631 -142.491459 
L 139.449275 -143.293367 
L 137.333919 -143.168889 
L 135.218563 -142.704084 
L 133.103206 -141.585205 
L 130.98785 -140.243849 
L 128.872494 -139.311942 
L 126.757138 -139.108387 
L 124.641781 -139.279354 
L 122.526425 -139.707442 
L 120.411069 -140.133221 
L 118.295713 -140.48659 
L 116.180356 -141.083285 
L 114.065 -141.655438 
L 111.949644 -142.608286 
L 109.834287 -144.124397 
L 107.718931 -145.269269 
L 105.603575 -145.823708 
L 103.488219 -146.244263 
L 101.372862 -146.343414 
L 99.257506 -146.488123 
L 97.14215 -146.97766 
L 95.026794 -148.214125 
L 92.911437 -149.108437 
L 90.796081 -147.27954 
L 88.680725 -144.70284 
L 86.565369 -144.338239 
L 84.450012 -146.968158 
L 82.334656 -155.493724 
L 80.2193 -165.840564 
L 78.103943 -171.265559 
L 75.988587 -170.443933 
L 73.873231 -166.168131 
L 71.757875 -163.149874 
L 69.642518 -165.345609 
L 67.527162 -172.428454 
L 65.411806 -180.130923 
L 63.29645 -182.989002 
L 61.181093 -173.228403 
L 59.065737 -157.8721 
L 56.950381 -146.004404 
L 54.835025 -140.401984 
L 52.719668 -138.853414 
L 50.604312 -138.964904 
L 48.488956 -139.430387 
L 46.3736 -139.344837 
L 44.258243 -139.712492 
L 42.142887 -141.421302 
L 40.027531 -143.766098 
L 37.912174 -146.572702 
L 35.796818 -146.813373 
z
" id="m664b85bf2b" style="stroke:#e39ba6;stroke-opacity:0.7;stroke-width:0.2;"/>
    </defs>
    <g clip-path="url(#pc2ec3f20a6)">
     <use style="fill:#e39ba6;fill-opacity:0.7;stroke:#e39ba6;stroke-opacity:0.7;stroke-width:0.2;" x="0" xlink:href="#m664b85bf2b" y="223.934062"/>
    </g>
   </g>
   <g id="matplotlib.axis_1">
    <g id="xtick_1">
     <g id="line2d_1">
      <path clip-path="url(#pc2ec3f20a6)" d="M 46.3736 93.068437 
L 46.3736 20.798438 
" style="fill:none;stroke:#b0b0b0;stroke-linecap:square;stroke-width:0.8;"/>
     </g>
     <g id="line2d_2">
      <defs>
       <path d="M 0 0 
L 0 3.5 
" id="m0e6682f3eb" style="stroke:#000000;stroke-width:0.8;"/>
      </defs>
      <g>
       <use style="stroke:#000000;stroke-width:0.8;" x="46.3736" xlink:href="#m0e6682f3eb" y="93.068437"/>
      </g>
     </g>
    </g>
    <g id="xtick_2">
     <g id="line2d_3">
      <path clip-path="url(#pc2ec3f20a6)" d="M 88.680725 93.068437 
L 88.680725 20.798438 
" style="fill:none;stroke:#b0b0b0;stroke-linecap:square;stroke-width:0.8;"/>
     </g>
     <g id="line2d_4">
      <g>
       <use style="stroke:#000000;stroke-width:0.8;" x="88.680725" xlink:href="#m0e6682f3eb" y="93.068437"/>
      </g>
     </g>
    </g>
    <g id="xtick_3">
     <g id="line2d_5">
      <path clip-path="url(#pc2ec3f20a6)" d="M 130.98785 93.068437 
L 130.98785 20.798438 
" style="fill:none;stroke:#b0b0b0;stroke-linecap:square;stroke-width:0.8;"/>
     </g>
     <g id="line2d_6">
      <g>
       <use style="stroke:#000000;stroke-width:0.8;" x="130.98785" xlink:href="#m0e6682f3eb" y="93.068437"/>
      </g>
     </g>
    </g>
    <g id="xtick_4">
     <g id="line2d_7">
      <path clip-path="url(#pc2ec3f20a6)" d="M 173.294975 93.068437 
L 173.294975 20.798438 
" style="fill:none;stroke:#b0b0b0;stroke-linecap:square;stroke-width:0.8;"/>
     </g>
     <g id="line2d_8">
      <g>
       <use style="stroke:#000000;stroke-width:0.8;" x="173.294975" xlink:href="#m0e6682f3eb" y="93.068437"/>
      </g>
     </g>
    </g>
   </g>
   <g id="matplotlib.axis_2">
    <g id="ytick_1">
     <g id="line2d_9">
      <path clip-path="url(#pc2ec3f20a6)" d="M 27.97 89.783437 
L 200.16 89.783437 
" style="fill:none;stroke:#b0b0b0;stroke-linecap:square;stroke-width:0.8;"/>
     </g>
     <g id="line2d_10">
      <defs>
       <path d="M 0 0 
L -3.5 0 
" id="m4c379e21ce" style="stroke:#000000;stroke-width:0.8;"/>
      </defs>
      <g>
       <use style="stroke:#000000;stroke-width:0.8;" x="27.97" xlink:href="#m4c379e21ce" y="89.783437"/>
      </g>
     </g>
     <g id="text_1">
      <!-- 0 -->
      <g transform="translate(15.88 92.822812)scale(0.08 -0.08)">
       <defs>
        <path d="M 2034 4250 
Q 1547 4250 1301 3770 
Q 1056 3291 1056 2328 
Q 1056 1369 1301 889 
Q 1547 409 2034 409 
Q 2525 409 2770 889 
Q 3016 1369 3016 2328 
Q 3016 3291 2770 3770 
Q 2525 4250 2034 4250 
z
M 2034 4750 
Q 2819 4750 3233 4129 
Q 3647 3509 3647 2328 
Q 3647 1150 3233 529 
Q 2819 -91 2034 -91 
Q 1250 -91 836 529 
Q 422 1150 422 2328 
Q 422 3509 836 4129 
Q 1250 4750 2034 4750 
z
" id="DejaVuSans-30" transform="scale(0.015625)"/>
       </defs>
       <use xlink:href="#DejaVuSans-30"/>
      </g>
     </g>
    </g>
    <g id="ytick_2">
     <g id="line2d_11">
      <path clip-path="url(#pc2ec3f20a6)" d="M 27.97 73.645545 
L 200.16 73.645545 
" style="fill:none;stroke:#b0b0b0;stroke-linecap:square;stroke-width:0.8;"/>
     </g>
     <g id="line2d_12">
      <g>
       <use style="stroke:#000000;stroke-width:0.8;" x="27.97" xlink:href="#m4c379e21ce" y="73.645545"/>
      </g>
     </g>
     <g id="text_2">
      <!-- 2 -->
      <g transform="translate(15.88 76.68492)scale(0.08 -0.08)">
       <defs>
        <path d="M 1228 531 
L 3431 531 
L 3431 0 
L 469 0 
L 469 531 
Q 828 903 1448 1529 
Q 2069 2156 2228 2338 
Q 2531 2678 2651 2914 
Q 2772 3150 2772 3378 
Q 2772 3750 2511 3984 
Q 2250 4219 1831 4219 
Q 1534 4219 1204 4116 
Q 875 4013 500 3803 
L 500 4441 
Q 881 4594 1212 4672 
Q 1544 4750 1819 4750 
Q 2544 4750 2975 4387 
Q 3406 4025 3406 3419 
Q 3406 3131 3298 2873 
Q 3191 2616 2906 2266 
Q 2828 2175 2409 1742 
Q 1991 1309 1228 531 
z
" id="DejaVuSans-32" transform="scale(0.015625)"/>
       </defs>
       <use xlink:href="#DejaVuSans-32"/>
      </g>
     </g>
    </g>
    <g id="ytick_3">
     <g id="line2d_13">
      <path clip-path="url(#pc2ec3f20a6)" d="M 27.97 57.507653 
L 200.16 57.507653 
" style="fill:none;stroke:#b0b0b0;stroke-linecap:square;stroke-width:0.8;"/>
     </g>
     <g id="line2d_14">
      <g>
       <use style="stroke:#000000;stroke-width:0.8;" x="27.97" xlink:href="#m4c379e21ce" y="57.507653"/>
      </g>
     </g>
     <g id="text_3">
      <!-- 4 -->
      <g transform="translate(15.88 60.547028)scale(0.08 -0.08)">
       <defs>
        <path d="M 2419 4116 
L 825 1625 
L 2419 1625 
L 2419 4116 
z
M 2253 4666 
L 3047 4666 
L 3047 1625 
L 3713 1625 
L 3713 1100 
L 3047 1100 
L 3047 0 
L 2419 0 
L 2419 1100 
L 313 1100 
L 313 1709 
L 2253 4666 
z
" id="DejaVuSans-34" transform="scale(0.015625)"/>
       </defs>
       <use xlink:href="#DejaVuSans-34"/>
      </g>
     </g>
    </g>
    <g id="ytick_4">
     <g id="line2d_15">
      <path clip-path="url(#pc2ec3f20a6)" d="M 27.97 41.36976 
L 200.16 41.36976 
" style="fill:none;stroke:#b0b0b0;stroke-linecap:square;stroke-width:0.8;"/>
     </g>
     <g id="line2d_16">
      <g>
       <use style="stroke:#000000;stroke-width:0.8;" x="27.97" xlink:href="#m4c379e21ce" y="41.36976"/>
      </g>
     </g>
     <g id="text_4">
      <!-- 6 -->
      <g transform="translate(15.88 44.409135)scale(0.08 -0.08)">
       <defs>
        <path d="M 2113 2584 
Q 1688 2584 1439 2293 
Q 1191 2003 1191 1497 
Q 1191 994 1439 701 
Q 1688 409 2113 409 
Q 2538 409 2786 701 
Q 3034 994 3034 1497 
Q 3034 2003 2786 2293 
Q 2538 2584 2113 2584 
z
M 3366 4563 
L 3366 3988 
Q 3128 4100 2886 4159 
Q 2644 4219 2406 4219 
Q 1781 4219 1451 3797 
Q 1122 3375 1075 2522 
Q 1259 2794 1537 2939 
Q 1816 3084 2150 3084 
Q 2853 3084 3261 2657 
Q 3669 2231 3669 1497 
Q 3669 778 3244 343 
Q 2819 -91 2113 -91 
Q 1303 -91 875 529 
Q 447 1150 447 2328 
Q 447 3434 972 4092 
Q 1497 4750 2381 4750 
Q 2619 4750 2861 4703 
Q 3103 4656 3366 4563 
z
" id="DejaVuSans-36" transform="scale(0.015625)"/>
       </defs>
       <use xlink:href="#DejaVuSans-36"/>
      </g>
     </g>
    </g>
    <g id="ytick_5">
     <g id="line2d_17">
      <path clip-path="url(#pc2ec3f20a6)" d="M 27.97 25.231868 
L 200.16 25.231868 
" style="fill:none;stroke:#b0b0b0;stroke-linecap:square;stroke-width:0.8;"/>
     </g>
     <g id="line2d_18">
      <g>
       <use style="stroke:#000000;stroke-width:0.8;" x="27.97" xlink:href="#m4c379e21ce" y="25.231868"/>
      </g>
     </g>
     <g id="text_5">
      <!-- 8 -->
      <g transform="translate(15.88 28.271243)scale(0.08 -0.08)">
       <defs>
        <path d="M 2034 2216 
Q 1584 2216 1326 1975 
Q 1069 1734 1069 1313 
Q 1069 891 1326 650 
Q 1584 409 2034 409 
Q 2484 409 2743 651 
Q 3003 894 3003 1313 
Q 3003 1734 2745 1975 
Q 2488 2216 2034 2216 
z
M 1403 2484 
Q 997 2584 770 2862 
Q 544 3141 544 3541 
Q 544 4100 942 4425 
Q 1341 4750 2034 4750 
Q 2731 4750 3128 4425 
Q 3525 4100 3525 3541 
Q 3525 3141 3298 2862 
Q 3072 2584 2669 2484 
Q 3125 2378 3379 2068 
Q 3634 1759 3634 1313 
Q 3634 634 3220 271 
Q 2806 -91 2034 -91 
Q 1263 -91 848 271 
Q 434 634 434 1313 
Q 434 1759 690 2068 
Q 947 2378 1403 2484 
z
M 1172 3481 
Q 1172 3119 1398 2916 
Q 1625 2713 2034 2713 
Q 2441 2713 2670 2916 
Q 2900 3119 2900 3481 
Q 2900 3844 2670 4047 
Q 2441 4250 2034 4250 
Q 1625 4250 1398 4047 
Q 1172 3844 1172 3481 
z
" id="DejaVuSans-38" transform="scale(0.015625)"/>
       </defs>
       <use xlink:href="#DejaVuSans-38"/>
      </g>
     </g>
    </g>
    <g id="text_6">
     <!-- 1e−4 -->
     <g transform="translate(27.97 17.798438)scale(0.08 -0.08)">
      <defs>
       <path d="M 794 531 
L 1825 531 
L 1825 4091 
L 703 3866 
L 703 4441 
L 1819 4666 
L 2450 4666 
L 2450 531 
L 3481 531 
L 3481 0 
L 794 0 
L 794 531 
z
" id="DejaVuSans-31" transform="scale(0.015625)"/>
       <path d="M 3597 1894 
L 3597 1613 
L 953 1613 
Q 991 1019 1311 708 
Q 1631 397 2203 397 
Q 2534 397 2845 478 
Q 3156 559 3463 722 
L 3463 178 
Q 3153 47 2828 -22 
Q 2503 -91 2169 -91 
Q 1331 -91 842 396 
Q 353 884 353 1716 
Q 353 2575 817 3079 
Q 1281 3584 2069 3584 
Q 2775 3584 3186 3129 
Q 3597 2675 3597 1894 
z
M 3022 2063 
Q 3016 2534 2758 2815 
Q 2500 3097 2075 3097 
Q 1594 3097 1305 2825 
Q 1016 2553 972 2059 
L 3022 2063 
z
" id="DejaVuSans-65" transform="scale(0.015625)"/>
       <path d="M 678 2272 
L 4684 2272 
L 4684 1741 
L 678 1741 
L 678 2272 
z
" id="DejaVuSans-2212" transform="scale(0.015625)"/>
      </defs>
      <use xlink:href="#DejaVuSans-31"/>
      <use x="63.623047" xlink:href="#DejaVuSans-65"/>
      <use x="125.146484" xlink:href="#DejaVuSans-2212"/>
      <use x="208.935547" xlink:href="#DejaVuSans-34"/>
     </g>
    </g>
   </g>
   <g id="line2d_19">
    <path clip-path="url(#pc2ec3f20a6)" d="M 35.796818 73.95426 
L 37.912174 78.113658 
L 40.027531 83.903553 
L 42.142887 85.385043 
L 44.258243 85.459959 
L 46.3736 85.05672 
L 48.488956 84.062266 
L 50.604312 81.704159 
L 52.719668 76.944759 
L 54.835025 69.003508 
L 56.950381 60.126174 
L 59.065737 56.956269 
L 61.181093 60.636131 
L 63.29645 66.729105 
L 65.411806 71.507492 
L 67.527162 70.987242 
L 69.642518 63.255495 
L 71.757875 51.439313 
L 73.873231 44.185732 
L 75.988587 46.12857 
L 78.103943 54.917534 
L 80.2193 65.285801 
L 82.334656 72.946252 
L 84.450012 75.507744 
L 86.565369 73.604035 
L 88.680725 70.914087 
L 90.796081 70.798596 
L 92.911437 73.157453 
L 95.026794 75.961645 
L 97.14215 78.003682 
L 99.257506 79.113183 
L 101.372862 79.203778 
L 103.488219 79.06788 
L 105.603575 79.629027 
L 107.718931 80.602442 
L 109.834287 81.24531 
L 111.949644 81.374627 
L 114.065 81.612902 
L 116.180356 82.443891 
L 118.295713 83.348392 
L 120.411069 83.603163 
L 122.526425 82.987534 
L 124.641781 81.609127 
L 126.757138 79.797434 
L 128.872494 77.660356 
L 130.98785 75.448614 
L 133.103206 75.41957 
L 135.218563 77.429627 
L 137.333919 79.277286 
L 139.449275 81.288351 
L 141.564631 83.281224 
L 143.679988 84.729103 
L 145.795344 85.645396 
L 147.9107 86.035708 
L 150.026057 86.107025 
L 152.141413 86.151005 
L 154.256769 86.294567 
L 156.372125 86.435084 
L 158.487482 86.330459 
L 160.602838 85.976718 
L 162.718194 85.428052 
L 164.83355 84.684023 
L 166.948907 84.270844 
L 169.064263 84.54215 
L 171.179619 85.232126 
L 173.294975 85.75092 
L 175.410332 85.9264 
L 177.525688 85.82888 
L 179.641044 85.51377 
L 181.7564 85.057634 
L 183.871757 84.599457 
L 185.987113 84.436017 
L 188.102469 84.614518 
L 190.217826 84.19194 
L 192.333182 84.338161 
" style="fill:none;stroke:#504538;stroke-linecap:square;stroke-width:0.5;"/>
   </g>
   <g id="line2d_20">
    <path clip-path="url(#pc2ec3f20a6)" d="M 35.796818 77.258655 
L 37.912174 78.364862 
L 40.027531 82.423273 
L 42.142887 84.650574 
L 44.258243 85.510073 
L 46.3736 85.326454 
L 48.488956 84.995222 
L 50.604312 85.486862 
L 52.719668 85.870591 
L 54.835025 84.297803 
L 56.950381 78.529022 
L 59.065737 67.477428 
L 61.181093 54.558191 
L 63.29645 47.805872 
L 65.411806 52.231964 
L 67.527162 60.218045 
L 69.642518 65.173444 
L 71.757875 65.182113 
L 73.873231 61.329811 
L 75.988587 58.340519 
L 78.103943 60.798597 
L 80.2193 67.79541 
L 82.334656 75.481217 
L 84.450012 80.69623 
L 86.565369 82.071909 
L 88.680725 80.657753 
L 90.796081 78.167768 
L 92.911437 77.193454 
L 95.026794 78.89063 
L 97.14215 80.260818 
L 99.257506 79.906369 
L 101.372862 79.501179 
L 103.488219 79.708071 
L 105.603575 79.932078 
L 107.718931 80.212185 
L 109.834287 81.419897 
L 111.949644 83.175614 
L 114.065 84.116338 
L 116.180356 84.25199 
L 118.295713 84.47014 
L 120.411069 84.761872 
L 122.526425 85.017736 
L 124.641781 85.282682 
L 126.757138 85.388826 
L 128.872494 85.100347 
L 130.98785 84.303533 
L 133.103206 83.158715 
L 135.218563 82.175444 
L 137.333919 81.852804 
L 139.449275 82.057912 
L 141.564631 82.935379 
L 143.679988 84.268469 
L 145.795344 85.446539 
L 147.9107 86.217079 
L 150.026057 86.544781 
L 152.141413 86.637214 
L 154.256769 86.824288 
L 156.372125 87.050281 
L 158.487482 87.074526 
L 160.602838 86.92346 
L 162.718194 86.742611 
L 164.83355 86.558928 
L 166.948907 86.476084 
L 169.064263 86.373082 
L 171.179619 85.735375 
L 173.294975 84.418618 
L 175.410332 83.011565 
L 177.525688 82.472935 
L 179.641044 83.111593 
L 181.7564 84.417189 
L 183.871757 85.578553 
L 185.987113 86.140488 
L 188.102469 86.156136 
L 190.217826 85.269589 
L 192.333182 85.005253 
" style="fill:none;stroke:#e39ba6;stroke-linecap:square;stroke-width:0.5;"/>
   </g>
   <g id="line2d_21">
    <path clip-path="url(#pc2ec3f20a6)" d="M 46.3736 89.783437 
L 48.488956 89.783437 
L 50.604312 89.783437 
L 52.719668 89.783437 
L 54.835025 89.783437 
L 56.950381 89.783437 
L 59.065737 89.783437 
L 61.181093 89.783437 
L 63.29645 89.783437 
L 65.411806 89.783437 
L 67.527162 89.783437 
L 69.642518 89.783437 
L 71.757875 89.783437 
L 73.873231 89.783437 
L 75.988587 89.783437 
L 78.103943 89.783437 
L 80.2193 89.783437 
L 82.334656 89.783437 
L 84.450012 89.783437 
L 86.565369 89.783437 
L 88.680725 89.783437 
L 90.796081 89.783437 
L 92.911437 89.783437 
L 95.026794 89.783437 
L 97.14215 89.783437 
L 99.257506 89.783437 
" style="fill:none;stroke:#ff0000;stroke-linecap:square;stroke-width:2;"/>
   </g>
   <g id="patch_3">
    <path d="M 27.97 93.068437 
L 200.16 93.068437 
" style="fill:none;stroke:#000000;stroke-linecap:square;stroke-linejoin:miter;stroke-width:0.8;"/>
   </g>
   <g id="text_7">
    <!-- Acoustic Edges -->
    <g transform="translate(76.273594 14.798438)scale(0.1 -0.1)">
     <defs>
      <path d="M 2188 4044 
L 1331 1722 
L 3047 1722 
L 2188 4044 
z
M 1831 4666 
L 2547 4666 
L 4325 0 
L 3669 0 
L 3244 1197 
L 1141 1197 
L 716 0 
L 50 0 
L 1831 4666 
z
" id="DejaVuSans-41" transform="scale(0.015625)"/>
      <path d="M 3122 3366 
L 3122 2828 
Q 2878 2963 2633 3030 
Q 2388 3097 2138 3097 
Q 1578 3097 1268 2742 
Q 959 2388 959 1747 
Q 959 1106 1268 751 
Q 1578 397 2138 397 
Q 2388 397 2633 464 
Q 2878 531 3122 666 
L 3122 134 
Q 2881 22 2623 -34 
Q 2366 -91 2075 -91 
Q 1284 -91 818 406 
Q 353 903 353 1747 
Q 353 2603 823 3093 
Q 1294 3584 2113 3584 
Q 2378 3584 2631 3529 
Q 2884 3475 3122 3366 
z
" id="DejaVuSans-63" transform="scale(0.015625)"/>
      <path d="M 1959 3097 
Q 1497 3097 1228 2736 
Q 959 2375 959 1747 
Q 959 1119 1226 758 
Q 1494 397 1959 397 
Q 2419 397 2687 759 
Q 2956 1122 2956 1747 
Q 2956 2369 2687 2733 
Q 2419 3097 1959 3097 
z
M 1959 3584 
Q 2709 3584 3137 3096 
Q 3566 2609 3566 1747 
Q 3566 888 3137 398 
Q 2709 -91 1959 -91 
Q 1206 -91 779 398 
Q 353 888 353 1747 
Q 353 2609 779 3096 
Q 1206 3584 1959 3584 
z
" id="DejaVuSans-6f" transform="scale(0.015625)"/>
      <path d="M 544 1381 
L 544 3500 
L 1119 3500 
L 1119 1403 
Q 1119 906 1312 657 
Q 1506 409 1894 409 
Q 2359 409 2629 706 
Q 2900 1003 2900 1516 
L 2900 3500 
L 3475 3500 
L 3475 0 
L 2900 0 
L 2900 538 
Q 2691 219 2414 64 
Q 2138 -91 1772 -91 
Q 1169 -91 856 284 
Q 544 659 544 1381 
z
M 1991 3584 
L 1991 3584 
z
" id="DejaVuSans-75" transform="scale(0.015625)"/>
      <path d="M 2834 3397 
L 2834 2853 
Q 2591 2978 2328 3040 
Q 2066 3103 1784 3103 
Q 1356 3103 1142 2972 
Q 928 2841 928 2578 
Q 928 2378 1081 2264 
Q 1234 2150 1697 2047 
L 1894 2003 
Q 2506 1872 2764 1633 
Q 3022 1394 3022 966 
Q 3022 478 2636 193 
Q 2250 -91 1575 -91 
Q 1294 -91 989 -36 
Q 684 19 347 128 
L 347 722 
Q 666 556 975 473 
Q 1284 391 1588 391 
Q 1994 391 2212 530 
Q 2431 669 2431 922 
Q 2431 1156 2273 1281 
Q 2116 1406 1581 1522 
L 1381 1569 
Q 847 1681 609 1914 
Q 372 2147 372 2553 
Q 372 3047 722 3315 
Q 1072 3584 1716 3584 
Q 2034 3584 2315 3537 
Q 2597 3491 2834 3397 
z
" id="DejaVuSans-73" transform="scale(0.015625)"/>
      <path d="M 1172 4494 
L 1172 3500 
L 2356 3500 
L 2356 3053 
L 1172 3053 
L 1172 1153 
Q 1172 725 1289 603 
Q 1406 481 1766 481 
L 2356 481 
L 2356 0 
L 1766 0 
Q 1100 0 847 248 
Q 594 497 594 1153 
L 594 3053 
L 172 3053 
L 172 3500 
L 594 3500 
L 594 4494 
L 1172 4494 
z
" id="DejaVuSans-74" transform="scale(0.015625)"/>
      <path d="M 603 3500 
L 1178 3500 
L 1178 0 
L 603 0 
L 603 3500 
z
M 603 4863 
L 1178 4863 
L 1178 4134 
L 603 4134 
L 603 4863 
z
" id="DejaVuSans-69" transform="scale(0.015625)"/>
      <path id="DejaVuSans-20" transform="scale(0.015625)"/>
      <path d="M 628 4666 
L 3578 4666 
L 3578 4134 
L 1259 4134 
L 1259 2753 
L 3481 2753 
L 3481 2222 
L 1259 2222 
L 1259 531 
L 3634 531 
L 3634 0 
L 628 0 
L 628 4666 
z
" id="DejaVuSans-45" transform="scale(0.015625)"/>
      <path d="M 2906 2969 
L 2906 4863 
L 3481 4863 
L 3481 0 
L 2906 0 
L 2906 525 
Q 2725 213 2448 61 
Q 2172 -91 1784 -91 
Q 1150 -91 751 415 
Q 353 922 353 1747 
Q 353 2572 751 3078 
Q 1150 3584 1784 3584 
Q 2172 3584 2448 3432 
Q 2725 3281 2906 2969 
z
M 947 1747 
Q 947 1113 1208 752 
Q 1469 391 1925 391 
Q 2381 391 2643 752 
Q 2906 1113 2906 1747 
Q 2906 2381 2643 2742 
Q 2381 3103 1925 3103 
Q 1469 3103 1208 2742 
Q 947 2381 947 1747 
z
" id="DejaVuSans-64" transform="scale(0.015625)"/>
      <path d="M 2906 1791 
Q 2906 2416 2648 2759 
Q 2391 3103 1925 3103 
Q 1463 3103 1205 2759 
Q 947 2416 947 1791 
Q 947 1169 1205 825 
Q 1463 481 1925 481 
Q 2391 481 2648 825 
Q 2906 1169 2906 1791 
z
M 3481 434 
Q 3481 -459 3084 -895 
Q 2688 -1331 1869 -1331 
Q 1566 -1331 1297 -1286 
Q 1028 -1241 775 -1147 
L 775 -588 
Q 1028 -725 1275 -790 
Q 1522 -856 1778 -856 
Q 2344 -856 2625 -561 
Q 2906 -266 2906 331 
L 2906 616 
Q 2728 306 2450 153 
Q 2172 0 1784 0 
Q 1141 0 747 490 
Q 353 981 353 1791 
Q 353 2603 747 3093 
Q 1141 3584 1784 3584 
Q 2172 3584 2450 3431 
Q 2728 3278 2906 2969 
L 2906 3500 
L 3481 3500 
L 3481 434 
z
" id="DejaVuSans-67" transform="scale(0.015625)"/>
     </defs>
     <use xlink:href="#DejaVuSans-41"/>
     <use x="66.658203" xlink:href="#DejaVuSans-63"/>
     <use x="121.638672" xlink:href="#DejaVuSans-6f"/>
     <use x="182.820312" xlink:href="#DejaVuSans-75"/>
     <use x="246.199219" xlink:href="#DejaVuSans-73"/>
     <use x="298.298828" xlink:href="#DejaVuSans-74"/>
     <use x="337.507812" xlink:href="#DejaVuSans-69"/>
     <use x="365.291016" xlink:href="#DejaVuSans-63"/>
     <use x="420.271484" xlink:href="#DejaVuSans-20"/>
     <use x="452.058594" xlink:href="#DejaVuSans-45"/>
     <use x="515.242188" xlink:href="#DejaVuSans-64"/>
     <use x="578.71875" xlink:href="#DejaVuSans-67"/>
     <use x="642.195312" xlink:href="#DejaVuSans-65"/>
     <use x="703.71875" xlink:href="#DejaVuSans-73"/>
    </g>
   </g>
  </g>
  <g id="axes_2">
   <g id="patch_4">
    <path d="M 27.97 191.398437 
L 200.16 191.398437 
L 200.16 119.128437 
L 27.97 119.128437 
z
" style="fill:none;"/>
   </g>
   <g id="PolyCollection_3">
    <defs>
     <path d="M 35.796818 -60.803336 
L 35.796818 -60.392751 
L 37.912174 -62.325893 
L 40.027531 -54.586127 
L 42.142887 -48.964228 
L 44.258243 -46.297794 
L 46.3736 -44.567505 
L 48.488956 -43.745049 
L 50.604312 -44.349868 
L 52.719668 -46.264254 
L 54.835025 -49.678862 
L 56.950381 -55.668522 
L 59.065737 -63.254039 
L 61.181093 -68.32231 
L 63.29645 -67.613815 
L 65.411806 -63.0473 
L 67.527162 -59.966091 
L 69.642518 -61.273722 
L 71.757875 -66.458468 
L 73.873231 -73.734518 
L 75.988587 -81.209424 
L 78.103943 -85.658714 
L 80.2193 -84.548039 
L 82.334656 -77.556954 
L 84.450012 -67.200597 
L 86.565369 -58.161968 
L 88.680725 -52.831498 
L 90.796081 -49.673655 
L 92.911437 -47.85236 
L 95.026794 -48.061504 
L 97.14215 -49.589385 
L 99.257506 -51.036338 
L 101.372862 -52.378283 
L 103.488219 -53.606201 
L 105.603575 -54.10731 
L 107.718931 -53.875843 
L 109.834287 -53.799949 
L 111.949644 -53.688333 
L 114.065 -53.235188 
L 116.180356 -52.476203 
L 118.295713 -51.484838 
L 120.411069 -50.568687 
L 122.526425 -50.213944 
L 124.641781 -50.662741 
L 126.757138 -51.707219 
L 128.872494 -53.467176 
L 130.98785 -56.431492 
L 133.103206 -59.863939 
L 135.218563 -62.476295 
L 137.333919 -62.147376 
L 139.449275 -57.657709 
L 141.564631 -51.652502 
L 143.679988 -47.885347 
L 145.795344 -46.611793 
L 147.9107 -45.970241 
L 150.026057 -45.249614 
L 152.141413 -44.276639 
L 154.256769 -43.375399 
L 156.372125 -43.036292 
L 158.487482 -43.253525 
L 160.602838 -43.707065 
L 162.718194 -44.189386 
L 164.83355 -44.870692 
L 166.948907 -46.055564 
L 169.064263 -47.690618 
L 171.179619 -49.626162 
L 173.294975 -50.772657 
L 175.410332 -50.105551 
L 177.525688 -48.16453 
L 179.641044 -46.351946 
L 181.7564 -45.796944 
L 183.871757 -46.3121 
L 185.987113 -46.582522 
L 188.102469 -46.068569 
L 190.217826 -46.508789 
L 192.333182 -45.690549 
L 192.333182 -48.288307 
L 192.333182 -48.288307 
L 190.217826 -49.079754 
L 188.102469 -48.648779 
L 185.987113 -49.73152 
L 183.871757 -51.603971 
L 181.7564 -53.900046 
L 179.641044 -56.241921 
L 177.525688 -57.793703 
L 175.410332 -57.52421 
L 173.294975 -55.629846 
L 171.179619 -52.993123 
L 169.064263 -50.266013 
L 166.948907 -48.331022 
L 164.83355 -47.16471 
L 162.718194 -46.566178 
L 160.602838 -46.61388 
L 158.487482 -46.753957 
L 156.372125 -46.75686 
L 154.256769 -46.933044 
L 152.141413 -47.564964 
L 150.026057 -49.256853 
L 147.9107 -52.487117 
L 145.795344 -56.472067 
L 143.679988 -60.88411 
L 141.564631 -65.621199 
L 139.449275 -70.324336 
L 137.333919 -72.717116 
L 135.218563 -71.744248 
L 133.103206 -69.4131 
L 130.98785 -66.492109 
L 128.872494 -63.36353 
L 126.757138 -60.934699 
L 124.641781 -59.128991 
L 122.526425 -58.025589 
L 120.411069 -57.87059 
L 118.295713 -58.553689 
L 116.180356 -59.520053 
L 114.065 -60.19093 
L 111.949644 -60.190169 
L 109.834287 -60.019517 
L 107.718931 -60.104636 
L 105.603575 -59.787639 
L 103.488219 -58.430748 
L 101.372862 -56.597684 
L 99.257506 -55.042155 
L 97.14215 -54.202648 
L 95.026794 -55.269255 
L 92.911437 -58.360128 
L 90.796081 -63.307939 
L 88.680725 -69.856199 
L 86.565369 -77.83573 
L 84.450012 -87.403319 
L 82.334656 -96.508228 
L 80.2193 -101.520625 
L 78.103943 -100.579167 
L 75.988587 -93.564752 
L 73.873231 -83.198867 
L 71.757875 -74.386724 
L 69.642518 -70.837549 
L 67.527162 -72.199507 
L 65.411806 -75.265133 
L 63.29645 -76.769768 
L 61.181093 -73.908911 
L 59.065737 -66.789491 
L 56.950381 -58.417436 
L 54.835025 -52.172545 
L 52.719668 -49.065221 
L 50.604312 -48.547513 
L 48.488956 -49.822636 
L 46.3736 -52.418365 
L 44.258243 -55.733484 
L 42.142887 -59.211633 
L 40.027531 -62.612217 
L 37.912174 -65.464545 
L 35.796818 -60.803336 
z
" id="mb5da51300f" style="stroke:#504538;stroke-opacity:0.7;stroke-width:0.2;"/>
    </defs>
    <g clip-path="url(#p334f0f776d)">
     <use style="fill:#504538;fill-opacity:0.7;stroke:#504538;stroke-opacity:0.7;stroke-width:0.2;" x="0" xlink:href="#mb5da51300f" y="223.934062"/>
    </g>
   </g>
   <g id="PolyCollection_4">
    <defs>
     <path d="M 35.796818 -57.535033 
L 35.796818 -56.995977 
L 37.912174 -54.408612 
L 40.027531 -50.368166 
L 42.142887 -52.032293 
L 44.258243 -53.45621 
L 46.3736 -54.125045 
L 48.488956 -54.600253 
L 50.604312 -55.643953 
L 52.719668 -58.99864 
L 54.835025 -64.208404 
L 56.950381 -69.119084 
L 59.065737 -71.593412 
L 61.181093 -70.704432 
L 63.29645 -67.486917 
L 65.411806 -63.318749 
L 67.527162 -59.98499 
L 69.642518 -59.364476 
L 71.757875 -61.01726 
L 73.873231 -62.702415 
L 75.988587 -63.049632 
L 78.103943 -62.332717 
L 80.2193 -60.255305 
L 82.334656 -56.717999 
L 84.450012 -54.896666 
L 86.565369 -57.284995 
L 88.680725 -61.731555 
L 90.796081 -64.202223 
L 92.911437 -63.915853 
L 95.026794 -62.440988 
L 97.14215 -60.55571 
L 99.257506 -58.480058 
L 101.372862 -56.919842 
L 103.488219 -56.575574 
L 105.603575 -57.269933 
L 107.718931 -58.15798 
L 109.834287 -58.37756 
L 111.949644 -57.777834 
L 114.065 -56.826787 
L 116.180356 -55.971996 
L 118.295713 -55.093757 
L 120.411069 -53.835753 
L 122.526425 -51.867142 
L 124.641781 -49.538758 
L 126.757138 -47.939736 
L 128.872494 -47.316685 
L 130.98785 -47.005591 
L 133.103206 -46.929936 
L 135.218563 -47.113476 
L 137.333919 -47.370596 
L 139.449275 -48.06508 
L 141.564631 -49.204489 
L 143.679988 -50.540199 
L 145.795344 -51.777385 
L 147.9107 -53.164191 
L 150.026057 -54.583663 
L 152.141413 -55.497125 
L 154.256769 -55.697907 
L 156.372125 -55.510257 
L 158.487482 -55.517981 
L 160.602838 -56.075482 
L 162.718194 -57.525703 
L 164.83355 -59.478929 
L 166.948907 -61.381653 
L 169.064263 -62.764786 
L 171.179619 -63.230141 
L 173.294975 -62.940187 
L 175.410332 -62.38495 
L 177.525688 -61.833935 
L 179.641044 -61.2265 
L 181.7564 -59.906587 
L 183.871757 -57.445494 
L 185.987113 -53.508023 
L 188.102469 -48.752159 
L 190.217826 -45.762475 
L 192.333182 -43.763255 
L 192.333182 -48.005127 
L 192.333182 -48.005127 
L 190.217826 -51.166039 
L 188.102469 -54.85741 
L 185.987113 -60.323536 
L 183.871757 -65.287047 
L 181.7564 -68.472783 
L 179.641044 -69.501622 
L 177.525688 -69.256873 
L 175.410332 -69.249654 
L 173.294975 -70.04287 
L 171.179619 -70.786434 
L 169.064263 -70.449812 
L 166.948907 -69.010053 
L 164.83355 -67.228958 
L 162.718194 -65.852522 
L 160.602838 -64.812014 
L 158.487482 -63.933719 
L 156.372125 -63.082913 
L 154.256769 -62.256882 
L 152.141413 -61.274549 
L 150.026057 -59.857298 
L 147.9107 -58.042839 
L 145.795344 -56.031811 
L 143.679988 -54.143451 
L 141.564631 -52.675238 
L 139.449275 -51.568626 
L 137.333919 -50.808957 
L 135.218563 -50.766819 
L 133.103206 -51.47014 
L 130.98785 -52.48491 
L 128.872494 -53.748229 
L 126.757138 -55.468866 
L 124.641781 -57.533392 
L 122.526425 -59.413863 
L 120.411069 -60.752862 
L 118.295713 -61.860687 
L 116.180356 -63.157784 
L 114.065 -64.419471 
L 111.949644 -65.484172 
L 109.834287 -66.210617 
L 107.718931 -66.471938 
L 105.603575 -66.286711 
L 103.488219 -66.056652 
L 101.372862 -66.656139 
L 99.257506 -68.814834 
L 97.14215 -72.012017 
L 95.026794 -74.605948 
L 92.911437 -74.978597 
L 90.796081 -72.535728 
L 88.680725 -68.595362 
L 86.565369 -64.991534 
L 84.450012 -63.320397 
L 82.334656 -64.666348 
L 80.2193 -67.485618 
L 78.103943 -69.291167 
L 75.988587 -69.817463 
L 73.873231 -69.822912 
L 71.757875 -69.353321 
L 69.642518 -69.551821 
L 67.527162 -72.282172 
L 65.411806 -76.980078 
L 63.29645 -81.69929 
L 61.181093 -84.08856 
L 59.065737 -82.739239 
L 56.950381 -77.530201 
L 54.835025 -70.71047 
L 52.719668 -65.202536 
L 50.604312 -62.015502 
L 48.488956 -60.6957 
L 46.3736 -60.005429 
L 44.258243 -59.142215 
L 42.142887 -58.675007 
L 40.027531 -58.030493 
L 37.912174 -58.152773 
L 35.796818 -57.535033 
z
" id="m112718e7c5" style="stroke:#e39ba6;stroke-opacity:0.7;stroke-width:0.2;"/>
    </defs>
    <g clip-path="url(#p334f0f776d)">
     <use style="fill:#e39ba6;fill-opacity:0.7;stroke:#e39ba6;stroke-opacity:0.7;stroke-width:0.2;" x="0" xlink:href="#m112718e7c5" y="223.934062"/>
    </g>
   </g>
   <g id="matplotlib.axis_3">
    <g id="xtick_5">
     <g id="line2d_22">
      <path clip-path="url(#p334f0f776d)" d="M 46.3736 191.398437 
L 46.3736 119.128437 
" style="fill:none;stroke:#b0b0b0;stroke-linecap:square;stroke-width:0.8;"/>
     </g>
     <g id="line2d_23">
      <g>
       <use style="stroke:#000000;stroke-width:0.8;" x="46.3736" xlink:href="#m0e6682f3eb" y="191.398437"/>
      </g>
     </g>
     <g id="text_8">
      <!-- 0.0 -->
      <g transform="translate(40.01235 204.477187)scale(0.08 -0.08)">
       <defs>
        <path d="M 684 794 
L 1344 794 
L 1344 0 
L 684 0 
L 684 794 
z
" id="DejaVuSans-2e" transform="scale(0.015625)"/>
       </defs>
       <use xlink:href="#DejaVuSans-30"/>
       <use x="63.623047" xlink:href="#DejaVuSans-2e"/>
       <use x="95.410156" xlink:href="#DejaVuSans-30"/>
      </g>
     </g>
    </g>
    <g id="xtick_6">
     <g id="line2d_24">
      <path clip-path="url(#p334f0f776d)" d="M 88.680725 191.398437 
L 88.680725 119.128437 
" style="fill:none;stroke:#b0b0b0;stroke-linecap:square;stroke-width:0.8;"/>
     </g>
     <g id="line2d_25">
      <g>
       <use style="stroke:#000000;stroke-width:0.8;" x="88.680725" xlink:href="#m0e6682f3eb" y="191.398437"/>
      </g>
     </g>
     <g id="text_9">
      <!-- 0.2 -->
      <g transform="translate(82.319475 204.477187)scale(0.08 -0.08)">
       <use xlink:href="#DejaVuSans-30"/>
       <use x="63.623047" xlink:href="#DejaVuSans-2e"/>
       <use x="95.410156" xlink:href="#DejaVuSans-32"/>
      </g>
     </g>
    </g>
    <g id="xtick_7">
     <g id="line2d_26">
      <path clip-path="url(#p334f0f776d)" d="M 130.98785 191.398437 
L 130.98785 119.128437 
" style="fill:none;stroke:#b0b0b0;stroke-linecap:square;stroke-width:0.8;"/>
     </g>
     <g id="line2d_27">
      <g>
       <use style="stroke:#000000;stroke-width:0.8;" x="130.98785" xlink:href="#m0e6682f3eb" y="191.398437"/>
      </g>
     </g>
     <g id="text_10">
      <!-- 0.4 -->
      <g transform="translate(124.6266 204.477187)scale(0.08 -0.08)">
       <use xlink:href="#DejaVuSans-30"/>
       <use x="63.623047" xlink:href="#DejaVuSans-2e"/>
       <use x="95.410156" xlink:href="#DejaVuSans-34"/>
      </g>
     </g>
    </g>
    <g id="xtick_8">
     <g id="line2d_28">
      <path clip-path="url(#p334f0f776d)" d="M 173.294975 191.398437 
L 173.294975 119.128437 
" style="fill:none;stroke:#b0b0b0;stroke-linecap:square;stroke-width:0.8;"/>
     </g>
     <g id="line2d_29">
      <g>
       <use style="stroke:#000000;stroke-width:0.8;" x="173.294975" xlink:href="#m0e6682f3eb" y="191.398437"/>
      </g>
     </g>
     <g id="text_11">
      <!-- 0.6 -->
      <g transform="translate(166.933725 204.477187)scale(0.08 -0.08)">
       <use xlink:href="#DejaVuSans-30"/>
       <use x="63.623047" xlink:href="#DejaVuSans-2e"/>
       <use x="95.410156" xlink:href="#DejaVuSans-36"/>
      </g>
     </g>
    </g>
   </g>
   <g id="matplotlib.axis_4">
    <g id="ytick_6">
     <g id="line2d_30">
      <path clip-path="url(#p334f0f776d)" d="M 27.97 188.113437 
L 200.16 188.113437 
" style="fill:none;stroke:#b0b0b0;stroke-linecap:square;stroke-width:0.8;"/>
     </g>
     <g id="line2d_31">
      <g>
       <use style="stroke:#000000;stroke-width:0.8;" x="27.97" xlink:href="#m4c379e21ce" y="188.113437"/>
      </g>
     </g>
     <g id="text_12">
      <!-- 0 -->
      <g transform="translate(15.88 191.152812)scale(0.08 -0.08)">
       <use xlink:href="#DejaVuSans-30"/>
      </g>
     </g>
    </g>
    <g id="ytick_7">
     <g id="line2d_32">
      <path clip-path="url(#p334f0f776d)" d="M 27.97 171.975545 
L 200.16 171.975545 
" style="fill:none;stroke:#b0b0b0;stroke-linecap:square;stroke-width:0.8;"/>
     </g>
     <g id="line2d_33">
      <g>
       <use style="stroke:#000000;stroke-width:0.8;" x="27.97" xlink:href="#m4c379e21ce" y="171.975545"/>
      </g>
     </g>
     <g id="text_13">
      <!-- 2 -->
      <g transform="translate(15.88 175.01492)scale(0.08 -0.08)">
       <use xlink:href="#DejaVuSans-32"/>
      </g>
     </g>
    </g>
    <g id="ytick_8">
     <g id="line2d_34">
      <path clip-path="url(#p334f0f776d)" d="M 27.97 155.837653 
L 200.16 155.837653 
" style="fill:none;stroke:#b0b0b0;stroke-linecap:square;stroke-width:0.8;"/>
     </g>
     <g id="line2d_35">
      <g>
       <use style="stroke:#000000;stroke-width:0.8;" x="27.97" xlink:href="#m4c379e21ce" y="155.837653"/>
      </g>
     </g>
     <g id="text_14">
      <!-- 4 -->
      <g transform="translate(15.88 158.877028)scale(0.08 -0.08)">
       <use xlink:href="#DejaVuSans-34"/>
      </g>
     </g>
    </g>
    <g id="ytick_9">
     <g id="line2d_36">
      <path clip-path="url(#p334f0f776d)" d="M 27.97 139.69976 
L 200.16 139.69976 
" style="fill:none;stroke:#b0b0b0;stroke-linecap:square;stroke-width:0.8;"/>
     </g>
     <g id="line2d_37">
      <g>
       <use style="stroke:#000000;stroke-width:0.8;" x="27.97" xlink:href="#m4c379e21ce" y="139.69976"/>
      </g>
     </g>
     <g id="text_15">
      <!-- 6 -->
      <g transform="translate(15.88 142.739135)scale(0.08 -0.08)">
       <use xlink:href="#DejaVuSans-36"/>
      </g>
     </g>
    </g>
    <g id="ytick_10">
     <g id="line2d_38">
      <path clip-path="url(#p334f0f776d)" d="M 27.97 123.561868 
L 200.16 123.561868 
" style="fill:none;stroke:#b0b0b0;stroke-linecap:square;stroke-width:0.8;"/>
     </g>
     <g id="line2d_39">
      <g>
       <use style="stroke:#000000;stroke-width:0.8;" x="27.97" xlink:href="#m4c379e21ce" y="123.561868"/>
      </g>
     </g>
     <g id="text_16">
      <!-- 8 -->
      <g transform="translate(15.88 126.601243)scale(0.08 -0.08)">
       <use xlink:href="#DejaVuSans-38"/>
      </g>
     </g>
    </g>
    <g id="text_17">
     <!-- 1e−4 -->
     <g transform="translate(27.97 116.128437)scale(0.08 -0.08)">
      <use xlink:href="#DejaVuSans-31"/>
      <use x="63.623047" xlink:href="#DejaVuSans-65"/>
      <use x="125.146484" xlink:href="#DejaVuSans-2212"/>
      <use x="208.935547" xlink:href="#DejaVuSans-34"/>
     </g>
    </g>
   </g>
   <g id="line2d_40">
    <path clip-path="url(#p334f0f776d)" d="M 35.796818 163.336019 
L 37.912174 160.038843 
L 40.027531 165.33489 
L 42.142887 169.846132 
L 44.258243 172.918423 
L 46.3736 175.441128 
L 48.488956 177.15022 
L 50.604312 177.485372 
L 52.719668 176.269325 
L 54.835025 173.008359 
L 56.950381 166.891084 
L 59.065737 158.912298 
L 61.181093 152.818452 
L 63.29645 151.742271 
L 65.411806 154.777846 
L 67.527162 157.851264 
L 69.642518 157.878427 
L 71.757875 153.511466 
L 73.873231 145.46737 
L 75.988587 136.546975 
L 78.103943 130.815122 
L 80.2193 130.89973 
L 82.334656 136.901472 
L 84.450012 146.632104 
L 86.565369 155.935214 
L 88.680725 162.590214 
L 90.796081 167.443266 
L 92.911437 170.827819 
L 95.026794 172.268683 
L 97.14215 172.038046 
L 99.257506 170.894816 
L 101.372862 169.446079 
L 103.488219 167.915588 
L 105.603575 166.986588 
L 107.718931 166.943823 
L 109.834287 167.02433 
L 111.949644 166.994812 
L 114.065 167.221003 
L 116.180356 167.935934 
L 118.295713 168.914799 
L 120.411069 169.714424 
L 122.526425 169.814296 
L 124.641781 169.038197 
L 126.757138 167.613104 
L 128.872494 165.518709 
L 130.98785 162.472262 
L 133.103206 159.295543 
L 135.218563 156.823791 
L 137.333919 156.501816 
L 139.449275 159.94304 
L 141.564631 165.297212 
L 143.679988 169.549334 
L 145.795344 172.392132 
L 147.9107 174.705384 
L 150.026057 176.680829 
L 152.141413 178.013261 
L 154.256769 178.779841 
L 156.372125 179.037486 
L 158.487482 178.930321 
L 160.602838 178.77359 
L 162.718194 178.556281 
L 164.83355 177.916362 
L 166.948907 176.74077 
L 169.064263 174.955747 
L 171.179619 172.62442 
L 173.294975 170.732811 
L 175.410332 170.119182 
L 177.525688 170.954946 
L 179.641044 172.637129 
L 181.7564 174.085567 
L 183.871757 174.976027 
L 185.987113 175.777042 
L 188.102469 176.575388 
L 190.217826 176.139791 
L 192.333182 176.944635 
" style="fill:none;stroke:#504538;stroke-linecap:square;stroke-width:0.5;"/>
   </g>
   <g id="line2d_41">
    <path clip-path="url(#p334f0f776d)" d="M 35.796818 166.668558 
L 37.912174 167.65337 
L 40.027531 169.734733 
L 42.142887 168.580412 
L 44.258243 167.63485 
L 46.3736 166.868825 
L 48.488956 166.286086 
L 50.604312 165.104335 
L 52.719668 161.833475 
L 54.835025 156.474625 
L 56.950381 150.60942 
L 59.065737 146.767737 
L 61.181093 146.537566 
L 63.29645 149.340959 
L 65.411806 153.784649 
L 67.527162 157.800482 
L 69.642518 159.475914 
L 71.757875 158.748772 
L 73.873231 157.671399 
L 75.988587 157.500515 
L 78.103943 158.122121 
L 80.2193 160.063601 
L 82.334656 163.241889 
L 84.450012 164.825531 
L 86.565369 162.795798 
L 88.680725 158.770604 
L 90.796081 155.565087 
L 92.911437 154.486838 
L 95.026794 155.410594 
L 97.14215 157.650199 
L 99.257506 160.286617 
L 101.372862 162.146072 
L 103.488219 162.617949 
L 105.603575 162.155741 
L 107.718931 161.619103 
L 109.834287 161.639974 
L 111.949644 162.30306 
L 114.065 163.310934 
L 116.180356 164.369173 
L 118.295713 165.456841 
L 120.411069 166.639755 
L 122.526425 168.29356 
L 124.641781 170.397987 
L 126.757138 172.229761 
L 128.872494 173.401605 
L 130.98785 174.188812 
L 133.103206 174.734024 
L 135.218563 174.993915 
L 137.333919 174.844286 
L 139.449275 174.117209 
L 141.564631 172.994199 
L 143.679988 171.592237 
L 145.795344 170.029465 
L 147.9107 168.330548 
L 150.026057 166.713582 
L 152.141413 165.548226 
L 154.256769 164.956668 
L 156.372125 164.637478 
L 158.487482 164.208212 
L 160.602838 163.490315 
L 162.718194 162.24495 
L 164.83355 160.580119 
L 166.948907 158.73821 
L 169.064263 157.326763 
L 171.179619 156.925775 
L 173.294975 157.442534 
L 175.410332 158.116761 
L 177.525688 158.388659 
L 179.641044 158.570002 
L 181.7564 159.744377 
L 183.871757 162.567792 
L 185.987113 167.018283 
L 188.102469 172.129278 
L 190.217826 175.469806 
L 192.333182 178.049871 
" style="fill:none;stroke:#e39ba6;stroke-linecap:square;stroke-width:0.5;"/>
   </g>
   <g id="line2d_42">
    <path clip-path="url(#p334f0f776d)" d="M 69.642518 188.113437 
L 71.757875 188.113437 
L 73.873231 188.113437 
L 75.988587 188.113437 
L 78.103943 188.113437 
L 80.2193 188.113437 
L 82.334656 188.113437 
L 84.450012 188.113437 
L 86.565369 188.113437 
L 88.680725 188.113437 
L 90.796081 188.113437 
L 92.911437 188.113437 
L 95.026794 188.113437 
L 97.14215 188.113437 
L 99.257506 188.113437 
L 101.372862 188.113437 
L 103.488219 188.113437 
L 105.603575 188.113437 
L 107.718931 188.113437 
L 109.834287 188.113437 
L 111.949644 188.113437 
L 114.065 188.113437 
L 116.180356 188.113437 
L 118.295713 188.113437 
L 120.411069 188.113437 
L 122.526425 188.113437 
L 124.641781 188.113437 
L 126.757138 188.113437 
L 128.872494 188.113437 
L 130.98785 188.113437 
L 133.103206 188.113437 
L 135.218563 188.113437 
L 137.333919 188.113437 
L 139.449275 188.113437 
L 141.564631 188.113437 
L 143.679988 188.113437 
L 145.795344 188.113437 
L 147.9107 188.113437 
L 150.026057 188.113437 
L 152.141413 188.113437 
L 154.256769 188.113437 
L 156.372125 188.113437 
L 158.487482 188.113437 
L 160.602838 188.113437 
L 162.718194 188.113437 
L 164.83355 188.113437 
L 166.948907 188.113437 
L 169.064263 188.113437 
L 171.179619 188.113437 
L 173.294975 188.113437 
L 175.410332 188.113437 
L 177.525688 188.113437 
L 179.641044 188.113437 
L 181.7564 188.113437 
L 183.871757 188.113437 
L 185.987113 188.113437 
L 188.102469 188.113437 
L 190.217826 188.113437 
L 192.333182 188.113437 
" style="fill:none;stroke:#ff0000;stroke-linecap:square;stroke-width:2;"/>
   </g>
   <g id="patch_5">
    <path d="M 27.97 191.398437 
L 200.16 191.398437 
" style="fill:none;stroke:#000000;stroke-linecap:square;stroke-linejoin:miter;stroke-width:0.8;"/>
   </g>
   <g id="text_18">
    <!-- Phoneme Features -->
    <g transform="translate(67.54625 113.128437)scale(0.1 -0.1)">
     <defs>
      <path d="M 1259 4147 
L 1259 2394 
L 2053 2394 
Q 2494 2394 2734 2622 
Q 2975 2850 2975 3272 
Q 2975 3691 2734 3919 
Q 2494 4147 2053 4147 
L 1259 4147 
z
M 628 4666 
L 2053 4666 
Q 2838 4666 3239 4311 
Q 3641 3956 3641 3272 
Q 3641 2581 3239 2228 
Q 2838 1875 2053 1875 
L 1259 1875 
L 1259 0 
L 628 0 
L 628 4666 
z
" id="DejaVuSans-50" transform="scale(0.015625)"/>
      <path d="M 3513 2113 
L 3513 0 
L 2938 0 
L 2938 2094 
Q 2938 2591 2744 2837 
Q 2550 3084 2163 3084 
Q 1697 3084 1428 2787 
Q 1159 2491 1159 1978 
L 1159 0 
L 581 0 
L 581 4863 
L 1159 4863 
L 1159 2956 
Q 1366 3272 1645 3428 
Q 1925 3584 2291 3584 
Q 2894 3584 3203 3211 
Q 3513 2838 3513 2113 
z
" id="DejaVuSans-68" transform="scale(0.015625)"/>
      <path d="M 3513 2113 
L 3513 0 
L 2938 0 
L 2938 2094 
Q 2938 2591 2744 2837 
Q 2550 3084 2163 3084 
Q 1697 3084 1428 2787 
Q 1159 2491 1159 1978 
L 1159 0 
L 581 0 
L 581 3500 
L 1159 3500 
L 1159 2956 
Q 1366 3272 1645 3428 
Q 1925 3584 2291 3584 
Q 2894 3584 3203 3211 
Q 3513 2838 3513 2113 
z
" id="DejaVuSans-6e" transform="scale(0.015625)"/>
      <path d="M 3328 2828 
Q 3544 3216 3844 3400 
Q 4144 3584 4550 3584 
Q 5097 3584 5394 3201 
Q 5691 2819 5691 2113 
L 5691 0 
L 5113 0 
L 5113 2094 
Q 5113 2597 4934 2840 
Q 4756 3084 4391 3084 
Q 3944 3084 3684 2787 
Q 3425 2491 3425 1978 
L 3425 0 
L 2847 0 
L 2847 2094 
Q 2847 2600 2669 2842 
Q 2491 3084 2119 3084 
Q 1678 3084 1418 2786 
Q 1159 2488 1159 1978 
L 1159 0 
L 581 0 
L 581 3500 
L 1159 3500 
L 1159 2956 
Q 1356 3278 1631 3431 
Q 1906 3584 2284 3584 
Q 2666 3584 2933 3390 
Q 3200 3197 3328 2828 
z
" id="DejaVuSans-6d" transform="scale(0.015625)"/>
      <path d="M 628 4666 
L 3309 4666 
L 3309 4134 
L 1259 4134 
L 1259 2759 
L 3109 2759 
L 3109 2228 
L 1259 2228 
L 1259 0 
L 628 0 
L 628 4666 
z
" id="DejaVuSans-46" transform="scale(0.015625)"/>
      <path d="M 2194 1759 
Q 1497 1759 1228 1600 
Q 959 1441 959 1056 
Q 959 750 1161 570 
Q 1363 391 1709 391 
Q 2188 391 2477 730 
Q 2766 1069 2766 1631 
L 2766 1759 
L 2194 1759 
z
M 3341 1997 
L 3341 0 
L 2766 0 
L 2766 531 
Q 2569 213 2275 61 
Q 1981 -91 1556 -91 
Q 1019 -91 701 211 
Q 384 513 384 1019 
Q 384 1609 779 1909 
Q 1175 2209 1959 2209 
L 2766 2209 
L 2766 2266 
Q 2766 2663 2505 2880 
Q 2244 3097 1772 3097 
Q 1472 3097 1187 3025 
Q 903 2953 641 2809 
L 641 3341 
Q 956 3463 1253 3523 
Q 1550 3584 1831 3584 
Q 2591 3584 2966 3190 
Q 3341 2797 3341 1997 
z
" id="DejaVuSans-61" transform="scale(0.015625)"/>
      <path d="M 2631 2963 
Q 2534 3019 2420 3045 
Q 2306 3072 2169 3072 
Q 1681 3072 1420 2755 
Q 1159 2438 1159 1844 
L 1159 0 
L 581 0 
L 581 3500 
L 1159 3500 
L 1159 2956 
Q 1341 3275 1631 3429 
Q 1922 3584 2338 3584 
Q 2397 3584 2469 3576 
Q 2541 3569 2628 3553 
L 2631 2963 
z
" id="DejaVuSans-72" transform="scale(0.015625)"/>
     </defs>
     <use xlink:href="#DejaVuSans-50"/>
     <use x="60.302734" xlink:href="#DejaVuSans-68"/>
     <use x="123.681641" xlink:href="#DejaVuSans-6f"/>
     <use x="184.863281" xlink:href="#DejaVuSans-6e"/>
     <use x="248.242188" xlink:href="#DejaVuSans-65"/>
     <use x="309.765625" xlink:href="#DejaVuSans-6d"/>
     <use x="407.177734" xlink:href="#DejaVuSans-65"/>
     <use x="468.701172" xlink:href="#DejaVuSans-20"/>
     <use x="500.488281" xlink:href="#DejaVuSans-46"/>
     <use x="552.507812" xlink:href="#DejaVuSans-65"/>
     <use x="614.03125" xlink:href="#DejaVuSans-61"/>
     <use x="675.310547" xlink:href="#DejaVuSans-74"/>
     <use x="714.519531" xlink:href="#DejaVuSans-75"/>
     <use x="777.898438" xlink:href="#DejaVuSans-72"/>
     <use x="816.761719" xlink:href="#DejaVuSans-65"/>
     <use x="878.285156" xlink:href="#DejaVuSans-73"/>
    </g>
   </g>
  </g>
  <g id="text_19">
   <!-- Time (sec) -->
   <g transform="translate(76.614375 214.238437)scale(0.12 -0.12)">
    <defs>
     <path d="M -19 4666 
L 3928 4666 
L 3928 4134 
L 2272 4134 
L 2272 0 
L 1638 0 
L 1638 4134 
L -19 4134 
L -19 4666 
z
" id="DejaVuSans-54" transform="scale(0.015625)"/>
     <path d="M 1984 4856 
Q 1566 4138 1362 3434 
Q 1159 2731 1159 2009 
Q 1159 1288 1364 580 
Q 1569 -128 1984 -844 
L 1484 -844 
Q 1016 -109 783 600 
Q 550 1309 550 2009 
Q 550 2706 781 3412 
Q 1013 4119 1484 4856 
L 1984 4856 
z
" id="DejaVuSans-28" transform="scale(0.015625)"/>
     <path d="M 513 4856 
L 1013 4856 
Q 1481 4119 1714 3412 
Q 1947 2706 1947 2009 
Q 1947 1309 1714 600 
Q 1481 -109 1013 -844 
L 513 -844 
Q 928 -128 1133 580 
Q 1338 1288 1338 2009 
Q 1338 2731 1133 3434 
Q 928 4138 513 4856 
z
" id="DejaVuSans-29" transform="scale(0.015625)"/>
    </defs>
    <use xlink:href="#DejaVuSans-54"/>
    <use x="57.958984" xlink:href="#DejaVuSans-69"/>
    <use x="85.742188" xlink:href="#DejaVuSans-6d"/>
    <use x="183.154297" xlink:href="#DejaVuSans-65"/>
    <use x="244.677734" xlink:href="#DejaVuSans-20"/>
    <use x="276.464844" xlink:href="#DejaVuSans-28"/>
    <use x="315.478516" xlink:href="#DejaVuSans-73"/>
    <use x="367.578125" xlink:href="#DejaVuSans-65"/>
    <use x="429.101562" xlink:href="#DejaVuSans-63"/>
    <use x="484.082031" xlink:href="#DejaVuSans-29"/>
   </g>
  </g>
  <g id="text_20">
   <!-- Power of Weights $\mathregular{\sqrt{w^{2}}}$ -->
   <g transform="translate(22.56 173.978437)rotate(-90)scale(0.12 -0.12)">
    <defs>
     <path d="M 269 3500 
L 844 3500 
L 1563 769 
L 2278 3500 
L 2956 3500 
L 3675 769 
L 4391 3500 
L 4966 3500 
L 4050 0 
L 3372 0 
L 2619 2869 
L 1863 0 
L 1184 0 
L 269 3500 
z
" id="DejaVuSans-77" transform="scale(0.015625)"/>
     <path d="M 2375 4863 
L 2375 4384 
L 1825 4384 
Q 1516 4384 1395 4259 
Q 1275 4134 1275 3809 
L 1275 3500 
L 2222 3500 
L 2222 3053 
L 1275 3053 
L 1275 0 
L 697 0 
L 697 3053 
L 147 3053 
L 147 3500 
L 697 3500 
L 697 3744 
Q 697 4328 969 4595 
Q 1241 4863 1831 4863 
L 2375 4863 
z
" id="DejaVuSans-66" transform="scale(0.015625)"/>
     <path d="M 213 4666 
L 850 4666 
L 1831 722 
L 2809 4666 
L 3519 4666 
L 4500 722 
L 5478 4666 
L 6119 4666 
L 4947 0 
L 4153 0 
L 3169 4050 
L 2175 0 
L 1381 0 
L 213 4666 
z
" id="DejaVuSans-57" transform="scale(0.015625)"/>
     <path d="M 6970 9933 
L 3373 -1888 
L 3104 -1888 
L 1626 2918 
Q 1555 3149 1465 3251 
Q 1376 3354 1229 3354 
Q 1011 3354 794 3181 
L 717 3309 
L 1766 4115 
L 1926 4115 
L 3379 -602 
L 3405 -602 
L 6605 9933 
L 6970 9933 
z
" id="STIXSizeOneSym-Regular-221a" transform="scale(0.015625)"/>
    </defs>
    <use transform="translate(0 0.09375)" xlink:href="#DejaVuSans-50"/>
    <use transform="translate(60.302734 0.09375)" xlink:href="#DejaVuSans-6f"/>
    <use transform="translate(121.484375 0.09375)" xlink:href="#DejaVuSans-77"/>
    <use transform="translate(203.271484 0.09375)" xlink:href="#DejaVuSans-65"/>
    <use transform="translate(264.794922 0.09375)" xlink:href="#DejaVuSans-72"/>
    <use transform="translate(305.908203 0.09375)" xlink:href="#DejaVuSans-20"/>
    <use transform="translate(337.695312 0.09375)" xlink:href="#DejaVuSans-6f"/>
    <use transform="translate(398.876953 0.09375)" xlink:href="#DejaVuSans-66"/>
    <use transform="translate(434.082031 0.09375)" xlink:href="#DejaVuSans-20"/>
    <use transform="translate(465.869141 0.09375)" xlink:href="#DejaVuSans-57"/>
    <use transform="translate(564.746094 0.09375)" xlink:href="#DejaVuSans-65"/>
    <use transform="translate(626.269531 0.09375)" xlink:href="#DejaVuSans-69"/>
    <use transform="translate(654.052734 0.09375)" xlink:href="#DejaVuSans-67"/>
    <use transform="translate(717.529297 0.09375)" xlink:href="#DejaVuSans-68"/>
    <use transform="translate(780.908203 0.09375)" xlink:href="#DejaVuSans-74"/>
    <use transform="translate(820.117188 0.09375)" xlink:href="#DejaVuSans-73"/>
    <use transform="translate(872.216797 0.09375)" xlink:href="#DejaVuSans-20"/>
    <use transform="translate(904.003906 19.5625)scale(0.657728)" xlink:href="#STIXSizeOneSym-Regular-221a"/>
    <use transform="translate(986.001648 0.515625)" xlink:href="#DejaVuSans-77"/>
    <use transform="translate(1068.745789 38.796875)scale(0.7)" xlink:href="#DejaVuSans-32"/>
    <path d="M 973.501648 115.5 
L 973.501648 121.75 
L 1128.516296 121.75 
L 1128.516296 115.5 
L 973.501648 115.5 
z
"/>
   </g>
  </g>
 </g>
 <defs>
  <clipPath id="pc2ec3f20a6">
   <rect height="72.27" width="172.19" x="27.97" y="20.798438"/>
  </clipPath>
  <clipPath id="p334f0f776d">
   <rect height="72.27" width="172.19" x="27.97" y="119.128437"/>
  </clipPath>
 </defs>
</svg>
