<?xml version="1.0" encoding="utf-8" standalone="no"?>
<!DOCTYPE svg PUBLIC "-//W3C//DTD SVG 1.1//EN"
  "http://www.w3.org/Graphics/SVG/1.1/DTD/svg11.dtd">
<svg height="223.934062pt" version="1.1" viewBox="0 0 207.36 223.934062" width="207.36pt" xmlns="http://www.w3.org/2000/svg" xmlns:xlink="http://www.w3.org/1999/xlink">
 <metadata>
  <rdf:RDF xmlns:cc="http://creativecommons.org/ns#" xmlns:dc="http://purl.org/dc/elements/1.1/" xmlns:rdf="http://www.w3.org/1999/02/22-rdf-syntax-ns#">
   <cc:Work>
    <dc:type rdf:resource="http://purl.org/dc/dcmitype/StillImage"/>
    <dc:date>2026-02-07T18:32:48.365272</dc:date>
    <dc:format>image/svg+xml</dc:format>
    <dc:creator>
     <cc:Agent>
      <dc:title>Matplotlib v3.4.2, https://matplotlib.org/</dc:title>
     </cc:Agent>
    </dc:creator>
   </cc:Work>
  </rdf:RDF>
 </metadata>
 <defs>
  <style type="text/css">*{stroke-linecap:butt;stroke-linejoin:round;}</style>
 </defs>
 <g id="figure_1">
  <g id="patch_1">
   <path d="M -0 223.934062 
L 207.36 223.934062 
L 207.36 0 
L -0 0 
z
" style="fill:none;"/>
  </g>
  <g id="axes_1">
   <g id="patch_2">
    <path d="M 35.62 93.068437 
L 200.16 93.068437 
L 200.16 20.798438 
L 35.62 20.798438 
z
" style="fill:none;"/>
   </g>
   <g id="PolyCollection_1">
    <defs>
     <path d="M 43.099091 -150.001441 
L 43.099091 -149.65604 
L 45.120467 -147.187875 
L 47.141843 -140.540717 
L 49.163219 -137.89973 
L 51.184595 -137.886978 
L 53.205971 -138.806894 
L 55.227346 -139.529055 
L 57.248722 -138.880894 
L 59.270098 -138.059776 
L 61.291474 -140.058854 
L 63.31285 -147.488272 
L 65.334226 -160.300728 
L 67.355602 -173.42197 
L 69.376978 -178.108637 
L 71.398354 -170.605411 
L 73.41973 -160.253677 
L 75.441106 -156.713739 
L 77.462482 -159.440584 
L 79.483857 -165.3068 
L 81.505233 -167.438286 
L 83.526609 -160.255918 
L 85.547985 -149.529985 
L 87.569361 -143.240138 
L 89.590737 -140.856196 
L 91.612113 -140.704184 
L 93.633489 -143.788175 
L 95.654865 -146.796511 
L 97.676241 -146.946387 
L 99.697617 -143.816918 
L 101.718993 -141.93437 
L 103.740369 -143.434531 
L 105.761744 -144.630081 
L 107.78312 -144.236235 
L 109.804496 -144.201861 
L 111.825872 -144.194633 
L 113.847248 -142.604198 
L 115.868624 -140.106518 
L 117.89 -138.944125 
L 119.911376 -139.320719 
L 121.932752 -139.521498 
L 123.954128 -139.23347 
L 125.975504 -139.125881 
L 127.99688 -138.998448 
L 130.018256 -138.946724 
L 132.039631 -139.414136 
L 134.061007 -140.242457 
L 136.082383 -141.429484 
L 138.103759 -142.490561 
L 140.125135 -142.716472 
L 142.146511 -142.04716 
L 144.167887 -140.854194 
L 146.189263 -139.306928 
L 148.210639 -138.066079 
L 150.232015 -137.473887 
L 152.253391 -137.244663 
L 154.274767 -137.2831 
L 156.296143 -137.239292 
L 158.317518 -137.107806 
L 160.338894 -137.21548 
L 162.36027 -137.393789 
L 164.381646 -137.423377 
L 166.403022 -137.542252 
L 168.424398 -137.729459 
L 170.445774 -137.877943 
L 172.46715 -138.648523 
L 174.488526 -140.373513 
L 176.509902 -141.892372 
L 178.531278 -141.991455 
L 180.552654 -140.85607 
L 182.574029 -139.385757 
L 184.595405 -138.28445 
L 186.616781 -137.933668 
L 188.638157 -138.158514 
L 190.659533 -139.246381 
L 192.680909 -139.483445 
L 192.680909 -140.780157 
L 192.680909 -140.780157 
L 190.659533 -140.355446 
L 188.638157 -139.223812 
L 186.616781 -139.487833 
L 184.595405 -140.543875 
L 182.574029 -142.350082 
L 180.552654 -144.148377 
L 178.531278 -144.611894 
L 176.509902 -143.362499 
L 174.488526 -141.35875 
L 172.46715 -139.787193 
L 170.445774 -138.961251 
L 168.424398 -138.851865 
L 166.403022 -138.831669 
L 164.381646 -138.490687 
L 162.36027 -138.067516 
L 160.338894 -137.867626 
L 158.317518 -138.035998 
L 156.296143 -138.470292 
L 154.274767 -138.894829 
L 152.253391 -139.164677 
L 150.232015 -139.755867 
L 148.210639 -141.092749 
L 146.189263 -142.801238 
L 144.167887 -144.59141 
L 142.146511 -145.595212 
L 140.125135 -145.439395 
L 138.103759 -144.857567 
L 136.082383 -143.456991 
L 134.061007 -141.777925 
L 132.039631 -140.611394 
L 130.018256 -140.35659 
L 127.99688 -140.570601 
L 125.975504 -141.106468 
L 123.954128 -141.639445 
L 121.932752 -142.081779 
L 119.911376 -142.828704 
L 117.89 -143.544906 
L 115.868624 -144.737649 
L 113.847248 -146.635468 
L 111.825872 -148.068581 
L 109.804496 -148.762611 
L 107.78312 -149.289048 
L 105.761744 -149.413162 
L 103.740369 -149.594304 
L 101.718993 -150.207091 
L 99.697617 -151.754857 
L 97.676241 -152.874327 
L 95.654865 -150.584974 
L 93.633489 -147.359545 
L 91.612113 -146.903148 
L 89.590737 -150.195196 
L 87.569361 -160.867222 
L 85.547985 -173.819059 
L 83.526609 -180.609892 
L 81.505233 -179.581408 
L 79.483857 -174.229098 
L 77.462482 -170.450942 
L 75.441106 -173.199491 
L 73.41973 -182.065566 
L 71.398354 -191.707266 
L 69.376978 -195.284916 
L 67.355602 -183.066916 
L 65.334226 -163.844396 
L 63.31285 -148.9888 
L 61.291474 -141.975873 
L 59.270098 -140.037423 
L 57.248722 -140.176983 
L 55.227346 -140.75966 
L 53.205971 -140.65257 
L 51.184595 -141.11279 
L 49.163219 -143.251822 
L 47.141843 -146.186961 
L 45.120467 -149.700177 
L 43.099091 -150.001441 
z
" id="mb39c3ea4b4" style="stroke:#2f4858;stroke-opacity:0.7;stroke-width:0.2;"/>
    </defs>
    <g clip-path="url(#pa8b5380ae9)">
     <use style="fill:#2f4858;fill-opacity:0.7;stroke:#2f4858;stroke-opacity:0.7;stroke-width:0.2;" x="0" xlink:href="#mb39c3ea4b4" y="223.934062"/>
    </g>
   </g>
   <g id="PolyCollection_2">
    <defs>
     <path d="M 43.099091 -143.551105 
L 43.099091 -143.411453 
L 45.120467 -142.099338 
L 47.141843 -138.188027 
L 49.163219 -136.620625 
L 51.184595 -137.121965 
L 53.205971 -138.701547 
L 55.227346 -140.667737 
L 57.248722 -140.869078 
L 59.270098 -139.817337 
L 61.291474 -141.172186 
L 63.31285 -147.91881 
L 65.334226 -159.761374 
L 67.355602 -170.271784 
L 69.376978 -176.889529 
L 71.398354 -177.799663 
L 73.41973 -169.788825 
L 75.441106 -162.339743 
L 77.462482 -162.095596 
L 79.483857 -165.392693 
L 81.505233 -163.993452 
L 83.526609 -155.073886 
L 85.547985 -146.190572 
L 87.569361 -142.272612 
L 89.590737 -141.591381 
L 91.612113 -142.804557 
L 93.633489 -144.590403 
L 95.654865 -145.201936 
L 97.676241 -143.6962 
L 99.697617 -141.37318 
L 101.718993 -140.974644 
L 103.740369 -142.84096 
L 105.761744 -143.991569 
L 107.78312 -143.681235 
L 109.804496 -142.965885 
L 111.825872 -142.33306 
L 113.847248 -141.749032 
L 115.868624 -141.804928 
L 117.89 -142.562526 
L 119.911376 -142.808785 
L 121.932752 -141.90029 
L 123.954128 -140.604506 
L 125.975504 -139.849038 
L 127.99688 -139.41243 
L 130.018256 -139.136419 
L 132.039631 -139.238883 
L 134.061007 -139.621592 
L 136.082383 -139.813656 
L 138.103759 -139.582371 
L 140.125135 -138.989477 
L 142.146511 -138.679342 
L 144.167887 -138.9418 
L 146.189263 -139.137493 
L 148.210639 -138.856478 
L 150.232015 -138.336051 
L 152.253391 -137.89139 
L 154.274767 -137.531826 
L 156.296143 -137.119359 
L 158.317518 -136.93704 
L 160.338894 -137.300174 
L 162.36027 -137.981277 
L 164.381646 -138.338094 
L 166.403022 -138.008727 
L 168.424398 -137.604429 
L 170.445774 -137.609601 
L 172.46715 -137.87215 
L 174.488526 -138.39789 
L 176.509902 -139.242241 
L 178.531278 -139.853766 
L 180.552654 -139.888766 
L 182.574029 -139.383089 
L 184.595405 -138.719432 
L 186.616781 -138.140448 
L 188.638157 -138.021594 
L 190.659533 -138.670826 
L 192.680909 -138.521294 
L 192.680909 -139.479497 
L 192.680909 -139.479497 
L 190.659533 -139.526525 
L 188.638157 -139.041588 
L 186.616781 -139.240799 
L 184.595405 -139.891346 
L 182.574029 -140.826541 
L 180.552654 -141.289626 
L 178.531278 -140.895106 
L 176.509902 -139.945937 
L 174.488526 -139.024367 
L 172.46715 -138.555371 
L 170.445774 -138.705287 
L 168.424398 -139.031096 
L 166.403022 -139.202985 
L 164.381646 -139.134251 
L 162.36027 -138.608315 
L 160.338894 -137.822707 
L 158.317518 -137.56936 
L 156.296143 -138.014856 
L 154.274767 -138.752844 
L 152.253391 -139.364024 
L 150.232015 -139.813264 
L 148.210639 -140.193606 
L 146.189263 -140.524182 
L 144.167887 -140.653998 
L 142.146511 -140.569887 
L 140.125135 -140.70157 
L 138.103759 -141.073787 
L 136.082383 -141.135905 
L 134.061007 -140.966699 
L 132.039631 -140.900324 
L 130.018256 -141.031068 
L 127.99688 -141.529523 
L 125.975504 -142.47639 
L 123.954128 -143.695998 
L 121.932752 -144.869923 
L 119.911376 -146.023487 
L 117.89 -146.40441 
L 115.868624 -145.760616 
L 113.847248 -145.476645 
L 111.825872 -145.881792 
L 109.804496 -146.796156 
L 107.78312 -147.89363 
L 105.761744 -148.372539 
L 103.740369 -148.878878 
L 101.718993 -149.746037 
L 99.697617 -150.825361 
L 97.676241 -151.725397 
L 95.654865 -150.316909 
L 93.633489 -149.033927 
L 91.612113 -148.989289 
L 89.590737 -151.167329 
L 87.569361 -157.703197 
L 85.547985 -167.389701 
L 83.526609 -174.040609 
L 81.505233 -176.187831 
L 79.483857 -176.255162 
L 77.462482 -178.629729 
L 75.441106 -185.526415 
L 73.41973 -194.310817 
L 71.398354 -199.850625 
L 69.376978 -194.409433 
L 67.355602 -179.59914 
L 65.334226 -163.252167 
L 63.31285 -150.53781 
L 61.291474 -144.443538 
L 59.270098 -143.228699 
L 57.248722 -142.649008 
L 55.227346 -141.225531 
L 53.205971 -139.213275 
L 51.184595 -138.134009 
L 49.163219 -138.851486 
L 47.141843 -140.539578 
L 45.120467 -143.124415 
L 43.099091 -143.551105 
z
" id="ma4dba1a9e2" style="stroke:#719e87;stroke-opacity:0.7;stroke-width:0.2;"/>
    </defs>
    <g clip-path="url(#pa8b5380ae9)">
     <use style="fill:#719e87;fill-opacity:0.7;stroke:#719e87;stroke-opacity:0.7;stroke-width:0.2;" x="0" xlink:href="#ma4dba1a9e2" y="223.934062"/>
    </g>
   </g>
   <g id="matplotlib.axis_1">
    <g id="xtick_1">
     <g id="line2d_1">
      <path clip-path="url(#pa8b5380ae9)" d="M 53.205971 93.068437 
L 53.205971 20.798438 
" style="fill:none;stroke:#b0b0b0;stroke-linecap:square;stroke-width:0.8;"/>
     </g>
     <g id="line2d_2">
      <defs>
       <path d="M 0 0 
L 0 3.5 
" id="m58e3fef721" style="stroke:#000000;stroke-width:0.8;"/>
      </defs>
      <g>
       <use style="stroke:#000000;stroke-width:0.8;" x="53.205971" xlink:href="#m58e3fef721" y="93.068437"/>
      </g>
     </g>
    </g>
    <g id="xtick_2">
     <g id="line2d_3">
      <path clip-path="url(#pa8b5380ae9)" d="M 93.633489 93.068437 
L 93.633489 20.798438 
" style="fill:none;stroke:#b0b0b0;stroke-linecap:square;stroke-width:0.8;"/>
     </g>
     <g id="line2d_4">
      <g>
       <use style="stroke:#000000;stroke-width:0.8;" x="93.633489" xlink:href="#m58e3fef721" y="93.068437"/>
      </g>
     </g>
    </g>
    <g id="xtick_3">
     <g id="line2d_5">
      <path clip-path="url(#pa8b5380ae9)" d="M 134.061007 93.068437 
L 134.061007 20.798438 
" style="fill:none;stroke:#b0b0b0;stroke-linecap:square;stroke-width:0.8;"/>
     </g>
     <g id="line2d_6">
      <g>
       <use style="stroke:#000000;stroke-width:0.8;" x="134.061007" xlink:href="#m58e3fef721" y="93.068437"/>
      </g>
     </g>
    </g>
    <g id="xtick_4">
     <g id="line2d_7">
      <path clip-path="url(#pa8b5380ae9)" d="M 174.488526 93.068437 
L 174.488526 20.798438 
" style="fill:none;stroke:#b0b0b0;stroke-linecap:square;stroke-width:0.8;"/>
     </g>
     <g id="line2d_8">
      <g>
       <use style="stroke:#000000;stroke-width:0.8;" x="174.488526" xlink:href="#m58e3fef721" y="93.068437"/>
      </g>
     </g>
    </g>
   </g>
   <g id="matplotlib.axis_2">
    <g id="ytick_1">
     <g id="line2d_9">
      <path clip-path="url(#pa8b5380ae9)" d="M 35.62 89.783437 
L 200.16 89.783437 
" style="fill:none;stroke:#b0b0b0;stroke-linecap:square;stroke-width:0.8;"/>
     </g>
     <g id="line2d_10">
      <defs>
       <path d="M 0 0 
L -3.5 0 
" id="m33dd6e015d" style="stroke:#000000;stroke-width:0.8;"/>
      </defs>
      <g>
       <use style="stroke:#000000;stroke-width:0.8;" x="35.62" xlink:href="#m33dd6e015d" y="89.783437"/>
      </g>
     </g>
     <g id="text_1">
      <!-- 0.0 -->
      <g transform="translate(15.8975 92.822812)scale(0.08 -0.08)">
       <defs>
        <path d="M 2034 4250 
Q 1547 4250 1301 3770 
Q 1056 3291 1056 2328 
Q 1056 1369 1301 889 
Q 1547 409 2034 409 
Q 2525 409 2770 889 
Q 3016 1369 3016 2328 
Q 3016 3291 2770 3770 
Q 2525 4250 2034 4250 
z
M 2034 4750 
Q 2819 4750 3233 4129 
Q 3647 3509 3647 2328 
Q 3647 1150 3233 529 
Q 2819 -91 2034 -91 
Q 1250 -91 836 529 
Q 422 1150 422 2328 
Q 422 3509 836 4129 
Q 1250 4750 2034 4750 
z
" id="DejaVuSans-30" transform="scale(0.015625)"/>
        <path d="M 684 794 
L 1344 794 
L 1344 0 
L 684 0 
L 684 794 
z
" id="DejaVuSans-2e" transform="scale(0.015625)"/>
       </defs>
       <use xlink:href="#DejaVuSans-30"/>
       <use x="63.623047" xlink:href="#DejaVuSans-2e"/>
       <use x="95.410156" xlink:href="#DejaVuSans-30"/>
      </g>
     </g>
    </g>
    <g id="ytick_2">
     <g id="line2d_11">
      <path clip-path="url(#pa8b5380ae9)" d="M 35.62 74.632771 
L 200.16 74.632771 
" style="fill:none;stroke:#b0b0b0;stroke-linecap:square;stroke-width:0.8;"/>
     </g>
     <g id="line2d_12">
      <g>
       <use style="stroke:#000000;stroke-width:0.8;" x="35.62" xlink:href="#m33dd6e015d" y="74.632771"/>
      </g>
     </g>
     <g id="text_2">
      <!-- 1.5 -->
      <g transform="translate(15.8975 77.672146)scale(0.08 -0.08)">
       <defs>
        <path d="M 794 531 
L 1825 531 
L 1825 4091 
L 703 3866 
L 703 4441 
L 1819 4666 
L 2450 4666 
L 2450 531 
L 3481 531 
L 3481 0 
L 794 0 
L 794 531 
z
" id="DejaVuSans-31" transform="scale(0.015625)"/>
        <path d="M 691 4666 
L 3169 4666 
L 3169 4134 
L 1269 4134 
L 1269 2991 
Q 1406 3038 1543 3061 
Q 1681 3084 1819 3084 
Q 2600 3084 3056 2656 
Q 3513 2228 3513 1497 
Q 3513 744 3044 326 
Q 2575 -91 1722 -91 
Q 1428 -91 1123 -41 
Q 819 9 494 109 
L 494 744 
Q 775 591 1075 516 
Q 1375 441 1709 441 
Q 2250 441 2565 725 
Q 2881 1009 2881 1497 
Q 2881 1984 2565 2268 
Q 2250 2553 1709 2553 
Q 1456 2553 1204 2497 
Q 953 2441 691 2322 
L 691 4666 
z
" id="DejaVuSans-35" transform="scale(0.015625)"/>
       </defs>
       <use xlink:href="#DejaVuSans-31"/>
       <use x="63.623047" xlink:href="#DejaVuSans-2e"/>
       <use x="95.410156" xlink:href="#DejaVuSans-35"/>
      </g>
     </g>
    </g>
    <g id="ytick_3">
     <g id="line2d_13">
      <path clip-path="url(#pa8b5380ae9)" d="M 35.62 59.482104 
L 200.16 59.482104 
" style="fill:none;stroke:#b0b0b0;stroke-linecap:square;stroke-width:0.8;"/>
     </g>
     <g id="line2d_14">
      <g>
       <use style="stroke:#000000;stroke-width:0.8;" x="35.62" xlink:href="#m33dd6e015d" y="59.482104"/>
      </g>
     </g>
     <g id="text_3">
      <!-- 3.0 -->
      <g transform="translate(15.8975 62.521479)scale(0.08 -0.08)">
       <defs>
        <path d="M 2597 2516 
Q 3050 2419 3304 2112 
Q 3559 1806 3559 1356 
Q 3559 666 3084 287 
Q 2609 -91 1734 -91 
Q 1441 -91 1130 -33 
Q 819 25 488 141 
L 488 750 
Q 750 597 1062 519 
Q 1375 441 1716 441 
Q 2309 441 2620 675 
Q 2931 909 2931 1356 
Q 2931 1769 2642 2001 
Q 2353 2234 1838 2234 
L 1294 2234 
L 1294 2753 
L 1863 2753 
Q 2328 2753 2575 2939 
Q 2822 3125 2822 3475 
Q 2822 3834 2567 4026 
Q 2313 4219 1838 4219 
Q 1578 4219 1281 4162 
Q 984 4106 628 3988 
L 628 4550 
Q 988 4650 1302 4700 
Q 1616 4750 1894 4750 
Q 2613 4750 3031 4423 
Q 3450 4097 3450 3541 
Q 3450 3153 3228 2886 
Q 3006 2619 2597 2516 
z
" id="DejaVuSans-33" transform="scale(0.015625)"/>
       </defs>
       <use xlink:href="#DejaVuSans-33"/>
       <use x="63.623047" xlink:href="#DejaVuSans-2e"/>
       <use x="95.410156" xlink:href="#DejaVuSans-30"/>
      </g>
     </g>
    </g>
    <g id="ytick_4">
     <g id="line2d_15">
      <path clip-path="url(#pa8b5380ae9)" d="M 35.62 44.331437 
L 200.16 44.331437 
" style="fill:none;stroke:#b0b0b0;stroke-linecap:square;stroke-width:0.8;"/>
     </g>
     <g id="line2d_16">
      <g>
       <use style="stroke:#000000;stroke-width:0.8;" x="35.62" xlink:href="#m33dd6e015d" y="44.331437"/>
      </g>
     </g>
     <g id="text_4">
      <!-- 4.5 -->
      <g transform="translate(15.8975 47.370812)scale(0.08 -0.08)">
       <defs>
        <path d="M 2419 4116 
L 825 1625 
L 2419 1625 
L 2419 4116 
z
M 2253 4666 
L 3047 4666 
L 3047 1625 
L 3713 1625 
L 3713 1100 
L 3047 1100 
L 3047 0 
L 2419 0 
L 2419 1100 
L 313 1100 
L 313 1709 
L 2253 4666 
z
" id="DejaVuSans-34" transform="scale(0.015625)"/>
       </defs>
       <use xlink:href="#DejaVuSans-34"/>
       <use x="63.623047" xlink:href="#DejaVuSans-2e"/>
       <use x="95.410156" xlink:href="#DejaVuSans-35"/>
      </g>
     </g>
    </g>
    <g id="ytick_5">
     <g id="line2d_17">
      <path clip-path="url(#pa8b5380ae9)" d="M 35.62 29.180771 
L 200.16 29.180771 
" style="fill:none;stroke:#b0b0b0;stroke-linecap:square;stroke-width:0.8;"/>
     </g>
     <g id="line2d_18">
      <g>
       <use style="stroke:#000000;stroke-width:0.8;" x="35.62" xlink:href="#m33dd6e015d" y="29.180771"/>
      </g>
     </g>
     <g id="text_5">
      <!-- 6.0 -->
      <g transform="translate(15.8975 32.220146)scale(0.08 -0.08)">
       <defs>
        <path d="M 2113 2584 
Q 1688 2584 1439 2293 
Q 1191 2003 1191 1497 
Q 1191 994 1439 701 
Q 1688 409 2113 409 
Q 2538 409 2786 701 
Q 3034 994 3034 1497 
Q 3034 2003 2786 2293 
Q 2538 2584 2113 2584 
z
M 3366 4563 
L 3366 3988 
Q 3128 4100 2886 4159 
Q 2644 4219 2406 4219 
Q 1781 4219 1451 3797 
Q 1122 3375 1075 2522 
Q 1259 2794 1537 2939 
Q 1816 3084 2150 3084 
Q 2853 3084 3261 2657 
Q 3669 2231 3669 1497 
Q 3669 778 3244 343 
Q 2819 -91 2113 -91 
Q 1303 -91 875 529 
Q 447 1150 447 2328 
Q 447 3434 972 4092 
Q 1497 4750 2381 4750 
Q 2619 4750 2861 4703 
Q 3103 4656 3366 4563 
z
" id="DejaVuSans-36" transform="scale(0.015625)"/>
       </defs>
       <use xlink:href="#DejaVuSans-36"/>
       <use x="63.623047" xlink:href="#DejaVuSans-2e"/>
       <use x="95.410156" xlink:href="#DejaVuSans-30"/>
      </g>
     </g>
    </g>
    <g id="text_6">
     <!-- 1e−4 -->
     <g transform="translate(35.62 17.798438)scale(0.08 -0.08)">
      <defs>
       <path d="M 3597 1894 
L 3597 1613 
L 953 1613 
Q 991 1019 1311 708 
Q 1631 397 2203 397 
Q 2534 397 2845 478 
Q 3156 559 3463 722 
L 3463 178 
Q 3153 47 2828 -22 
Q 2503 -91 2169 -91 
Q 1331 -91 842 396 
Q 353 884 353 1716 
Q 353 2575 817 3079 
Q 1281 3584 2069 3584 
Q 2775 3584 3186 3129 
Q 3597 2675 3597 1894 
z
M 3022 2063 
Q 3016 2534 2758 2815 
Q 2500 3097 2075 3097 
Q 1594 3097 1305 2825 
Q 1016 2553 972 2059 
L 3022 2063 
z
" id="DejaVuSans-65" transform="scale(0.015625)"/>
       <path d="M 678 2272 
L 4684 2272 
L 4684 1741 
L 678 1741 
L 678 2272 
z
" id="DejaVuSans-2212" transform="scale(0.015625)"/>
      </defs>
      <use xlink:href="#DejaVuSans-31"/>
      <use x="63.623047" xlink:href="#DejaVuSans-65"/>
      <use x="125.146484" xlink:href="#DejaVuSans-2212"/>
      <use x="208.935547" xlink:href="#DejaVuSans-34"/>
     </g>
    </g>
   </g>
   <g id="line2d_19">
    <path clip-path="url(#pa8b5380ae9)" d="M 43.099091 74.105322 
L 45.120467 75.490037 
L 47.141843 80.570224 
L 49.163219 83.358286 
L 51.184595 84.434179 
L 53.205971 84.20433 
L 55.227346 83.789705 
L 57.248722 84.405124 
L 59.270098 84.885463 
L 61.291474 82.916699 
L 63.31285 75.695526 
L 65.334226 61.861501 
L 67.355602 45.689619 
L 69.376978 37.237286 
L 71.398354 42.777724 
L 73.41973 52.774441 
L 75.441106 58.977448 
L 77.462482 58.9883 
L 79.483857 54.166113 
L 81.505233 50.424215 
L 83.526609 53.501157 
L 85.547985 62.25954 
L 87.569361 71.880383 
L 89.590737 78.408367 
L 91.612113 80.130397 
L 93.633489 78.360203 
L 95.654865 75.24332 
L 97.676241 74.023706 
L 99.697617 76.148175 
L 101.718993 77.863332 
L 103.740369 77.419645 
L 105.761744 76.912441 
L 107.78312 77.171421 
L 109.804496 77.451827 
L 111.825872 77.802455 
L 113.847248 79.314229 
L 115.868624 81.511979 
L 117.89 82.689547 
L 119.911376 82.859351 
L 121.932752 83.132424 
L 123.954128 83.497605 
L 125.975504 83.817888 
L 127.99688 84.149538 
L 130.018256 84.282406 
L 132.039631 83.921297 
L 134.061007 82.923872 
L 136.082383 81.490825 
L 138.103759 80.259998 
L 140.125135 79.856129 
L 142.146511 80.112876 
L 144.167887 81.21126 
L 146.189263 82.879979 
L 148.210639 84.354649 
L 150.232015 85.319185 
L 152.253391 85.729393 
L 154.274767 85.845098 
L 156.296143 86.079271 
L 158.317518 86.36216 
L 160.338894 86.39251 
L 162.36027 86.20341 
L 164.381646 85.97703 
L 166.403022 85.747102 
L 168.424398 85.6434 
L 170.445774 85.514465 
L 172.46715 84.716204 
L 174.488526 83.067931 
L 176.509902 81.306627 
L 178.531278 80.632388 
L 180.552654 81.431839 
L 182.574029 83.066143 
L 184.595405 84.5199 
L 186.616781 85.223312 
L 188.638157 85.242899 
L 190.659533 84.133149 
L 192.680909 83.802262 
" style="fill:none;stroke:#2f4858;stroke-linecap:square;stroke-width:0.5;"/>
   </g>
   <g id="line2d_20">
    <path clip-path="url(#pa8b5380ae9)" d="M 43.099091 80.452784 
L 45.120467 81.322186 
L 47.141843 84.57026 
L 49.163219 86.198007 
L 51.184595 86.306075 
L 53.205971 84.976651 
L 55.227346 82.987428 
L 57.248722 82.175019 
L 59.270098 82.411044 
L 61.291474 81.1262 
L 63.31285 74.705752 
L 65.334226 62.427292 
L 67.355602 48.9986 
L 69.376978 38.284582 
L 71.398354 35.108919 
L 73.41973 41.884242 
L 75.441106 50.000984 
L 77.462482 53.5714 
L 79.483857 53.110135 
L 81.505233 53.843421 
L 83.526609 59.376815 
L 85.547985 67.143926 
L 87.569361 73.946158 
L 89.590737 77.554707 
L 91.612113 78.037139 
L 93.633489 77.121898 
L 95.654865 76.17464 
L 97.676241 76.223264 
L 99.697617 77.834792 
L 101.718993 78.573722 
L 103.740369 78.074143 
L 105.761744 77.752008 
L 107.78312 78.14663 
L 109.804496 79.053042 
L 111.825872 79.826637 
L 113.847248 80.321224 
L 115.868624 80.151291 
L 117.89 79.450594 
L 119.911376 79.517927 
L 121.932752 80.548956 
L 123.954128 81.78381 
L 125.975504 82.771348 
L 127.99688 83.463086 
L 130.018256 83.850319 
L 132.039631 83.864459 
L 134.061007 83.639917 
L 136.082383 83.459282 
L 138.103759 83.605984 
L 140.125135 84.088539 
L 142.146511 84.309448 
L 144.167887 84.136164 
L 146.189263 84.103225 
L 148.210639 84.40902 
L 150.232015 84.859405 
L 152.253391 85.306356 
L 154.274767 85.791728 
L 156.296143 86.366955 
L 158.317518 86.680862 
L 160.338894 86.372622 
L 162.36027 85.639266 
L 164.381646 85.19789 
L 166.403022 85.328206 
L 168.424398 85.6163 
L 170.445774 85.776619 
L 172.46715 85.720302 
L 174.488526 85.222934 
L 176.509902 84.339974 
L 178.531278 83.559627 
L 180.552654 83.344867 
L 182.574029 83.829248 
L 184.595405 84.628674 
L 186.616781 85.243439 
L 188.638157 85.402472 
L 190.659533 84.835387 
L 192.680909 84.933667 
" style="fill:none;stroke:#719e87;stroke-linecap:square;stroke-width:0.5;"/>
   </g>
   <g id="line2d_21">
    <path clip-path="url(#pa8b5380ae9)" style="fill:none;stroke:#ff0000;stroke-linecap:square;stroke-width:2;"/>
   </g>
   <g id="patch_3">
    <path d="M 35.62 93.068437 
L 200.16 93.068437 
" style="fill:none;stroke:#000000;stroke-linecap:square;stroke-linejoin:miter;stroke-width:0.8;"/>
   </g>
   <g id="text_7">
    <!-- Acoustic Edges -->
    <g transform="translate(80.098594 14.798438)scale(0.1 -0.1)">
     <defs>
      <path d="M 2188 4044 
L 1331 1722 
L 3047 1722 
L 2188 4044 
z
M 1831 4666 
L 2547 4666 
L 4325 0 
L 3669 0 
L 3244 1197 
L 1141 1197 
L 716 0 
L 50 0 
L 1831 4666 
z
" id="DejaVuSans-41" transform="scale(0.015625)"/>
      <path d="M 3122 3366 
L 3122 2828 
Q 2878 2963 2633 3030 
Q 2388 3097 2138 3097 
Q 1578 3097 1268 2742 
Q 959 2388 959 1747 
Q 959 1106 1268 751 
Q 1578 397 2138 397 
Q 2388 397 2633 464 
Q 2878 531 3122 666 
L 3122 134 
Q 2881 22 2623 -34 
Q 2366 -91 2075 -91 
Q 1284 -91 818 406 
Q 353 903 353 1747 
Q 353 2603 823 3093 
Q 1294 3584 2113 3584 
Q 2378 3584 2631 3529 
Q 2884 3475 3122 3366 
z
" id="DejaVuSans-63" transform="scale(0.015625)"/>
      <path d="M 1959 3097 
Q 1497 3097 1228 2736 
Q 959 2375 959 1747 
Q 959 1119 1226 758 
Q 1494 397 1959 397 
Q 2419 397 2687 759 
Q 2956 1122 2956 1747 
Q 2956 2369 2687 2733 
Q 2419 3097 1959 3097 
z
M 1959 3584 
Q 2709 3584 3137 3096 
Q 3566 2609 3566 1747 
Q 3566 888 3137 398 
Q 2709 -91 1959 -91 
Q 1206 -91 779 398 
Q 353 888 353 1747 
Q 353 2609 779 3096 
Q 1206 3584 1959 3584 
z
" id="DejaVuSans-6f" transform="scale(0.015625)"/>
      <path d="M 544 1381 
L 544 3500 
L 1119 3500 
L 1119 1403 
Q 1119 906 1312 657 
Q 1506 409 1894 409 
Q 2359 409 2629 706 
Q 2900 1003 2900 1516 
L 2900 3500 
L 3475 3500 
L 3475 0 
L 2900 0 
L 2900 538 
Q 2691 219 2414 64 
Q 2138 -91 1772 -91 
Q 1169 -91 856 284 
Q 544 659 544 1381 
z
M 1991 3584 
L 1991 3584 
z
" id="DejaVuSans-75" transform="scale(0.015625)"/>
      <path d="M 2834 3397 
L 2834 2853 
Q 2591 2978 2328 3040 
Q 2066 3103 1784 3103 
Q 1356 3103 1142 2972 
Q 928 2841 928 2578 
Q 928 2378 1081 2264 
Q 1234 2150 1697 2047 
L 1894 2003 
Q 2506 1872 2764 1633 
Q 3022 1394 3022 966 
Q 3022 478 2636 193 
Q 2250 -91 1575 -91 
Q 1294 -91 989 -36 
Q 684 19 347 128 
L 347 722 
Q 666 556 975 473 
Q 1284 391 1588 391 
Q 1994 391 2212 530 
Q 2431 669 2431 922 
Q 2431 1156 2273 1281 
Q 2116 1406 1581 1522 
L 1381 1569 
Q 847 1681 609 1914 
Q 372 2147 372 2553 
Q 372 3047 722 3315 
Q 1072 3584 1716 3584 
Q 2034 3584 2315 3537 
Q 2597 3491 2834 3397 
z
" id="DejaVuSans-73" transform="scale(0.015625)"/>
      <path d="M 1172 4494 
L 1172 3500 
L 2356 3500 
L 2356 3053 
L 1172 3053 
L 1172 1153 
Q 1172 725 1289 603 
Q 1406 481 1766 481 
L 2356 481 
L 2356 0 
L 1766 0 
Q 1100 0 847 248 
Q 594 497 594 1153 
L 594 3053 
L 172 3053 
L 172 3500 
L 594 3500 
L 594 4494 
L 1172 4494 
z
" id="DejaVuSans-74" transform="scale(0.015625)"/>
      <path d="M 603 3500 
L 1178 3500 
L 1178 0 
L 603 0 
L 603 3500 
z
M 603 4863 
L 1178 4863 
L 1178 4134 
L 603 4134 
L 603 4863 
z
" id="DejaVuSans-69" transform="scale(0.015625)"/>
      <path id="DejaVuSans-20" transform="scale(0.015625)"/>
      <path d="M 628 4666 
L 3578 4666 
L 3578 4134 
L 1259 4134 
L 1259 2753 
L 3481 2753 
L 3481 2222 
L 1259 2222 
L 1259 531 
L 3634 531 
L 3634 0 
L 628 0 
L 628 4666 
z
" id="DejaVuSans-45" transform="scale(0.015625)"/>
      <path d="M 2906 2969 
L 2906 4863 
L 3481 4863 
L 3481 0 
L 2906 0 
L 2906 525 
Q 2725 213 2448 61 
Q 2172 -91 1784 -91 
Q 1150 -91 751 415 
Q 353 922 353 1747 
Q 353 2572 751 3078 
Q 1150 3584 1784 3584 
Q 2172 3584 2448 3432 
Q 2725 3281 2906 2969 
z
M 947 1747 
Q 947 1113 1208 752 
Q 1469 391 1925 391 
Q 2381 391 2643 752 
Q 2906 1113 2906 1747 
Q 2906 2381 2643 2742 
Q 2381 3103 1925 3103 
Q 1469 3103 1208 2742 
Q 947 2381 947 1747 
z
" id="DejaVuSans-64" transform="scale(0.015625)"/>
      <path d="M 2906 1791 
Q 2906 2416 2648 2759 
Q 2391 3103 1925 3103 
Q 1463 3103 1205 2759 
Q 947 2416 947 1791 
Q 947 1169 1205 825 
Q 1463 481 1925 481 
Q 2391 481 2648 825 
Q 2906 1169 2906 1791 
z
M 3481 434 
Q 3481 -459 3084 -895 
Q 2688 -1331 1869 -1331 
Q 1566 -1331 1297 -1286 
Q 1028 -1241 775 -1147 
L 775 -588 
Q 1028 -725 1275 -790 
Q 1522 -856 1778 -856 
Q 2344 -856 2625 -561 
Q 2906 -266 2906 331 
L 2906 616 
Q 2728 306 2450 153 
Q 2172 0 1784 0 
Q 1141 0 747 490 
Q 353 981 353 1791 
Q 353 2603 747 3093 
Q 1141 3584 1784 3584 
Q 2172 3584 2450 3431 
Q 2728 3278 2906 2969 
L 2906 3500 
L 3481 3500 
L 3481 434 
z
" id="DejaVuSans-67" transform="scale(0.015625)"/>
     </defs>
     <use xlink:href="#DejaVuSans-41"/>
     <use x="66.658203" xlink:href="#DejaVuSans-63"/>
     <use x="121.638672" xlink:href="#DejaVuSans-6f"/>
     <use x="182.820312" xlink:href="#DejaVuSans-75"/>
     <use x="246.199219" xlink:href="#DejaVuSans-73"/>
     <use x="298.298828" xlink:href="#DejaVuSans-74"/>
     <use x="337.507812" xlink:href="#DejaVuSans-69"/>
     <use x="365.291016" xlink:href="#DejaVuSans-63"/>
     <use x="420.271484" xlink:href="#DejaVuSans-20"/>
     <use x="452.058594" xlink:href="#DejaVuSans-45"/>
     <use x="515.242188" xlink:href="#DejaVuSans-64"/>
     <use x="578.71875" xlink:href="#DejaVuSans-67"/>
     <use x="642.195312" xlink:href="#DejaVuSans-65"/>
     <use x="703.71875" xlink:href="#DejaVuSans-73"/>
    </g>
   </g>
  </g>
  <g id="axes_2">
   <g id="patch_4">
    <path d="M 35.62 191.398437 
L 200.16 191.398437 
L 200.16 119.128437 
L 35.62 119.128437 
z
" style="fill:none;"/>
   </g>
   <g id="PolyCollection_3">
    <defs>
     <path d="M 43.099091 -63.002015 
L 43.099091 -62.327241 
L 45.120467 -59.088462 
L 47.141843 -54.030764 
L 49.163219 -56.113864 
L 51.184595 -57.896276 
L 53.205971 -58.733503 
L 55.227346 -59.328352 
L 57.248722 -60.634822 
L 59.270098 -64.83411 
L 61.291474 -71.355524 
L 63.31285 -77.502553 
L 65.334226 -80.599836 
L 67.355602 -79.48704 
L 69.376978 -75.45946 
L 71.398354 -70.241882 
L 73.41973 -66.068791 
L 75.441106 -65.292051 
L 77.462482 -67.360953 
L 79.483857 -69.470375 
L 81.505233 -69.90501 
L 83.526609 -69.007599 
L 85.547985 -66.407163 
L 87.569361 -61.979278 
L 89.590737 -59.699393 
L 91.612113 -62.689026 
L 93.633489 -68.255085 
L 95.654865 -71.347786 
L 97.676241 -70.989317 
L 99.697617 -69.143129 
L 101.718993 -66.7832 
L 103.740369 -64.184966 
L 105.761744 -62.231939 
L 107.78312 -61.800995 
L 109.804496 -62.67017 
L 111.825872 -63.781799 
L 113.847248 -64.056662 
L 115.868624 -63.305945 
L 117.89 -62.115456 
L 119.911376 -61.045455 
L 121.932752 -59.946105 
L 123.954128 -58.371377 
L 125.975504 -55.907134 
L 127.99688 -52.992538 
L 130.018256 -50.990934 
L 132.039631 -50.211019 
L 134.061007 -49.821602 
L 136.082383 -49.726899 
L 138.103759 -49.956649 
L 140.125135 -50.278503 
L 142.146511 -51.147836 
L 144.167887 -52.574111 
L 146.189263 -54.246109 
L 148.210639 -55.794778 
L 150.232015 -57.530736 
L 152.253391 -59.307586 
L 154.274767 -60.451027 
L 156.296143 -60.70236 
L 158.317518 -60.467465 
L 160.338894 -60.477135 
L 162.36027 -61.174996 
L 164.381646 -62.990335 
L 166.403022 -65.43532 
L 168.424398 -67.817088 
L 170.445774 -69.54845 
L 172.46715 -70.130966 
L 174.488526 -69.76801 
L 176.509902 -69.072983 
L 178.531278 -68.383241 
L 180.552654 -67.622873 
L 182.574029 -65.970649 
L 184.595405 -62.889933 
L 186.616781 -57.961135 
L 188.638157 -52.007899 
L 190.659533 -48.265509 
L 192.680909 -45.762951 
L 192.680909 -51.072789 
L 192.680909 -51.072789 
L 190.659533 -55.029515 
L 188.638157 -59.650253 
L 186.616781 -66.492572 
L 184.595405 -72.705733 
L 182.574029 -76.693534 
L 180.552654 -77.981402 
L 178.531278 -77.675032 
L 176.509902 -77.665996 
L 174.488526 -78.658918 
L 172.46715 -79.589688 
L 170.445774 -79.168315 
L 168.424398 -77.366071 
L 166.403022 -75.136554 
L 164.381646 -73.413577 
L 162.36027 -72.111103 
L 160.338894 -71.011682 
L 158.317518 -69.94667 
L 156.296143 -68.912671 
L 154.274767 -67.683019 
L 152.253391 -65.90895 
L 150.232015 -63.63767 
L 148.210639 -61.12033 
L 146.189263 -58.756543 
L 144.167887 -56.918681 
L 142.146511 -55.53346 
L 140.125135 -54.582531 
L 138.103759 -54.529784 
L 136.082383 -55.410179 
L 134.061007 -56.680435 
L 132.039631 -58.261817 
L 130.018256 -60.415654 
L 127.99688 -62.999961 
L 125.975504 -65.353873 
L 123.954128 -67.029989 
L 121.932752 -68.416727 
L 119.911376 -70.040391 
L 117.89 -71.61973 
L 115.868624 -72.952488 
L 113.847248 -73.861829 
L 111.825872 -74.188942 
L 109.804496 -73.957081 
L 107.78312 -73.6691 
L 105.761744 -74.419519 
L 103.740369 -77.121703 
L 101.718993 -81.123832 
L 99.697617 -84.370831 
L 97.676241 -84.8373 
L 95.654865 -81.779396 
L 93.633489 -76.846974 
L 91.612113 -72.335819 
L 89.590737 -70.243945 
L 87.569361 -71.928763 
L 85.547985 -75.457833 
L 83.526609 -77.71796 
L 81.505233 -78.376761 
L 79.483857 -78.383582 
L 77.462482 -77.795763 
L 75.441106 -78.044239 
L 73.41973 -81.462003 
L 71.398354 -87.342689 
L 69.376978 -93.250046 
L 67.355602 -96.240856 
L 65.334226 -94.55182 
L 63.31285 -88.031315 
L 61.291474 -79.494598 
L 59.270098 -72.599945 
L 57.248722 -68.61052 
L 55.227346 -66.958434 
L 53.205971 -66.094376 
L 51.184595 -65.013833 
L 49.163219 -64.428997 
L 47.141843 -63.622215 
L 45.120467 -63.775282 
L 43.099091 -63.002015 
z
" id="mda8ee439e7" style="stroke:#2f4858;stroke-opacity:0.7;stroke-width:0.2;"/>
    </defs>
    <g clip-path="url(#p71eaf0d575)">
     <use style="fill:#2f4858;fill-opacity:0.7;stroke:#2f4858;stroke-opacity:0.7;stroke-width:0.2;" x="0" xlink:href="#mda8ee439e7" y="223.934062"/>
    </g>
   </g>
   <g id="PolyCollection_4">
    <defs>
     <path d="M 43.099091 -48.222914 
L 43.099091 -48.046598 
L 45.120467 -47.108935 
L 47.141843 -44.815091 
L 49.163219 -45.089281 
L 51.184595 -45.714092 
L 53.205971 -46.237129 
L 55.227346 -46.572512 
L 57.248722 -47.22353 
L 59.270098 -48.54642 
L 61.291474 -50.202341 
L 63.31285 -51.310263 
L 65.334226 -51.215079 
L 67.355602 -49.687068 
L 69.376978 -47.918023 
L 71.398354 -47.155444 
L 73.41973 -48.044825 
L 75.441106 -51.213568 
L 77.462482 -55.302152 
L 79.483857 -57.017 
L 81.505233 -55.245136 
L 83.526609 -52.22952 
L 85.547985 -50.502269 
L 87.569361 -50.385757 
L 89.590737 -50.368018 
L 91.612113 -49.651568 
L 93.633489 -48.68147 
L 95.654865 -47.58533 
L 97.676241 -46.477015 
L 99.697617 -46.060538 
L 101.718993 -46.410762 
L 103.740369 -46.474825 
L 105.761744 -45.515594 
L 107.78312 -44.046336 
L 109.804496 -43.201586 
L 111.825872 -43.477044 
L 113.847248 -44.29375 
L 115.868624 -45.175158 
L 117.89 -45.702259 
L 119.911376 -45.743151 
L 121.932752 -45.303251 
L 123.954128 -44.867471 
L 125.975504 -45.045126 
L 127.99688 -45.526881 
L 130.018256 -45.747148 
L 132.039631 -45.512702 
L 134.061007 -44.737307 
L 136.082383 -43.721279 
L 138.103759 -42.95082 
L 140.125135 -42.849163 
L 142.146511 -43.411245 
L 144.167887 -44.05106 
L 146.189263 -44.14882 
L 148.210639 -43.715363 
L 150.232015 -43.041205 
L 152.253391 -42.275088 
L 154.274767 -41.576174 
L 156.296143 -41.044658 
L 158.317518 -41.07685 
L 160.338894 -41.690322 
L 162.36027 -42.442326 
L 164.381646 -43.456671 
L 166.403022 -44.272739 
L 168.424398 -44.282752 
L 170.445774 -43.627671 
L 172.46715 -42.935567 
L 174.488526 -43.242862 
L 176.509902 -44.601096 
L 178.531278 -46.437366 
L 180.552654 -48.467274 
L 182.574029 -49.375021 
L 184.595405 -48.526726 
L 186.616781 -46.578055 
L 188.638157 -44.658128 
L 190.659533 -44.545354 
L 192.680909 -44.094842 
L 192.680909 -47.90764 
L 192.680909 -47.90764 
L 190.659533 -48.977996 
L 188.638157 -49.592429 
L 186.616781 -51.45084 
L 184.595405 -52.637897 
L 182.574029 -52.298132 
L 180.552654 -50.293793 
L 178.531278 -47.814032 
L 176.509902 -45.851132 
L 174.488526 -45.209346 
L 172.46715 -45.583529 
L 170.445774 -46.357483 
L 168.424398 -46.497419 
L 166.403022 -45.776422 
L 164.381646 -44.756907 
L 162.36027 -43.719061 
L 160.338894 -42.956705 
L 158.317518 -42.457792 
L 156.296143 -42.434299 
L 154.274767 -42.996343 
L 152.253391 -43.979071 
L 150.232015 -45.069787 
L 148.210639 -45.888659 
L 146.189263 -46.21293 
L 144.167887 -45.97799 
L 142.146511 -45.476894 
L 140.125135 -45.010634 
L 138.103759 -44.986761 
L 136.082383 -45.742297 
L 134.061007 -47.046231 
L 132.039631 -47.937177 
L 130.018256 -47.927123 
L 127.99688 -47.474222 
L 125.975504 -47.145558 
L 123.954128 -47.214181 
L 121.932752 -47.659847 
L 119.911376 -48.000148 
L 117.89 -47.790875 
L 115.868624 -47.161979 
L 113.847248 -46.594323 
L 111.825872 -46.467763 
L 109.804496 -47.112198 
L 107.78312 -48.468031 
L 105.761744 -49.697459 
L 103.740369 -50.011553 
L 101.718993 -49.570116 
L 99.697617 -49.229756 
L 97.676241 -49.464404 
L 95.654865 -50.398473 
L 93.633489 -52.115457 
L 91.612113 -53.556566 
L 89.590737 -54.433859 
L 87.569361 -55.601107 
L 85.547985 -57.177647 
L 83.526609 -59.248567 
L 81.505233 -61.678216 
L 79.483857 -62.874285 
L 77.462482 -61.02159 
L 75.441106 -57.064067 
L 73.41973 -53.752423 
L 71.398354 -52.386543 
L 69.376978 -52.758981 
L 67.355602 -53.933379 
L 65.334226 -54.805962 
L 63.31285 -54.232103 
L 61.291474 -52.731924 
L 59.270098 -51.170276 
L 57.248722 -50.011791 
L 55.227346 -49.261468 
L 53.205971 -48.549236 
L 51.184595 -47.776319 
L 49.163219 -47.285425 
L 47.141843 -47.275185 
L 45.120467 -48.326186 
L 43.099091 -48.222914 
z
" id="m512a6c7c62" style="stroke:#719e87;stroke-opacity:0.7;stroke-width:0.2;"/>
    </defs>
    <g clip-path="url(#p71eaf0d575)">
     <use style="fill:#719e87;fill-opacity:0.7;stroke:#719e87;stroke-opacity:0.7;stroke-width:0.2;" x="0" xlink:href="#m512a6c7c62" y="223.934062"/>
    </g>
   </g>
   <g id="matplotlib.axis_3">
    <g id="xtick_5">
     <g id="line2d_22">
      <path clip-path="url(#p71eaf0d575)" d="M 53.205971 191.398437 
L 53.205971 119.128437 
" style="fill:none;stroke:#b0b0b0;stroke-linecap:square;stroke-width:0.8;"/>
     </g>
     <g id="line2d_23">
      <g>
       <use style="stroke:#000000;stroke-width:0.8;" x="53.205971" xlink:href="#m58e3fef721" y="191.398437"/>
      </g>
     </g>
     <g id="text_8">
      <!-- 0.0 -->
      <g transform="translate(46.844721 204.477187)scale(0.08 -0.08)">
       <use xlink:href="#DejaVuSans-30"/>
       <use x="63.623047" xlink:href="#DejaVuSans-2e"/>
       <use x="95.410156" xlink:href="#DejaVuSans-30"/>
      </g>
     </g>
    </g>
    <g id="xtick_6">
     <g id="line2d_24">
      <path clip-path="url(#p71eaf0d575)" d="M 93.633489 191.398437 
L 93.633489 119.128437 
" style="fill:none;stroke:#b0b0b0;stroke-linecap:square;stroke-width:0.8;"/>
     </g>
     <g id="line2d_25">
      <g>
       <use style="stroke:#000000;stroke-width:0.8;" x="93.633489" xlink:href="#m58e3fef721" y="191.398437"/>
      </g>
     </g>
     <g id="text_9">
      <!-- 0.2 -->
      <g transform="translate(87.272239 204.477187)scale(0.08 -0.08)">
       <defs>
        <path d="M 1228 531 
L 3431 531 
L 3431 0 
L 469 0 
L 469 531 
Q 828 903 1448 1529 
Q 2069 2156 2228 2338 
Q 2531 2678 2651 2914 
Q 2772 3150 2772 3378 
Q 2772 3750 2511 3984 
Q 2250 4219 1831 4219 
Q 1534 4219 1204 4116 
Q 875 4013 500 3803 
L 500 4441 
Q 881 4594 1212 4672 
Q 1544 4750 1819 4750 
Q 2544 4750 2975 4387 
Q 3406 4025 3406 3419 
Q 3406 3131 3298 2873 
Q 3191 2616 2906 2266 
Q 2828 2175 2409 1742 
Q 1991 1309 1228 531 
z
" id="DejaVuSans-32" transform="scale(0.015625)"/>
       </defs>
       <use xlink:href="#DejaVuSans-30"/>
       <use x="63.623047" xlink:href="#DejaVuSans-2e"/>
       <use x="95.410156" xlink:href="#DejaVuSans-32"/>
      </g>
     </g>
    </g>
    <g id="xtick_7">
     <g id="line2d_26">
      <path clip-path="url(#p71eaf0d575)" d="M 134.061007 191.398437 
L 134.061007 119.128437 
" style="fill:none;stroke:#b0b0b0;stroke-linecap:square;stroke-width:0.8;"/>
     </g>
     <g id="line2d_27">
      <g>
       <use style="stroke:#000000;stroke-width:0.8;" x="134.061007" xlink:href="#m58e3fef721" y="191.398437"/>
      </g>
     </g>
     <g id="text_10">
      <!-- 0.4 -->
      <g transform="translate(127.699757 204.477187)scale(0.08 -0.08)">
       <use xlink:href="#DejaVuSans-30"/>
       <use x="63.623047" xlink:href="#DejaVuSans-2e"/>
       <use x="95.410156" xlink:href="#DejaVuSans-34"/>
      </g>
     </g>
    </g>
    <g id="xtick_8">
     <g id="line2d_28">
      <path clip-path="url(#p71eaf0d575)" d="M 174.488526 191.398437 
L 174.488526 119.128437 
" style="fill:none;stroke:#b0b0b0;stroke-linecap:square;stroke-width:0.8;"/>
     </g>
     <g id="line2d_29">
      <g>
       <use style="stroke:#000000;stroke-width:0.8;" x="174.488526" xlink:href="#m58e3fef721" y="191.398437"/>
      </g>
     </g>
     <g id="text_11">
      <!-- 0.6 -->
      <g transform="translate(168.127276 204.477187)scale(0.08 -0.08)">
       <use xlink:href="#DejaVuSans-30"/>
       <use x="63.623047" xlink:href="#DejaVuSans-2e"/>
       <use x="95.410156" xlink:href="#DejaVuSans-36"/>
      </g>
     </g>
    </g>
   </g>
   <g id="matplotlib.axis_4">
    <g id="ytick_6">
     <g id="line2d_30">
      <path clip-path="url(#p71eaf0d575)" d="M 35.62 188.113437 
L 200.16 188.113437 
" style="fill:none;stroke:#b0b0b0;stroke-linecap:square;stroke-width:0.8;"/>
     </g>
     <g id="line2d_31">
      <g>
       <use style="stroke:#000000;stroke-width:0.8;" x="35.62" xlink:href="#m33dd6e015d" y="188.113437"/>
      </g>
     </g>
     <g id="text_12">
      <!-- 0.0 -->
      <g transform="translate(15.8975 191.152812)scale(0.08 -0.08)">
       <use xlink:href="#DejaVuSans-30"/>
       <use x="63.623047" xlink:href="#DejaVuSans-2e"/>
       <use x="95.410156" xlink:href="#DejaVuSans-30"/>
      </g>
     </g>
    </g>
    <g id="ytick_7">
     <g id="line2d_32">
      <path clip-path="url(#p71eaf0d575)" d="M 35.62 172.962771 
L 200.16 172.962771 
" style="fill:none;stroke:#b0b0b0;stroke-linecap:square;stroke-width:0.8;"/>
     </g>
     <g id="line2d_33">
      <g>
       <use style="stroke:#000000;stroke-width:0.8;" x="35.62" xlink:href="#m33dd6e015d" y="172.962771"/>
      </g>
     </g>
     <g id="text_13">
      <!-- 1.5 -->
      <g transform="translate(15.8975 176.002146)scale(0.08 -0.08)">
       <use xlink:href="#DejaVuSans-31"/>
       <use x="63.623047" xlink:href="#DejaVuSans-2e"/>
       <use x="95.410156" xlink:href="#DejaVuSans-35"/>
      </g>
     </g>
    </g>
    <g id="ytick_8">
     <g id="line2d_34">
      <path clip-path="url(#p71eaf0d575)" d="M 35.62 157.812104 
L 200.16 157.812104 
" style="fill:none;stroke:#b0b0b0;stroke-linecap:square;stroke-width:0.8;"/>
     </g>
     <g id="line2d_35">
      <g>
       <use style="stroke:#000000;stroke-width:0.8;" x="35.62" xlink:href="#m33dd6e015d" y="157.812104"/>
      </g>
     </g>
     <g id="text_14">
      <!-- 3.0 -->
      <g transform="translate(15.8975 160.851479)scale(0.08 -0.08)">
       <use xlink:href="#DejaVuSans-33"/>
       <use x="63.623047" xlink:href="#DejaVuSans-2e"/>
       <use x="95.410156" xlink:href="#DejaVuSans-30"/>
      </g>
     </g>
    </g>
    <g id="ytick_9">
     <g id="line2d_36">
      <path clip-path="url(#p71eaf0d575)" d="M 35.62 142.661437 
L 200.16 142.661437 
" style="fill:none;stroke:#b0b0b0;stroke-linecap:square;stroke-width:0.8;"/>
     </g>
     <g id="line2d_37">
      <g>
       <use style="stroke:#000000;stroke-width:0.8;" x="35.62" xlink:href="#m33dd6e015d" y="142.661437"/>
      </g>
     </g>
     <g id="text_15">
      <!-- 4.5 -->
      <g transform="translate(15.8975 145.700812)scale(0.08 -0.08)">
       <use xlink:href="#DejaVuSans-34"/>
       <use x="63.623047" xlink:href="#DejaVuSans-2e"/>
       <use x="95.410156" xlink:href="#DejaVuSans-35"/>
      </g>
     </g>
    </g>
    <g id="ytick_10">
     <g id="line2d_38">
      <path clip-path="url(#p71eaf0d575)" d="M 35.62 127.510771 
L 200.16 127.510771 
" style="fill:none;stroke:#b0b0b0;stroke-linecap:square;stroke-width:0.8;"/>
     </g>
     <g id="line2d_39">
      <g>
       <use style="stroke:#000000;stroke-width:0.8;" x="35.62" xlink:href="#m33dd6e015d" y="127.510771"/>
      </g>
     </g>
     <g id="text_16">
      <!-- 6.0 -->
      <g transform="translate(15.8975 130.550146)scale(0.08 -0.08)">
       <use xlink:href="#DejaVuSans-36"/>
       <use x="63.623047" xlink:href="#DejaVuSans-2e"/>
       <use x="95.410156" xlink:href="#DejaVuSans-30"/>
      </g>
     </g>
    </g>
    <g id="text_17">
     <!-- 1e−4 -->
     <g transform="translate(35.62 116.128437)scale(0.08 -0.08)">
      <use xlink:href="#DejaVuSans-31"/>
      <use x="63.623047" xlink:href="#DejaVuSans-65"/>
      <use x="125.146484" xlink:href="#DejaVuSans-2212"/>
      <use x="208.935547" xlink:href="#DejaVuSans-34"/>
     </g>
    </g>
   </g>
   <g id="line2d_40">
    <path clip-path="url(#p71eaf0d575)" d="M 43.099091 161.269434 
L 45.120467 162.502191 
L 47.141843 165.107573 
L 49.163219 163.662632 
L 51.184595 162.479008 
L 53.205971 161.520123 
L 55.227346 160.790669 
L 57.248722 159.311392 
L 59.270098 155.217035 
L 61.291474 148.509001 
L 63.31285 141.167129 
L 65.334226 136.358235 
L 67.355602 136.070114 
L 69.376978 139.57931 
L 71.398354 145.141777 
L 73.41973 150.168665 
L 75.441106 152.265917 
L 77.462482 151.355704 
L 79.483857 150.007084 
L 81.505233 149.793177 
L 83.526609 150.571283 
L 85.547985 153.001565 
L 87.569361 156.980042 
L 89.590737 158.962393 
L 91.612113 156.42164 
L 93.633489 151.383033 
L 95.654865 147.370471 
L 97.676241 146.020754 
L 99.697617 147.177082 
L 101.718993 149.980547 
L 103.740369 153.280728 
L 105.761744 155.608334 
L 107.78312 156.199015 
L 109.804496 155.620437 
L 111.825872 154.948692 
L 113.847248 154.974817 
L 115.868624 155.804846 
L 117.89 157.06647 
L 119.911376 158.391139 
L 121.932752 159.752647 
L 123.954128 161.23338 
L 125.975504 163.303559 
L 127.99688 165.937813 
L 130.018256 168.230768 
L 132.039631 169.697645 
L 134.061007 170.683044 
L 136.082383 171.365523 
L 138.103759 171.690846 
L 140.125135 171.503545 
L 142.146511 170.593414 
L 144.167887 169.187667 
L 146.189263 167.432737 
L 148.210639 165.476509 
L 150.232015 163.349859 
L 152.253391 161.325795 
L 154.274767 159.867039 
L 156.296143 159.126547 
L 158.317518 158.726995 
L 160.338894 158.189654 
L 162.36027 157.291013 
L 164.381646 155.732107 
L 166.403022 153.648125 
L 168.424398 151.342483 
L 170.445774 149.57568 
L 172.46715 149.073736 
L 174.488526 149.720598 
L 176.509902 150.564573 
L 178.531278 150.904926 
L 180.552654 151.131925 
L 182.574029 152.601971 
L 184.595405 156.136229 
L 186.616781 161.707209 
L 188.638157 168.104986 
L 190.659533 172.286551 
L 192.680909 175.516193 
" style="fill:none;stroke:#2f4858;stroke-linecap:square;stroke-width:0.5;"/>
   </g>
   <g id="line2d_41">
    <path clip-path="url(#p71eaf0d575)" d="M 43.099091 175.799306 
L 45.120467 176.216502 
L 47.141843 177.888924 
L 49.163219 177.746709 
L 51.184595 177.188857 
L 53.205971 176.54088 
L 55.227346 176.017073 
L 57.248722 175.316402 
L 59.270098 174.075715 
L 61.291474 172.46693 
L 63.31285 171.16288 
L 65.334226 170.923542 
L 67.355602 172.123839 
L 69.376978 173.59556 
L 71.398354 174.163069 
L 73.41973 173.035438 
L 75.441106 169.795245 
L 77.462482 165.772191 
L 79.483857 163.98842 
L 81.505233 165.472387 
L 83.526609 168.195019 
L 85.547985 170.094105 
L 87.569361 170.940631 
L 89.590737 171.533124 
L 91.612113 172.329996 
L 93.633489 173.535599 
L 95.654865 174.942161 
L 97.676241 175.963353 
L 99.697617 176.288915 
L 101.718993 175.943623 
L 103.740369 175.690873 
L 105.761744 176.327536 
L 107.78312 177.676879 
L 109.804496 178.777171 
L 111.825872 178.961659 
L 113.847248 178.490026 
L 115.868624 177.765494 
L 117.89 177.187495 
L 119.911376 177.062413 
L 121.932752 177.452513 
L 123.954128 177.893237 
L 125.975504 177.838721 
L 127.99688 177.433511 
L 130.018256 177.096927 
L 132.039631 177.209123 
L 134.061007 178.042293 
L 136.082383 179.202275 
L 138.103759 179.965272 
L 140.125135 180.004164 
L 142.146511 179.489993 
L 144.167887 178.919537 
L 146.189263 178.753188 
L 148.210639 179.132051 
L 150.232015 179.878566 
L 152.253391 180.806983 
L 154.274767 181.647804 
L 156.296143 182.194584 
L 158.317518 182.166741 
L 160.338894 181.610549 
L 162.36027 180.853369 
L 164.381646 179.827273 
L 166.403022 178.909482 
L 168.424398 178.543977 
L 170.445774 178.941485 
L 172.46715 179.674515 
L 174.488526 179.707959 
L 176.509902 178.707949 
L 178.531278 176.808364 
L 180.552654 174.553529 
L 182.574029 173.097486 
L 184.595405 173.351751 
L 186.616781 174.919615 
L 188.638157 176.808784 
L 190.659533 177.172388 
L 192.680909 177.932821 
" style="fill:none;stroke:#719e87;stroke-linecap:square;stroke-width:0.5;"/>
   </g>
   <g id="line2d_42">
    <path clip-path="url(#p71eaf0d575)" d="M 43.099091 188.113437 
L 45.120467 188.113437 
L 47.141843 188.113437 
L 49.163219 188.113437 
L 51.184595 188.113437 
L 53.205971 188.113437 
L 55.227346 188.113437 
L 57.248722 188.113437 
L 59.270098 188.113437 
L 61.291474 188.113437 
L 63.31285 188.113437 
L 65.334226 188.113437 
L 67.355602 188.113437 
L 69.376978 188.113437 
L 71.398354 188.113437 
L 73.41973 188.113437 
L 75.441106 188.113437 
L 77.462482 188.113437 
L 79.483857 188.113437 
L 81.505233 188.113437 
L 83.526609 188.113437 
L 85.547985 188.113437 
L 87.569361 188.113437 
L 89.590737 188.113437 
L 91.612113 188.113437 
L 93.633489 188.113437 
L 95.654865 188.113437 
L 97.676241 188.113437 
L 99.697617 188.113437 
L 101.718993 188.113437 
L 103.740369 188.113437 
L 105.761744 188.113437 
L 107.78312 188.113437 
L 109.804496 188.113437 
L 111.825872 188.113437 
L 113.847248 188.113437 
L 115.868624 188.113437 
L 117.89 188.113437 
L 119.911376 188.113437 
L 121.932752 188.113437 
L 123.954128 188.113437 
L 125.975504 188.113437 
L 127.99688 188.113437 
L 130.018256 188.113437 
L 132.039631 188.113437 
L 134.061007 188.113437 
L 136.082383 188.113437 
L 138.103759 188.113437 
L 140.125135 188.113437 
L 142.146511 188.113437 
L 144.167887 188.113437 
L 146.189263 188.113437 
L 148.210639 188.113437 
L 150.232015 188.113437 
L 152.253391 188.113437 
L 154.274767 188.113437 
L 156.296143 188.113437 
L 158.317518 188.113437 
L 160.338894 188.113437 
L 162.36027 188.113437 
L 164.381646 188.113437 
L 166.403022 188.113437 
L 168.424398 188.113437 
L 170.445774 188.113437 
L 172.46715 188.113437 
L 174.488526 188.113437 
L 176.509902 188.113437 
L 178.531278 188.113437 
L 180.552654 188.113437 
L 182.574029 188.113437 
L 184.595405 188.113437 
L 186.616781 188.113437 
L 188.638157 188.113437 
L 190.659533 188.113437 
L 192.680909 188.113437 
" style="fill:none;stroke:#ff0000;stroke-linecap:square;stroke-width:2;"/>
   </g>
   <g id="patch_5">
    <path d="M 35.62 191.398437 
L 200.16 191.398437 
" style="fill:none;stroke:#000000;stroke-linecap:square;stroke-linejoin:miter;stroke-width:0.8;"/>
   </g>
   <g id="text_18">
    <!-- Phoneme Features -->
    <g transform="translate(71.37125 113.128437)scale(0.1 -0.1)">
     <defs>
      <path d="M 1259 4147 
L 1259 2394 
L 2053 2394 
Q 2494 2394 2734 2622 
Q 2975 2850 2975 3272 
Q 2975 3691 2734 3919 
Q 2494 4147 2053 4147 
L 1259 4147 
z
M 628 4666 
L 2053 4666 
Q 2838 4666 3239 4311 
Q 3641 3956 3641 3272 
Q 3641 2581 3239 2228 
Q 2838 1875 2053 1875 
L 1259 1875 
L 1259 0 
L 628 0 
L 628 4666 
z
" id="DejaVuSans-50" transform="scale(0.015625)"/>
      <path d="M 3513 2113 
L 3513 0 
L 2938 0 
L 2938 2094 
Q 2938 2591 2744 2837 
Q 2550 3084 2163 3084 
Q 1697 3084 1428 2787 
Q 1159 2491 1159 1978 
L 1159 0 
L 581 0 
L 581 4863 
L 1159 4863 
L 1159 2956 
Q 1366 3272 1645 3428 
Q 1925 3584 2291 3584 
Q 2894 3584 3203 3211 
Q 3513 2838 3513 2113 
z
" id="DejaVuSans-68" transform="scale(0.015625)"/>
      <path d="M 3513 2113 
L 3513 0 
L 2938 0 
L 2938 2094 
Q 2938 2591 2744 2837 
Q 2550 3084 2163 3084 
Q 1697 3084 1428 2787 
Q 1159 2491 1159 1978 
L 1159 0 
L 581 0 
L 581 3500 
L 1159 3500 
L 1159 2956 
Q 1366 3272 1645 3428 
Q 1925 3584 2291 3584 
Q 2894 3584 3203 3211 
Q 3513 2838 3513 2113 
z
" id="DejaVuSans-6e" transform="scale(0.015625)"/>
      <path d="M 3328 2828 
Q 3544 3216 3844 3400 
Q 4144 3584 4550 3584 
Q 5097 3584 5394 3201 
Q 5691 2819 5691 2113 
L 5691 0 
L 5113 0 
L 5113 2094 
Q 5113 2597 4934 2840 
Q 4756 3084 4391 3084 
Q 3944 3084 3684 2787 
Q 3425 2491 3425 1978 
L 3425 0 
L 2847 0 
L 2847 2094 
Q 2847 2600 2669 2842 
Q 2491 3084 2119 3084 
Q 1678 3084 1418 2786 
Q 1159 2488 1159 1978 
L 1159 0 
L 581 0 
L 581 3500 
L 1159 3500 
L 1159 2956 
Q 1356 3278 1631 3431 
Q 1906 3584 2284 3584 
Q 2666 3584 2933 3390 
Q 3200 3197 3328 2828 
z
" id="DejaVuSans-6d" transform="scale(0.015625)"/>
      <path d="M 628 4666 
L 3309 4666 
L 3309 4134 
L 1259 4134 
L 1259 2759 
L 3109 2759 
L 3109 2228 
L 1259 2228 
L 1259 0 
L 628 0 
L 628 4666 
z
" id="DejaVuSans-46" transform="scale(0.015625)"/>
      <path d="M 2194 1759 
Q 1497 1759 1228 1600 
Q 959 1441 959 1056 
Q 959 750 1161 570 
Q 1363 391 1709 391 
Q 2188 391 2477 730 
Q 2766 1069 2766 1631 
L 2766 1759 
L 2194 1759 
z
M 3341 1997 
L 3341 0 
L 2766 0 
L 2766 531 
Q 2569 213 2275 61 
Q 1981 -91 1556 -91 
Q 1019 -91 701 211 
Q 384 513 384 1019 
Q 384 1609 779 1909 
Q 1175 2209 1959 2209 
L 2766 2209 
L 2766 2266 
Q 2766 2663 2505 2880 
Q 2244 3097 1772 3097 
Q 1472 3097 1187 3025 
Q 903 2953 641 2809 
L 641 3341 
Q 956 3463 1253 3523 
Q 1550 3584 1831 3584 
Q 2591 3584 2966 3190 
Q 3341 2797 3341 1997 
z
" id="DejaVuSans-61" transform="scale(0.015625)"/>
      <path d="M 2631 2963 
Q 2534 3019 2420 3045 
Q 2306 3072 2169 3072 
Q 1681 3072 1420 2755 
Q 1159 2438 1159 1844 
L 1159 0 
L 581 0 
L 581 3500 
L 1159 3500 
L 1159 2956 
Q 1341 3275 1631 3429 
Q 1922 3584 2338 3584 
Q 2397 3584 2469 3576 
Q 2541 3569 2628 3553 
L 2631 2963 
z
" id="DejaVuSans-72" transform="scale(0.015625)"/>
     </defs>
     <use xlink:href="#DejaVuSans-50"/>
     <use x="60.302734" xlink:href="#DejaVuSans-68"/>
     <use x="123.681641" xlink:href="#DejaVuSans-6f"/>
     <use x="184.863281" xlink:href="#DejaVuSans-6e"/>
     <use x="248.242188" xlink:href="#DejaVuSans-65"/>
     <use x="309.765625" xlink:href="#DejaVuSans-6d"/>
     <use x="407.177734" xlink:href="#DejaVuSans-65"/>
     <use x="468.701172" xlink:href="#DejaVuSans-20"/>
     <use x="500.488281" xlink:href="#DejaVuSans-46"/>
     <use x="552.507812" xlink:href="#DejaVuSans-65"/>
     <use x="614.03125" xlink:href="#DejaVuSans-61"/>
     <use x="675.310547" xlink:href="#DejaVuSans-74"/>
     <use x="714.519531" xlink:href="#DejaVuSans-75"/>
     <use x="777.898438" xlink:href="#DejaVuSans-72"/>
     <use x="816.761719" xlink:href="#DejaVuSans-65"/>
     <use x="878.285156" xlink:href="#DejaVuSans-73"/>
    </g>
   </g>
  </g>
  <g id="text_19">
   <!-- Time (sec) -->
   <g transform="translate(76.614375 214.238437)scale(0.12 -0.12)">
    <defs>
     <path d="M -19 4666 
L 3928 4666 
L 3928 4134 
L 2272 4134 
L 2272 0 
L 1638 0 
L 1638 4134 
L -19 4134 
L -19 4666 
z
" id="DejaVuSans-54" transform="scale(0.015625)"/>
     <path d="M 1984 4856 
Q 1566 4138 1362 3434 
Q 1159 2731 1159 2009 
Q 1159 1288 1364 580 
Q 1569 -128 1984 -844 
L 1484 -844 
Q 1016 -109 783 600 
Q 550 1309 550 2009 
Q 550 2706 781 3412 
Q 1013 4119 1484 4856 
L 1984 4856 
z
" id="DejaVuSans-28" transform="scale(0.015625)"/>
     <path d="M 513 4856 
L 1013 4856 
Q 1481 4119 1714 3412 
Q 1947 2706 1947 2009 
Q 1947 1309 1714 600 
Q 1481 -109 1013 -844 
L 513 -844 
Q 928 -128 1133 580 
Q 1338 1288 1338 2009 
Q 1338 2731 1133 3434 
Q 928 4138 513 4856 
z
" id="DejaVuSans-29" transform="scale(0.015625)"/>
    </defs>
    <use xlink:href="#DejaVuSans-54"/>
    <use x="57.958984" xlink:href="#DejaVuSans-69"/>
    <use x="85.742188" xlink:href="#DejaVuSans-6d"/>
    <use x="183.154297" xlink:href="#DejaVuSans-65"/>
    <use x="244.677734" xlink:href="#DejaVuSans-20"/>
    <use x="276.464844" xlink:href="#DejaVuSans-28"/>
    <use x="315.478516" xlink:href="#DejaVuSans-73"/>
    <use x="367.578125" xlink:href="#DejaVuSans-65"/>
    <use x="429.101562" xlink:href="#DejaVuSans-63"/>
    <use x="484.082031" xlink:href="#DejaVuSans-29"/>
   </g>
  </g>
  <g id="text_20">
   <!-- Power of Weights $\mathregular{\sqrt{w^{2}}}$ -->
   <g transform="translate(22.56 173.978437)rotate(-90)scale(0.12 -0.12)">
    <defs>
     <path d="M 269 3500 
L 844 3500 
L 1563 769 
L 2278 3500 
L 2956 3500 
L 3675 769 
L 4391 3500 
L 4966 3500 
L 4050 0 
L 3372 0 
L 2619 2869 
L 1863 0 
L 1184 0 
L 269 3500 
z
" id="DejaVuSans-77" transform="scale(0.015625)"/>
     <path d="M 2375 4863 
L 2375 4384 
L 1825 4384 
Q 1516 4384 1395 4259 
Q 1275 4134 1275 3809 
L 1275 3500 
L 2222 3500 
L 2222 3053 
L 1275 3053 
L 1275 0 
L 697 0 
L 697 3053 
L 147 3053 
L 147 3500 
L 697 3500 
L 697 3744 
Q 697 4328 969 4595 
Q 1241 4863 1831 4863 
L 2375 4863 
z
" id="DejaVuSans-66" transform="scale(0.015625)"/>
     <path d="M 213 4666 
L 850 4666 
L 1831 722 
L 2809 4666 
L 3519 4666 
L 4500 722 
L 5478 4666 
L 6119 4666 
L 4947 0 
L 4153 0 
L 3169 4050 
L 2175 0 
L 1381 0 
L 213 4666 
z
" id="DejaVuSans-57" transform="scale(0.015625)"/>
     <path d="M 6970 9933 
L 3373 -1888 
L 3104 -1888 
L 1626 2918 
Q 1555 3149 1465 3251 
Q 1376 3354 1229 3354 
Q 1011 3354 794 3181 
L 717 3309 
L 1766 4115 
L 1926 4115 
L 3379 -602 
L 3405 -602 
L 6605 9933 
L 6970 9933 
z
" id="STIXSizeOneSym-Regular-221a" transform="scale(0.015625)"/>
    </defs>
    <use transform="translate(0 0.09375)" xlink:href="#DejaVuSans-50"/>
    <use transform="translate(60.302734 0.09375)" xlink:href="#DejaVuSans-6f"/>
    <use transform="translate(121.484375 0.09375)" xlink:href="#DejaVuSans-77"/>
    <use transform="translate(203.271484 0.09375)" xlink:href="#DejaVuSans-65"/>
    <use transform="translate(264.794922 0.09375)" xlink:href="#DejaVuSans-72"/>
    <use transform="translate(305.908203 0.09375)" xlink:href="#DejaVuSans-20"/>
    <use transform="translate(337.695312 0.09375)" xlink:href="#DejaVuSans-6f"/>
    <use transform="translate(398.876953 0.09375)" xlink:href="#DejaVuSans-66"/>
    <use transform="translate(434.082031 0.09375)" xlink:href="#DejaVuSans-20"/>
    <use transform="translate(465.869141 0.09375)" xlink:href="#DejaVuSans-57"/>
    <use transform="translate(564.746094 0.09375)" xlink:href="#DejaVuSans-65"/>
    <use transform="translate(626.269531 0.09375)" xlink:href="#DejaVuSans-69"/>
    <use transform="translate(654.052734 0.09375)" xlink:href="#DejaVuSans-67"/>
    <use transform="translate(717.529297 0.09375)" xlink:href="#DejaVuSans-68"/>
    <use transform="translate(780.908203 0.09375)" xlink:href="#DejaVuSans-74"/>
    <use transform="translate(820.117188 0.09375)" xlink:href="#DejaVuSans-73"/>
    <use transform="translate(872.216797 0.09375)" xlink:href="#DejaVuSans-20"/>
    <use transform="translate(904.003906 19.5625)scale(0.657728)" xlink:href="#STIXSizeOneSym-Regular-221a"/>
    <use transform="translate(986.001648 0.515625)" xlink:href="#DejaVuSans-77"/>
    <use transform="translate(1068.745789 38.796875)scale(0.7)" xlink:href="#DejaVuSans-32"/>
    <path d="M 973.501648 115.5 
L 973.501648 121.75 
L 1128.516296 121.75 
L 1128.516296 115.5 
L 973.501648 115.5 
z
"/>
   </g>
  </g>
 </g>
 <defs>
  <clipPath id="pa8b5380ae9">
   <rect height="72.27" width="164.54" x="35.62" y="20.798438"/>
  </clipPath>
  <clipPath id="p71eaf0d575">
   <rect height="72.27" width="164.54" x="35.62" y="119.128437"/>
  </clipPath>
 </defs>
</svg>
