<?xml version="1.0" encoding="utf-8" standalone="no"?>
<!DOCTYPE svg PUBLIC "-//W3C//DTD SVG 1.1//EN"
  "http://www.w3.org/Graphics/SVG/1.1/DTD/svg11.dtd">
<svg height="223.934062pt" version="1.1" viewBox="0 0 207.36 223.934062" width="207.36pt" xmlns="http://www.w3.org/2000/svg" xmlns:xlink="http://www.w3.org/1999/xlink">
 <metadata>
  <rdf:RDF xmlns:cc="http://creativecommons.org/ns#" xmlns:dc="http://purl.org/dc/elements/1.1/" xmlns:rdf="http://www.w3.org/1999/02/22-rdf-syntax-ns#">
   <cc:Work>
    <dc:type rdf:resource="http://purl.org/dc/dcmitype/StillImage"/>
    <dc:date>2026-02-07T18:32:46.493734</dc:date>
    <dc:format>image/svg+xml</dc:format>
    <dc:creator>
     <cc:Agent>
      <dc:title>Matplotlib v3.4.2, https://matplotlib.org/</dc:title>
     </cc:Agent>
    </dc:creator>
   </cc:Work>
  </rdf:RDF>
 </metadata>
 <defs>
  <style type="text/css">*{stroke-linecap:butt;stroke-linejoin:round;}</style>
 </defs>
 <g id="figure_1">
  <g id="patch_1">
   <path d="M -0 223.934062 
L 207.36 223.934062 
L 207.36 0 
L -0 0 
z
" style="fill:none;"/>
  </g>
  <g id="axes_1">
   <g id="patch_2">
    <path d="M 27.97 93.068437 
L 200.16 93.068437 
L 200.16 20.798438 
L 27.97 20.798438 
z
" style="fill:none;"/>
   </g>
   <g id="PolyCollection_1">
    <defs>
     <path d="M 35.796818 -143.186894 
L 35.796818 -143.031307 
L 37.912174 -142.459033 
L 40.027531 -140.113815 
L 42.142887 -139.17215 
L 44.258243 -138.363243 
L 46.3736 -137.869475 
L 48.488956 -138.322049 
L 50.604312 -138.975695 
L 52.719668 -139.094656 
L 54.835025 -139.551843 
L 56.950381 -141.693108 
L 59.065737 -146.237044 
L 61.181093 -151.683944 
L 63.29645 -155.285473 
L 65.411806 -156.280685 
L 67.527162 -154.821789 
L 69.642518 -151.528069 
L 71.757875 -149.67086 
L 73.873231 -151.421877 
L 75.988587 -156.34337 
L 78.103943 -158.35808 
L 80.2193 -152.530609 
L 82.334656 -144.889364 
L 84.450012 -141.023436 
L 86.565369 -140.05041 
L 88.680725 -140.055427 
L 90.796081 -141.403124 
L 92.911437 -143.197404 
L 95.026794 -143.910501 
L 97.14215 -144.016497 
L 99.257506 -144.299293 
L 101.372862 -144.191802 
L 103.488219 -143.78994 
L 105.603575 -144.227889 
L 107.718931 -144.78597 
L 109.834287 -143.360622 
L 111.949644 -141.429341 
L 114.065 -140.734128 
L 116.180356 -140.680949 
L 118.295713 -140.524322 
L 120.411069 -140.235714 
L 122.526425 -139.750561 
L 124.641781 -138.925253 
L 126.757138 -138.139935 
L 128.872494 -138.052303 
L 130.98785 -138.687052 
L 133.103206 -139.325926 
L 135.218563 -139.72428 
L 137.333919 -139.949532 
L 139.449275 -139.885895 
L 141.564631 -139.817367 
L 143.679988 -139.656197 
L 145.795344 -139.386496 
L 147.9107 -139.264988 
L 150.026057 -138.836638 
L 152.141413 -138.115397 
L 154.256769 -137.473433 
L 156.372125 -137.110303 
L 158.487482 -137.02389 
L 160.602838 -137.153097 
L 162.718194 -137.402946 
L 164.83355 -137.548853 
L 166.948907 -137.458282 
L 169.064263 -137.170722 
L 171.179619 -136.949572 
L 173.294975 -137.201728 
L 175.410332 -137.619947 
L 177.525688 -137.661071 
L 179.641044 -137.522731 
L 181.7564 -137.409501 
L 183.871757 -137.395627 
L 185.987113 -137.548986 
L 188.102469 -137.988775 
L 190.217826 -139.234389 
L 192.333182 -139.221242 
L 192.333182 -141.50679 
L 192.333182 -141.50679 
L 190.217826 -140.972292 
L 188.102469 -139.242282 
L 185.987113 -138.499823 
L 183.871757 -138.243956 
L 181.7564 -138.308148 
L 179.641044 -138.625129 
L 177.525688 -138.796941 
L 175.410332 -138.569015 
L 173.294975 -138.244773 
L 171.179619 -138.063819 
L 169.064263 -138.122247 
L 166.948907 -138.183327 
L 164.83355 -138.151977 
L 162.718194 -138.051278 
L 160.602838 -137.923896 
L 158.487482 -137.946044 
L 156.372125 -138.419682 
L 154.256769 -139.168016 
L 152.141413 -139.971219 
L 150.026057 -140.459043 
L 147.9107 -140.633628 
L 145.795344 -140.797383 
L 143.679988 -140.883772 
L 141.564631 -141.157616 
L 139.449275 -141.333268 
L 137.333919 -141.327235 
L 135.218563 -140.91758 
L 133.103206 -140.319163 
L 130.98785 -139.947281 
L 128.872494 -139.954013 
L 126.757138 -140.490756 
L 124.641781 -141.437358 
L 122.526425 -142.251846 
L 120.411069 -142.656047 
L 118.295713 -143.075694 
L 116.180356 -143.783895 
L 114.065 -144.719517 
L 111.949644 -145.768219 
L 109.834287 -146.665992 
L 107.718931 -147.278573 
L 105.603575 -147.66635 
L 103.488219 -147.728497 
L 101.372862 -147.634354 
L 99.257506 -147.010718 
L 97.14215 -146.533001 
L 95.026794 -146.038127 
L 92.911437 -144.900037 
L 90.796081 -143.389156 
L 88.680725 -143.308491 
L 86.565369 -146.134288 
L 84.450012 -152.052592 
L 82.334656 -158.923474 
L 80.2193 -164.626393 
L 78.103943 -166.47528 
L 75.988587 -164.309182 
L 73.873231 -160.535248 
L 71.757875 -158.908909 
L 69.642518 -159.806283 
L 67.527162 -161.909751 
L 65.411806 -163.107304 
L 63.29645 -160.490967 
L 61.181093 -154.561532 
L 59.065737 -147.78636 
L 56.950381 -143.249959 
L 54.835025 -141.472056 
L 52.719668 -140.788361 
L 50.604312 -140.10148 
L 48.488956 -139.550008 
L 46.3736 -139.537238 
L 44.258243 -140.344795 
L 42.142887 -141.516398 
L 40.027531 -142.525531 
L 37.912174 -143.568655 
L 35.796818 -143.186894 
z
" id="m03a6af13be" style="stroke:#2f4858;stroke-opacity:0.7;stroke-width:0.2;"/>
    </defs>
    <g clip-path="url(#p5d5e57a294)">
     <use style="fill:#2f4858;fill-opacity:0.7;stroke:#2f4858;stroke-opacity:0.7;stroke-width:0.2;" x="0" xlink:href="#m03a6af13be" y="223.934062"/>
    </g>
   </g>
   <g id="PolyCollection_2">
    <defs>
     <path d="M 35.796818 -142.58209 
L 35.796818 -142.429884 
L 37.912174 -141.510773 
L 40.027531 -138.653741 
L 42.142887 -137.484482 
L 44.258243 -137.197298 
L 46.3736 -137.45448 
L 48.488956 -138.194348 
L 50.604312 -138.808557 
L 52.719668 -138.880634 
L 54.835025 -139.090869 
L 56.950381 -140.665028 
L 59.065737 -145.024032 
L 61.181093 -151.902024 
L 63.29645 -158.271386 
L 65.411806 -162.289393 
L 67.527162 -163.421089 
L 69.642518 -160.977698 
L 71.757875 -157.483733 
L 73.873231 -155.80074 
L 75.988587 -156.231349 
L 78.103943 -155.761744 
L 80.2193 -150.255724 
L 82.334656 -143.234443 
L 84.450012 -139.65866 
L 86.565369 -139.551607 
L 88.680725 -140.955852 
L 90.796081 -141.717337 
L 92.911437 -142.060287 
L 95.026794 -142.472947 
L 97.14215 -142.406202 
L 99.257506 -141.892801 
L 101.372862 -141.580226 
L 103.488219 -141.683795 
L 105.603575 -141.947515 
L 107.718931 -141.733704 
L 109.834287 -140.926584 
L 111.949644 -139.997349 
L 114.065 -139.573438 
L 116.180356 -139.715721 
L 118.295713 -139.715841 
L 120.411069 -139.460818 
L 122.526425 -139.579386 
L 124.641781 -139.554988 
L 126.757138 -138.932506 
L 128.872494 -138.556711 
L 130.98785 -138.631724 
L 133.103206 -138.715267 
L 135.218563 -138.684007 
L 137.333919 -138.359295 
L 139.449275 -137.768445 
L 141.564631 -137.348359 
L 143.679988 -137.258152 
L 145.795344 -137.240099 
L 147.9107 -137.253944 
L 150.026057 -137.302311 
L 152.141413 -137.410415 
L 154.256769 -137.603327 
L 156.372125 -137.805452 
L 158.487482 -137.882572 
L 160.602838 -137.74851 
L 162.718194 -137.520523 
L 164.83355 -137.198699 
L 166.948907 -136.708026 
L 169.064263 -136.392327 
L 171.179619 -136.555861 
L 173.294975 -137.01802 
L 175.410332 -137.521119 
L 177.525688 -137.760006 
L 179.641044 -137.655271 
L 181.7564 -137.527048 
L 183.871757 -137.52378 
L 185.987113 -137.506539 
L 188.102469 -137.641052 
L 190.217826 -138.662731 
L 192.333182 -139.045293 
L 192.333182 -139.883484 
L 192.333182 -139.883484 
L 190.217826 -139.548247 
L 188.102469 -138.357372 
L 185.987113 -138.086875 
L 183.871757 -138.11062 
L 181.7564 -138.319147 
L 179.641044 -138.535853 
L 177.525688 -138.601981 
L 175.410332 -138.212062 
L 173.294975 -137.562085 
L 171.179619 -137.115746 
L 169.064263 -137.044472 
L 166.948907 -137.29486 
L 164.83355 -137.817121 
L 162.718194 -138.381313 
L 160.602838 -138.597274 
L 158.487482 -138.657112 
L 156.372125 -138.550579 
L 154.256769 -138.275213 
L 152.141413 -138.222422 
L 150.026057 -138.260013 
L 147.9107 -138.210313 
L 145.795344 -138.087323 
L 143.679988 -138.052683 
L 141.564631 -138.302701 
L 139.449275 -138.824224 
L 137.333919 -139.461515 
L 135.218563 -139.774106 
L 133.103206 -139.787368 
L 130.98785 -139.877078 
L 128.872494 -140.134738 
L 126.757138 -140.522976 
L 124.641781 -141.06134 
L 122.526425 -141.705466 
L 120.411069 -142.167225 
L 118.295713 -142.358381 
L 116.180356 -142.554489 
L 114.065 -142.756949 
L 111.949644 -143.265988 
L 109.834287 -144.156032 
L 107.718931 -144.522894 
L 105.603575 -144.247656 
L 103.488219 -143.990925 
L 101.372862 -144.019215 
L 99.257506 -144.436481 
L 97.14215 -145.187828 
L 95.026794 -145.744501 
L 92.911437 -145.2684 
L 90.796081 -144.054546 
L 88.680725 -143.749481 
L 86.565369 -145.557747 
L 84.450012 -149.568673 
L 82.334656 -155.524304 
L 80.2193 -160.914798 
L 78.103943 -164.075769 
L 75.988587 -165.19959 
L 73.873231 -165.97966 
L 71.757875 -168.093052 
L 69.642518 -170.003753 
L 67.527162 -170.109221 
L 65.411806 -167.84662 
L 63.29645 -162.236161 
L 61.181093 -154.18021 
L 59.065737 -146.537435 
L 56.950381 -141.93851 
L 54.835025 -140.313096 
L 52.719668 -139.943775 
L 50.604312 -139.611859 
L 48.488956 -139.047684 
L 46.3736 -138.614833 
L 44.258243 -138.77321 
L 42.142887 -139.656817 
L 40.027531 -140.988234 
L 37.912174 -142.593378 
L 35.796818 -142.58209 
z
" id="macec6797c3" style="stroke:#719e87;stroke-opacity:0.7;stroke-width:0.2;"/>
    </defs>
    <g clip-path="url(#p5d5e57a294)">
     <use style="fill:#719e87;fill-opacity:0.7;stroke:#719e87;stroke-opacity:0.7;stroke-width:0.2;" x="0" xlink:href="#macec6797c3" y="223.934062"/>
    </g>
   </g>
   <g id="matplotlib.axis_1">
    <g id="xtick_1">
     <g id="line2d_1">
      <path clip-path="url(#p5d5e57a294)" d="M 46.3736 93.068437 
L 46.3736 20.798438 
" style="fill:none;stroke:#b0b0b0;stroke-linecap:square;stroke-width:0.8;"/>
     </g>
     <g id="line2d_2">
      <defs>
       <path d="M 0 0 
L 0 3.5 
" id="m5bcb30e165" style="stroke:#000000;stroke-width:0.8;"/>
      </defs>
      <g>
       <use style="stroke:#000000;stroke-width:0.8;" x="46.3736" xlink:href="#m5bcb30e165" y="93.068437"/>
      </g>
     </g>
    </g>
    <g id="xtick_2">
     <g id="line2d_3">
      <path clip-path="url(#p5d5e57a294)" d="M 88.680725 93.068437 
L 88.680725 20.798438 
" style="fill:none;stroke:#b0b0b0;stroke-linecap:square;stroke-width:0.8;"/>
     </g>
     <g id="line2d_4">
      <g>
       <use style="stroke:#000000;stroke-width:0.8;" x="88.680725" xlink:href="#m5bcb30e165" y="93.068437"/>
      </g>
     </g>
    </g>
    <g id="xtick_3">
     <g id="line2d_5">
      <path clip-path="url(#p5d5e57a294)" d="M 130.98785 93.068437 
L 130.98785 20.798438 
" style="fill:none;stroke:#b0b0b0;stroke-linecap:square;stroke-width:0.8;"/>
     </g>
     <g id="line2d_6">
      <g>
       <use style="stroke:#000000;stroke-width:0.8;" x="130.98785" xlink:href="#m5bcb30e165" y="93.068437"/>
      </g>
     </g>
    </g>
    <g id="xtick_4">
     <g id="line2d_7">
      <path clip-path="url(#p5d5e57a294)" d="M 173.294975 93.068437 
L 173.294975 20.798438 
" style="fill:none;stroke:#b0b0b0;stroke-linecap:square;stroke-width:0.8;"/>
     </g>
     <g id="line2d_8">
      <g>
       <use style="stroke:#000000;stroke-width:0.8;" x="173.294975" xlink:href="#m5bcb30e165" y="93.068437"/>
      </g>
     </g>
    </g>
   </g>
   <g id="matplotlib.axis_2">
    <g id="ytick_1">
     <g id="line2d_9">
      <path clip-path="url(#p5d5e57a294)" d="M 27.97 89.783437 
L 200.16 89.783437 
" style="fill:none;stroke:#b0b0b0;stroke-linecap:square;stroke-width:0.8;"/>
     </g>
     <g id="line2d_10">
      <defs>
       <path d="M 0 0 
L -3.5 0 
" id="mf8179ddd01" style="stroke:#000000;stroke-width:0.8;"/>
      </defs>
      <g>
       <use style="stroke:#000000;stroke-width:0.8;" x="27.97" xlink:href="#mf8179ddd01" y="89.783437"/>
      </g>
     </g>
     <g id="text_1">
      <!-- 0 -->
      <g transform="translate(15.88 92.822812)scale(0.08 -0.08)">
       <defs>
        <path d="M 2034 4250 
Q 1547 4250 1301 3770 
Q 1056 3291 1056 2328 
Q 1056 1369 1301 889 
Q 1547 409 2034 409 
Q 2525 409 2770 889 
Q 3016 1369 3016 2328 
Q 3016 3291 2770 3770 
Q 2525 4250 2034 4250 
z
M 2034 4750 
Q 2819 4750 3233 4129 
Q 3647 3509 3647 2328 
Q 3647 1150 3233 529 
Q 2819 -91 2034 -91 
Q 1250 -91 836 529 
Q 422 1150 422 2328 
Q 422 3509 836 4129 
Q 1250 4750 2034 4750 
z
" id="DejaVuSans-30" transform="scale(0.015625)"/>
       </defs>
       <use xlink:href="#DejaVuSans-30"/>
      </g>
     </g>
    </g>
    <g id="ytick_2">
     <g id="line2d_11">
      <path clip-path="url(#p5d5e57a294)" d="M 27.97 71.015193 
L 200.16 71.015193 
" style="fill:none;stroke:#b0b0b0;stroke-linecap:square;stroke-width:0.8;"/>
     </g>
     <g id="line2d_12">
      <g>
       <use style="stroke:#000000;stroke-width:0.8;" x="27.97" xlink:href="#mf8179ddd01" y="71.015193"/>
      </g>
     </g>
     <g id="text_2">
      <!-- 2 -->
      <g transform="translate(15.88 74.054568)scale(0.08 -0.08)">
       <defs>
        <path d="M 1228 531 
L 3431 531 
L 3431 0 
L 469 0 
L 469 531 
Q 828 903 1448 1529 
Q 2069 2156 2228 2338 
Q 2531 2678 2651 2914 
Q 2772 3150 2772 3378 
Q 2772 3750 2511 3984 
Q 2250 4219 1831 4219 
Q 1534 4219 1204 4116 
Q 875 4013 500 3803 
L 500 4441 
Q 881 4594 1212 4672 
Q 1544 4750 1819 4750 
Q 2544 4750 2975 4387 
Q 3406 4025 3406 3419 
Q 3406 3131 3298 2873 
Q 3191 2616 2906 2266 
Q 2828 2175 2409 1742 
Q 1991 1309 1228 531 
z
" id="DejaVuSans-32" transform="scale(0.015625)"/>
       </defs>
       <use xlink:href="#DejaVuSans-32"/>
      </g>
     </g>
    </g>
    <g id="ytick_3">
     <g id="line2d_13">
      <path clip-path="url(#p5d5e57a294)" d="M 27.97 52.246949 
L 200.16 52.246949 
" style="fill:none;stroke:#b0b0b0;stroke-linecap:square;stroke-width:0.8;"/>
     </g>
     <g id="line2d_14">
      <g>
       <use style="stroke:#000000;stroke-width:0.8;" x="27.97" xlink:href="#mf8179ddd01" y="52.246949"/>
      </g>
     </g>
     <g id="text_3">
      <!-- 4 -->
      <g transform="translate(15.88 55.286324)scale(0.08 -0.08)">
       <defs>
        <path d="M 2419 4116 
L 825 1625 
L 2419 1625 
L 2419 4116 
z
M 2253 4666 
L 3047 4666 
L 3047 1625 
L 3713 1625 
L 3713 1100 
L 3047 1100 
L 3047 0 
L 2419 0 
L 2419 1100 
L 313 1100 
L 313 1709 
L 2253 4666 
z
" id="DejaVuSans-34" transform="scale(0.015625)"/>
       </defs>
       <use xlink:href="#DejaVuSans-34"/>
      </g>
     </g>
    </g>
    <g id="ytick_4">
     <g id="line2d_15">
      <path clip-path="url(#p5d5e57a294)" d="M 27.97 33.478704 
L 200.16 33.478704 
" style="fill:none;stroke:#b0b0b0;stroke-linecap:square;stroke-width:0.8;"/>
     </g>
     <g id="line2d_16">
      <g>
       <use style="stroke:#000000;stroke-width:0.8;" x="27.97" xlink:href="#mf8179ddd01" y="33.478704"/>
      </g>
     </g>
     <g id="text_4">
      <!-- 6 -->
      <g transform="translate(15.88 36.518079)scale(0.08 -0.08)">
       <defs>
        <path d="M 2113 2584 
Q 1688 2584 1439 2293 
Q 1191 2003 1191 1497 
Q 1191 994 1439 701 
Q 1688 409 2113 409 
Q 2538 409 2786 701 
Q 3034 994 3034 1497 
Q 3034 2003 2786 2293 
Q 2538 2584 2113 2584 
z
M 3366 4563 
L 3366 3988 
Q 3128 4100 2886 4159 
Q 2644 4219 2406 4219 
Q 1781 4219 1451 3797 
Q 1122 3375 1075 2522 
Q 1259 2794 1537 2939 
Q 1816 3084 2150 3084 
Q 2853 3084 3261 2657 
Q 3669 2231 3669 1497 
Q 3669 778 3244 343 
Q 2819 -91 2113 -91 
Q 1303 -91 875 529 
Q 447 1150 447 2328 
Q 447 3434 972 4092 
Q 1497 4750 2381 4750 
Q 2619 4750 2861 4703 
Q 3103 4656 3366 4563 
z
" id="DejaVuSans-36" transform="scale(0.015625)"/>
       </defs>
       <use xlink:href="#DejaVuSans-36"/>
      </g>
     </g>
    </g>
    <g id="text_5">
     <!-- 1e−4 -->
     <g transform="translate(27.97 17.798438)scale(0.08 -0.08)">
      <defs>
       <path d="M 794 531 
L 1825 531 
L 1825 4091 
L 703 3866 
L 703 4441 
L 1819 4666 
L 2450 4666 
L 2450 531 
L 3481 531 
L 3481 0 
L 794 0 
L 794 531 
z
" id="DejaVuSans-31" transform="scale(0.015625)"/>
       <path d="M 3597 1894 
L 3597 1613 
L 953 1613 
Q 991 1019 1311 708 
Q 1631 397 2203 397 
Q 2534 397 2845 478 
Q 3156 559 3463 722 
L 3463 178 
Q 3153 47 2828 -22 
Q 2503 -91 2169 -91 
Q 1331 -91 842 396 
Q 353 884 353 1716 
Q 353 2575 817 3079 
Q 1281 3584 2069 3584 
Q 2775 3584 3186 3129 
Q 3597 2675 3597 1894 
z
M 3022 2063 
Q 3016 2534 2758 2815 
Q 2500 3097 2075 3097 
Q 1594 3097 1305 2825 
Q 1016 2553 972 2059 
L 3022 2063 
z
" id="DejaVuSans-65" transform="scale(0.015625)"/>
       <path d="M 678 2272 
L 4684 2272 
L 4684 1741 
L 678 1741 
L 678 2272 
z
" id="DejaVuSans-2212" transform="scale(0.015625)"/>
      </defs>
      <use xlink:href="#DejaVuSans-31"/>
      <use x="63.623047" xlink:href="#DejaVuSans-65"/>
      <use x="125.146484" xlink:href="#DejaVuSans-2212"/>
      <use x="208.935547" xlink:href="#DejaVuSans-34"/>
     </g>
    </g>
   </g>
   <g id="line2d_17">
    <path clip-path="url(#p5d5e57a294)" d="M 35.796818 80.824962 
L 37.912174 80.920218 
L 40.027531 82.61439 
L 42.142887 83.589789 
L 44.258243 84.580043 
L 46.3736 85.230706 
L 48.488956 84.998034 
L 50.604312 84.395475 
L 52.719668 83.992554 
L 54.835025 83.422113 
L 56.950381 81.462529 
L 59.065737 76.92236 
L 61.181093 70.811324 
L 63.29645 66.045843 
L 65.411806 64.240068 
L 67.527162 65.568292 
L 69.642518 68.266886 
L 71.757875 69.644178 
L 73.873231 67.9555 
L 75.988587 63.607787 
L 78.103943 61.517383 
L 80.2193 65.355561 
L 82.334656 72.027644 
L 84.450012 77.396049 
L 86.565369 80.841713 
L 88.680725 82.252104 
L 90.796081 81.537923 
L 92.911437 79.885342 
L 95.026794 78.959749 
L 97.14215 78.659313 
L 99.257506 78.279057 
L 101.372862 78.020985 
L 103.488219 78.174844 
L 105.603575 77.986943 
L 107.718931 77.901791 
L 109.834287 78.920756 
L 111.949644 80.335283 
L 114.065 81.20724 
L 116.180356 81.701641 
L 118.295713 82.134055 
L 120.411069 82.488182 
L 122.526425 82.932859 
L 124.641781 83.752757 
L 126.757138 84.618717 
L 128.872494 84.930904 
L 130.98785 84.616896 
L 133.103206 84.111518 
L 135.218563 83.613132 
L 137.333919 83.295679 
L 139.449275 83.324481 
L 141.564631 83.446571 
L 143.679988 83.664078 
L 145.795344 83.842123 
L 147.9107 83.984755 
L 150.026057 84.286222 
L 152.141413 84.890754 
L 154.256769 85.613338 
L 156.372125 86.16907 
L 158.487482 86.449095 
L 160.602838 86.395566 
L 162.718194 86.20695 
L 164.83355 86.083647 
L 166.948907 86.113258 
L 169.064263 86.287578 
L 171.179619 86.427367 
L 173.294975 86.210812 
L 175.410332 85.839582 
L 177.525688 85.705057 
L 179.641044 85.860132 
L 181.7564 86.075238 
L 183.871757 86.114271 
L 185.987113 85.909658 
L 188.102469 85.318534 
L 190.217826 83.830722 
L 192.333182 83.570046 
" style="fill:none;stroke:#2f4858;stroke-linecap:square;stroke-width:0.5;"/>
   </g>
   <g id="line2d_18">
    <path clip-path="url(#p5d5e57a294)" d="M 35.796818 81.428076 
L 37.912174 81.881987 
L 40.027531 84.113075 
L 42.142887 85.363413 
L 44.258243 85.948808 
L 46.3736 85.899406 
L 48.488956 85.313047 
L 50.604312 84.723855 
L 52.719668 84.521858 
L 54.835025 84.23208 
L 56.950381 82.632294 
L 59.065737 78.153329 
L 61.181093 70.892945 
L 63.29645 63.680289 
L 65.411806 58.866056 
L 67.527162 57.168908 
L 69.642518 58.443337 
L 71.757875 61.14567 
L 73.873231 63.043863 
L 75.988587 63.218593 
L 78.103943 64.015306 
L 80.2193 68.348801 
L 82.334656 74.554689 
L 84.450012 79.320396 
L 86.565369 81.379386 
L 88.680725 81.581396 
L 90.796081 81.048121 
L 92.911437 80.269719 
L 95.026794 79.825339 
L 97.14215 80.137048 
L 99.257506 80.769421 
L 101.372862 81.134342 
L 103.488219 81.096703 
L 105.603575 80.836477 
L 107.718931 80.805763 
L 109.834287 81.392755 
L 111.949644 82.302394 
L 114.065 82.768869 
L 116.180356 82.798958 
L 118.295713 82.896952 
L 120.411069 83.120041 
L 122.526425 83.291636 
L 124.641781 83.625899 
L 126.757138 84.206321 
L 128.872494 84.588338 
L 130.98785 84.679661 
L 133.103206 84.682745 
L 135.218563 84.705006 
L 137.333919 85.023657 
L 139.449275 85.637728 
L 141.564631 86.108532 
L 143.679988 86.278645 
L 145.795344 86.270351 
L 147.9107 86.201934 
L 150.026057 86.1529 
L 152.141413 86.117644 
L 154.256769 85.994792 
L 156.372125 85.756047 
L 158.487482 85.66422 
L 160.602838 85.761171 
L 162.718194 85.983145 
L 164.83355 86.426152 
L 166.948907 86.93262 
L 169.064263 87.215663 
L 171.179619 87.098259 
L 173.294975 86.64401 
L 175.410332 86.067472 
L 177.525688 85.753069 
L 179.641044 85.838501 
L 181.7564 86.010965 
L 183.871757 86.116862 
L 185.987113 86.137356 
L 188.102469 85.93485 
L 190.217826 84.828574 
L 192.333182 84.469674 
" style="fill:none;stroke:#719e87;stroke-linecap:square;stroke-width:0.5;"/>
   </g>
   <g id="line2d_19">
    <path clip-path="url(#p5d5e57a294)" style="fill:none;stroke:#ff0000;stroke-linecap:square;stroke-width:2;"/>
   </g>
   <g id="patch_3">
    <path d="M 27.97 93.068437 
L 200.16 93.068437 
" style="fill:none;stroke:#000000;stroke-linecap:square;stroke-linejoin:miter;stroke-width:0.8;"/>
   </g>
   <g id="text_6">
    <!-- Acoustic Edges -->
    <g transform="translate(76.273594 14.798438)scale(0.1 -0.1)">
     <defs>
      <path d="M 2188 4044 
L 1331 1722 
L 3047 1722 
L 2188 4044 
z
M 1831 4666 
L 2547 4666 
L 4325 0 
L 3669 0 
L 3244 1197 
L 1141 1197 
L 716 0 
L 50 0 
L 1831 4666 
z
" id="DejaVuSans-41" transform="scale(0.015625)"/>
      <path d="M 3122 3366 
L 3122 2828 
Q 2878 2963 2633 3030 
Q 2388 3097 2138 3097 
Q 1578 3097 1268 2742 
Q 959 2388 959 1747 
Q 959 1106 1268 751 
Q 1578 397 2138 397 
Q 2388 397 2633 464 
Q 2878 531 3122 666 
L 3122 134 
Q 2881 22 2623 -34 
Q 2366 -91 2075 -91 
Q 1284 -91 818 406 
Q 353 903 353 1747 
Q 353 2603 823 3093 
Q 1294 3584 2113 3584 
Q 2378 3584 2631 3529 
Q 2884 3475 3122 3366 
z
" id="DejaVuSans-63" transform="scale(0.015625)"/>
      <path d="M 1959 3097 
Q 1497 3097 1228 2736 
Q 959 2375 959 1747 
Q 959 1119 1226 758 
Q 1494 397 1959 397 
Q 2419 397 2687 759 
Q 2956 1122 2956 1747 
Q 2956 2369 2687 2733 
Q 2419 3097 1959 3097 
z
M 1959 3584 
Q 2709 3584 3137 3096 
Q 3566 2609 3566 1747 
Q 3566 888 3137 398 
Q 2709 -91 1959 -91 
Q 1206 -91 779 398 
Q 353 888 353 1747 
Q 353 2609 779 3096 
Q 1206 3584 1959 3584 
z
" id="DejaVuSans-6f" transform="scale(0.015625)"/>
      <path d="M 544 1381 
L 544 3500 
L 1119 3500 
L 1119 1403 
Q 1119 906 1312 657 
Q 1506 409 1894 409 
Q 2359 409 2629 706 
Q 2900 1003 2900 1516 
L 2900 3500 
L 3475 3500 
L 3475 0 
L 2900 0 
L 2900 538 
Q 2691 219 2414 64 
Q 2138 -91 1772 -91 
Q 1169 -91 856 284 
Q 544 659 544 1381 
z
M 1991 3584 
L 1991 3584 
z
" id="DejaVuSans-75" transform="scale(0.015625)"/>
      <path d="M 2834 3397 
L 2834 2853 
Q 2591 2978 2328 3040 
Q 2066 3103 1784 3103 
Q 1356 3103 1142 2972 
Q 928 2841 928 2578 
Q 928 2378 1081 2264 
Q 1234 2150 1697 2047 
L 1894 2003 
Q 2506 1872 2764 1633 
Q 3022 1394 3022 966 
Q 3022 478 2636 193 
Q 2250 -91 1575 -91 
Q 1294 -91 989 -36 
Q 684 19 347 128 
L 347 722 
Q 666 556 975 473 
Q 1284 391 1588 391 
Q 1994 391 2212 530 
Q 2431 669 2431 922 
Q 2431 1156 2273 1281 
Q 2116 1406 1581 1522 
L 1381 1569 
Q 847 1681 609 1914 
Q 372 2147 372 2553 
Q 372 3047 722 3315 
Q 1072 3584 1716 3584 
Q 2034 3584 2315 3537 
Q 2597 3491 2834 3397 
z
" id="DejaVuSans-73" transform="scale(0.015625)"/>
      <path d="M 1172 4494 
L 1172 3500 
L 2356 3500 
L 2356 3053 
L 1172 3053 
L 1172 1153 
Q 1172 725 1289 603 
Q 1406 481 1766 481 
L 2356 481 
L 2356 0 
L 1766 0 
Q 1100 0 847 248 
Q 594 497 594 1153 
L 594 3053 
L 172 3053 
L 172 3500 
L 594 3500 
L 594 4494 
L 1172 4494 
z
" id="DejaVuSans-74" transform="scale(0.015625)"/>
      <path d="M 603 3500 
L 1178 3500 
L 1178 0 
L 603 0 
L 603 3500 
z
M 603 4863 
L 1178 4863 
L 1178 4134 
L 603 4134 
L 603 4863 
z
" id="DejaVuSans-69" transform="scale(0.015625)"/>
      <path id="DejaVuSans-20" transform="scale(0.015625)"/>
      <path d="M 628 4666 
L 3578 4666 
L 3578 4134 
L 1259 4134 
L 1259 2753 
L 3481 2753 
L 3481 2222 
L 1259 2222 
L 1259 531 
L 3634 531 
L 3634 0 
L 628 0 
L 628 4666 
z
" id="DejaVuSans-45" transform="scale(0.015625)"/>
      <path d="M 2906 2969 
L 2906 4863 
L 3481 4863 
L 3481 0 
L 2906 0 
L 2906 525 
Q 2725 213 2448 61 
Q 2172 -91 1784 -91 
Q 1150 -91 751 415 
Q 353 922 353 1747 
Q 353 2572 751 3078 
Q 1150 3584 1784 3584 
Q 2172 3584 2448 3432 
Q 2725 3281 2906 2969 
z
M 947 1747 
Q 947 1113 1208 752 
Q 1469 391 1925 391 
Q 2381 391 2643 752 
Q 2906 1113 2906 1747 
Q 2906 2381 2643 2742 
Q 2381 3103 1925 3103 
Q 1469 3103 1208 2742 
Q 947 2381 947 1747 
z
" id="DejaVuSans-64" transform="scale(0.015625)"/>
      <path d="M 2906 1791 
Q 2906 2416 2648 2759 
Q 2391 3103 1925 3103 
Q 1463 3103 1205 2759 
Q 947 2416 947 1791 
Q 947 1169 1205 825 
Q 1463 481 1925 481 
Q 2391 481 2648 825 
Q 2906 1169 2906 1791 
z
M 3481 434 
Q 3481 -459 3084 -895 
Q 2688 -1331 1869 -1331 
Q 1566 -1331 1297 -1286 
Q 1028 -1241 775 -1147 
L 775 -588 
Q 1028 -725 1275 -790 
Q 1522 -856 1778 -856 
Q 2344 -856 2625 -561 
Q 2906 -266 2906 331 
L 2906 616 
Q 2728 306 2450 153 
Q 2172 0 1784 0 
Q 1141 0 747 490 
Q 353 981 353 1791 
Q 353 2603 747 3093 
Q 1141 3584 1784 3584 
Q 2172 3584 2450 3431 
Q 2728 3278 2906 2969 
L 2906 3500 
L 3481 3500 
L 3481 434 
z
" id="DejaVuSans-67" transform="scale(0.015625)"/>
     </defs>
     <use xlink:href="#DejaVuSans-41"/>
     <use x="66.658203" xlink:href="#DejaVuSans-63"/>
     <use x="121.638672" xlink:href="#DejaVuSans-6f"/>
     <use x="182.820312" xlink:href="#DejaVuSans-75"/>
     <use x="246.199219" xlink:href="#DejaVuSans-73"/>
     <use x="298.298828" xlink:href="#DejaVuSans-74"/>
     <use x="337.507812" xlink:href="#DejaVuSans-69"/>
     <use x="365.291016" xlink:href="#DejaVuSans-63"/>
     <use x="420.271484" xlink:href="#DejaVuSans-20"/>
     <use x="452.058594" xlink:href="#DejaVuSans-45"/>
     <use x="515.242188" xlink:href="#DejaVuSans-64"/>
     <use x="578.71875" xlink:href="#DejaVuSans-67"/>
     <use x="642.195312" xlink:href="#DejaVuSans-65"/>
     <use x="703.71875" xlink:href="#DejaVuSans-73"/>
    </g>
   </g>
  </g>
  <g id="axes_2">
   <g id="patch_4">
    <path d="M 27.97 191.398437 
L 200.16 191.398437 
L 200.16 119.128437 
L 27.97 119.128437 
z
" style="fill:none;"/>
   </g>
   <g id="PolyCollection_3">
    <defs>
     <path d="M 35.796818 -61.588817 
L 35.796818 -60.924413 
L 37.912174 -56.95715 
L 40.027531 -50.153889 
L 42.142887 -49.783499 
L 44.258243 -49.139985 
L 46.3736 -48.686543 
L 48.488956 -49.707093 
L 50.604312 -51.548192 
L 52.719668 -54.396134 
L 54.835025 -58.560702 
L 56.950381 -63.390187 
L 59.065737 -66.782716 
L 61.181093 -67.721304 
L 63.29645 -66.768901 
L 65.411806 -65.048222 
L 67.527162 -63.864074 
L 69.642518 -64.088798 
L 71.757875 -64.682315 
L 73.873231 -64.826692 
L 75.988587 -65.339884 
L 78.103943 -65.838096 
L 80.2193 -65.094376 
L 82.334656 -64.135469 
L 84.450012 -63.697011 
L 86.565369 -63.834243 
L 88.680725 -65.099422 
L 90.796081 -67.467644 
L 92.911437 -70.655744 
L 95.026794 -74.314999 
L 97.14215 -77.671567 
L 99.257506 -79.578659 
L 101.372862 -79.571949 
L 103.488219 -78.052962 
L 105.603575 -74.888623 
L 107.718931 -70.44341 
L 109.834287 -65.612877 
L 111.949644 -61.344897 
L 114.065 -58.661868 
L 116.180356 -57.525052 
L 118.295713 -57.106379 
L 120.411069 -56.707402 
L 122.526425 -56.03326 
L 124.641781 -54.830067 
L 126.757138 -52.839316 
L 128.872494 -50.773825 
L 130.98785 -50.198559 
L 133.103206 -50.96308 
L 135.218563 -51.235354 
L 137.333919 -50.426306 
L 139.449275 -49.526646 
L 141.564631 -49.236362 
L 143.679988 -49.659243 
L 145.795344 -50.232514 
L 147.9107 -50.782923 
L 150.026057 -51.569178 
L 152.141413 -52.284865 
L 154.256769 -52.744846 
L 156.372125 -53.250523 
L 158.487482 -53.638278 
L 160.602838 -53.170181 
L 162.718194 -51.921074 
L 164.83355 -50.809022 
L 166.948907 -50.117013 
L 169.064263 -49.744504 
L 171.179619 -49.713956 
L 173.294975 -50.355104 
L 175.410332 -51.882573 
L 177.525688 -54.274486 
L 179.641044 -56.665237 
L 181.7564 -57.717154 
L 183.871757 -56.773366 
L 185.987113 -53.969594 
L 188.102469 -50.300921 
L 190.217826 -48.41371 
L 192.333182 -46.585125 
L 192.333182 -51.269647 
L 192.333182 -51.269647 
L 190.217826 -54.545907 
L 188.102469 -56.661582 
L 185.987113 -59.378889 
L 183.871757 -61.268104 
L 181.7564 -61.946515 
L 179.641044 -60.901528 
L 177.525688 -58.645698 
L 175.410332 -56.376178 
L 173.294975 -55.328991 
L 171.179619 -55.857151 
L 169.064263 -57.094778 
L 166.948907 -58.268678 
L 164.83355 -59.062251 
L 162.718194 -59.415277 
L 160.602838 -59.404246 
L 158.487482 -58.940083 
L 156.372125 -58.380477 
L 154.256769 -57.830412 
L 152.141413 -57.022802 
L 150.026057 -55.90423 
L 147.9107 -55.024359 
L 145.795344 -54.82739 
L 143.679988 -55.023467 
L 141.564631 -55.280803 
L 139.449275 -55.627182 
L 137.333919 -55.698026 
L 135.218563 -55.280543 
L 133.103206 -55.091778 
L 130.98785 -55.453849 
L 128.872494 -56.544096 
L 126.757138 -58.629918 
L 124.641781 -61.515799 
L 122.526425 -65.03862 
L 120.411069 -68.756004 
L 118.295713 -72.215532 
L 116.180356 -75.358944 
L 114.065 -78.757762 
L 111.949644 -83.469839 
L 109.834287 -89.40437 
L 107.718931 -95.044337 
L 105.603575 -99.184464 
L 103.488219 -101.432209 
L 101.372862 -101.520625 
L 99.257506 -99.786662 
L 97.14215 -96.771651 
L 95.026794 -93.137686 
L 92.911437 -89.86617 
L 90.796081 -87.384496 
L 88.680725 -85.598677 
L 86.565369 -83.91052 
L 84.450012 -82.34623 
L 82.334656 -80.846668 
L 80.2193 -79.680302 
L 78.103943 -78.935564 
L 75.988587 -77.975847 
L 73.873231 -76.632108 
L 71.757875 -74.959097 
L 69.642518 -73.732772 
L 67.527162 -74.00362 
L 65.411806 -75.27257 
L 63.29645 -75.561112 
L 61.181093 -74.684481 
L 59.065737 -72.6043 
L 56.950381 -68.777146 
L 54.835025 -63.895424 
L 52.719668 -59.517515 
L 50.604312 -56.348559 
L 48.488956 -54.639727 
L 46.3736 -54.156281 
L 44.258243 -54.781477 
L 42.142887 -57.096467 
L 40.027531 -59.280197 
L 37.912174 -61.532228 
L 35.796818 -61.588817 
z
" id="m5e3153754b" style="stroke:#2f4858;stroke-opacity:0.7;stroke-width:0.2;"/>
    </defs>
    <g clip-path="url(#p227b07ca7b)">
     <use style="fill:#2f4858;fill-opacity:0.7;stroke:#2f4858;stroke-opacity:0.7;stroke-width:0.2;" x="0" xlink:href="#m5e3153754b" y="223.934062"/>
    </g>
   </g>
   <g id="PolyCollection_4">
    <defs>
     <path d="M 35.796818 -45.419872 
L 35.796818 -45.26937 
L 37.912174 -44.763454 
L 40.027531 -43.183524 
L 42.142887 -43.182994 
L 44.258243 -42.862474 
L 46.3736 -42.727351 
L 48.488956 -43.167064 
L 50.604312 -43.736544 
L 52.719668 -44.298855 
L 54.835025 -45.073186 
L 56.950381 -46.044141 
L 59.065737 -46.895156 
L 61.181093 -47.574758 
L 63.29645 -47.897836 
L 65.411806 -47.851832 
L 67.527162 -47.796515 
L 69.642518 -48.118907 
L 71.757875 -48.742111 
L 73.873231 -48.617535 
L 75.988587 -48.277034 
L 78.103943 -48.642263 
L 80.2193 -49.578401 
L 82.334656 -50.146257 
L 84.450012 -49.55857 
L 86.565369 -47.695178 
L 88.680725 -45.643161 
L 90.796081 -44.498666 
L 92.911437 -44.155726 
L 95.026794 -44.127406 
L 97.14215 -44.494259 
L 99.257506 -44.925801 
L 101.372862 -44.494389 
L 103.488219 -43.660151 
L 105.603575 -43.311163 
L 107.718931 -43.35184 
L 109.834287 -43.599491 
L 111.949644 -43.951192 
L 114.065 -44.303355 
L 116.180356 -44.665028 
L 118.295713 -44.765762 
L 120.411069 -44.439744 
L 122.526425 -43.962847 
L 124.641781 -43.464715 
L 126.757138 -42.754055 
L 128.872494 -41.94295 
L 130.98785 -41.505457 
L 133.103206 -41.653434 
L 135.218563 -42.301523 
L 137.333919 -43.048451 
L 139.449275 -43.684486 
L 141.564631 -43.982096 
L 143.679988 -43.643886 
L 145.795344 -43.06962 
L 147.9107 -42.95155 
L 150.026057 -42.909911 
L 152.141413 -42.694068 
L 154.256769 -42.602537 
L 156.372125 -42.529717 
L 158.487482 -42.511799 
L 160.602838 -42.732688 
L 162.718194 -42.892476 
L 164.83355 -42.941059 
L 166.948907 -42.92499 
L 169.064263 -42.546498 
L 171.179619 -41.682957 
L 173.294975 -40.885375 
L 175.410332 -40.695584 
L 177.525688 -40.924922 
L 179.641044 -41.248504 
L 181.7564 -41.546086 
L 183.871757 -41.786935 
L 185.987113 -41.805288 
L 188.102469 -41.751225 
L 190.217826 -42.868653 
L 192.333182 -43.263162 
L 192.333182 -44.753458 
L 192.333182 -44.753458 
L 190.217826 -44.485234 
L 188.102469 -43.442782 
L 185.987113 -43.36132 
L 183.871757 -43.272333 
L 181.7564 -42.898344 
L 179.641044 -42.453119 
L 177.525688 -42.400766 
L 175.410332 -42.906283 
L 173.294975 -43.679892 
L 171.179619 -44.516381 
L 169.064263 -45.382977 
L 166.948907 -45.676716 
L 164.83355 -45.256201 
L 162.718194 -44.664275 
L 160.602838 -44.339073 
L 158.487482 -44.364853 
L 156.372125 -44.693633 
L 154.256769 -44.941015 
L 152.141413 -44.78052 
L 150.026057 -44.487655 
L 147.9107 -44.600925 
L 145.795344 -45.067609 
L 143.679988 -45.699928 
L 141.564631 -45.883393 
L 139.449275 -45.480803 
L 137.333919 -44.697492 
L 135.218563 -43.793648 
L 133.103206 -43.022215 
L 130.98785 -42.740273 
L 128.872494 -43.237528 
L 126.757138 -44.258054 
L 124.641781 -45.345035 
L 122.526425 -46.178109 
L 120.411069 -46.786611 
L 118.295713 -47.15463 
L 116.180356 -47.200842 
L 114.065 -46.947693 
L 111.949644 -46.574019 
L 109.834287 -46.083457 
L 107.718931 -45.703714 
L 105.603575 -45.790906 
L 103.488219 -46.004167 
L 101.372862 -46.147261 
L 99.257506 -46.217298 
L 97.14215 -46.26244 
L 95.026794 -46.288194 
L 92.911437 -46.810599 
L 90.796081 -48.170927 
L 88.680725 -50.322586 
L 86.565369 -52.890415 
L 84.450012 -54.608793 
L 82.334656 -54.643368 
L 80.2193 -53.830385 
L 78.103943 -53.667279 
L 75.988587 -53.803529 
L 73.873231 -53.502521 
L 71.757875 -53.029834 
L 69.642518 -52.753233 
L 67.527162 -52.545285 
L 65.411806 -52.011074 
L 63.29645 -51.003895 
L 61.181093 -49.879532 
L 59.065737 -48.832055 
L 56.950381 -47.812233 
L 54.835025 -46.70084 
L 52.719668 -45.657728 
L 50.604312 -44.9813 
L 48.488956 -44.656104 
L 46.3736 -44.492978 
L 44.258243 -44.63119 
L 42.142887 -44.96619 
L 40.027531 -45.257914 
L 37.912174 -45.800884 
L 35.796818 -45.419872 
z
" id="m5dc8ede2fa" style="stroke:#719e87;stroke-opacity:0.7;stroke-width:0.2;"/>
    </defs>
    <g clip-path="url(#p227b07ca7b)">
     <use style="fill:#719e87;fill-opacity:0.7;stroke:#719e87;stroke-opacity:0.7;stroke-width:0.2;" x="0" xlink:href="#m5dc8ede2fa" y="223.934062"/>
    </g>
   </g>
   <g id="matplotlib.axis_3">
    <g id="xtick_5">
     <g id="line2d_20">
      <path clip-path="url(#p227b07ca7b)" d="M 46.3736 191.398437 
L 46.3736 119.128437 
" style="fill:none;stroke:#b0b0b0;stroke-linecap:square;stroke-width:0.8;"/>
     </g>
     <g id="line2d_21">
      <g>
       <use style="stroke:#000000;stroke-width:0.8;" x="46.3736" xlink:href="#m5bcb30e165" y="191.398437"/>
      </g>
     </g>
     <g id="text_7">
      <!-- 0.0 -->
      <g transform="translate(40.01235 204.477187)scale(0.08 -0.08)">
       <defs>
        <path d="M 684 794 
L 1344 794 
L 1344 0 
L 684 0 
L 684 794 
z
" id="DejaVuSans-2e" transform="scale(0.015625)"/>
       </defs>
       <use xlink:href="#DejaVuSans-30"/>
       <use x="63.623047" xlink:href="#DejaVuSans-2e"/>
       <use x="95.410156" xlink:href="#DejaVuSans-30"/>
      </g>
     </g>
    </g>
    <g id="xtick_6">
     <g id="line2d_22">
      <path clip-path="url(#p227b07ca7b)" d="M 88.680725 191.398437 
L 88.680725 119.128437 
" style="fill:none;stroke:#b0b0b0;stroke-linecap:square;stroke-width:0.8;"/>
     </g>
     <g id="line2d_23">
      <g>
       <use style="stroke:#000000;stroke-width:0.8;" x="88.680725" xlink:href="#m5bcb30e165" y="191.398437"/>
      </g>
     </g>
     <g id="text_8">
      <!-- 0.2 -->
      <g transform="translate(82.319475 204.477187)scale(0.08 -0.08)">
       <use xlink:href="#DejaVuSans-30"/>
       <use x="63.623047" xlink:href="#DejaVuSans-2e"/>
       <use x="95.410156" xlink:href="#DejaVuSans-32"/>
      </g>
     </g>
    </g>
    <g id="xtick_7">
     <g id="line2d_24">
      <path clip-path="url(#p227b07ca7b)" d="M 130.98785 191.398437 
L 130.98785 119.128437 
" style="fill:none;stroke:#b0b0b0;stroke-linecap:square;stroke-width:0.8;"/>
     </g>
     <g id="line2d_25">
      <g>
       <use style="stroke:#000000;stroke-width:0.8;" x="130.98785" xlink:href="#m5bcb30e165" y="191.398437"/>
      </g>
     </g>
     <g id="text_9">
      <!-- 0.4 -->
      <g transform="translate(124.6266 204.477187)scale(0.08 -0.08)">
       <use xlink:href="#DejaVuSans-30"/>
       <use x="63.623047" xlink:href="#DejaVuSans-2e"/>
       <use x="95.410156" xlink:href="#DejaVuSans-34"/>
      </g>
     </g>
    </g>
    <g id="xtick_8">
     <g id="line2d_26">
      <path clip-path="url(#p227b07ca7b)" d="M 173.294975 191.398437 
L 173.294975 119.128437 
" style="fill:none;stroke:#b0b0b0;stroke-linecap:square;stroke-width:0.8;"/>
     </g>
     <g id="line2d_27">
      <g>
       <use style="stroke:#000000;stroke-width:0.8;" x="173.294975" xlink:href="#m5bcb30e165" y="191.398437"/>
      </g>
     </g>
     <g id="text_10">
      <!-- 0.6 -->
      <g transform="translate(166.933725 204.477187)scale(0.08 -0.08)">
       <use xlink:href="#DejaVuSans-30"/>
       <use x="63.623047" xlink:href="#DejaVuSans-2e"/>
       <use x="95.410156" xlink:href="#DejaVuSans-36"/>
      </g>
     </g>
    </g>
   </g>
   <g id="matplotlib.axis_4">
    <g id="ytick_5">
     <g id="line2d_28">
      <path clip-path="url(#p227b07ca7b)" d="M 27.97 188.113437 
L 200.16 188.113437 
" style="fill:none;stroke:#b0b0b0;stroke-linecap:square;stroke-width:0.8;"/>
     </g>
     <g id="line2d_29">
      <g>
       <use style="stroke:#000000;stroke-width:0.8;" x="27.97" xlink:href="#mf8179ddd01" y="188.113437"/>
      </g>
     </g>
     <g id="text_11">
      <!-- 0 -->
      <g transform="translate(15.88 191.152812)scale(0.08 -0.08)">
       <use xlink:href="#DejaVuSans-30"/>
      </g>
     </g>
    </g>
    <g id="ytick_6">
     <g id="line2d_30">
      <path clip-path="url(#p227b07ca7b)" d="M 27.97 169.345193 
L 200.16 169.345193 
" style="fill:none;stroke:#b0b0b0;stroke-linecap:square;stroke-width:0.8;"/>
     </g>
     <g id="line2d_31">
      <g>
       <use style="stroke:#000000;stroke-width:0.8;" x="27.97" xlink:href="#mf8179ddd01" y="169.345193"/>
      </g>
     </g>
     <g id="text_12">
      <!-- 2 -->
      <g transform="translate(15.88 172.384568)scale(0.08 -0.08)">
       <use xlink:href="#DejaVuSans-32"/>
      </g>
     </g>
    </g>
    <g id="ytick_7">
     <g id="line2d_32">
      <path clip-path="url(#p227b07ca7b)" d="M 27.97 150.576949 
L 200.16 150.576949 
" style="fill:none;stroke:#b0b0b0;stroke-linecap:square;stroke-width:0.8;"/>
     </g>
     <g id="line2d_33">
      <g>
       <use style="stroke:#000000;stroke-width:0.8;" x="27.97" xlink:href="#mf8179ddd01" y="150.576949"/>
      </g>
     </g>
     <g id="text_13">
      <!-- 4 -->
      <g transform="translate(15.88 153.616324)scale(0.08 -0.08)">
       <use xlink:href="#DejaVuSans-34"/>
      </g>
     </g>
    </g>
    <g id="ytick_8">
     <g id="line2d_34">
      <path clip-path="url(#p227b07ca7b)" d="M 27.97 131.808704 
L 200.16 131.808704 
" style="fill:none;stroke:#b0b0b0;stroke-linecap:square;stroke-width:0.8;"/>
     </g>
     <g id="line2d_35">
      <g>
       <use style="stroke:#000000;stroke-width:0.8;" x="27.97" xlink:href="#mf8179ddd01" y="131.808704"/>
      </g>
     </g>
     <g id="text_14">
      <!-- 6 -->
      <g transform="translate(15.88 134.848079)scale(0.08 -0.08)">
       <use xlink:href="#DejaVuSans-36"/>
      </g>
     </g>
    </g>
    <g id="text_15">
     <!-- 1e−4 -->
     <g transform="translate(27.97 116.128437)scale(0.08 -0.08)">
      <use xlink:href="#DejaVuSans-31"/>
      <use x="63.623047" xlink:href="#DejaVuSans-65"/>
      <use x="125.146484" xlink:href="#DejaVuSans-2212"/>
      <use x="208.935547" xlink:href="#DejaVuSans-34"/>
     </g>
    </g>
   </g>
   <g id="line2d_36">
    <path clip-path="url(#p227b07ca7b)" d="M 35.796818 162.677448 
L 37.912174 164.689373 
L 40.027531 169.217019 
L 42.142887 170.494079 
L 44.258243 171.973332 
L 46.3736 172.512651 
L 48.488956 171.760652 
L 50.604312 169.985687 
L 52.719668 166.977238 
L 54.835025 162.706 
L 56.950381 157.850396 
L 59.065737 154.240554 
L 61.181093 152.73117 
L 63.29645 152.769056 
L 65.411806 153.773667 
L 67.527162 155.000215 
L 69.642518 155.023278 
L 71.757875 154.113357 
L 73.873231 153.204663 
L 75.988587 152.276197 
L 78.103943 151.547233 
L 80.2193 151.546723 
L 82.334656 151.442994 
L 84.450012 150.912442 
L 86.565369 150.061681 
L 88.680725 148.585013 
L 90.796081 146.507993 
L 92.911437 143.673105 
L 95.026794 140.20772 
L 97.14215 136.712454 
L 99.257506 134.251402 
L 101.372862 133.387776 
L 103.488219 134.191477 
L 105.603575 136.897519 
L 107.718931 141.190189 
L 109.834287 146.425439 
L 111.949644 151.526695 
L 114.065 155.224247 
L 116.180356 157.492065 
L 118.295713 159.273107 
L 120.411069 161.202359 
L 122.526425 163.398122 
L 124.641781 165.76113 
L 126.757138 168.199445 
L 128.872494 170.275102 
L 130.98785 171.107858 
L 133.103206 170.906634 
L 135.218563 170.676114 
L 137.333919 170.871896 
L 139.449275 171.357149 
L 141.564631 171.67548 
L 143.679988 171.592708 
L 145.795344 171.40411 
L 147.9107 171.030422 
L 150.026057 170.197359 
L 152.141413 169.280229 
L 154.256769 168.646434 
L 156.372125 168.118563 
L 158.487482 167.644882 
L 160.602838 167.646849 
L 162.718194 168.265887 
L 164.83355 168.998426 
L 166.948907 169.741217 
L 169.064263 170.514421 
L 171.179619 171.148509 
L 173.294975 171.092015 
L 175.410332 169.804687 
L 177.525688 167.47397 
L 179.641044 165.15068 
L 181.7564 164.102228 
L 183.871757 164.913327 
L 185.987113 167.259821 
L 188.102469 170.452811 
L 190.217826 172.454254 
L 192.333182 175.006677 
" style="fill:none;stroke:#2f4858;stroke-linecap:square;stroke-width:0.5;"/>
   </g>
   <g id="line2d_37">
    <path clip-path="url(#p227b07ca7b)" d="M 35.796818 178.589441 
L 37.912174 178.651894 
L 40.027531 179.713344 
L 42.142887 179.85947 
L 44.258243 180.18723 
L 46.3736 180.323898 
L 48.488956 180.022478 
L 50.604312 179.575141 
L 52.719668 178.955771 
L 54.835025 178.04705 
L 56.950381 177.005875 
L 59.065737 176.070457 
L 61.181093 175.206918 
L 63.29645 174.483197 
L 65.411806 174.00261 
L 67.527162 173.763163 
L 69.642518 173.497993 
L 71.757875 173.04809 
L 73.873231 172.874035 
L 75.988587 172.893781 
L 78.103943 172.779292 
L 80.2193 172.22967 
L 82.334656 171.53925 
L 84.450012 171.850381 
L 86.565369 173.641266 
L 88.680725 175.951189 
L 90.796081 177.599266 
L 92.911437 178.4509 
L 95.026794 178.726263 
L 97.14215 178.555713 
L 99.257506 178.362513 
L 101.372862 178.613238 
L 103.488219 179.101903 
L 105.603575 179.383028 
L 107.718931 179.406285 
L 109.834287 179.092588 
L 111.949644 178.671457 
L 114.065 178.308538 
L 116.180356 178.001128 
L 118.295713 177.973867 
L 120.411069 178.320885 
L 122.526425 178.863584 
L 124.641781 179.529187 
L 126.757138 180.428008 
L 128.872494 181.343824 
L 130.98785 181.811198 
L 133.103206 181.596238 
L 135.218563 180.886477 
L 137.333919 180.061091 
L 139.449275 179.351418 
L 141.564631 179.001318 
L 143.679988 179.262156 
L 145.795344 179.865448 
L 147.9107 180.157825 
L 150.026057 180.235279 
L 152.141413 180.196768 
L 154.256769 180.162286 
L 156.372125 180.322388 
L 158.487482 180.495736 
L 160.602838 180.398182 
L 162.718194 180.155687 
L 164.83355 179.835432 
L 166.948907 179.633209 
L 169.064263 179.969325 
L 171.179619 180.834393 
L 173.294975 181.651429 
L 175.410332 182.133129 
L 177.525688 182.271219 
L 179.641044 182.083251 
L 181.7564 181.711848 
L 183.871757 181.404428 
L 185.987113 181.350758 
L 188.102469 181.337059 
L 190.217826 180.257119 
L 192.333182 179.925752 
" style="fill:none;stroke:#719e87;stroke-linecap:square;stroke-width:0.5;"/>
   </g>
   <g id="line2d_38">
    <path clip-path="url(#p227b07ca7b)" d="M 35.796818 188.113437 
L 37.912174 188.113437 
L 40.027531 188.113437 
L 42.142887 188.113437 
L 44.258243 188.113437 
L 46.3736 188.113437 
L 48.488956 188.113437 
L 50.604312 188.113437 
L 52.719668 188.113437 
L 54.835025 188.113437 
L 56.950381 188.113437 
L 59.065737 188.113437 
L 61.181093 188.113437 
L 63.29645 188.113437 
L 65.411806 188.113437 
L 67.527162 188.113437 
L 69.642518 188.113437 
L 71.757875 188.113437 
L 73.873231 188.113437 
L 75.988587 188.113437 
L 78.103943 188.113437 
L 80.2193 188.113437 
L 82.334656 188.113437 
L 84.450012 188.113437 
L 86.565369 188.113437 
L 88.680725 188.113437 
L 90.796081 188.113437 
L 92.911437 188.113437 
L 95.026794 188.113437 
L 97.14215 188.113437 
L 99.257506 188.113437 
L 101.372862 188.113437 
L 103.488219 188.113437 
L 105.603575 188.113437 
L 107.718931 188.113437 
L 109.834287 188.113437 
L 111.949644 188.113437 
L 114.065 188.113437 
L 116.180356 188.113437 
L 118.295713 188.113437 
L 120.411069 188.113437 
L 122.526425 188.113437 
L 124.641781 188.113437 
L 126.757138 188.113437 
L 128.872494 188.113437 
L 130.98785 188.113437 
L 133.103206 188.113437 
L 135.218563 188.113437 
L 137.333919 188.113437 
L 139.449275 188.113437 
L 141.564631 188.113437 
L 143.679988 188.113437 
L 145.795344 188.113437 
L 147.9107 188.113437 
L 150.026057 188.113437 
L 152.141413 188.113437 
L 154.256769 188.113437 
L 156.372125 188.113437 
L 158.487482 188.113437 
L 160.602838 188.113437 
L 162.718194 188.113437 
L 164.83355 188.113437 
L 166.948907 188.113437 
L 169.064263 188.113437 
L 171.179619 188.113437 
L 173.294975 188.113437 
L 175.410332 188.113437 
L 177.525688 188.113437 
L 179.641044 188.113437 
L 181.7564 188.113437 
L 183.871757 188.113437 
L 185.987113 188.113437 
L 188.102469 188.113437 
L 190.217826 188.113437 
L 192.333182 188.113437 
" style="fill:none;stroke:#ff0000;stroke-linecap:square;stroke-width:2;"/>
   </g>
   <g id="patch_5">
    <path d="M 27.97 191.398437 
L 200.16 191.398437 
" style="fill:none;stroke:#000000;stroke-linecap:square;stroke-linejoin:miter;stroke-width:0.8;"/>
   </g>
   <g id="text_16">
    <!-- Phoneme Features -->
    <g transform="translate(67.54625 113.128437)scale(0.1 -0.1)">
     <defs>
      <path d="M 1259 4147 
L 1259 2394 
L 2053 2394 
Q 2494 2394 2734 2622 
Q 2975 2850 2975 3272 
Q 2975 3691 2734 3919 
Q 2494 4147 2053 4147 
L 1259 4147 
z
M 628 4666 
L 2053 4666 
Q 2838 4666 3239 4311 
Q 3641 3956 3641 3272 
Q 3641 2581 3239 2228 
Q 2838 1875 2053 1875 
L 1259 1875 
L 1259 0 
L 628 0 
L 628 4666 
z
" id="DejaVuSans-50" transform="scale(0.015625)"/>
      <path d="M 3513 2113 
L 3513 0 
L 2938 0 
L 2938 2094 
Q 2938 2591 2744 2837 
Q 2550 3084 2163 3084 
Q 1697 3084 1428 2787 
Q 1159 2491 1159 1978 
L 1159 0 
L 581 0 
L 581 4863 
L 1159 4863 
L 1159 2956 
Q 1366 3272 1645 3428 
Q 1925 3584 2291 3584 
Q 2894 3584 3203 3211 
Q 3513 2838 3513 2113 
z
" id="DejaVuSans-68" transform="scale(0.015625)"/>
      <path d="M 3513 2113 
L 3513 0 
L 2938 0 
L 2938 2094 
Q 2938 2591 2744 2837 
Q 2550 3084 2163 3084 
Q 1697 3084 1428 2787 
Q 1159 2491 1159 1978 
L 1159 0 
L 581 0 
L 581 3500 
L 1159 3500 
L 1159 2956 
Q 1366 3272 1645 3428 
Q 1925 3584 2291 3584 
Q 2894 3584 3203 3211 
Q 3513 2838 3513 2113 
z
" id="DejaVuSans-6e" transform="scale(0.015625)"/>
      <path d="M 3328 2828 
Q 3544 3216 3844 3400 
Q 4144 3584 4550 3584 
Q 5097 3584 5394 3201 
Q 5691 2819 5691 2113 
L 5691 0 
L 5113 0 
L 5113 2094 
Q 5113 2597 4934 2840 
Q 4756 3084 4391 3084 
Q 3944 3084 3684 2787 
Q 3425 2491 3425 1978 
L 3425 0 
L 2847 0 
L 2847 2094 
Q 2847 2600 2669 2842 
Q 2491 3084 2119 3084 
Q 1678 3084 1418 2786 
Q 1159 2488 1159 1978 
L 1159 0 
L 581 0 
L 581 3500 
L 1159 3500 
L 1159 2956 
Q 1356 3278 1631 3431 
Q 1906 3584 2284 3584 
Q 2666 3584 2933 3390 
Q 3200 3197 3328 2828 
z
" id="DejaVuSans-6d" transform="scale(0.015625)"/>
      <path d="M 628 4666 
L 3309 4666 
L 3309 4134 
L 1259 4134 
L 1259 2759 
L 3109 2759 
L 3109 2228 
L 1259 2228 
L 1259 0 
L 628 0 
L 628 4666 
z
" id="DejaVuSans-46" transform="scale(0.015625)"/>
      <path d="M 2194 1759 
Q 1497 1759 1228 1600 
Q 959 1441 959 1056 
Q 959 750 1161 570 
Q 1363 391 1709 391 
Q 2188 391 2477 730 
Q 2766 1069 2766 1631 
L 2766 1759 
L 2194 1759 
z
M 3341 1997 
L 3341 0 
L 2766 0 
L 2766 531 
Q 2569 213 2275 61 
Q 1981 -91 1556 -91 
Q 1019 -91 701 211 
Q 384 513 384 1019 
Q 384 1609 779 1909 
Q 1175 2209 1959 2209 
L 2766 2209 
L 2766 2266 
Q 2766 2663 2505 2880 
Q 2244 3097 1772 3097 
Q 1472 3097 1187 3025 
Q 903 2953 641 2809 
L 641 3341 
Q 956 3463 1253 3523 
Q 1550 3584 1831 3584 
Q 2591 3584 2966 3190 
Q 3341 2797 3341 1997 
z
" id="DejaVuSans-61" transform="scale(0.015625)"/>
      <path d="M 2631 2963 
Q 2534 3019 2420 3045 
Q 2306 3072 2169 3072 
Q 1681 3072 1420 2755 
Q 1159 2438 1159 1844 
L 1159 0 
L 581 0 
L 581 3500 
L 1159 3500 
L 1159 2956 
Q 1341 3275 1631 3429 
Q 1922 3584 2338 3584 
Q 2397 3584 2469 3576 
Q 2541 3569 2628 3553 
L 2631 2963 
z
" id="DejaVuSans-72" transform="scale(0.015625)"/>
     </defs>
     <use xlink:href="#DejaVuSans-50"/>
     <use x="60.302734" xlink:href="#DejaVuSans-68"/>
     <use x="123.681641" xlink:href="#DejaVuSans-6f"/>
     <use x="184.863281" xlink:href="#DejaVuSans-6e"/>
     <use x="248.242188" xlink:href="#DejaVuSans-65"/>
     <use x="309.765625" xlink:href="#DejaVuSans-6d"/>
     <use x="407.177734" xlink:href="#DejaVuSans-65"/>
     <use x="468.701172" xlink:href="#DejaVuSans-20"/>
     <use x="500.488281" xlink:href="#DejaVuSans-46"/>
     <use x="552.507812" xlink:href="#DejaVuSans-65"/>
     <use x="614.03125" xlink:href="#DejaVuSans-61"/>
     <use x="675.310547" xlink:href="#DejaVuSans-74"/>
     <use x="714.519531" xlink:href="#DejaVuSans-75"/>
     <use x="777.898438" xlink:href="#DejaVuSans-72"/>
     <use x="816.761719" xlink:href="#DejaVuSans-65"/>
     <use x="878.285156" xlink:href="#DejaVuSans-73"/>
    </g>
   </g>
  </g>
  <g id="text_17">
   <!-- Time (sec) -->
   <g transform="translate(76.614375 214.238437)scale(0.12 -0.12)">
    <defs>
     <path d="M -19 4666 
L 3928 4666 
L 3928 4134 
L 2272 4134 
L 2272 0 
L 1638 0 
L 1638 4134 
L -19 4134 
L -19 4666 
z
" id="DejaVuSans-54" transform="scale(0.015625)"/>
     <path d="M 1984 4856 
Q 1566 4138 1362 3434 
Q 1159 2731 1159 2009 
Q 1159 1288 1364 580 
Q 1569 -128 1984 -844 
L 1484 -844 
Q 1016 -109 783 600 
Q 550 1309 550 2009 
Q 550 2706 781 3412 
Q 1013 4119 1484 4856 
L 1984 4856 
z
" id="DejaVuSans-28" transform="scale(0.015625)"/>
     <path d="M 513 4856 
L 1013 4856 
Q 1481 4119 1714 3412 
Q 1947 2706 1947 2009 
Q 1947 1309 1714 600 
Q 1481 -109 1013 -844 
L 513 -844 
Q 928 -128 1133 580 
Q 1338 1288 1338 2009 
Q 1338 2731 1133 3434 
Q 928 4138 513 4856 
z
" id="DejaVuSans-29" transform="scale(0.015625)"/>
    </defs>
    <use xlink:href="#DejaVuSans-54"/>
    <use x="57.958984" xlink:href="#DejaVuSans-69"/>
    <use x="85.742188" xlink:href="#DejaVuSans-6d"/>
    <use x="183.154297" xlink:href="#DejaVuSans-65"/>
    <use x="244.677734" xlink:href="#DejaVuSans-20"/>
    <use x="276.464844" xlink:href="#DejaVuSans-28"/>
    <use x="315.478516" xlink:href="#DejaVuSans-73"/>
    <use x="367.578125" xlink:href="#DejaVuSans-65"/>
    <use x="429.101562" xlink:href="#DejaVuSans-63"/>
    <use x="484.082031" xlink:href="#DejaVuSans-29"/>
   </g>
  </g>
  <g id="text_18">
   <!-- Power of Weights $\mathregular{\sqrt{w^{2}}}$ -->
   <g transform="translate(22.56 173.978437)rotate(-90)scale(0.12 -0.12)">
    <defs>
     <path d="M 269 3500 
L 844 3500 
L 1563 769 
L 2278 3500 
L 2956 3500 
L 3675 769 
L 4391 3500 
L 4966 3500 
L 4050 0 
L 3372 0 
L 2619 2869 
L 1863 0 
L 1184 0 
L 269 3500 
z
" id="DejaVuSans-77" transform="scale(0.015625)"/>
     <path d="M 2375 4863 
L 2375 4384 
L 1825 4384 
Q 1516 4384 1395 4259 
Q 1275 4134 1275 3809 
L 1275 3500 
L 2222 3500 
L 2222 3053 
L 1275 3053 
L 1275 0 
L 697 0 
L 697 3053 
L 147 3053 
L 147 3500 
L 697 3500 
L 697 3744 
Q 697 4328 969 4595 
Q 1241 4863 1831 4863 
L 2375 4863 
z
" id="DejaVuSans-66" transform="scale(0.015625)"/>
     <path d="M 213 4666 
L 850 4666 
L 1831 722 
L 2809 4666 
L 3519 4666 
L 4500 722 
L 5478 4666 
L 6119 4666 
L 4947 0 
L 4153 0 
L 3169 4050 
L 2175 0 
L 1381 0 
L 213 4666 
z
" id="DejaVuSans-57" transform="scale(0.015625)"/>
     <path d="M 6970 9933 
L 3373 -1888 
L 3104 -1888 
L 1626 2918 
Q 1555 3149 1465 3251 
Q 1376 3354 1229 3354 
Q 1011 3354 794 3181 
L 717 3309 
L 1766 4115 
L 1926 4115 
L 3379 -602 
L 3405 -602 
L 6605 9933 
L 6970 9933 
z
" id="STIXSizeOneSym-Regular-221a" transform="scale(0.015625)"/>
    </defs>
    <use transform="translate(0 0.09375)" xlink:href="#DejaVuSans-50"/>
    <use transform="translate(60.302734 0.09375)" xlink:href="#DejaVuSans-6f"/>
    <use transform="translate(121.484375 0.09375)" xlink:href="#DejaVuSans-77"/>
    <use transform="translate(203.271484 0.09375)" xlink:href="#DejaVuSans-65"/>
    <use transform="translate(264.794922 0.09375)" xlink:href="#DejaVuSans-72"/>
    <use transform="translate(305.908203 0.09375)" xlink:href="#DejaVuSans-20"/>
    <use transform="translate(337.695312 0.09375)" xlink:href="#DejaVuSans-6f"/>
    <use transform="translate(398.876953 0.09375)" xlink:href="#DejaVuSans-66"/>
    <use transform="translate(434.082031 0.09375)" xlink:href="#DejaVuSans-20"/>
    <use transform="translate(465.869141 0.09375)" xlink:href="#DejaVuSans-57"/>
    <use transform="translate(564.746094 0.09375)" xlink:href="#DejaVuSans-65"/>
    <use transform="translate(626.269531 0.09375)" xlink:href="#DejaVuSans-69"/>
    <use transform="translate(654.052734 0.09375)" xlink:href="#DejaVuSans-67"/>
    <use transform="translate(717.529297 0.09375)" xlink:href="#DejaVuSans-68"/>
    <use transform="translate(780.908203 0.09375)" xlink:href="#DejaVuSans-74"/>
    <use transform="translate(820.117188 0.09375)" xlink:href="#DejaVuSans-73"/>
    <use transform="translate(872.216797 0.09375)" xlink:href="#DejaVuSans-20"/>
    <use transform="translate(904.003906 19.5625)scale(0.657728)" xlink:href="#STIXSizeOneSym-Regular-221a"/>
    <use transform="translate(986.001648 0.515625)" xlink:href="#DejaVuSans-77"/>
    <use transform="translate(1068.745789 38.796875)scale(0.7)" xlink:href="#DejaVuSans-32"/>
    <path d="M 973.501648 115.5 
L 973.501648 121.75 
L 1128.516296 121.75 
L 1128.516296 115.5 
L 973.501648 115.5 
z
"/>
   </g>
  </g>
 </g>
 <defs>
  <clipPath id="p5d5e57a294">
   <rect height="72.27" width="172.19" x="27.97" y="20.798438"/>
  </clipPath>
  <clipPath id="p227b07ca7b">
   <rect height="72.27" width="172.19" x="27.97" y="119.128437"/>
  </clipPath>
 </defs>
</svg>
