<?xml version="1.0" encoding="utf-8" standalone="no"?>
<!DOCTYPE svg PUBLIC "-//W3C//DTD SVG 1.1//EN"
  "http://www.w3.org/Graphics/SVG/1.1/DTD/svg11.dtd">
<svg height="223.934062pt" version="1.1" viewBox="0 0 207.36 223.934062" width="207.36pt" xmlns="http://www.w3.org/2000/svg" xmlns:xlink="http://www.w3.org/1999/xlink">
 <metadata>
  <rdf:RDF xmlns:cc="http://creativecommons.org/ns#" xmlns:dc="http://purl.org/dc/elements/1.1/" xmlns:rdf="http://www.w3.org/1999/02/22-rdf-syntax-ns#">
   <cc:Work>
    <dc:type rdf:resource="http://purl.org/dc/dcmitype/StillImage"/>
    <dc:date>2026-02-07T18:32:47.543595</dc:date>
    <dc:format>image/svg+xml</dc:format>
    <dc:creator>
     <cc:Agent>
      <dc:title>Matplotlib v3.4.2, https://matplotlib.org/</dc:title>
     </cc:Agent>
    </dc:creator>
   </cc:Work>
  </rdf:RDF>
 </metadata>
 <defs>
  <style type="text/css">*{stroke-linecap:butt;stroke-linejoin:round;}</style>
 </defs>
 <g id="figure_1">
  <g id="patch_1">
   <path d="M -0 223.934062 
L 207.36 223.934062 
L 207.36 0 
L -0 0 
z
" style="fill:none;"/>
  </g>
  <g id="axes_1">
   <g id="patch_2">
    <path d="M 27.97 93.068437 
L 200.16 93.068437 
L 200.16 20.798438 
L 27.97 20.798438 
z
" style="fill:none;"/>
   </g>
   <g id="PolyCollection_1">
    <defs>
     <path d="M 35.796818 -158.0839 
L 35.796818 -157.644166 
L 37.912174 -152.33667 
L 40.027531 -143.62381 
L 42.142887 -142.746609 
L 44.258243 -144.441471 
L 46.3736 -146.646232 
L 48.488956 -150.208993 
L 50.604312 -155.339514 
L 52.719668 -161.792628 
L 54.835025 -167.245312 
L 56.950381 -171.603651 
L 59.065737 -175.125086 
L 61.181093 -175.950172 
L 63.29645 -173.198553 
L 65.411806 -168.790716 
L 67.527162 -166.816562 
L 69.642518 -169.188968 
L 71.757875 -175.116027 
L 73.873231 -182.436793 
L 75.988587 -187.009559 
L 78.103943 -182.364935 
L 80.2193 -167.4051 
L 82.334656 -155.027377 
L 84.450012 -150.70021 
L 86.565369 -150.7907 
L 88.680725 -153.478177 
L 90.796081 -155.549267 
L 92.911437 -155.285676 
L 95.026794 -153.174948 
L 97.14215 -149.892511 
L 99.257506 -147.026658 
L 101.372862 -146.006173 
L 103.488219 -146.779614 
L 105.603575 -148.520907 
L 107.718931 -149.902214 
L 109.834287 -150.341399 
L 111.949644 -149.182172 
L 114.065 -146.532313 
L 116.180356 -144.487836 
L 118.295713 -144.546763 
L 120.411069 -146.278696 
L 122.526425 -148.177784 
L 124.641781 -149.798621 
L 126.757138 -150.622438 
L 128.872494 -149.768753 
L 130.98785 -147.930805 
L 133.103206 -146.892167 
L 135.218563 -147.1673 
L 137.333919 -147.521227 
L 139.449275 -147.042635 
L 141.564631 -146.133193 
L 143.679988 -145.455828 
L 145.795344 -144.68154 
L 147.9107 -143.419597 
L 150.026057 -142.647805 
L 152.141413 -142.676362 
L 154.256769 -143.253965 
L 156.372125 -143.526531 
L 158.487482 -143.03263 
L 160.602838 -142.459406 
L 162.718194 -141.746446 
L 164.83355 -140.902269 
L 166.948907 -140.307555 
L 169.064263 -140.066552 
L 171.179619 -140.22988 
L 173.294975 -140.723042 
L 175.410332 -141.058686 
L 177.525688 -141.254504 
L 179.641044 -141.510399 
L 181.7564 -141.566938 
L 183.871757 -141.735646 
L 185.987113 -142.149829 
L 188.102469 -142.7263 
L 190.217826 -144.103794 
L 192.333182 -143.710226 
L 192.333182 -145.660801 
L 192.333182 -145.660801 
L 190.217826 -145.614587 
L 188.102469 -143.794668 
L 185.987113 -143.193338 
L 183.871757 -143.020233 
L 181.7564 -142.933149 
L 179.641044 -142.644725 
L 177.525688 -142.385458 
L 175.410332 -142.197657 
L 173.294975 -141.908577 
L 171.179619 -141.417617 
L 169.064263 -141.343212 
L 166.948907 -142.654118 
L 164.83355 -144.731331 
L 162.718194 -146.282445 
L 160.602838 -147.321466 
L 158.487482 -147.824583 
L 156.372125 -147.677143 
L 154.256769 -146.63838 
L 152.141413 -145.674065 
L 150.026057 -145.767509 
L 147.9107 -146.470667 
L 145.795344 -147.187062 
L 143.679988 -148.559957 
L 141.564631 -150.07619 
L 139.449275 -150.949428 
L 137.333919 -150.880451 
L 135.218563 -150.405015 
L 133.103206 -150.770118 
L 130.98785 -152.062534 
L 128.872494 -153.55976 
L 126.757138 -153.65547 
L 124.641781 -152.304099 
L 122.526425 -150.817225 
L 120.411069 -149.779437 
L 118.295713 -149.636599 
L 116.180356 -150.705245 
L 114.065 -152.260079 
L 111.949644 -153.37358 
L 109.834287 -153.632086 
L 107.718931 -152.683184 
L 105.603575 -151.576811 
L 103.488219 -150.797548 
L 101.372862 -150.622551 
L 99.257506 -152.182147 
L 97.14215 -155.666751 
L 95.026794 -160.117947 
L 92.911437 -162.694022 
L 90.796081 -162.102317 
L 88.680725 -160.444529 
L 86.565369 -161.454325 
L 84.450012 -167.82709 
L 82.334656 -178.554773 
L 80.2193 -190.400195 
L 78.103943 -199.850625 
L 75.988587 -199.715166 
L 73.873231 -192.543611 
L 71.757875 -184.034461 
L 69.642518 -178.752583 
L 67.527162 -178.309611 
L 65.411806 -182.32803 
L 63.29645 -187.882916 
L 61.181093 -191.579396 
L 59.065737 -190.183667 
L 56.950381 -183.912056 
L 54.835025 -175.369238 
L 52.719668 -166.612886 
L 50.604312 -158.326073 
L 48.488956 -152.014178 
L 46.3736 -148.187015 
L 44.258243 -146.317956 
L 42.142887 -146.916318 
L 40.027531 -149.630125 
L 37.912174 -155.374324 
L 35.796818 -158.0839 
z
" id="m0e7a037644" style="stroke:#2f4858;stroke-opacity:0.7;stroke-width:0.2;"/>
    </defs>
    <g clip-path="url(#p9811bc4e31)">
     <use style="fill:#2f4858;fill-opacity:0.7;stroke:#2f4858;stroke-opacity:0.7;stroke-width:0.2;" x="0" xlink:href="#m0e7a037644" y="223.934062"/>
    </g>
   </g>
   <g id="PolyCollection_2">
    <defs>
     <path d="M 35.796818 -154.785704 
L 35.796818 -154.42631 
L 37.912174 -149.745129 
L 40.027531 -142.571702 
L 42.142887 -141.605144 
L 44.258243 -142.149082 
L 46.3736 -143.115274 
L 48.488956 -144.602639 
L 50.604312 -147.208745 
L 52.719668 -152.193205 
L 54.835025 -159.420567 
L 56.950381 -166.375658 
L 59.065737 -170.07977 
L 61.181093 -171.841917 
L 63.29645 -173.288818 
L 65.411806 -172.790503 
L 67.527162 -171.004766 
L 69.642518 -171.126665 
L 71.757875 -174.772413 
L 73.873231 -179.717145 
L 75.988587 -181.317319 
L 78.103943 -174.592572 
L 80.2193 -162.325633 
L 82.334656 -153.037979 
L 84.450012 -149.59176 
L 86.565369 -149.810637 
L 88.680725 -151.596867 
L 90.796081 -153.813508 
L 92.911437 -155.625165 
L 95.026794 -154.263097 
L 97.14215 -150.002093 
L 99.257506 -146.887368 
L 101.372862 -145.870265 
L 103.488219 -145.916153 
L 105.603575 -146.806601 
L 107.718931 -148.145527 
L 109.834287 -148.097692 
L 111.949644 -146.339087 
L 114.065 -145.244455 
L 116.180356 -145.323651 
L 118.295713 -145.719963 
L 120.411069 -146.829231 
L 122.526425 -148.422389 
L 124.641781 -148.237683 
L 126.757138 -146.103883 
L 128.872494 -144.084175 
L 130.98785 -143.831337 
L 133.103206 -144.711941 
L 135.218563 -145.111422 
L 137.333919 -144.956198 
L 139.449275 -144.644903 
L 141.564631 -144.268011 
L 143.679988 -143.980043 
L 145.795344 -143.127468 
L 147.9107 -141.915112 
L 150.026057 -141.575944 
L 152.141413 -142.15826 
L 154.256769 -143.05159 
L 156.372125 -143.752721 
L 158.487482 -143.527986 
L 160.602838 -142.778023 
L 162.718194 -142.454549 
L 164.83355 -142.53735 
L 166.948907 -142.130124 
L 169.064263 -141.708258 
L 171.179619 -142.184804 
L 173.294975 -142.87289 
L 175.410332 -143.224317 
L 177.525688 -142.960681 
L 179.641044 -141.966348 
L 181.7564 -141.172424 
L 183.871757 -141.053072 
L 185.987113 -140.837448 
L 188.102469 -140.960058 
L 190.217826 -142.880132 
L 192.333182 -143.134798 
L 192.333182 -145.201874 
L 192.333182 -145.201874 
L 190.217826 -144.765425 
L 188.102469 -142.806539 
L 185.987113 -142.501604 
L 183.871757 -142.946951 
L 181.7564 -143.613119 
L 179.641044 -144.552211 
L 177.525688 -145.293008 
L 175.410332 -145.083092 
L 173.294975 -144.372356 
L 171.179619 -143.973472 
L 169.064263 -144.377065 
L 166.948907 -145.174043 
L 164.83355 -146.231481 
L 162.718194 -146.898936 
L 160.602838 -146.991831 
L 158.487482 -146.58242 
L 156.372125 -145.615128 
L 154.256769 -144.556449 
L 152.141413 -144.149898 
L 150.026057 -144.422996 
L 147.9107 -145.038158 
L 145.795344 -145.829839 
L 143.679988 -146.441635 
L 141.564631 -146.653178 
L 139.449275 -146.991657 
L 137.333919 -147.413351 
L 135.218563 -147.417012 
L 133.103206 -147.299729 
L 130.98785 -147.824089 
L 128.872494 -149.319058 
L 126.757138 -151.078235 
L 124.641781 -152.0994 
L 122.526425 -151.874785 
L 120.411069 -150.734192 
L 118.295713 -150.098766 
L 116.180356 -150.878997 
L 114.065 -152.129898 
L 111.949644 -153.291783 
L 109.834287 -153.813363 
L 107.718931 -153.044423 
L 105.603575 -151.821006 
L 103.488219 -151.642517 
L 101.372862 -152.500132 
L 99.257506 -154.655824 
L 97.14215 -158.042827 
L 95.026794 -161.916319 
L 92.911437 -163.055006 
L 90.796081 -160.53953 
L 88.680725 -157.732778 
L 86.565369 -157.669647 
L 84.450012 -162.080268 
L 82.334656 -171.462849 
L 80.2193 -183.31735 
L 78.103943 -192.829192 
L 75.988587 -196.434328 
L 73.873231 -193.408431 
L 71.757875 -187.956703 
L 69.642518 -185.462494 
L 67.527162 -186.385006 
L 65.411806 -187.256898 
L 63.29645 -186.565285 
L 61.181093 -184.605198 
L 59.065737 -179.914826 
L 56.950381 -172.610582 
L 54.835025 -163.259262 
L 52.719668 -154.891838 
L 50.604312 -149.47646 
L 48.488956 -146.379913 
L 46.3736 -145.041154 
L 44.258243 -145.045457 
L 42.142887 -145.985301 
L 40.027531 -147.758425 
L 37.912174 -152.258209 
L 35.796818 -154.785704 
z
" id="m07e4bb93ed" style="stroke:#719e87;stroke-opacity:0.7;stroke-width:0.2;"/>
    </defs>
    <g clip-path="url(#p9811bc4e31)">
     <use style="fill:#719e87;fill-opacity:0.7;stroke:#719e87;stroke-opacity:0.7;stroke-width:0.2;" x="0" xlink:href="#m07e4bb93ed" y="223.934062"/>
    </g>
   </g>
   <g id="matplotlib.axis_1">
    <g id="xtick_1">
     <g id="line2d_1">
      <path clip-path="url(#p9811bc4e31)" d="M 46.3736 93.068437 
L 46.3736 20.798438 
" style="fill:none;stroke:#b0b0b0;stroke-linecap:square;stroke-width:0.8;"/>
     </g>
     <g id="line2d_2">
      <defs>
       <path d="M 0 0 
L 0 3.5 
" id="m5c1a2bdfc9" style="stroke:#000000;stroke-width:0.8;"/>
      </defs>
      <g>
       <use style="stroke:#000000;stroke-width:0.8;" x="46.3736" xlink:href="#m5c1a2bdfc9" y="93.068437"/>
      </g>
     </g>
    </g>
    <g id="xtick_2">
     <g id="line2d_3">
      <path clip-path="url(#p9811bc4e31)" d="M 88.680725 93.068437 
L 88.680725 20.798438 
" style="fill:none;stroke:#b0b0b0;stroke-linecap:square;stroke-width:0.8;"/>
     </g>
     <g id="line2d_4">
      <g>
       <use style="stroke:#000000;stroke-width:0.8;" x="88.680725" xlink:href="#m5c1a2bdfc9" y="93.068437"/>
      </g>
     </g>
    </g>
    <g id="xtick_3">
     <g id="line2d_5">
      <path clip-path="url(#p9811bc4e31)" d="M 130.98785 93.068437 
L 130.98785 20.798438 
" style="fill:none;stroke:#b0b0b0;stroke-linecap:square;stroke-width:0.8;"/>
     </g>
     <g id="line2d_6">
      <g>
       <use style="stroke:#000000;stroke-width:0.8;" x="130.98785" xlink:href="#m5c1a2bdfc9" y="93.068437"/>
      </g>
     </g>
    </g>
    <g id="xtick_4">
     <g id="line2d_7">
      <path clip-path="url(#p9811bc4e31)" d="M 173.294975 93.068437 
L 173.294975 20.798438 
" style="fill:none;stroke:#b0b0b0;stroke-linecap:square;stroke-width:0.8;"/>
     </g>
     <g id="line2d_8">
      <g>
       <use style="stroke:#000000;stroke-width:0.8;" x="173.294975" xlink:href="#m5c1a2bdfc9" y="93.068437"/>
      </g>
     </g>
    </g>
   </g>
   <g id="matplotlib.axis_2">
    <g id="ytick_1">
     <g id="line2d_9">
      <path clip-path="url(#p9811bc4e31)" d="M 27.97 89.783437 
L 200.16 89.783437 
" style="fill:none;stroke:#b0b0b0;stroke-linecap:square;stroke-width:0.8;"/>
     </g>
     <g id="line2d_10">
      <defs>
       <path d="M 0 0 
L -3.5 0 
" id="m85e9013b57" style="stroke:#000000;stroke-width:0.8;"/>
      </defs>
      <g>
       <use style="stroke:#000000;stroke-width:0.8;" x="27.97" xlink:href="#m85e9013b57" y="89.783437"/>
      </g>
     </g>
     <g id="text_1">
      <!-- 0 -->
      <g transform="translate(15.88 92.822812)scale(0.08 -0.08)">
       <defs>
        <path d="M 2034 4250 
Q 1547 4250 1301 3770 
Q 1056 3291 1056 2328 
Q 1056 1369 1301 889 
Q 1547 409 2034 409 
Q 2525 409 2770 889 
Q 3016 1369 3016 2328 
Q 3016 3291 2770 3770 
Q 2525 4250 2034 4250 
z
M 2034 4750 
Q 2819 4750 3233 4129 
Q 3647 3509 3647 2328 
Q 3647 1150 3233 529 
Q 2819 -91 2034 -91 
Q 1250 -91 836 529 
Q 422 1150 422 2328 
Q 422 3509 836 4129 
Q 1250 4750 2034 4750 
z
" id="DejaVuSans-30" transform="scale(0.015625)"/>
       </defs>
       <use xlink:href="#DejaVuSans-30"/>
      </g>
     </g>
    </g>
    <g id="ytick_2">
     <g id="line2d_11">
      <path clip-path="url(#p9811bc4e31)" d="M 27.97 72.685051 
L 200.16 72.685051 
" style="fill:none;stroke:#b0b0b0;stroke-linecap:square;stroke-width:0.8;"/>
     </g>
     <g id="line2d_12">
      <g>
       <use style="stroke:#000000;stroke-width:0.8;" x="27.97" xlink:href="#m85e9013b57" y="72.685051"/>
      </g>
     </g>
     <g id="text_2">
      <!-- 1 -->
      <g transform="translate(15.88 75.724426)scale(0.08 -0.08)">
       <defs>
        <path d="M 794 531 
L 1825 531 
L 1825 4091 
L 703 3866 
L 703 4441 
L 1819 4666 
L 2450 4666 
L 2450 531 
L 3481 531 
L 3481 0 
L 794 0 
L 794 531 
z
" id="DejaVuSans-31" transform="scale(0.015625)"/>
       </defs>
       <use xlink:href="#DejaVuSans-31"/>
      </g>
     </g>
    </g>
    <g id="ytick_3">
     <g id="line2d_13">
      <path clip-path="url(#p9811bc4e31)" d="M 27.97 55.586665 
L 200.16 55.586665 
" style="fill:none;stroke:#b0b0b0;stroke-linecap:square;stroke-width:0.8;"/>
     </g>
     <g id="line2d_14">
      <g>
       <use style="stroke:#000000;stroke-width:0.8;" x="27.97" xlink:href="#m85e9013b57" y="55.586665"/>
      </g>
     </g>
     <g id="text_3">
      <!-- 2 -->
      <g transform="translate(15.88 58.62604)scale(0.08 -0.08)">
       <defs>
        <path d="M 1228 531 
L 3431 531 
L 3431 0 
L 469 0 
L 469 531 
Q 828 903 1448 1529 
Q 2069 2156 2228 2338 
Q 2531 2678 2651 2914 
Q 2772 3150 2772 3378 
Q 2772 3750 2511 3984 
Q 2250 4219 1831 4219 
Q 1534 4219 1204 4116 
Q 875 4013 500 3803 
L 500 4441 
Q 881 4594 1212 4672 
Q 1544 4750 1819 4750 
Q 2544 4750 2975 4387 
Q 3406 4025 3406 3419 
Q 3406 3131 3298 2873 
Q 3191 2616 2906 2266 
Q 2828 2175 2409 1742 
Q 1991 1309 1228 531 
z
" id="DejaVuSans-32" transform="scale(0.015625)"/>
       </defs>
       <use xlink:href="#DejaVuSans-32"/>
      </g>
     </g>
    </g>
    <g id="ytick_4">
     <g id="line2d_15">
      <path clip-path="url(#p9811bc4e31)" d="M 27.97 38.488278 
L 200.16 38.488278 
" style="fill:none;stroke:#b0b0b0;stroke-linecap:square;stroke-width:0.8;"/>
     </g>
     <g id="line2d_16">
      <g>
       <use style="stroke:#000000;stroke-width:0.8;" x="27.97" xlink:href="#m85e9013b57" y="38.488278"/>
      </g>
     </g>
     <g id="text_4">
      <!-- 3 -->
      <g transform="translate(15.88 41.527653)scale(0.08 -0.08)">
       <defs>
        <path d="M 2597 2516 
Q 3050 2419 3304 2112 
Q 3559 1806 3559 1356 
Q 3559 666 3084 287 
Q 2609 -91 1734 -91 
Q 1441 -91 1130 -33 
Q 819 25 488 141 
L 488 750 
Q 750 597 1062 519 
Q 1375 441 1716 441 
Q 2309 441 2620 675 
Q 2931 909 2931 1356 
Q 2931 1769 2642 2001 
Q 2353 2234 1838 2234 
L 1294 2234 
L 1294 2753 
L 1863 2753 
Q 2328 2753 2575 2939 
Q 2822 3125 2822 3475 
Q 2822 3834 2567 4026 
Q 2313 4219 1838 4219 
Q 1578 4219 1281 4162 
Q 984 4106 628 3988 
L 628 4550 
Q 988 4650 1302 4700 
Q 1616 4750 1894 4750 
Q 2613 4750 3031 4423 
Q 3450 4097 3450 3541 
Q 3450 3153 3228 2886 
Q 3006 2619 2597 2516 
z
" id="DejaVuSans-33" transform="scale(0.015625)"/>
       </defs>
       <use xlink:href="#DejaVuSans-33"/>
      </g>
     </g>
    </g>
    <g id="ytick_5">
     <g id="line2d_17">
      <path clip-path="url(#p9811bc4e31)" d="M 27.97 21.389892 
L 200.16 21.389892 
" style="fill:none;stroke:#b0b0b0;stroke-linecap:square;stroke-width:0.8;"/>
     </g>
     <g id="line2d_18">
      <g>
       <use style="stroke:#000000;stroke-width:0.8;" x="27.97" xlink:href="#m85e9013b57" y="21.389892"/>
      </g>
     </g>
     <g id="text_5">
      <!-- 4 -->
      <g transform="translate(15.88 24.429267)scale(0.08 -0.08)">
       <defs>
        <path d="M 2419 4116 
L 825 1625 
L 2419 1625 
L 2419 4116 
z
M 2253 4666 
L 3047 4666 
L 3047 1625 
L 3713 1625 
L 3713 1100 
L 3047 1100 
L 3047 0 
L 2419 0 
L 2419 1100 
L 313 1100 
L 313 1709 
L 2253 4666 
z
" id="DejaVuSans-34" transform="scale(0.015625)"/>
       </defs>
       <use xlink:href="#DejaVuSans-34"/>
      </g>
     </g>
    </g>
    <g id="text_6">
     <!-- 1e−4 -->
     <g transform="translate(27.97 17.798438)scale(0.08 -0.08)">
      <defs>
       <path d="M 3597 1894 
L 3597 1613 
L 953 1613 
Q 991 1019 1311 708 
Q 1631 397 2203 397 
Q 2534 397 2845 478 
Q 3156 559 3463 722 
L 3463 178 
Q 3153 47 2828 -22 
Q 2503 -91 2169 -91 
Q 1331 -91 842 396 
Q 353 884 353 1716 
Q 353 2575 817 3079 
Q 1281 3584 2069 3584 
Q 2775 3584 3186 3129 
Q 3597 2675 3597 1894 
z
M 3022 2063 
Q 3016 2534 2758 2815 
Q 2500 3097 2075 3097 
Q 1594 3097 1305 2825 
Q 1016 2553 972 2059 
L 3022 2063 
z
" id="DejaVuSans-65" transform="scale(0.015625)"/>
       <path d="M 678 2272 
L 4684 2272 
L 4684 1741 
L 678 1741 
L 678 2272 
z
" id="DejaVuSans-2212" transform="scale(0.015625)"/>
      </defs>
      <use xlink:href="#DejaVuSans-31"/>
      <use x="63.623047" xlink:href="#DejaVuSans-65"/>
      <use x="125.146484" xlink:href="#DejaVuSans-2212"/>
      <use x="208.935547" xlink:href="#DejaVuSans-34"/>
     </g>
    </g>
   </g>
   <g id="line2d_19">
    <path clip-path="url(#p9811bc4e31)" d="M 35.796818 66.070029 
L 37.912174 70.078565 
L 40.027531 77.307095 
L 42.142887 79.102599 
L 44.258243 78.554349 
L 46.3736 76.517439 
L 48.488956 72.822477 
L 50.604312 67.101269 
L 52.719668 59.731306 
L 54.835025 52.626788 
L 56.950381 46.176209 
L 59.065737 41.279686 
L 61.181093 40.169279 
L 63.29645 43.393328 
L 65.411806 48.37469 
L 67.527162 51.370976 
L 69.642518 49.963287 
L 71.757875 44.358818 
L 73.873231 36.44386 
L 75.988587 30.5717 
L 78.103943 32.826282 
L 80.2193 45.031415 
L 82.334656 57.142988 
L 84.450012 64.670413 
L 86.565369 67.81155 
L 88.680725 66.97271 
L 90.796081 65.108271 
L 92.911437 64.944213 
L 95.026794 67.287615 
L 97.14215 71.154431 
L 99.257506 74.32966 
L 101.372862 75.6197 
L 103.488219 75.145481 
L 105.603575 73.885204 
L 107.718931 72.641363 
L 109.834287 71.94732 
L 111.949644 72.656186 
L 114.065 74.537866 
L 116.180356 76.337522 
L 118.295713 76.842382 
L 120.411069 75.904996 
L 122.526425 74.436558 
L 124.641781 72.882702 
L 126.757138 71.795109 
L 128.872494 72.269806 
L 130.98785 73.937393 
L 133.103206 75.10292 
L 135.218563 75.147905 
L 137.333919 74.733224 
L 139.449275 74.938031 
L 141.564631 75.829371 
L 143.679988 76.92617 
L 145.795344 77.999761 
L 147.9107 78.98893 
L 150.026057 79.726405 
L 152.141413 79.758849 
L 154.256769 78.98789 
L 156.372125 78.332225 
L 158.487482 78.505456 
L 160.602838 79.043626 
L 162.718194 79.919617 
L 164.83355 81.117263 
L 166.948907 82.453226 
L 169.064263 83.229181 
L 171.179619 83.110314 
L 173.294975 82.618253 
L 175.410332 82.305891 
L 177.525688 82.114081 
L 179.641044 81.856501 
L 181.7564 81.684019 
L 183.871757 81.556123 
L 185.987113 81.262479 
L 188.102469 80.673579 
L 190.217826 79.074872 
L 192.333182 79.248549 
" style="fill:none;stroke:#2f4858;stroke-linecap:square;stroke-width:0.5;"/>
   </g>
   <g id="line2d_20">
    <path clip-path="url(#p9811bc4e31)" d="M 35.796818 69.328056 
L 37.912174 72.932393 
L 40.027531 78.768999 
L 42.142887 80.13884 
L 44.258243 80.336793 
L 46.3736 79.855848 
L 48.488956 78.442787 
L 50.604312 75.59146 
L 52.719668 70.391541 
L 54.835025 62.594148 
L 56.950381 54.440942 
L 59.065737 48.936764 
L 61.181093 45.710505 
L 63.29645 44.007011 
L 65.411806 43.910362 
L 67.527162 45.239177 
L 69.642518 45.639483 
L 71.757875 42.569504 
L 73.873231 37.371275 
L 75.988587 35.058239 
L 78.103943 40.22318 
L 80.2193 51.112571 
L 82.334656 61.683648 
L 84.450012 68.098048 
L 86.565369 70.19392 
L 88.680725 69.26924 
L 90.796081 66.757544 
L 92.911437 64.593977 
L 95.026794 65.844355 
L 97.14215 69.911602 
L 99.257506 73.162467 
L 101.372862 74.748864 
L 103.488219 75.154727 
L 105.603575 74.620259 
L 107.718931 73.339088 
L 109.834287 72.978535 
L 111.949644 74.118628 
L 114.065 75.246886 
L 116.180356 75.832739 
L 118.295713 76.024698 
L 120.411069 75.152351 
L 122.526425 73.785476 
L 124.641781 73.765521 
L 126.757138 75.343004 
L 128.872494 77.232446 
L 130.98785 78.10635 
L 133.103206 77.928228 
L 135.218563 77.669845 
L 137.333919 77.749288 
L 139.449275 78.115782 
L 141.564631 78.473468 
L 143.679988 78.723224 
L 145.795344 79.455409 
L 147.9107 80.457428 
L 150.026057 80.934592 
L 152.141413 80.779983 
L 154.256769 80.130043 
L 156.372125 79.250138 
L 158.487482 78.878859 
L 160.602838 79.049135 
L 162.718194 79.25732 
L 164.83355 79.549647 
L 166.948907 80.281979 
L 169.064263 80.891401 
L 171.179619 80.854925 
L 173.294975 80.311439 
L 175.410332 79.780358 
L 177.525688 79.807218 
L 179.641044 80.674783 
L 181.7564 81.541291 
L 183.871757 81.934051 
L 185.987113 82.264537 
L 188.102469 82.050764 
L 190.217826 80.111284 
L 192.333182 79.765726 
" style="fill:none;stroke:#719e87;stroke-linecap:square;stroke-width:0.5;"/>
   </g>
   <g id="line2d_21">
    <path clip-path="url(#p9811bc4e31)" style="fill:none;stroke:#ff0000;stroke-linecap:square;stroke-width:2;"/>
   </g>
   <g id="patch_3">
    <path d="M 27.97 93.068437 
L 200.16 93.068437 
" style="fill:none;stroke:#000000;stroke-linecap:square;stroke-linejoin:miter;stroke-width:0.8;"/>
   </g>
   <g id="text_7">
    <!-- Acoustic Edges -->
    <g transform="translate(76.273594 14.798438)scale(0.1 -0.1)">
     <defs>
      <path d="M 2188 4044 
L 1331 1722 
L 3047 1722 
L 2188 4044 
z
M 1831 4666 
L 2547 4666 
L 4325 0 
L 3669 0 
L 3244 1197 
L 1141 1197 
L 716 0 
L 50 0 
L 1831 4666 
z
" id="DejaVuSans-41" transform="scale(0.015625)"/>
      <path d="M 3122 3366 
L 3122 2828 
Q 2878 2963 2633 3030 
Q 2388 3097 2138 3097 
Q 1578 3097 1268 2742 
Q 959 2388 959 1747 
Q 959 1106 1268 751 
Q 1578 397 2138 397 
Q 2388 397 2633 464 
Q 2878 531 3122 666 
L 3122 134 
Q 2881 22 2623 -34 
Q 2366 -91 2075 -91 
Q 1284 -91 818 406 
Q 353 903 353 1747 
Q 353 2603 823 3093 
Q 1294 3584 2113 3584 
Q 2378 3584 2631 3529 
Q 2884 3475 3122 3366 
z
" id="DejaVuSans-63" transform="scale(0.015625)"/>
      <path d="M 1959 3097 
Q 1497 3097 1228 2736 
Q 959 2375 959 1747 
Q 959 1119 1226 758 
Q 1494 397 1959 397 
Q 2419 397 2687 759 
Q 2956 1122 2956 1747 
Q 2956 2369 2687 2733 
Q 2419 3097 1959 3097 
z
M 1959 3584 
Q 2709 3584 3137 3096 
Q 3566 2609 3566 1747 
Q 3566 888 3137 398 
Q 2709 -91 1959 -91 
Q 1206 -91 779 398 
Q 353 888 353 1747 
Q 353 2609 779 3096 
Q 1206 3584 1959 3584 
z
" id="DejaVuSans-6f" transform="scale(0.015625)"/>
      <path d="M 544 1381 
L 544 3500 
L 1119 3500 
L 1119 1403 
Q 1119 906 1312 657 
Q 1506 409 1894 409 
Q 2359 409 2629 706 
Q 2900 1003 2900 1516 
L 2900 3500 
L 3475 3500 
L 3475 0 
L 2900 0 
L 2900 538 
Q 2691 219 2414 64 
Q 2138 -91 1772 -91 
Q 1169 -91 856 284 
Q 544 659 544 1381 
z
M 1991 3584 
L 1991 3584 
z
" id="DejaVuSans-75" transform="scale(0.015625)"/>
      <path d="M 2834 3397 
L 2834 2853 
Q 2591 2978 2328 3040 
Q 2066 3103 1784 3103 
Q 1356 3103 1142 2972 
Q 928 2841 928 2578 
Q 928 2378 1081 2264 
Q 1234 2150 1697 2047 
L 1894 2003 
Q 2506 1872 2764 1633 
Q 3022 1394 3022 966 
Q 3022 478 2636 193 
Q 2250 -91 1575 -91 
Q 1294 -91 989 -36 
Q 684 19 347 128 
L 347 722 
Q 666 556 975 473 
Q 1284 391 1588 391 
Q 1994 391 2212 530 
Q 2431 669 2431 922 
Q 2431 1156 2273 1281 
Q 2116 1406 1581 1522 
L 1381 1569 
Q 847 1681 609 1914 
Q 372 2147 372 2553 
Q 372 3047 722 3315 
Q 1072 3584 1716 3584 
Q 2034 3584 2315 3537 
Q 2597 3491 2834 3397 
z
" id="DejaVuSans-73" transform="scale(0.015625)"/>
      <path d="M 1172 4494 
L 1172 3500 
L 2356 3500 
L 2356 3053 
L 1172 3053 
L 1172 1153 
Q 1172 725 1289 603 
Q 1406 481 1766 481 
L 2356 481 
L 2356 0 
L 1766 0 
Q 1100 0 847 248 
Q 594 497 594 1153 
L 594 3053 
L 172 3053 
L 172 3500 
L 594 3500 
L 594 4494 
L 1172 4494 
z
" id="DejaVuSans-74" transform="scale(0.015625)"/>
      <path d="M 603 3500 
L 1178 3500 
L 1178 0 
L 603 0 
L 603 3500 
z
M 603 4863 
L 1178 4863 
L 1178 4134 
L 603 4134 
L 603 4863 
z
" id="DejaVuSans-69" transform="scale(0.015625)"/>
      <path id="DejaVuSans-20" transform="scale(0.015625)"/>
      <path d="M 628 4666 
L 3578 4666 
L 3578 4134 
L 1259 4134 
L 1259 2753 
L 3481 2753 
L 3481 2222 
L 1259 2222 
L 1259 531 
L 3634 531 
L 3634 0 
L 628 0 
L 628 4666 
z
" id="DejaVuSans-45" transform="scale(0.015625)"/>
      <path d="M 2906 2969 
L 2906 4863 
L 3481 4863 
L 3481 0 
L 2906 0 
L 2906 525 
Q 2725 213 2448 61 
Q 2172 -91 1784 -91 
Q 1150 -91 751 415 
Q 353 922 353 1747 
Q 353 2572 751 3078 
Q 1150 3584 1784 3584 
Q 2172 3584 2448 3432 
Q 2725 3281 2906 2969 
z
M 947 1747 
Q 947 1113 1208 752 
Q 1469 391 1925 391 
Q 2381 391 2643 752 
Q 2906 1113 2906 1747 
Q 2906 2381 2643 2742 
Q 2381 3103 1925 3103 
Q 1469 3103 1208 2742 
Q 947 2381 947 1747 
z
" id="DejaVuSans-64" transform="scale(0.015625)"/>
      <path d="M 2906 1791 
Q 2906 2416 2648 2759 
Q 2391 3103 1925 3103 
Q 1463 3103 1205 2759 
Q 947 2416 947 1791 
Q 947 1169 1205 825 
Q 1463 481 1925 481 
Q 2391 481 2648 825 
Q 2906 1169 2906 1791 
z
M 3481 434 
Q 3481 -459 3084 -895 
Q 2688 -1331 1869 -1331 
Q 1566 -1331 1297 -1286 
Q 1028 -1241 775 -1147 
L 775 -588 
Q 1028 -725 1275 -790 
Q 1522 -856 1778 -856 
Q 2344 -856 2625 -561 
Q 2906 -266 2906 331 
L 2906 616 
Q 2728 306 2450 153 
Q 2172 0 1784 0 
Q 1141 0 747 490 
Q 353 981 353 1791 
Q 353 2603 747 3093 
Q 1141 3584 1784 3584 
Q 2172 3584 2450 3431 
Q 2728 3278 2906 2969 
L 2906 3500 
L 3481 3500 
L 3481 434 
z
" id="DejaVuSans-67" transform="scale(0.015625)"/>
     </defs>
     <use xlink:href="#DejaVuSans-41"/>
     <use x="66.658203" xlink:href="#DejaVuSans-63"/>
     <use x="121.638672" xlink:href="#DejaVuSans-6f"/>
     <use x="182.820312" xlink:href="#DejaVuSans-75"/>
     <use x="246.199219" xlink:href="#DejaVuSans-73"/>
     <use x="298.298828" xlink:href="#DejaVuSans-74"/>
     <use x="337.507812" xlink:href="#DejaVuSans-69"/>
     <use x="365.291016" xlink:href="#DejaVuSans-63"/>
     <use x="420.271484" xlink:href="#DejaVuSans-20"/>
     <use x="452.058594" xlink:href="#DejaVuSans-45"/>
     <use x="515.242188" xlink:href="#DejaVuSans-64"/>
     <use x="578.71875" xlink:href="#DejaVuSans-67"/>
     <use x="642.195312" xlink:href="#DejaVuSans-65"/>
     <use x="703.71875" xlink:href="#DejaVuSans-73"/>
    </g>
   </g>
  </g>
  <g id="axes_2">
   <g id="patch_4">
    <path d="M 27.97 191.398437 
L 200.16 191.398437 
L 200.16 119.128437 
L 27.97 119.128437 
z
" style="fill:none;"/>
   </g>
   <g id="PolyCollection_3">
    <defs>
     <path d="M 35.796818 -69.961155 
L 35.796818 -69.451843 
L 37.912174 -68.451387 
L 40.027531 -59.468389 
L 42.142887 -55.403482 
L 44.258243 -52.889031 
L 46.3736 -51.532964 
L 48.488956 -51.968191 
L 50.604312 -54.38483 
L 52.719668 -58.805955 
L 54.835025 -64.270238 
L 56.950381 -70.018844 
L 59.065737 -75.938688 
L 61.181093 -80.671709 
L 63.29645 -82.118145 
L 65.411806 -79.215845 
L 67.527162 -72.792517 
L 69.642518 -66.302314 
L 71.757875 -64.895151 
L 73.873231 -70.612522 
L 75.988587 -78.666214 
L 78.103943 -81.260595 
L 80.2193 -76.157046 
L 82.334656 -66.990872 
L 84.450012 -59.59525 
L 86.565369 -56.770579 
L 88.680725 -58.123705 
L 90.796081 -59.785968 
L 92.911437 -59.549517 
L 95.026794 -59.037478 
L 97.14215 -59.268437 
L 99.257506 -60.311266 
L 101.372862 -61.637981 
L 103.488219 -62.571234 
L 105.603575 -62.51909 
L 107.718931 -61.765997 
L 109.834287 -60.104165 
L 111.949644 -58.039595 
L 114.065 -56.606375 
L 116.180356 -55.990906 
L 118.295713 -56.23373 
L 120.411069 -57.011728 
L 122.526425 -57.72228 
L 124.641781 -58.413526 
L 126.757138 -58.96134 
L 128.872494 -58.813135 
L 130.98785 -58.008989 
L 133.103206 -56.911142 
L 135.218563 -55.770082 
L 137.333919 -54.084705 
L 139.449275 -51.970825 
L 141.564631 -50.567504 
L 143.679988 -50.750718 
L 145.795344 -52.088276 
L 147.9107 -53.080081 
L 150.026057 -52.604919 
L 152.141413 -51.526041 
L 154.256769 -51.479914 
L 156.372125 -52.761603 
L 158.487482 -54.405066 
L 160.602838 -56.317933 
L 162.718194 -57.995383 
L 164.83355 -58.542809 
L 166.948907 -58.193615 
L 169.064263 -56.933357 
L 171.179619 -54.836547 
L 173.294975 -52.548926 
L 175.410332 -50.479878 
L 177.525688 -48.719778 
L 179.641044 -47.780745 
L 181.7564 -47.613402 
L 183.871757 -48.004785 
L 185.987113 -49.088815 
L 188.102469 -50.611415 
L 190.217826 -53.559778 
L 192.333182 -53.133689 
L 192.333182 -56.942561 
L 192.333182 -56.942561 
L 190.217826 -57.245914 
L 188.102469 -54.227894 
L 185.987113 -52.634258 
L 183.871757 -52.085604 
L 181.7564 -52.610817 
L 179.641044 -53.522325 
L 177.525688 -54.832696 
L 175.410332 -56.566245 
L 173.294975 -58.898378 
L 171.179619 -61.850245 
L 169.064263 -64.847739 
L 166.948907 -67.017057 
L 164.83355 -67.733093 
L 162.718194 -66.963279 
L 160.602838 -64.784554 
L 158.487482 -62.19614 
L 156.372125 -60.240356 
L 154.256769 -58.796909 
L 152.141413 -58.197333 
L 150.026057 -58.043191 
L 147.9107 -57.623223 
L 145.795344 -56.696253 
L 143.679988 -55.682847 
L 141.564631 -55.615571 
L 139.449275 -57.032448 
L 137.333919 -59.448733 
L 135.218563 -62.363133 
L 133.103206 -65.058768 
L 130.98785 -66.618065 
L 128.872494 -66.778596 
L 126.757138 -65.909096 
L 124.641781 -64.562531 
L 122.526425 -62.938055 
L 120.411069 -61.633099 
L 118.295713 -61.247573 
L 116.180356 -61.775751 
L 114.065 -62.909555 
L 111.949644 -64.650237 
L 109.834287 -66.529882 
L 107.718931 -68.219555 
L 105.603575 -69.47766 
L 103.488219 -70.187468 
L 101.372862 -70.141681 
L 99.257506 -69.427635 
L 97.14215 -68.475103 
L 95.026794 -67.959137 
L 92.911437 -68.044653 
L 90.796081 -68.440063 
L 88.680725 -69.856714 
L 86.565369 -72.941686 
L 84.450012 -79.048955 
L 82.334656 -86.71506 
L 80.2193 -91.525076 
L 78.103943 -90.770745 
L 75.988587 -84.574829 
L 73.873231 -78.214148 
L 71.757875 -74.853345 
L 69.642518 -77.253799 
L 67.527162 -83.873583 
L 65.411806 -90.520707 
L 63.29645 -93.904771 
L 61.181093 -92.207952 
L 59.065737 -85.664645 
L 56.950381 -77.675433 
L 54.835025 -70.231552 
L 52.719668 -63.846197 
L 50.604312 -58.877874 
L 48.488956 -56.037623 
L 46.3736 -55.756742 
L 44.258243 -58.028127 
L 42.142887 -62.001859 
L 40.027531 -66.761255 
L 37.912174 -71.989959 
L 35.796818 -69.961155 
z
" id="m3ca296b815" style="stroke:#2f4858;stroke-opacity:0.7;stroke-width:0.2;"/>
    </defs>
    <g clip-path="url(#p254147d4ed)">
     <use style="fill:#2f4858;fill-opacity:0.7;stroke:#2f4858;stroke-opacity:0.7;stroke-width:0.2;" x="0" xlink:href="#m3ca296b815" y="223.934062"/>
    </g>
   </g>
   <g id="PolyCollection_4">
    <defs>
     <path d="M 35.796818 -61.896774 
L 35.796818 -61.507438 
L 37.912174 -60.942969 
L 40.027531 -54.411351 
L 42.142887 -53.143515 
L 44.258243 -53.479503 
L 46.3736 -53.02819 
L 48.488956 -52.478291 
L 50.604312 -52.646979 
L 52.719668 -54.233779 
L 54.835025 -58.069006 
L 56.950381 -64.25976 
L 59.065737 -71.68779 
L 61.181093 -77.765847 
L 63.29645 -79.536124 
L 65.411806 -75.660196 
L 67.527162 -68.35852 
L 69.642518 -61.291954 
L 71.757875 -57.670431 
L 73.873231 -59.953096 
L 75.988587 -67.428969 
L 78.103943 -74.47444 
L 80.2193 -74.614152 
L 82.334656 -70.372995 
L 84.450012 -65.755235 
L 86.565369 -62.792374 
L 88.680725 -61.44643 
L 90.796081 -58.69375 
L 92.911437 -54.702574 
L 95.026794 -52.111953 
L 97.14215 -50.773838 
L 99.257506 -49.827736 
L 101.372862 -49.582212 
L 103.488219 -49.678609 
L 105.603575 -49.185743 
L 107.718931 -48.393183 
L 109.834287 -48.230984 
L 111.949644 -48.782197 
L 114.065 -48.947407 
L 116.180356 -48.572013 
L 118.295713 -49.009662 
L 120.411069 -51.079407 
L 122.526425 -53.687342 
L 124.641781 -55.674802 
L 126.757138 -55.897782 
L 128.872494 -54.494281 
L 130.98785 -53.132443 
L 133.103206 -52.109232 
L 135.218563 -50.758777 
L 137.333919 -49.179462 
L 139.449275 -47.790031 
L 141.564631 -46.887522 
L 143.679988 -46.730953 
L 145.795344 -47.562345 
L 147.9107 -48.453731 
L 150.026057 -48.589951 
L 152.141413 -47.665518 
L 154.256769 -46.22381 
L 156.372125 -45.20888 
L 158.487482 -45.313708 
L 160.602838 -46.186512 
L 162.718194 -46.642355 
L 164.83355 -46.350287 
L 166.948907 -46.05444 
L 169.064263 -46.641456 
L 171.179619 -47.90524 
L 173.294975 -48.470264 
L 175.410332 -47.810385 
L 177.525688 -46.463602 
L 179.641044 -45.278811 
L 181.7564 -45.483111 
L 183.871757 -47.19023 
L 185.987113 -49.370428 
L 188.102469 -50.679852 
L 190.217826 -51.329347 
L 192.333182 -49.13591 
L 192.333182 -54.018299 
L 192.333182 -54.018299 
L 190.217826 -55.31106 
L 188.102469 -53.921767 
L 185.987113 -52.63288 
L 183.871757 -50.890695 
L 181.7564 -49.874202 
L 179.641044 -50.268334 
L 177.525688 -51.470231 
L 175.410332 -52.156698 
L 173.294975 -51.887847 
L 171.179619 -50.858408 
L 169.064263 -49.792064 
L 166.948907 -49.161802 
L 164.83355 -49.07824 
L 162.718194 -48.807151 
L 160.602838 -48.025999 
L 158.487482 -47.52133 
L 156.372125 -47.893449 
L 154.256769 -48.838793 
L 152.141413 -49.818434 
L 150.026057 -50.374687 
L 147.9107 -50.452669 
L 145.795344 -50.174698 
L 143.679988 -49.753728 
L 141.564631 -50.112009 
L 139.449275 -51.899029 
L 137.333919 -54.467629 
L 135.218563 -56.682045 
L 133.103206 -58.388102 
L 130.98785 -59.984744 
L 128.872494 -61.247098 
L 126.757138 -61.379537 
L 124.641781 -59.991362 
L 122.526425 -57.446465 
L 120.411069 -54.46719 
L 118.295713 -51.878282 
L 116.180356 -50.910085 
L 114.065 -51.160105 
L 111.949644 -51.581309 
L 109.834287 -51.689304 
L 107.718931 -52.07048 
L 105.603575 -53.17915 
L 103.488219 -54.545416 
L 101.372862 -55.340018 
L 99.257506 -56.602263 
L 97.14215 -58.791494 
L 95.026794 -61.330978 
L 92.911437 -64.121318 
L 90.796081 -67.122962 
L 88.680725 -70.864145 
L 86.565369 -75.228422 
L 84.450012 -80.012634 
L 82.334656 -84.420834 
L 80.2193 -84.889255 
L 78.103943 -81.220696 
L 75.988587 -76.111854 
L 73.873231 -72.173011 
L 71.757875 -72.567759 
L 69.642518 -77.62002 
L 67.527162 -85.106969 
L 65.411806 -92.035645 
L 63.29645 -94.538414 
L 61.181093 -89.801456 
L 59.065737 -79.888239 
L 56.950381 -69.122933 
L 54.835025 -61.21407 
L 52.719668 -57.20154 
L 50.604312 -55.808459 
L 48.488956 -55.679674 
L 46.3736 -56.108121 
L 44.258243 -56.837852 
L 42.142887 -58.127252 
L 40.027531 -60.238911 
L 37.912174 -63.700253 
L 35.796818 -61.896774 
z
" id="mf04eec8729" style="stroke:#719e87;stroke-opacity:0.7;stroke-width:0.2;"/>
    </defs>
    <g clip-path="url(#p254147d4ed)">
     <use style="fill:#719e87;fill-opacity:0.7;stroke:#719e87;stroke-opacity:0.7;stroke-width:0.2;" x="0" xlink:href="#mf04eec8729" y="223.934062"/>
    </g>
   </g>
   <g id="matplotlib.axis_3">
    <g id="xtick_5">
     <g id="line2d_22">
      <path clip-path="url(#p254147d4ed)" d="M 46.3736 191.398437 
L 46.3736 119.128437 
" style="fill:none;stroke:#b0b0b0;stroke-linecap:square;stroke-width:0.8;"/>
     </g>
     <g id="line2d_23">
      <g>
       <use style="stroke:#000000;stroke-width:0.8;" x="46.3736" xlink:href="#m5c1a2bdfc9" y="191.398437"/>
      </g>
     </g>
     <g id="text_8">
      <!-- 0.0 -->
      <g transform="translate(40.01235 204.477187)scale(0.08 -0.08)">
       <defs>
        <path d="M 684 794 
L 1344 794 
L 1344 0 
L 684 0 
L 684 794 
z
" id="DejaVuSans-2e" transform="scale(0.015625)"/>
       </defs>
       <use xlink:href="#DejaVuSans-30"/>
       <use x="63.623047" xlink:href="#DejaVuSans-2e"/>
       <use x="95.410156" xlink:href="#DejaVuSans-30"/>
      </g>
     </g>
    </g>
    <g id="xtick_6">
     <g id="line2d_24">
      <path clip-path="url(#p254147d4ed)" d="M 88.680725 191.398437 
L 88.680725 119.128437 
" style="fill:none;stroke:#b0b0b0;stroke-linecap:square;stroke-width:0.8;"/>
     </g>
     <g id="line2d_25">
      <g>
       <use style="stroke:#000000;stroke-width:0.8;" x="88.680725" xlink:href="#m5c1a2bdfc9" y="191.398437"/>
      </g>
     </g>
     <g id="text_9">
      <!-- 0.2 -->
      <g transform="translate(82.319475 204.477187)scale(0.08 -0.08)">
       <use xlink:href="#DejaVuSans-30"/>
       <use x="63.623047" xlink:href="#DejaVuSans-2e"/>
       <use x="95.410156" xlink:href="#DejaVuSans-32"/>
      </g>
     </g>
    </g>
    <g id="xtick_7">
     <g id="line2d_26">
      <path clip-path="url(#p254147d4ed)" d="M 130.98785 191.398437 
L 130.98785 119.128437 
" style="fill:none;stroke:#b0b0b0;stroke-linecap:square;stroke-width:0.8;"/>
     </g>
     <g id="line2d_27">
      <g>
       <use style="stroke:#000000;stroke-width:0.8;" x="130.98785" xlink:href="#m5c1a2bdfc9" y="191.398437"/>
      </g>
     </g>
     <g id="text_10">
      <!-- 0.4 -->
      <g transform="translate(124.6266 204.477187)scale(0.08 -0.08)">
       <use xlink:href="#DejaVuSans-30"/>
       <use x="63.623047" xlink:href="#DejaVuSans-2e"/>
       <use x="95.410156" xlink:href="#DejaVuSans-34"/>
      </g>
     </g>
    </g>
    <g id="xtick_8">
     <g id="line2d_28">
      <path clip-path="url(#p254147d4ed)" d="M 173.294975 191.398437 
L 173.294975 119.128437 
" style="fill:none;stroke:#b0b0b0;stroke-linecap:square;stroke-width:0.8;"/>
     </g>
     <g id="line2d_29">
      <g>
       <use style="stroke:#000000;stroke-width:0.8;" x="173.294975" xlink:href="#m5c1a2bdfc9" y="191.398437"/>
      </g>
     </g>
     <g id="text_11">
      <!-- 0.6 -->
      <g transform="translate(166.933725 204.477187)scale(0.08 -0.08)">
       <defs>
        <path d="M 2113 2584 
Q 1688 2584 1439 2293 
Q 1191 2003 1191 1497 
Q 1191 994 1439 701 
Q 1688 409 2113 409 
Q 2538 409 2786 701 
Q 3034 994 3034 1497 
Q 3034 2003 2786 2293 
Q 2538 2584 2113 2584 
z
M 3366 4563 
L 3366 3988 
Q 3128 4100 2886 4159 
Q 2644 4219 2406 4219 
Q 1781 4219 1451 3797 
Q 1122 3375 1075 2522 
Q 1259 2794 1537 2939 
Q 1816 3084 2150 3084 
Q 2853 3084 3261 2657 
Q 3669 2231 3669 1497 
Q 3669 778 3244 343 
Q 2819 -91 2113 -91 
Q 1303 -91 875 529 
Q 447 1150 447 2328 
Q 447 3434 972 4092 
Q 1497 4750 2381 4750 
Q 2619 4750 2861 4703 
Q 3103 4656 3366 4563 
z
" id="DejaVuSans-36" transform="scale(0.015625)"/>
       </defs>
       <use xlink:href="#DejaVuSans-30"/>
       <use x="63.623047" xlink:href="#DejaVuSans-2e"/>
       <use x="95.410156" xlink:href="#DejaVuSans-36"/>
      </g>
     </g>
    </g>
   </g>
   <g id="matplotlib.axis_4">
    <g id="ytick_6">
     <g id="line2d_30">
      <path clip-path="url(#p254147d4ed)" d="M 27.97 188.113437 
L 200.16 188.113437 
" style="fill:none;stroke:#b0b0b0;stroke-linecap:square;stroke-width:0.8;"/>
     </g>
     <g id="line2d_31">
      <g>
       <use style="stroke:#000000;stroke-width:0.8;" x="27.97" xlink:href="#m85e9013b57" y="188.113437"/>
      </g>
     </g>
     <g id="text_12">
      <!-- 0 -->
      <g transform="translate(15.88 191.152812)scale(0.08 -0.08)">
       <use xlink:href="#DejaVuSans-30"/>
      </g>
     </g>
    </g>
    <g id="ytick_7">
     <g id="line2d_32">
      <path clip-path="url(#p254147d4ed)" d="M 27.97 171.015051 
L 200.16 171.015051 
" style="fill:none;stroke:#b0b0b0;stroke-linecap:square;stroke-width:0.8;"/>
     </g>
     <g id="line2d_33">
      <g>
       <use style="stroke:#000000;stroke-width:0.8;" x="27.97" xlink:href="#m85e9013b57" y="171.015051"/>
      </g>
     </g>
     <g id="text_13">
      <!-- 1 -->
      <g transform="translate(15.88 174.054426)scale(0.08 -0.08)">
       <use xlink:href="#DejaVuSans-31"/>
      </g>
     </g>
    </g>
    <g id="ytick_8">
     <g id="line2d_34">
      <path clip-path="url(#p254147d4ed)" d="M 27.97 153.916665 
L 200.16 153.916665 
" style="fill:none;stroke:#b0b0b0;stroke-linecap:square;stroke-width:0.8;"/>
     </g>
     <g id="line2d_35">
      <g>
       <use style="stroke:#000000;stroke-width:0.8;" x="27.97" xlink:href="#m85e9013b57" y="153.916665"/>
      </g>
     </g>
     <g id="text_14">
      <!-- 2 -->
      <g transform="translate(15.88 156.95604)scale(0.08 -0.08)">
       <use xlink:href="#DejaVuSans-32"/>
      </g>
     </g>
    </g>
    <g id="ytick_9">
     <g id="line2d_36">
      <path clip-path="url(#p254147d4ed)" d="M 27.97 136.818278 
L 200.16 136.818278 
" style="fill:none;stroke:#b0b0b0;stroke-linecap:square;stroke-width:0.8;"/>
     </g>
     <g id="line2d_37">
      <g>
       <use style="stroke:#000000;stroke-width:0.8;" x="27.97" xlink:href="#m85e9013b57" y="136.818278"/>
      </g>
     </g>
     <g id="text_15">
      <!-- 3 -->
      <g transform="translate(15.88 139.857653)scale(0.08 -0.08)">
       <use xlink:href="#DejaVuSans-33"/>
      </g>
     </g>
    </g>
    <g id="ytick_10">
     <g id="line2d_38">
      <path clip-path="url(#p254147d4ed)" d="M 27.97 119.719892 
L 200.16 119.719892 
" style="fill:none;stroke:#b0b0b0;stroke-linecap:square;stroke-width:0.8;"/>
     </g>
     <g id="line2d_39">
      <g>
       <use style="stroke:#000000;stroke-width:0.8;" x="27.97" xlink:href="#m85e9013b57" y="119.719892"/>
      </g>
     </g>
     <g id="text_16">
      <!-- 4 -->
      <g transform="translate(15.88 122.759267)scale(0.08 -0.08)">
       <use xlink:href="#DejaVuSans-34"/>
      </g>
     </g>
    </g>
    <g id="text_17">
     <!-- 1e−4 -->
     <g transform="translate(27.97 116.128437)scale(0.08 -0.08)">
      <use xlink:href="#DejaVuSans-31"/>
      <use x="63.623047" xlink:href="#DejaVuSans-65"/>
      <use x="125.146484" xlink:href="#DejaVuSans-2212"/>
      <use x="208.935547" xlink:href="#DejaVuSans-34"/>
     </g>
    </g>
   </g>
   <g id="line2d_40">
    <path clip-path="url(#p254147d4ed)" d="M 35.796818 154.227564 
L 37.912174 153.713389 
L 40.027531 160.81924 
L 42.142887 165.231392 
L 44.258243 168.475484 
L 46.3736 170.289209 
L 48.488956 169.931155 
L 50.604312 167.30271 
L 52.719668 162.607986 
L 54.835025 156.683168 
L 56.950381 150.086924 
L 59.065737 143.132396 
L 61.181093 137.494232 
L 63.29645 135.922605 
L 65.411806 139.065786 
L 67.527162 145.601013 
L 69.642518 152.156006 
L 71.757875 154.059814 
L 73.873231 149.520727 
L 75.988587 142.313541 
L 78.103943 137.918393 
L 80.2193 140.093001 
L 82.334656 147.081097 
L 84.450012 154.61196 
L 86.565369 159.07793 
L 88.680725 159.943853 
L 90.796081 159.821047 
L 92.911437 160.136977 
L 95.026794 160.435755 
L 97.14215 160.062293 
L 99.257506 159.064612 
L 101.372862 158.044231 
L 103.488219 157.554711 
L 105.603575 157.935688 
L 107.718931 158.941286 
L 109.834287 160.617039 
L 111.949644 162.589147 
L 114.065 164.176097 
L 116.180356 165.050734 
L 118.295713 165.193411 
L 120.411069 164.611649 
L 122.526425 163.603895 
L 124.641781 162.446034 
L 126.757138 161.498845 
L 128.872494 161.138197 
L 130.98785 161.620535 
L 133.103206 162.949107 
L 135.218563 164.867455 
L 137.333919 167.167344 
L 139.449275 169.432426 
L 141.564631 170.842525 
L 143.679988 170.71728 
L 145.795344 169.541798 
L 147.9107 168.58241 
L 150.026057 168.610007 
L 152.141413 169.072375 
L 154.256769 168.795651 
L 156.372125 167.433083 
L 158.487482 165.633459 
L 160.602838 163.382819 
L 162.718194 161.454731 
L 164.83355 160.796111 
L 166.948907 161.328726 
L 169.064263 163.043515 
L 171.179619 165.590667 
L 173.294975 168.21041 
L 175.410332 170.411001 
L 177.525688 172.157825 
L 179.641044 173.282527 
L 181.7564 173.821953 
L 183.871757 173.888868 
L 185.987113 173.072526 
L 188.102469 171.514408 
L 190.217826 168.531217 
L 192.333182 168.895937 
" style="fill:none;stroke:#2f4858;stroke-linecap:square;stroke-width:0.5;"/>
   </g>
   <g id="line2d_41">
    <path clip-path="url(#p254147d4ed)" d="M 35.796818 162.231956 
L 37.912174 161.612452 
L 40.027531 166.608932 
L 42.142887 168.298679 
L 44.258243 168.775385 
L 46.3736 169.365907 
L 48.488956 169.85508 
L 50.604312 169.706343 
L 52.719668 168.216403 
L 54.835025 164.292524 
L 56.950381 157.242716 
L 59.065737 148.146048 
L 61.181093 140.150411 
L 63.29645 136.896793 
L 65.411806 140.086142 
L 67.527162 147.201318 
L 69.642518 154.478076 
L 71.757875 158.814968 
L 73.873231 157.871009 
L 75.988587 152.163651 
L 78.103943 146.086495 
L 80.2193 144.182359 
L 82.334656 146.537148 
L 84.450012 151.050128 
L 86.565369 154.923664 
L 88.680725 157.778775 
L 90.796081 161.025707 
L 92.911437 164.522116 
L 95.026794 167.212597 
L 97.14215 169.151396 
L 99.257506 170.719063 
L 101.372862 171.472948 
L 103.488219 171.82205 
L 105.603575 172.751616 
L 107.718931 173.702231 
L 109.834287 173.973919 
L 111.949644 173.75231 
L 114.065 173.880306 
L 116.180356 174.193013 
L 118.295713 173.490091 
L 120.411069 171.160764 
L 122.526425 168.367159 
L 124.641781 166.100981 
L 126.757138 165.295403 
L 128.872494 166.063373 
L 130.98785 167.375469 
L 133.103206 168.685396 
L 135.218563 170.213651 
L 137.333919 172.110517 
L 139.449275 174.089533 
L 141.564631 175.434297 
L 143.679988 175.691722 
L 145.795344 175.065541 
L 147.9107 174.480863 
L 150.026057 174.451744 
L 152.141413 175.192086 
L 154.256769 176.402761 
L 156.372125 177.382898 
L 158.487482 177.516544 
L 160.602838 176.827807 
L 162.718194 176.209309 
L 164.83355 176.219799 
L 166.948907 176.325942 
L 169.064263 175.717303 
L 171.179619 174.552239 
L 173.294975 173.755007 
L 175.410332 173.950521 
L 177.525688 174.967146 
L 179.641044 176.16049 
L 181.7564 176.255406 
L 183.871757 174.8936 
L 185.987113 172.932409 
L 188.102469 171.633253 
L 190.217826 170.613859 
L 192.333182 172.356958 
" style="fill:none;stroke:#719e87;stroke-linecap:square;stroke-width:0.5;"/>
   </g>
   <g id="line2d_42">
    <path clip-path="url(#p254147d4ed)" d="M 92.911437 188.113437 
L 95.026794 188.113437 
L 97.14215 188.113437 
L 99.257506 188.113437 
L 101.372862 188.113437 
L 103.488219 188.113437 
L 105.603575 188.113437 
L 107.718931 188.113437 
L 109.834287 188.113437 
L 111.949644 188.113437 
L 114.065 188.113437 
L 116.180356 188.113437 
L 118.295713 188.113437 
L 120.411069 188.113437 
L 122.526425 188.113437 
L 124.641781 188.113437 
L 126.757138 188.113437 
L 128.872494 188.113437 
L 130.98785 188.113437 
L 133.103206 188.113437 
L 135.218563 188.113437 
L 137.333919 188.113437 
L 139.449275 188.113437 
L 141.564631 188.113437 
L 143.679988 188.113437 
L 145.795344 188.113437 
L 147.9107 188.113437 
L 150.026057 188.113437 
L 152.141413 188.113437 
L 154.256769 188.113437 
L 156.372125 188.113437 
L 158.487482 188.113437 
L 160.602838 188.113437 
L 162.718194 188.113437 
L 164.83355 188.113437 
L 166.948907 188.113437 
L 169.064263 188.113437 
L 171.179619 188.113437 
L 173.294975 188.113437 
L 175.410332 188.113437 
L 177.525688 188.113437 
L 179.641044 188.113437 
L 181.7564 188.113437 
L 183.871757 188.113437 
" style="fill:none;stroke:#ff0000;stroke-linecap:square;stroke-width:2;"/>
   </g>
   <g id="patch_5">
    <path d="M 27.97 191.398437 
L 200.16 191.398437 
" style="fill:none;stroke:#000000;stroke-linecap:square;stroke-linejoin:miter;stroke-width:0.8;"/>
   </g>
   <g id="text_18">
    <!-- Phoneme Features -->
    <g transform="translate(67.54625 113.128437)scale(0.1 -0.1)">
     <defs>
      <path d="M 1259 4147 
L 1259 2394 
L 2053 2394 
Q 2494 2394 2734 2622 
Q 2975 2850 2975 3272 
Q 2975 3691 2734 3919 
Q 2494 4147 2053 4147 
L 1259 4147 
z
M 628 4666 
L 2053 4666 
Q 2838 4666 3239 4311 
Q 3641 3956 3641 3272 
Q 3641 2581 3239 2228 
Q 2838 1875 2053 1875 
L 1259 1875 
L 1259 0 
L 628 0 
L 628 4666 
z
" id="DejaVuSans-50" transform="scale(0.015625)"/>
      <path d="M 3513 2113 
L 3513 0 
L 2938 0 
L 2938 2094 
Q 2938 2591 2744 2837 
Q 2550 3084 2163 3084 
Q 1697 3084 1428 2787 
Q 1159 2491 1159 1978 
L 1159 0 
L 581 0 
L 581 4863 
L 1159 4863 
L 1159 2956 
Q 1366 3272 1645 3428 
Q 1925 3584 2291 3584 
Q 2894 3584 3203 3211 
Q 3513 2838 3513 2113 
z
" id="DejaVuSans-68" transform="scale(0.015625)"/>
      <path d="M 3513 2113 
L 3513 0 
L 2938 0 
L 2938 2094 
Q 2938 2591 2744 2837 
Q 2550 3084 2163 3084 
Q 1697 3084 1428 2787 
Q 1159 2491 1159 1978 
L 1159 0 
L 581 0 
L 581 3500 
L 1159 3500 
L 1159 2956 
Q 1366 3272 1645 3428 
Q 1925 3584 2291 3584 
Q 2894 3584 3203 3211 
Q 3513 2838 3513 2113 
z
" id="DejaVuSans-6e" transform="scale(0.015625)"/>
      <path d="M 3328 2828 
Q 3544 3216 3844 3400 
Q 4144 3584 4550 3584 
Q 5097 3584 5394 3201 
Q 5691 2819 5691 2113 
L 5691 0 
L 5113 0 
L 5113 2094 
Q 5113 2597 4934 2840 
Q 4756 3084 4391 3084 
Q 3944 3084 3684 2787 
Q 3425 2491 3425 1978 
L 3425 0 
L 2847 0 
L 2847 2094 
Q 2847 2600 2669 2842 
Q 2491 3084 2119 3084 
Q 1678 3084 1418 2786 
Q 1159 2488 1159 1978 
L 1159 0 
L 581 0 
L 581 3500 
L 1159 3500 
L 1159 2956 
Q 1356 3278 1631 3431 
Q 1906 3584 2284 3584 
Q 2666 3584 2933 3390 
Q 3200 3197 3328 2828 
z
" id="DejaVuSans-6d" transform="scale(0.015625)"/>
      <path d="M 628 4666 
L 3309 4666 
L 3309 4134 
L 1259 4134 
L 1259 2759 
L 3109 2759 
L 3109 2228 
L 1259 2228 
L 1259 0 
L 628 0 
L 628 4666 
z
" id="DejaVuSans-46" transform="scale(0.015625)"/>
      <path d="M 2194 1759 
Q 1497 1759 1228 1600 
Q 959 1441 959 1056 
Q 959 750 1161 570 
Q 1363 391 1709 391 
Q 2188 391 2477 730 
Q 2766 1069 2766 1631 
L 2766 1759 
L 2194 1759 
z
M 3341 1997 
L 3341 0 
L 2766 0 
L 2766 531 
Q 2569 213 2275 61 
Q 1981 -91 1556 -91 
Q 1019 -91 701 211 
Q 384 513 384 1019 
Q 384 1609 779 1909 
Q 1175 2209 1959 2209 
L 2766 2209 
L 2766 2266 
Q 2766 2663 2505 2880 
Q 2244 3097 1772 3097 
Q 1472 3097 1187 3025 
Q 903 2953 641 2809 
L 641 3341 
Q 956 3463 1253 3523 
Q 1550 3584 1831 3584 
Q 2591 3584 2966 3190 
Q 3341 2797 3341 1997 
z
" id="DejaVuSans-61" transform="scale(0.015625)"/>
      <path d="M 2631 2963 
Q 2534 3019 2420 3045 
Q 2306 3072 2169 3072 
Q 1681 3072 1420 2755 
Q 1159 2438 1159 1844 
L 1159 0 
L 581 0 
L 581 3500 
L 1159 3500 
L 1159 2956 
Q 1341 3275 1631 3429 
Q 1922 3584 2338 3584 
Q 2397 3584 2469 3576 
Q 2541 3569 2628 3553 
L 2631 2963 
z
" id="DejaVuSans-72" transform="scale(0.015625)"/>
     </defs>
     <use xlink:href="#DejaVuSans-50"/>
     <use x="60.302734" xlink:href="#DejaVuSans-68"/>
     <use x="123.681641" xlink:href="#DejaVuSans-6f"/>
     <use x="184.863281" xlink:href="#DejaVuSans-6e"/>
     <use x="248.242188" xlink:href="#DejaVuSans-65"/>
     <use x="309.765625" xlink:href="#DejaVuSans-6d"/>
     <use x="407.177734" xlink:href="#DejaVuSans-65"/>
     <use x="468.701172" xlink:href="#DejaVuSans-20"/>
     <use x="500.488281" xlink:href="#DejaVuSans-46"/>
     <use x="552.507812" xlink:href="#DejaVuSans-65"/>
     <use x="614.03125" xlink:href="#DejaVuSans-61"/>
     <use x="675.310547" xlink:href="#DejaVuSans-74"/>
     <use x="714.519531" xlink:href="#DejaVuSans-75"/>
     <use x="777.898438" xlink:href="#DejaVuSans-72"/>
     <use x="816.761719" xlink:href="#DejaVuSans-65"/>
     <use x="878.285156" xlink:href="#DejaVuSans-73"/>
    </g>
   </g>
  </g>
  <g id="text_19">
   <!-- Time (sec) -->
   <g transform="translate(76.614375 214.238437)scale(0.12 -0.12)">
    <defs>
     <path d="M -19 4666 
L 3928 4666 
L 3928 4134 
L 2272 4134 
L 2272 0 
L 1638 0 
L 1638 4134 
L -19 4134 
L -19 4666 
z
" id="DejaVuSans-54" transform="scale(0.015625)"/>
     <path d="M 1984 4856 
Q 1566 4138 1362 3434 
Q 1159 2731 1159 2009 
Q 1159 1288 1364 580 
Q 1569 -128 1984 -844 
L 1484 -844 
Q 1016 -109 783 600 
Q 550 1309 550 2009 
Q 550 2706 781 3412 
Q 1013 4119 1484 4856 
L 1984 4856 
z
" id="DejaVuSans-28" transform="scale(0.015625)"/>
     <path d="M 513 4856 
L 1013 4856 
Q 1481 4119 1714 3412 
Q 1947 2706 1947 2009 
Q 1947 1309 1714 600 
Q 1481 -109 1013 -844 
L 513 -844 
Q 928 -128 1133 580 
Q 1338 1288 1338 2009 
Q 1338 2731 1133 3434 
Q 928 4138 513 4856 
z
" id="DejaVuSans-29" transform="scale(0.015625)"/>
    </defs>
    <use xlink:href="#DejaVuSans-54"/>
    <use x="57.958984" xlink:href="#DejaVuSans-69"/>
    <use x="85.742188" xlink:href="#DejaVuSans-6d"/>
    <use x="183.154297" xlink:href="#DejaVuSans-65"/>
    <use x="244.677734" xlink:href="#DejaVuSans-20"/>
    <use x="276.464844" xlink:href="#DejaVuSans-28"/>
    <use x="315.478516" xlink:href="#DejaVuSans-73"/>
    <use x="367.578125" xlink:href="#DejaVuSans-65"/>
    <use x="429.101562" xlink:href="#DejaVuSans-63"/>
    <use x="484.082031" xlink:href="#DejaVuSans-29"/>
   </g>
  </g>
  <g id="text_20">
   <!-- Power of Weights $\mathregular{\sqrt{w^{2}}}$ -->
   <g transform="translate(22.56 173.978437)rotate(-90)scale(0.12 -0.12)">
    <defs>
     <path d="M 269 3500 
L 844 3500 
L 1563 769 
L 2278 3500 
L 2956 3500 
L 3675 769 
L 4391 3500 
L 4966 3500 
L 4050 0 
L 3372 0 
L 2619 2869 
L 1863 0 
L 1184 0 
L 269 3500 
z
" id="DejaVuSans-77" transform="scale(0.015625)"/>
     <path d="M 2375 4863 
L 2375 4384 
L 1825 4384 
Q 1516 4384 1395 4259 
Q 1275 4134 1275 3809 
L 1275 3500 
L 2222 3500 
L 2222 3053 
L 1275 3053 
L 1275 0 
L 697 0 
L 697 3053 
L 147 3053 
L 147 3500 
L 697 3500 
L 697 3744 
Q 697 4328 969 4595 
Q 1241 4863 1831 4863 
L 2375 4863 
z
" id="DejaVuSans-66" transform="scale(0.015625)"/>
     <path d="M 213 4666 
L 850 4666 
L 1831 722 
L 2809 4666 
L 3519 4666 
L 4500 722 
L 5478 4666 
L 6119 4666 
L 4947 0 
L 4153 0 
L 3169 4050 
L 2175 0 
L 1381 0 
L 213 4666 
z
" id="DejaVuSans-57" transform="scale(0.015625)"/>
     <path d="M 6970 9933 
L 3373 -1888 
L 3104 -1888 
L 1626 2918 
Q 1555 3149 1465 3251 
Q 1376 3354 1229 3354 
Q 1011 3354 794 3181 
L 717 3309 
L 1766 4115 
L 1926 4115 
L 3379 -602 
L 3405 -602 
L 6605 9933 
L 6970 9933 
z
" id="STIXSizeOneSym-Regular-221a" transform="scale(0.015625)"/>
    </defs>
    <use transform="translate(0 0.09375)" xlink:href="#DejaVuSans-50"/>
    <use transform="translate(60.302734 0.09375)" xlink:href="#DejaVuSans-6f"/>
    <use transform="translate(121.484375 0.09375)" xlink:href="#DejaVuSans-77"/>
    <use transform="translate(203.271484 0.09375)" xlink:href="#DejaVuSans-65"/>
    <use transform="translate(264.794922 0.09375)" xlink:href="#DejaVuSans-72"/>
    <use transform="translate(305.908203 0.09375)" xlink:href="#DejaVuSans-20"/>
    <use transform="translate(337.695312 0.09375)" xlink:href="#DejaVuSans-6f"/>
    <use transform="translate(398.876953 0.09375)" xlink:href="#DejaVuSans-66"/>
    <use transform="translate(434.082031 0.09375)" xlink:href="#DejaVuSans-20"/>
    <use transform="translate(465.869141 0.09375)" xlink:href="#DejaVuSans-57"/>
    <use transform="translate(564.746094 0.09375)" xlink:href="#DejaVuSans-65"/>
    <use transform="translate(626.269531 0.09375)" xlink:href="#DejaVuSans-69"/>
    <use transform="translate(654.052734 0.09375)" xlink:href="#DejaVuSans-67"/>
    <use transform="translate(717.529297 0.09375)" xlink:href="#DejaVuSans-68"/>
    <use transform="translate(780.908203 0.09375)" xlink:href="#DejaVuSans-74"/>
    <use transform="translate(820.117188 0.09375)" xlink:href="#DejaVuSans-73"/>
    <use transform="translate(872.216797 0.09375)" xlink:href="#DejaVuSans-20"/>
    <use transform="translate(904.003906 19.5625)scale(0.657728)" xlink:href="#STIXSizeOneSym-Regular-221a"/>
    <use transform="translate(986.001648 0.515625)" xlink:href="#DejaVuSans-77"/>
    <use transform="translate(1068.745789 38.796875)scale(0.7)" xlink:href="#DejaVuSans-32"/>
    <path d="M 973.501648 115.5 
L 973.501648 121.75 
L 1128.516296 121.75 
L 1128.516296 115.5 
L 973.501648 115.5 
z
"/>
   </g>
  </g>
 </g>
 <defs>
  <clipPath id="p9811bc4e31">
   <rect height="72.27" width="172.19" x="27.97" y="20.798438"/>
  </clipPath>
  <clipPath id="p254147d4ed">
   <rect height="72.27" width="172.19" x="27.97" y="119.128437"/>
  </clipPath>
 </defs>
</svg>
