<?xml version="1.0" encoding="utf-8" standalone="no"?>
<!DOCTYPE svg PUBLIC "-//W3C//DTD SVG 1.1//EN"
  "http://www.w3.org/Graphics/SVG/1.1/DTD/svg11.dtd">
<svg height="223.934062pt" version="1.1" viewBox="0 0 207.36 223.934062" width="207.36pt" xmlns="http://www.w3.org/2000/svg" xmlns:xlink="http://www.w3.org/1999/xlink">
 <metadata>
  <rdf:RDF xmlns:cc="http://creativecommons.org/ns#" xmlns:dc="http://purl.org/dc/elements/1.1/" xmlns:rdf="http://www.w3.org/1999/02/22-rdf-syntax-ns#">
   <cc:Work>
    <dc:type rdf:resource="http://purl.org/dc/dcmitype/StillImage"/>
    <dc:date>2026-02-11T16:17:16.734204</dc:date>
    <dc:format>image/svg+xml</dc:format>
    <dc:creator>
     <cc:Agent>
      <dc:title>Matplotlib v3.4.2, https://matplotlib.org/</dc:title>
     </cc:Agent>
    </dc:creator>
   </cc:Work>
  </rdf:RDF>
 </metadata>
 <defs>
  <style type="text/css">*{stroke-linecap:butt;stroke-linejoin:round;}</style>
 </defs>
 <g id="figure_1">
  <g id="patch_1">
   <path d="M -0 223.934062 
L 207.36 223.934062 
L 207.36 0 
L -0 0 
z
" style="fill:none;"/>
  </g>
  <g id="axes_1">
   <g id="patch_2">
    <path d="M 35.62 93.068437 
L 200.16 93.068437 
L 200.16 20.798438 
L 35.62 20.798438 
z
" style="fill:none;"/>
   </g>
   <g id="PolyCollection_1">
    <defs>
     <path d="M 43.099091 -158.5205 
L 43.099091 -158.038829 
L 45.120467 -153.817801 
L 47.141843 -147.749044 
L 49.163219 -151.187503 
L 51.184595 -157.219198 
L 53.205971 -163.285104 
L 55.227346 -166.676287 
L 57.248722 -162.776735 
L 59.270098 -154.716602 
L 61.291474 -150.883194 
L 63.31285 -154.816143 
L 65.334226 -162.725992 
L 67.355602 -170.170281 
L 69.376978 -176.83646 
L 71.398354 -179.249724 
L 73.41973 -173.38262 
L 75.441106 -162.950952 
L 77.462482 -155.839776 
L 79.483857 -154.603724 
L 81.505233 -156.487675 
L 83.526609 -158.257909 
L 85.547985 -159.704246 
L 87.569361 -159.865717 
L 89.590737 -157.262512 
L 91.612113 -153.156166 
L 93.633489 -149.614043 
L 95.654865 -147.251347 
L 97.676241 -145.729061 
L 99.697617 -144.586847 
L 101.718993 -143.767499 
L 103.740369 -143.203234 
L 105.761744 -142.744176 
L 107.78312 -142.319378 
L 109.804496 -141.907221 
L 111.825872 -141.58804 
L 113.847248 -141.352111 
L 115.868624 -141.191952 
L 117.89 -141.079008 
L 119.911376 -140.979015 
L 121.932752 -140.850874 
L 123.954128 -140.710735 
L 125.975504 -140.607401 
L 127.99688 -140.46658 
L 130.018256 -140.311067 
L 132.039631 -140.292181 
L 134.061007 -140.316333 
L 136.082383 -140.210893 
L 138.103759 -140.060957 
L 140.125135 -139.958171 
L 142.146511 -139.933428 
L 144.167887 -139.918734 
L 146.189263 -139.886174 
L 148.210639 -139.894057 
L 150.232015 -140.027524 
L 152.253391 -140.131806 
L 154.274767 -140.146883 
L 156.296143 -140.190759 
L 158.317518 -140.305824 
L 160.338894 -140.344029 
L 162.36027 -140.178956 
L 164.381646 -140.037905 
L 166.403022 -140.037413 
L 168.424398 -140.009698 
L 170.445774 -139.773356 
L 172.46715 -139.485535 
L 174.488526 -139.313175 
L 176.509902 -139.183308 
L 178.531278 -139.09647 
L 180.552654 -139.031721 
L 182.574029 -138.922956 
L 184.595405 -138.876249 
L 186.616781 -138.866765 
L 188.638157 -138.885426 
L 190.659533 -140.254872 
L 192.680909 -141.065476 
L 192.680909 -141.862772 
L 192.680909 -141.862772 
L 190.659533 -141.142637 
L 188.638157 -139.837706 
L 186.616781 -139.891663 
L 184.595405 -139.915598 
L 182.574029 -139.905329 
L 180.552654 -139.964832 
L 178.531278 -140.052808 
L 176.509902 -140.201327 
L 174.488526 -140.448522 
L 172.46715 -140.719372 
L 170.445774 -140.889342 
L 168.424398 -140.965354 
L 166.403022 -140.945242 
L 164.381646 -140.961948 
L 162.36027 -141.076533 
L 160.338894 -141.237344 
L 158.317518 -141.266285 
L 156.296143 -141.176966 
L 154.274767 -141.10531 
L 152.253391 -141.108893 
L 150.232015 -141.119072 
L 148.210639 -141.057722 
L 146.189263 -141.039106 
L 144.167887 -141.03602 
L 142.146511 -141.024326 
L 140.125135 -140.995559 
L 138.103759 -140.988027 
L 136.082383 -141.109009 
L 134.061007 -141.361698 
L 132.039631 -141.531708 
L 130.018256 -141.663079 
L 127.99688 -141.798826 
L 125.975504 -141.860759 
L 123.954128 -141.905359 
L 121.932752 -141.950788 
L 119.911376 -142.084316 
L 117.89 -142.368338 
L 115.868624 -142.84092 
L 113.847248 -143.370792 
L 111.825872 -143.886833 
L 109.804496 -144.384333 
L 107.78312 -144.83037 
L 105.761744 -145.281125 
L 103.740369 -145.962312 
L 101.718993 -146.996412 
L 99.697617 -148.504708 
L 97.676241 -150.643046 
L 95.654865 -153.473814 
L 93.633489 -157.239316 
L 91.612113 -161.984777 
L 89.590737 -166.631847 
L 87.569361 -169.289573 
L 85.547985 -168.601924 
L 83.526609 -165.747066 
L 81.505233 -163.970007 
L 79.483857 -165.344025 
L 77.462482 -170.022704 
L 75.441106 -178.74428 
L 73.41973 -189.866348 
L 71.398354 -196.130354 
L 69.376978 -192.181377 
L 67.355602 -181.795799 
L 65.334226 -170.705127 
L 63.31285 -164.250319 
L 61.291474 -163.184374 
L 59.270098 -166.070841 
L 57.248722 -170.827753 
L 55.227346 -172.249115 
L 53.205971 -167.570759 
L 51.184595 -160.489382 
L 49.163219 -155.561982 
L 47.141843 -154.160534 
L 45.120467 -157.121765 
L 43.099091 -158.5205 
z
" id="m135a0dd307"/>
    </defs>
    <g clip-path="url(#p21466d77d7)">
     <use style="fill:#d9a359;fill-opacity:0.7;" x="0" xlink:href="#m135a0dd307" y="223.934062"/>
    </g>
   </g>
   <g id="PolyCollection_2">
    <defs>
     <path d="M 43.099091 -157.189798 
L 43.099091 -156.408564 
L 45.120467 -151.562225 
L 47.141843 -145.803568 
L 49.163219 -152.269579 
L 51.184595 -161.201363 
L 53.205971 -166.33428 
L 55.227346 -167.50157 
L 57.248722 -163.355848 
L 59.270098 -156.079346 
L 61.291474 -152.422035 
L 63.31285 -156.522739 
L 65.334226 -165.692757 
L 67.355602 -174.552808 
L 69.376978 -182.492321 
L 71.398354 -186.653024 
L 73.41973 -182.793366 
L 75.441106 -171.655233 
L 77.462482 -160.973791 
L 79.483857 -156.400699 
L 81.505233 -155.338217 
L 83.526609 -154.111722 
L 85.547985 -153.715357 
L 87.569361 -154.34932 
L 89.590737 -154.295026 
L 91.612113 -152.199374 
L 93.633489 -148.953248 
L 95.654865 -146.284751 
L 97.676241 -144.695796 
L 99.697617 -144.066897 
L 101.718993 -143.996308 
L 103.740369 -144.043528 
L 105.761744 -143.809678 
L 107.78312 -142.878354 
L 109.804496 -141.744383 
L 111.825872 -141.123657 
L 113.847248 -141.010039 
L 115.868624 -141.012019 
L 117.89 -140.91476 
L 119.911376 -140.747032 
L 121.932752 -140.539324 
L 123.954128 -140.341123 
L 125.975504 -140.210029 
L 127.99688 -140.145345 
L 130.018256 -140.091468 
L 132.039631 -139.976578 
L 134.061007 -139.852933 
L 136.082383 -139.734852 
L 138.103759 -139.65106 
L 140.125135 -139.616858 
L 142.146511 -139.65128 
L 144.167887 -139.654361 
L 146.189263 -139.534548 
L 148.210639 -139.390047 
L 150.232015 -139.365841 
L 152.253391 -139.536484 
L 154.274767 -139.951719 
L 156.296143 -140.561806 
L 158.317518 -140.997055 
L 160.338894 -141.050993 
L 162.36027 -140.756756 
L 164.381646 -140.21227 
L 166.403022 -139.744463 
L 168.424398 -139.572442 
L 170.445774 -139.642067 
L 172.46715 -139.68724 
L 174.488526 -139.56445 
L 176.509902 -139.349799 
L 178.531278 -139.0893 
L 180.552654 -138.952282 
L 182.574029 -139.021933 
L 184.595405 -139.111933 
L 186.616781 -139.099513 
L 188.638157 -139.284905 
L 190.659533 -141.170718 
L 192.680909 -142.207806 
L 192.680909 -142.980076 
L 192.680909 -142.980076 
L 190.659533 -142.013967 
L 188.638157 -140.266 
L 186.616781 -140.058372 
L 184.595405 -139.91579 
L 182.574029 -139.72121 
L 180.552654 -139.790771 
L 178.531278 -140.14707 
L 176.509902 -140.500993 
L 174.488526 -140.633055 
L 172.46715 -140.594618 
L 170.445774 -140.620994 
L 168.424398 -140.876234 
L 166.403022 -141.373319 
L 164.381646 -141.949654 
L 162.36027 -142.375196 
L 160.338894 -142.443625 
L 158.317518 -142.200678 
L 156.296143 -141.667232 
L 154.274767 -141.097666 
L 152.253391 -140.728087 
L 150.232015 -140.507988 
L 148.210639 -140.423694 
L 146.189263 -140.529656 
L 144.167887 -140.749863 
L 142.146511 -140.900671 
L 140.125135 -141.004832 
L 138.103759 -141.217927 
L 136.082383 -141.476556 
L 134.061007 -141.627564 
L 132.039631 -141.633068 
L 130.018256 -141.564891 
L 127.99688 -141.449925 
L 125.975504 -141.369923 
L 123.954128 -141.495676 
L 121.932752 -141.744262 
L 119.911376 -142.004229 
L 117.89 -142.163591 
L 115.868624 -142.324098 
L 113.847248 -142.640122 
L 111.825872 -143.228807 
L 109.804496 -144.099144 
L 107.78312 -145.0574 
L 105.761744 -145.718467 
L 103.740369 -145.906593 
L 101.718993 -146.097295 
L 99.697617 -146.798217 
L 97.676241 -148.424811 
L 95.654865 -151.063232 
L 93.633489 -154.471123 
L 91.612113 -158.164944 
L 89.590737 -161.086604 
L 87.569361 -162.682493 
L 85.547985 -163.131606 
L 83.526609 -163.0212 
L 81.505233 -163.724302 
L 79.483857 -167.579519 
L 77.462482 -174.781126 
L 75.441106 -185.002527 
L 73.41973 -195.562386 
L 71.398354 -199.850625 
L 69.376978 -195.790758 
L 67.355602 -185.778427 
L 65.334226 -174.669735 
L 63.31285 -167.910575 
L 61.291474 -166.354278 
L 59.270098 -168.95697 
L 57.248722 -173.185012 
L 55.227346 -174.768098 
L 53.205971 -171.571226 
L 51.184595 -165.097036 
L 49.163219 -159.439525 
L 47.141843 -156.35483 
L 45.120467 -156.942644 
L 43.099091 -157.189798 
z
" id="m754d28206f"/>
    </defs>
    <g clip-path="url(#p21466d77d7)">
     <use style="fill:#2f4858;fill-opacity:0.7;" x="0" xlink:href="#m754d28206f" y="223.934062"/>
    </g>
   </g>
   <g id="matplotlib.axis_1">
    <g id="xtick_1">
     <g id="line2d_1">
      <path clip-path="url(#p21466d77d7)" d="M 53.205971 93.068437 
L 53.205971 20.798438 
" style="fill:none;stroke:#b0b0b0;stroke-linecap:square;stroke-width:0.8;"/>
     </g>
     <g id="line2d_2">
      <defs>
       <path d="M 0 0 
L 0 3.5 
" id="m7b8c1caeea" style="stroke:#000000;stroke-width:0.8;"/>
      </defs>
      <g>
       <use style="stroke:#000000;stroke-width:0.8;" x="53.205971" xlink:href="#m7b8c1caeea" y="93.068437"/>
      </g>
     </g>
    </g>
    <g id="xtick_2">
     <g id="line2d_3">
      <path clip-path="url(#p21466d77d7)" d="M 93.633489 93.068437 
L 93.633489 20.798438 
" style="fill:none;stroke:#b0b0b0;stroke-linecap:square;stroke-width:0.8;"/>
     </g>
     <g id="line2d_4">
      <g>
       <use style="stroke:#000000;stroke-width:0.8;" x="93.633489" xlink:href="#m7b8c1caeea" y="93.068437"/>
      </g>
     </g>
    </g>
    <g id="xtick_3">
     <g id="line2d_5">
      <path clip-path="url(#p21466d77d7)" d="M 134.061007 93.068437 
L 134.061007 20.798438 
" style="fill:none;stroke:#b0b0b0;stroke-linecap:square;stroke-width:0.8;"/>
     </g>
     <g id="line2d_6">
      <g>
       <use style="stroke:#000000;stroke-width:0.8;" x="134.061007" xlink:href="#m7b8c1caeea" y="93.068437"/>
      </g>
     </g>
    </g>
    <g id="xtick_4">
     <g id="line2d_7">
      <path clip-path="url(#p21466d77d7)" d="M 174.488526 93.068437 
L 174.488526 20.798438 
" style="fill:none;stroke:#b0b0b0;stroke-linecap:square;stroke-width:0.8;"/>
     </g>
     <g id="line2d_8">
      <g>
       <use style="stroke:#000000;stroke-width:0.8;" x="174.488526" xlink:href="#m7b8c1caeea" y="93.068437"/>
      </g>
     </g>
    </g>
   </g>
   <g id="matplotlib.axis_2">
    <g id="ytick_1">
     <g id="line2d_9">
      <path clip-path="url(#p21466d77d7)" d="M 35.62 89.783437 
L 200.16 89.783437 
" style="fill:none;stroke:#b0b0b0;stroke-linecap:square;stroke-width:0.8;"/>
     </g>
     <g id="line2d_10">
      <defs>
       <path d="M 0 0 
L -3.5 0 
" id="mc6f6281e1c" style="stroke:#000000;stroke-width:0.8;"/>
      </defs>
      <g>
       <use style="stroke:#000000;stroke-width:0.8;" x="35.62" xlink:href="#mc6f6281e1c" y="89.783437"/>
      </g>
     </g>
     <g id="text_1">
      <!-- 0.0 -->
      <g transform="translate(15.8975 92.822812)scale(0.08 -0.08)">
       <defs>
        <path d="M 2034 4250 
Q 1547 4250 1301 3770 
Q 1056 3291 1056 2328 
Q 1056 1369 1301 889 
Q 1547 409 2034 409 
Q 2525 409 2770 889 
Q 3016 1369 3016 2328 
Q 3016 3291 2770 3770 
Q 2525 4250 2034 4250 
z
M 2034 4750 
Q 2819 4750 3233 4129 
Q 3647 3509 3647 2328 
Q 3647 1150 3233 529 
Q 2819 -91 2034 -91 
Q 1250 -91 836 529 
Q 422 1150 422 2328 
Q 422 3509 836 4129 
Q 1250 4750 2034 4750 
z
" id="DejaVuSans-30" transform="scale(0.015625)"/>
        <path d="M 684 794 
L 1344 794 
L 1344 0 
L 684 0 
L 684 794 
z
" id="DejaVuSans-2e" transform="scale(0.015625)"/>
       </defs>
       <use xlink:href="#DejaVuSans-30"/>
       <use x="63.623047" xlink:href="#DejaVuSans-2e"/>
       <use x="95.410156" xlink:href="#DejaVuSans-30"/>
      </g>
     </g>
    </g>
    <g id="ytick_2">
     <g id="line2d_11">
      <path clip-path="url(#p21466d77d7)" d="M 35.62 71.050304 
L 200.16 71.050304 
" style="fill:none;stroke:#b0b0b0;stroke-linecap:square;stroke-width:0.8;"/>
     </g>
     <g id="line2d_12">
      <g>
       <use style="stroke:#000000;stroke-width:0.8;" x="35.62" xlink:href="#mc6f6281e1c" y="71.050304"/>
      </g>
     </g>
     <g id="text_2">
      <!-- 1.5 -->
      <g transform="translate(15.8975 74.089679)scale(0.08 -0.08)">
       <defs>
        <path d="M 794 531 
L 1825 531 
L 1825 4091 
L 703 3866 
L 703 4441 
L 1819 4666 
L 2450 4666 
L 2450 531 
L 3481 531 
L 3481 0 
L 794 0 
L 794 531 
z
" id="DejaVuSans-31" transform="scale(0.015625)"/>
        <path d="M 691 4666 
L 3169 4666 
L 3169 4134 
L 1269 4134 
L 1269 2991 
Q 1406 3038 1543 3061 
Q 1681 3084 1819 3084 
Q 2600 3084 3056 2656 
Q 3513 2228 3513 1497 
Q 3513 744 3044 326 
Q 2575 -91 1722 -91 
Q 1428 -91 1123 -41 
Q 819 9 494 109 
L 494 744 
Q 775 591 1075 516 
Q 1375 441 1709 441 
Q 2250 441 2565 725 
Q 2881 1009 2881 1497 
Q 2881 1984 2565 2268 
Q 2250 2553 1709 2553 
Q 1456 2553 1204 2497 
Q 953 2441 691 2322 
L 691 4666 
z
" id="DejaVuSans-35" transform="scale(0.015625)"/>
       </defs>
       <use xlink:href="#DejaVuSans-31"/>
       <use x="63.623047" xlink:href="#DejaVuSans-2e"/>
       <use x="95.410156" xlink:href="#DejaVuSans-35"/>
      </g>
     </g>
    </g>
    <g id="ytick_3">
     <g id="line2d_13">
      <path clip-path="url(#p21466d77d7)" d="M 35.62 52.317171 
L 200.16 52.317171 
" style="fill:none;stroke:#b0b0b0;stroke-linecap:square;stroke-width:0.8;"/>
     </g>
     <g id="line2d_14">
      <g>
       <use style="stroke:#000000;stroke-width:0.8;" x="35.62" xlink:href="#mc6f6281e1c" y="52.317171"/>
      </g>
     </g>
     <g id="text_3">
      <!-- 3.0 -->
      <g transform="translate(15.8975 55.356546)scale(0.08 -0.08)">
       <defs>
        <path d="M 2597 2516 
Q 3050 2419 3304 2112 
Q 3559 1806 3559 1356 
Q 3559 666 3084 287 
Q 2609 -91 1734 -91 
Q 1441 -91 1130 -33 
Q 819 25 488 141 
L 488 750 
Q 750 597 1062 519 
Q 1375 441 1716 441 
Q 2309 441 2620 675 
Q 2931 909 2931 1356 
Q 2931 1769 2642 2001 
Q 2353 2234 1838 2234 
L 1294 2234 
L 1294 2753 
L 1863 2753 
Q 2328 2753 2575 2939 
Q 2822 3125 2822 3475 
Q 2822 3834 2567 4026 
Q 2313 4219 1838 4219 
Q 1578 4219 1281 4162 
Q 984 4106 628 3988 
L 628 4550 
Q 988 4650 1302 4700 
Q 1616 4750 1894 4750 
Q 2613 4750 3031 4423 
Q 3450 4097 3450 3541 
Q 3450 3153 3228 2886 
Q 3006 2619 2597 2516 
z
" id="DejaVuSans-33" transform="scale(0.015625)"/>
       </defs>
       <use xlink:href="#DejaVuSans-33"/>
       <use x="63.623047" xlink:href="#DejaVuSans-2e"/>
       <use x="95.410156" xlink:href="#DejaVuSans-30"/>
      </g>
     </g>
    </g>
    <g id="ytick_4">
     <g id="line2d_15">
      <path clip-path="url(#p21466d77d7)" d="M 35.62 33.584037 
L 200.16 33.584037 
" style="fill:none;stroke:#b0b0b0;stroke-linecap:square;stroke-width:0.8;"/>
     </g>
     <g id="line2d_16">
      <g>
       <use style="stroke:#000000;stroke-width:0.8;" x="35.62" xlink:href="#mc6f6281e1c" y="33.584037"/>
      </g>
     </g>
     <g id="text_4">
      <!-- 4.5 -->
      <g transform="translate(15.8975 36.623412)scale(0.08 -0.08)">
       <defs>
        <path d="M 2419 4116 
L 825 1625 
L 2419 1625 
L 2419 4116 
z
M 2253 4666 
L 3047 4666 
L 3047 1625 
L 3713 1625 
L 3713 1100 
L 3047 1100 
L 3047 0 
L 2419 0 
L 2419 1100 
L 313 1100 
L 313 1709 
L 2253 4666 
z
" id="DejaVuSans-34" transform="scale(0.015625)"/>
       </defs>
       <use xlink:href="#DejaVuSans-34"/>
       <use x="63.623047" xlink:href="#DejaVuSans-2e"/>
       <use x="95.410156" xlink:href="#DejaVuSans-35"/>
      </g>
     </g>
    </g>
    <g id="text_5">
     <!-- 1e−4 -->
     <g transform="translate(35.62 17.798438)scale(0.08 -0.08)">
      <defs>
       <path d="M 3597 1894 
L 3597 1613 
L 953 1613 
Q 991 1019 1311 708 
Q 1631 397 2203 397 
Q 2534 397 2845 478 
Q 3156 559 3463 722 
L 3463 178 
Q 3153 47 2828 -22 
Q 2503 -91 2169 -91 
Q 1331 -91 842 396 
Q 353 884 353 1716 
Q 353 2575 817 3079 
Q 1281 3584 2069 3584 
Q 2775 3584 3186 3129 
Q 3597 2675 3597 1894 
z
M 3022 2063 
Q 3016 2534 2758 2815 
Q 2500 3097 2075 3097 
Q 1594 3097 1305 2825 
Q 1016 2553 972 2059 
L 3022 2063 
z
" id="DejaVuSans-65" transform="scale(0.015625)"/>
       <path d="M 678 2272 
L 4684 2272 
L 4684 1741 
L 678 1741 
L 678 2272 
z
" id="DejaVuSans-2212" transform="scale(0.015625)"/>
      </defs>
      <use xlink:href="#DejaVuSans-31"/>
      <use x="63.623047" xlink:href="#DejaVuSans-65"/>
      <use x="125.146484" xlink:href="#DejaVuSans-2212"/>
      <use x="208.935547" xlink:href="#DejaVuSans-34"/>
     </g>
    </g>
   </g>
   <g id="line2d_17">
    <path clip-path="url(#p21466d77d7)" d="M 43.099091 65.654398 
L 45.120467 68.46428 
L 47.141843 72.979274 
L 49.163219 70.55932 
L 51.184595 65.079772 
L 53.205971 58.506131 
L 55.227346 54.471361 
L 57.248722 57.131819 
L 59.270098 63.540341 
L 61.291474 66.900279 
L 63.31285 64.400832 
L 65.334226 57.218503 
L 67.355602 47.951023 
L 69.376978 39.425144 
L 71.398354 36.244024 
L 73.41973 42.309578 
L 75.441106 53.086446 
L 77.462482 61.002822 
L 79.483857 63.960188 
L 81.505233 63.705221 
L 83.526609 61.931575 
L 85.547985 59.780978 
L 87.569361 59.356417 
L 89.590737 61.986883 
L 91.612113 66.363591 
L 93.633489 70.507383 
L 95.654865 73.571482 
L 97.676241 75.748009 
L 99.697617 77.388285 
L 101.718993 78.552107 
L 103.740369 79.351289 
L 105.761744 79.921412 
L 107.78312 80.359189 
L 109.804496 80.788286 
L 111.825872 81.196626 
L 113.847248 81.572611 
L 115.868624 81.917626 
L 117.89 82.210389 
L 119.911376 82.402397 
L 121.932752 82.533231 
L 123.954128 82.626016 
L 125.975504 82.699982 
L 127.99688 82.80136 
L 130.018256 82.946989 
L 132.039631 83.022118 
L 134.061007 83.095047 
L 136.082383 83.274112 
L 138.103759 83.40957 
L 140.125135 83.457198 
L 142.146511 83.455185 
L 144.167887 83.456685 
L 146.189263 83.471423 
L 148.210639 83.458173 
L 150.232015 83.360764 
L 152.253391 83.313713 
L 154.274767 83.307966 
L 156.296143 83.2502 
L 158.317518 83.148008 
L 160.338894 83.143376 
L 162.36027 83.306318 
L 164.381646 83.434136 
L 166.403022 83.442735 
L 168.424398 83.446536 
L 170.445774 83.602713 
L 172.46715 83.831609 
L 174.488526 84.053214 
L 176.509902 84.241745 
L 178.531278 84.359424 
L 180.552654 84.435786 
L 182.574029 84.51992 
L 184.595405 84.538139 
L 186.616781 84.554849 
L 188.638157 84.572496 
L 190.659533 83.235308 
L 192.680909 82.469939 
" style="fill:none;stroke:#d9a359;stroke-linecap:square;stroke-width:0.5;"/>
   </g>
   <g id="line2d_18">
    <path clip-path="url(#p21466d77d7)" d="M 43.099091 67.134882 
L 45.120467 69.681628 
L 47.141843 72.854864 
L 49.163219 68.07951 
L 51.184595 60.784863 
L 53.205971 54.981309 
L 55.227346 52.799228 
L 57.248722 55.663633 
L 59.270098 61.415905 
L 61.291474 64.545906 
L 63.31285 61.717406 
L 65.334226 53.752817 
L 67.355602 43.768445 
L 69.376978 34.792523 
L 71.398354 30.682238 
L 73.41973 34.756186 
L 75.441106 45.605182 
L 77.462482 56.056604 
L 79.483857 61.943953 
L 81.505233 64.402803 
L 83.526609 65.367601 
L 85.547985 65.510581 
L 87.569361 65.418156 
L 89.590737 66.243247 
L 91.612113 68.751903 
L 93.633489 72.221877 
L 95.654865 75.260071 
L 97.676241 77.373759 
L 99.697617 78.501505 
L 101.718993 78.887261 
L 103.740369 78.959002 
L 105.761744 79.16999 
L 107.78312 79.966185 
L 109.804496 81.012299 
L 111.825872 81.757831 
L 113.847248 82.108982 
L 115.868624 82.266004 
L 117.89 82.394887 
L 119.911376 82.558432 
L 121.932752 82.79227 
L 123.954128 83.015663 
L 125.975504 83.144087 
L 127.99688 83.136428 
L 130.018256 83.105883 
L 132.039631 83.129239 
L 134.061007 83.193814 
L 136.082383 83.328358 
L 138.103759 83.499569 
L 140.125135 83.623218 
L 142.146511 83.658087 
L 144.167887 83.731951 
L 146.189263 83.901961 
L 148.210639 84.027192 
L 150.232015 83.997148 
L 152.253391 83.801777 
L 154.274767 83.40937 
L 156.296143 82.819544 
L 158.317518 82.335196 
L 160.338894 82.186753 
L 162.36027 82.368087 
L 164.381646 82.853101 
L 166.403022 83.375171 
L 168.424398 83.709724 
L 170.445774 83.802532 
L 172.46715 83.793133 
L 174.488526 83.83531 
L 176.509902 84.008666 
L 178.531278 84.315878 
L 180.552654 84.562536 
L 182.574029 84.562491 
L 184.595405 84.420201 
L 186.616781 84.35512 
L 188.638157 84.15861 
L 190.659533 82.34172 
L 192.680909 81.340122 
" style="fill:none;stroke:#2f4858;stroke-linecap:square;stroke-width:0.5;"/>
   </g>
   <g id="line2d_19">
    <path clip-path="url(#p21466d77d7)" style="fill:none;stroke:#ff0000;stroke-linecap:square;stroke-width:2;"/>
   </g>
   <g id="patch_3">
    <path d="M 35.62 93.068437 
L 200.16 93.068437 
" style="fill:none;stroke:#000000;stroke-linecap:square;stroke-linejoin:miter;stroke-width:0.8;"/>
   </g>
   <g id="text_6">
    <!-- Acoustic Edges -->
    <g transform="translate(80.098594 14.798438)scale(0.1 -0.1)">
     <defs>
      <path d="M 2188 4044 
L 1331 1722 
L 3047 1722 
L 2188 4044 
z
M 1831 4666 
L 2547 4666 
L 4325 0 
L 3669 0 
L 3244 1197 
L 1141 1197 
L 716 0 
L 50 0 
L 1831 4666 
z
" id="DejaVuSans-41" transform="scale(0.015625)"/>
      <path d="M 3122 3366 
L 3122 2828 
Q 2878 2963 2633 3030 
Q 2388 3097 2138 3097 
Q 1578 3097 1268 2742 
Q 959 2388 959 1747 
Q 959 1106 1268 751 
Q 1578 397 2138 397 
Q 2388 397 2633 464 
Q 2878 531 3122 666 
L 3122 134 
Q 2881 22 2623 -34 
Q 2366 -91 2075 -91 
Q 1284 -91 818 406 
Q 353 903 353 1747 
Q 353 2603 823 3093 
Q 1294 3584 2113 3584 
Q 2378 3584 2631 3529 
Q 2884 3475 3122 3366 
z
" id="DejaVuSans-63" transform="scale(0.015625)"/>
      <path d="M 1959 3097 
Q 1497 3097 1228 2736 
Q 959 2375 959 1747 
Q 959 1119 1226 758 
Q 1494 397 1959 397 
Q 2419 397 2687 759 
Q 2956 1122 2956 1747 
Q 2956 2369 2687 2733 
Q 2419 3097 1959 3097 
z
M 1959 3584 
Q 2709 3584 3137 3096 
Q 3566 2609 3566 1747 
Q 3566 888 3137 398 
Q 2709 -91 1959 -91 
Q 1206 -91 779 398 
Q 353 888 353 1747 
Q 353 2609 779 3096 
Q 1206 3584 1959 3584 
z
" id="DejaVuSans-6f" transform="scale(0.015625)"/>
      <path d="M 544 1381 
L 544 3500 
L 1119 3500 
L 1119 1403 
Q 1119 906 1312 657 
Q 1506 409 1894 409 
Q 2359 409 2629 706 
Q 2900 1003 2900 1516 
L 2900 3500 
L 3475 3500 
L 3475 0 
L 2900 0 
L 2900 538 
Q 2691 219 2414 64 
Q 2138 -91 1772 -91 
Q 1169 -91 856 284 
Q 544 659 544 1381 
z
M 1991 3584 
L 1991 3584 
z
" id="DejaVuSans-75" transform="scale(0.015625)"/>
      <path d="M 2834 3397 
L 2834 2853 
Q 2591 2978 2328 3040 
Q 2066 3103 1784 3103 
Q 1356 3103 1142 2972 
Q 928 2841 928 2578 
Q 928 2378 1081 2264 
Q 1234 2150 1697 2047 
L 1894 2003 
Q 2506 1872 2764 1633 
Q 3022 1394 3022 966 
Q 3022 478 2636 193 
Q 2250 -91 1575 -91 
Q 1294 -91 989 -36 
Q 684 19 347 128 
L 347 722 
Q 666 556 975 473 
Q 1284 391 1588 391 
Q 1994 391 2212 530 
Q 2431 669 2431 922 
Q 2431 1156 2273 1281 
Q 2116 1406 1581 1522 
L 1381 1569 
Q 847 1681 609 1914 
Q 372 2147 372 2553 
Q 372 3047 722 3315 
Q 1072 3584 1716 3584 
Q 2034 3584 2315 3537 
Q 2597 3491 2834 3397 
z
" id="DejaVuSans-73" transform="scale(0.015625)"/>
      <path d="M 1172 4494 
L 1172 3500 
L 2356 3500 
L 2356 3053 
L 1172 3053 
L 1172 1153 
Q 1172 725 1289 603 
Q 1406 481 1766 481 
L 2356 481 
L 2356 0 
L 1766 0 
Q 1100 0 847 248 
Q 594 497 594 1153 
L 594 3053 
L 172 3053 
L 172 3500 
L 594 3500 
L 594 4494 
L 1172 4494 
z
" id="DejaVuSans-74" transform="scale(0.015625)"/>
      <path d="M 603 3500 
L 1178 3500 
L 1178 0 
L 603 0 
L 603 3500 
z
M 603 4863 
L 1178 4863 
L 1178 4134 
L 603 4134 
L 603 4863 
z
" id="DejaVuSans-69" transform="scale(0.015625)"/>
      <path id="DejaVuSans-20" transform="scale(0.015625)"/>
      <path d="M 628 4666 
L 3578 4666 
L 3578 4134 
L 1259 4134 
L 1259 2753 
L 3481 2753 
L 3481 2222 
L 1259 2222 
L 1259 531 
L 3634 531 
L 3634 0 
L 628 0 
L 628 4666 
z
" id="DejaVuSans-45" transform="scale(0.015625)"/>
      <path d="M 2906 2969 
L 2906 4863 
L 3481 4863 
L 3481 0 
L 2906 0 
L 2906 525 
Q 2725 213 2448 61 
Q 2172 -91 1784 -91 
Q 1150 -91 751 415 
Q 353 922 353 1747 
Q 353 2572 751 3078 
Q 1150 3584 1784 3584 
Q 2172 3584 2448 3432 
Q 2725 3281 2906 2969 
z
M 947 1747 
Q 947 1113 1208 752 
Q 1469 391 1925 391 
Q 2381 391 2643 752 
Q 2906 1113 2906 1747 
Q 2906 2381 2643 2742 
Q 2381 3103 1925 3103 
Q 1469 3103 1208 2742 
Q 947 2381 947 1747 
z
" id="DejaVuSans-64" transform="scale(0.015625)"/>
      <path d="M 2906 1791 
Q 2906 2416 2648 2759 
Q 2391 3103 1925 3103 
Q 1463 3103 1205 2759 
Q 947 2416 947 1791 
Q 947 1169 1205 825 
Q 1463 481 1925 481 
Q 2391 481 2648 825 
Q 2906 1169 2906 1791 
z
M 3481 434 
Q 3481 -459 3084 -895 
Q 2688 -1331 1869 -1331 
Q 1566 -1331 1297 -1286 
Q 1028 -1241 775 -1147 
L 775 -588 
Q 1028 -725 1275 -790 
Q 1522 -856 1778 -856 
Q 2344 -856 2625 -561 
Q 2906 -266 2906 331 
L 2906 616 
Q 2728 306 2450 153 
Q 2172 0 1784 0 
Q 1141 0 747 490 
Q 353 981 353 1791 
Q 353 2603 747 3093 
Q 1141 3584 1784 3584 
Q 2172 3584 2450 3431 
Q 2728 3278 2906 2969 
L 2906 3500 
L 3481 3500 
L 3481 434 
z
" id="DejaVuSans-67" transform="scale(0.015625)"/>
     </defs>
     <use xlink:href="#DejaVuSans-41"/>
     <use x="66.658203" xlink:href="#DejaVuSans-63"/>
     <use x="121.638672" xlink:href="#DejaVuSans-6f"/>
     <use x="182.820312" xlink:href="#DejaVuSans-75"/>
     <use x="246.199219" xlink:href="#DejaVuSans-73"/>
     <use x="298.298828" xlink:href="#DejaVuSans-74"/>
     <use x="337.507812" xlink:href="#DejaVuSans-69"/>
     <use x="365.291016" xlink:href="#DejaVuSans-63"/>
     <use x="420.271484" xlink:href="#DejaVuSans-20"/>
     <use x="452.058594" xlink:href="#DejaVuSans-45"/>
     <use x="515.242188" xlink:href="#DejaVuSans-64"/>
     <use x="578.71875" xlink:href="#DejaVuSans-67"/>
     <use x="642.195312" xlink:href="#DejaVuSans-65"/>
     <use x="703.71875" xlink:href="#DejaVuSans-73"/>
    </g>
   </g>
  </g>
  <g id="axes_2">
   <g id="patch_4">
    <path d="M 35.62 191.398437 
L 200.16 191.398437 
L 200.16 119.128437 
L 35.62 119.128437 
z
" style="fill:none;"/>
   </g>
   <g id="PolyCollection_3">
    <defs>
     <path d="M 43.099091 -55.44532 
L 43.099091 -55.066058 
L 45.120467 -55.125179 
L 47.141843 -57.30178 
L 49.163219 -66.750342 
L 51.184595 -76.166941 
L 53.205971 -82.242696 
L 55.227346 -82.514578 
L 57.248722 -77.470127 
L 59.270098 -70.438627 
L 61.291474 -65.510818 
L 63.31285 -64.762527 
L 65.334226 -67.225263 
L 67.355602 -70.435555 
L 69.376978 -72.092933 
L 71.398354 -70.519085 
L 73.41973 -66.327703 
L 75.441106 -61.825523 
L 77.462482 -58.83172 
L 79.483857 -58.348484 
L 81.505233 -60.046453 
L 83.526609 -62.080089 
L 85.547985 -62.32372 
L 87.569361 -60.294293 
L 89.590737 -57.316624 
L 91.612113 -54.671442 
L 93.633489 -53.13117 
L 95.654865 -52.448505 
L 97.676241 -52.091866 
L 99.697617 -51.838792 
L 101.718993 -51.654524 
L 103.740369 -51.685551 
L 105.761744 -51.818627 
L 107.78312 -51.87677 
L 109.804496 -51.816903 
L 111.825872 -51.694908 
L 113.847248 -51.671541 
L 115.868624 -51.344086 
L 117.89 -50.776959 
L 119.911376 -50.304857 
L 121.932752 -49.938186 
L 123.954128 -49.74105 
L 125.975504 -49.57152 
L 127.99688 -49.125888 
L 130.018256 -48.075745 
L 132.039631 -47.091396 
L 134.061007 -46.717015 
L 136.082383 -46.56885 
L 138.103759 -46.174162 
L 140.125135 -45.674803 
L 142.146511 -45.128488 
L 144.167887 -44.789955 
L 146.189263 -45.018773 
L 148.210639 -45.584906 
L 150.232015 -46.314647 
L 152.253391 -46.914352 
L 154.274767 -46.722057 
L 156.296143 -45.950547 
L 158.317518 -45.268457 
L 160.338894 -45.145013 
L 162.36027 -45.39666 
L 164.381646 -45.710041 
L 166.403022 -46.015831 
L 168.424398 -46.493869 
L 170.445774 -47.072718 
L 172.46715 -47.336047 
L 174.488526 -47.131355 
L 176.509902 -46.540083 
L 178.531278 -45.813998 
L 180.552654 -45.332158 
L 182.574029 -45.016532 
L 184.595405 -44.852252 
L 186.616781 -44.921455 
L 188.638157 -44.89866 
L 190.659533 -46.341933 
L 192.680909 -46.892796 
L 192.680909 -49.02231 
L 192.680909 -49.02231 
L 190.659533 -48.951231 
L 188.638157 -48.076731 
L 186.616781 -48.611011 
L 184.595405 -48.884901 
L 182.574029 -49.257511 
L 180.552654 -49.667288 
L 178.531278 -49.964885 
L 176.509902 -50.295206 
L 174.488526 -50.536033 
L 172.46715 -50.439056 
L 170.445774 -50.011965 
L 168.424398 -49.311188 
L 166.403022 -48.616922 
L 164.381646 -48.164076 
L 162.36027 -48.016338 
L 160.338894 -48.150162 
L 158.317518 -48.394532 
L 156.296143 -48.721112 
L 154.274767 -49.118046 
L 152.253391 -49.331453 
L 150.232015 -48.8986 
L 148.210639 -48.329471 
L 146.189263 -47.950755 
L 144.167887 -47.840868 
L 142.146511 -48.203091 
L 140.125135 -48.720278 
L 138.103759 -49.004314 
L 136.082383 -49.202856 
L 134.061007 -49.437996 
L 132.039631 -49.994047 
L 130.018256 -51.154997 
L 127.99688 -52.600065 
L 125.975504 -53.929908 
L 123.954128 -55.097013 
L 121.932752 -55.878358 
L 119.911376 -56.228184 
L 117.89 -56.417181 
L 115.868624 -56.799161 
L 113.847248 -57.264239 
L 111.825872 -57.477971 
L 109.804496 -57.586011 
L 107.78312 -57.449525 
L 105.761744 -57.2602 
L 103.740369 -57.293222 
L 101.718993 -57.60464 
L 99.697617 -58.1467 
L 97.676241 -58.720471 
L 95.654865 -59.41836 
L 93.633489 -60.381568 
L 91.612113 -61.916132 
L 89.590737 -64.384031 
L 87.569361 -67.122221 
L 85.547985 -69.041108 
L 83.526609 -68.914785 
L 81.505233 -67.10267 
L 79.483857 -65.280443 
L 77.462482 -65.17191 
L 75.441106 -67.727233 
L 73.41973 -72.303548 
L 71.398354 -77.218093 
L 69.376978 -79.516017 
L 67.355602 -78.223037 
L 65.334226 -75.899642 
L 63.31285 -75.163663 
L 61.291474 -76.749873 
L 59.270098 -81.043229 
L 57.248722 -86.594215 
L 55.227346 -90.211399 
L 53.205971 -88.364079 
L 51.184595 -80.694339 
L 49.163219 -71.146738 
L 47.141843 -62.52001 
L 45.120467 -57.73555 
L 43.099091 -55.44532 
z
" id="m7e624ebd39"/>
    </defs>
    <g clip-path="url(#p2670d7519c)">
     <use style="fill:#d9a359;fill-opacity:0.7;" x="0" xlink:href="#m7e624ebd39" y="223.934062"/>
    </g>
   </g>
   <g id="PolyCollection_4">
    <defs>
     <path d="M 43.099091 -50.722488 
L 43.099091 -50.468152 
L 45.120467 -50.774356 
L 47.141843 -50.844064 
L 49.163219 -55.653129 
L 51.184595 -60.874804 
L 53.205971 -64.752153 
L 55.227346 -65.9983 
L 57.248722 -63.356539 
L 59.270098 -58.512543 
L 61.291474 -55.443074 
L 63.31285 -56.439983 
L 65.334226 -60.023457 
L 67.355602 -62.545319 
L 69.376978 -63.023029 
L 71.398354 -60.846972 
L 73.41973 -56.634751 
L 75.441106 -53.060039 
L 77.462482 -51.645988 
L 79.483857 -52.18754 
L 81.505233 -53.424793 
L 83.526609 -53.628456 
L 85.547985 -52.527595 
L 87.569361 -50.932053 
L 89.590737 -49.295248 
L 91.612113 -47.970088 
L 93.633489 -47.244742 
L 95.654865 -47.081506 
L 97.676241 -47.296618 
L 99.697617 -47.418654 
L 101.718993 -47.434456 
L 103.740369 -47.570198 
L 105.761744 -47.446902 
L 107.78312 -46.958037 
L 109.804496 -46.486688 
L 111.825872 -46.201668 
L 113.847248 -46.060544 
L 115.868624 -45.796021 
L 117.89 -45.450573 
L 119.911376 -45.007464 
L 121.932752 -44.575756 
L 123.954128 -44.340577 
L 125.975504 -44.399237 
L 127.99688 -44.550234 
L 130.018256 -44.569602 
L 132.039631 -44.413691 
L 134.061007 -44.17334 
L 136.082383 -44.068883 
L 138.103759 -44.136171 
L 140.125135 -44.368782 
L 142.146511 -44.634304 
L 144.167887 -44.676987 
L 146.189263 -44.266334 
L 148.210639 -43.597267 
L 150.232015 -43.017428 
L 152.253391 -42.511539 
L 154.274767 -42.06778 
L 156.296143 -41.904047 
L 158.317518 -42.050696 
L 160.338894 -42.265657 
L 162.36027 -42.652326 
L 164.381646 -43.122931 
L 166.403022 -43.545049 
L 168.424398 -43.885225 
L 170.445774 -43.906912 
L 172.46715 -43.520481 
L 174.488526 -42.932824 
L 176.509902 -42.471298 
L 178.531278 -42.294587 
L 180.552654 -42.34278 
L 182.574029 -42.472963 
L 184.595405 -42.80721 
L 186.616781 -43.325157 
L 188.638157 -43.646651 
L 190.659533 -45.176287 
L 192.680909 -45.714671 
L 192.680909 -47.240316 
L 192.680909 -47.240316 
L 190.659533 -46.630268 
L 188.638157 -45.054331 
L 186.616781 -44.70597 
L 184.595405 -44.115684 
L 182.574029 -43.63719 
L 180.552654 -43.525184 
L 178.531278 -43.773652 
L 176.509902 -44.221958 
L 174.488526 -44.771945 
L 172.46715 -45.257111 
L 170.445774 -45.348773 
L 168.424398 -45.051139 
L 166.403022 -44.602666 
L 164.381646 -44.117782 
L 162.36027 -43.754823 
L 160.338894 -43.523539 
L 158.317518 -43.537723 
L 156.296143 -43.656056 
L 154.274767 -43.928648 
L 152.253391 -44.329304 
L 150.232015 -44.75748 
L 148.210639 -45.322027 
L 146.189263 -46.058866 
L 144.167887 -46.488242 
L 142.146511 -46.386792 
L 140.125135 -46.052579 
L 138.103759 -45.903238 
L 136.082383 -45.998091 
L 134.061007 -46.241714 
L 132.039631 -46.587649 
L 130.018256 -46.690325 
L 127.99688 -46.555891 
L 125.975504 -46.445057 
L 123.954128 -46.576379 
L 121.932752 -46.997329 
L 119.911376 -47.448702 
L 117.89 -47.699293 
L 115.868624 -47.836157 
L 113.847248 -48.142928 
L 111.825872 -48.65483 
L 109.804496 -49.359456 
L 107.78312 -49.900248 
L 105.761744 -50.214486 
L 103.740369 -50.408347 
L 101.718993 -50.558172 
L 99.697617 -50.779193 
L 97.676241 -50.949507 
L 95.654865 -51.136164 
L 93.633489 -51.529411 
L 91.612113 -52.264345 
L 89.590737 -53.750831 
L 87.569361 -56.056561 
L 85.547985 -58.012196 
L 83.526609 -58.666899 
L 81.505233 -58.329269 
L 79.483857 -57.653755 
L 77.462482 -57.668617 
L 75.441106 -59.501917 
L 73.41973 -63.005193 
L 71.398354 -67.260584 
L 69.376978 -69.504221 
L 67.355602 -67.846699 
L 65.334226 -64.499419 
L 63.31285 -62.6239 
L 61.291474 -62.995237 
L 59.270098 -65.612778 
L 57.248722 -68.881924 
L 55.227346 -70.658809 
L 53.205971 -68.849061 
L 51.184595 -63.960174 
L 49.163219 -58.521796 
L 47.141843 -54.337965 
L 45.120467 -52.528389 
L 43.099091 -50.722488 
z
" id="m02550393f9"/>
    </defs>
    <g clip-path="url(#p2670d7519c)">
     <use style="fill:#2f4858;fill-opacity:0.7;" x="0" xlink:href="#m02550393f9" y="223.934062"/>
    </g>
   </g>
   <g id="matplotlib.axis_3">
    <g id="xtick_5">
     <g id="line2d_20">
      <path clip-path="url(#p2670d7519c)" d="M 53.205971 191.398437 
L 53.205971 119.128437 
" style="fill:none;stroke:#b0b0b0;stroke-linecap:square;stroke-width:0.8;"/>
     </g>
     <g id="line2d_21">
      <g>
       <use style="stroke:#000000;stroke-width:0.8;" x="53.205971" xlink:href="#m7b8c1caeea" y="191.398437"/>
      </g>
     </g>
     <g id="text_7">
      <!-- 0.0 -->
      <g transform="translate(46.844721 204.477187)scale(0.08 -0.08)">
       <use xlink:href="#DejaVuSans-30"/>
       <use x="63.623047" xlink:href="#DejaVuSans-2e"/>
       <use x="95.410156" xlink:href="#DejaVuSans-30"/>
      </g>
     </g>
    </g>
    <g id="xtick_6">
     <g id="line2d_22">
      <path clip-path="url(#p2670d7519c)" d="M 93.633489 191.398437 
L 93.633489 119.128437 
" style="fill:none;stroke:#b0b0b0;stroke-linecap:square;stroke-width:0.8;"/>
     </g>
     <g id="line2d_23">
      <g>
       <use style="stroke:#000000;stroke-width:0.8;" x="93.633489" xlink:href="#m7b8c1caeea" y="191.398437"/>
      </g>
     </g>
     <g id="text_8">
      <!-- 0.2 -->
      <g transform="translate(87.272239 204.477187)scale(0.08 -0.08)">
       <defs>
        <path d="M 1228 531 
L 3431 531 
L 3431 0 
L 469 0 
L 469 531 
Q 828 903 1448 1529 
Q 2069 2156 2228 2338 
Q 2531 2678 2651 2914 
Q 2772 3150 2772 3378 
Q 2772 3750 2511 3984 
Q 2250 4219 1831 4219 
Q 1534 4219 1204 4116 
Q 875 4013 500 3803 
L 500 4441 
Q 881 4594 1212 4672 
Q 1544 4750 1819 4750 
Q 2544 4750 2975 4387 
Q 3406 4025 3406 3419 
Q 3406 3131 3298 2873 
Q 3191 2616 2906 2266 
Q 2828 2175 2409 1742 
Q 1991 1309 1228 531 
z
" id="DejaVuSans-32" transform="scale(0.015625)"/>
       </defs>
       <use xlink:href="#DejaVuSans-30"/>
       <use x="63.623047" xlink:href="#DejaVuSans-2e"/>
       <use x="95.410156" xlink:href="#DejaVuSans-32"/>
      </g>
     </g>
    </g>
    <g id="xtick_7">
     <g id="line2d_24">
      <path clip-path="url(#p2670d7519c)" d="M 134.061007 191.398437 
L 134.061007 119.128437 
" style="fill:none;stroke:#b0b0b0;stroke-linecap:square;stroke-width:0.8;"/>
     </g>
     <g id="line2d_25">
      <g>
       <use style="stroke:#000000;stroke-width:0.8;" x="134.061007" xlink:href="#m7b8c1caeea" y="191.398437"/>
      </g>
     </g>
     <g id="text_9">
      <!-- 0.4 -->
      <g transform="translate(127.699757 204.477187)scale(0.08 -0.08)">
       <use xlink:href="#DejaVuSans-30"/>
       <use x="63.623047" xlink:href="#DejaVuSans-2e"/>
       <use x="95.410156" xlink:href="#DejaVuSans-34"/>
      </g>
     </g>
    </g>
    <g id="xtick_8">
     <g id="line2d_26">
      <path clip-path="url(#p2670d7519c)" d="M 174.488526 191.398437 
L 174.488526 119.128437 
" style="fill:none;stroke:#b0b0b0;stroke-linecap:square;stroke-width:0.8;"/>
     </g>
     <g id="line2d_27">
      <g>
       <use style="stroke:#000000;stroke-width:0.8;" x="174.488526" xlink:href="#m7b8c1caeea" y="191.398437"/>
      </g>
     </g>
     <g id="text_10">
      <!-- 0.6 -->
      <g transform="translate(168.127276 204.477187)scale(0.08 -0.08)">
       <defs>
        <path d="M 2113 2584 
Q 1688 2584 1439 2293 
Q 1191 2003 1191 1497 
Q 1191 994 1439 701 
Q 1688 409 2113 409 
Q 2538 409 2786 701 
Q 3034 994 3034 1497 
Q 3034 2003 2786 2293 
Q 2538 2584 2113 2584 
z
M 3366 4563 
L 3366 3988 
Q 3128 4100 2886 4159 
Q 2644 4219 2406 4219 
Q 1781 4219 1451 3797 
Q 1122 3375 1075 2522 
Q 1259 2794 1537 2939 
Q 1816 3084 2150 3084 
Q 2853 3084 3261 2657 
Q 3669 2231 3669 1497 
Q 3669 778 3244 343 
Q 2819 -91 2113 -91 
Q 1303 -91 875 529 
Q 447 1150 447 2328 
Q 447 3434 972 4092 
Q 1497 4750 2381 4750 
Q 2619 4750 2861 4703 
Q 3103 4656 3366 4563 
z
" id="DejaVuSans-36" transform="scale(0.015625)"/>
       </defs>
       <use xlink:href="#DejaVuSans-30"/>
       <use x="63.623047" xlink:href="#DejaVuSans-2e"/>
       <use x="95.410156" xlink:href="#DejaVuSans-36"/>
      </g>
     </g>
    </g>
   </g>
   <g id="matplotlib.axis_4">
    <g id="ytick_5">
     <g id="line2d_28">
      <path clip-path="url(#p2670d7519c)" d="M 35.62 188.113437 
L 200.16 188.113437 
" style="fill:none;stroke:#b0b0b0;stroke-linecap:square;stroke-width:0.8;"/>
     </g>
     <g id="line2d_29">
      <g>
       <use style="stroke:#000000;stroke-width:0.8;" x="35.62" xlink:href="#mc6f6281e1c" y="188.113437"/>
      </g>
     </g>
     <g id="text_11">
      <!-- 0.0 -->
      <g transform="translate(15.8975 191.152812)scale(0.08 -0.08)">
       <use xlink:href="#DejaVuSans-30"/>
       <use x="63.623047" xlink:href="#DejaVuSans-2e"/>
       <use x="95.410156" xlink:href="#DejaVuSans-30"/>
      </g>
     </g>
    </g>
    <g id="ytick_6">
     <g id="line2d_30">
      <path clip-path="url(#p2670d7519c)" d="M 35.62 169.380304 
L 200.16 169.380304 
" style="fill:none;stroke:#b0b0b0;stroke-linecap:square;stroke-width:0.8;"/>
     </g>
     <g id="line2d_31">
      <g>
       <use style="stroke:#000000;stroke-width:0.8;" x="35.62" xlink:href="#mc6f6281e1c" y="169.380304"/>
      </g>
     </g>
     <g id="text_12">
      <!-- 1.5 -->
      <g transform="translate(15.8975 172.419679)scale(0.08 -0.08)">
       <use xlink:href="#DejaVuSans-31"/>
       <use x="63.623047" xlink:href="#DejaVuSans-2e"/>
       <use x="95.410156" xlink:href="#DejaVuSans-35"/>
      </g>
     </g>
    </g>
    <g id="ytick_7">
     <g id="line2d_32">
      <path clip-path="url(#p2670d7519c)" d="M 35.62 150.647171 
L 200.16 150.647171 
" style="fill:none;stroke:#b0b0b0;stroke-linecap:square;stroke-width:0.8;"/>
     </g>
     <g id="line2d_33">
      <g>
       <use style="stroke:#000000;stroke-width:0.8;" x="35.62" xlink:href="#mc6f6281e1c" y="150.647171"/>
      </g>
     </g>
     <g id="text_13">
      <!-- 3.0 -->
      <g transform="translate(15.8975 153.686546)scale(0.08 -0.08)">
       <use xlink:href="#DejaVuSans-33"/>
       <use x="63.623047" xlink:href="#DejaVuSans-2e"/>
       <use x="95.410156" xlink:href="#DejaVuSans-30"/>
      </g>
     </g>
    </g>
    <g id="ytick_8">
     <g id="line2d_34">
      <path clip-path="url(#p2670d7519c)" d="M 35.62 131.914037 
L 200.16 131.914037 
" style="fill:none;stroke:#b0b0b0;stroke-linecap:square;stroke-width:0.8;"/>
     </g>
     <g id="line2d_35">
      <g>
       <use style="stroke:#000000;stroke-width:0.8;" x="35.62" xlink:href="#mc6f6281e1c" y="131.914037"/>
      </g>
     </g>
     <g id="text_14">
      <!-- 4.5 -->
      <g transform="translate(15.8975 134.953412)scale(0.08 -0.08)">
       <use xlink:href="#DejaVuSans-34"/>
       <use x="63.623047" xlink:href="#DejaVuSans-2e"/>
       <use x="95.410156" xlink:href="#DejaVuSans-35"/>
      </g>
     </g>
    </g>
    <g id="text_15">
     <!-- 1e−4 -->
     <g transform="translate(35.62 116.128437)scale(0.08 -0.08)">
      <use xlink:href="#DejaVuSans-31"/>
      <use x="63.623047" xlink:href="#DejaVuSans-65"/>
      <use x="125.146484" xlink:href="#DejaVuSans-2212"/>
      <use x="208.935547" xlink:href="#DejaVuSans-34"/>
     </g>
    </g>
   </g>
   <g id="line2d_36">
    <path clip-path="url(#p2670d7519c)" d="M 43.099091 168.678373 
L 45.120467 167.503698 
L 47.141843 164.023167 
L 49.163219 154.985523 
L 51.184595 145.503422 
L 53.205971 138.630675 
L 55.227346 137.571074 
L 57.248722 141.901891 
L 59.270098 148.193135 
L 61.291474 152.803717 
L 63.31285 153.970968 
L 65.334226 152.37161 
L 67.355602 149.604767 
L 69.376978 148.129588 
L 71.398354 150.065474 
L 73.41973 154.618437 
L 75.441106 159.157685 
L 77.462482 161.932248 
L 79.483857 162.119599 
L 81.505233 160.359501 
L 83.526609 158.436625 
L 85.547985 158.251649 
L 87.569361 160.225805 
L 89.590737 163.083735 
L 91.612113 165.640275 
L 93.633489 167.177694 
L 95.654865 168.00063 
L 97.676241 168.527894 
L 99.697617 168.941317 
L 101.718993 169.304481 
L 103.740369 169.444676 
L 105.761744 169.394649 
L 107.78312 169.270915 
L 109.804496 169.232605 
L 111.825872 169.347623 
L 113.847248 169.466173 
L 115.868624 169.862439 
L 117.89 170.336992 
L 119.911376 170.667542 
L 121.932752 171.02579 
L 123.954128 171.515031 
L 125.975504 172.183348 
L 127.99688 173.071086 
L 130.018256 174.318691 
L 132.039631 175.391341 
L 134.061007 175.856557 
L 136.082383 176.048209 
L 138.103759 176.344825 
L 140.125135 176.736522 
L 142.146511 177.268273 
L 144.167887 177.618651 
L 146.189263 177.449298 
L 148.210639 176.976874 
L 150.232015 176.327439 
L 152.253391 175.81116 
L 154.274767 176.014011 
L 156.296143 176.598233 
L 158.317518 177.102568 
L 160.338894 177.286475 
L 162.36027 177.227564 
L 164.381646 176.997004 
L 166.403022 176.617686 
L 168.424398 176.031534 
L 170.445774 175.391721 
L 172.46715 175.046511 
L 174.488526 175.100368 
L 176.509902 175.516418 
L 178.531278 176.044621 
L 180.552654 176.434339 
L 182.574029 176.797041 
L 184.595405 177.065486 
L 186.616781 177.16783 
L 188.638157 177.446367 
L 190.659533 176.287481 
L 192.680909 175.976509 
" style="fill:none;stroke:#d9a359;stroke-linecap:square;stroke-width:0.5;"/>
   </g>
   <g id="line2d_37">
    <path clip-path="url(#p2670d7519c)" d="M 43.099091 173.338742 
L 45.120467 172.28269 
L 47.141843 171.343048 
L 49.163219 166.8466 
L 51.184595 161.516574 
L 53.205971 157.133456 
L 55.227346 155.605508 
L 57.248722 157.814831 
L 59.270098 161.871402 
L 61.291474 164.714907 
L 63.31285 164.402121 
L 65.334226 161.672625 
L 67.355602 158.738053 
L 69.376978 157.670437 
L 71.398354 159.880285 
L 73.41973 164.11409 
L 75.441106 167.653085 
L 77.462482 169.27676 
L 79.483857 169.013415 
L 81.505233 168.057032 
L 83.526609 167.786385 
L 85.547985 168.664167 
L 87.569361 170.439756 
L 89.590737 172.411023 
L 91.612113 173.816846 
L 93.633489 174.546986 
L 95.654865 174.825228 
L 97.676241 174.811 
L 99.697617 174.835139 
L 101.718993 174.937749 
L 103.740369 174.94479 
L 105.761744 175.103368 
L 107.78312 175.50492 
L 109.804496 176.010991 
L 111.825872 176.505813 
L 113.847248 176.832326 
L 115.868624 177.117973 
L 117.89 177.35913 
L 119.911376 177.705979 
L 121.932752 178.14752 
L 123.954128 178.475584 
L 125.975504 178.511916 
L 127.99688 178.381 
L 130.018256 178.304099 
L 132.039631 178.433393 
L 134.061007 178.726536 
L 136.082383 178.900575 
L 138.103759 178.914358 
L 140.125135 178.723382 
L 142.146511 178.423514 
L 144.167887 178.351448 
L 146.189263 178.771462 
L 148.210639 179.474415 
L 150.232015 180.046609 
L 152.253391 180.513641 
L 154.274767 180.935849 
L 156.296143 181.154011 
L 158.317518 181.139853 
L 160.338894 181.039465 
L 162.36027 180.730488 
L 164.381646 180.313706 
L 166.403022 179.860205 
L 168.424398 179.465881 
L 170.445774 179.30622 
L 172.46715 179.545267 
L 174.488526 180.081678 
L 176.509902 180.587434 
L 178.531278 180.899943 
L 180.552654 181.00008 
L 182.574029 180.878986 
L 184.595405 180.472615 
L 186.616781 179.918499 
L 188.638157 179.583572 
L 190.659533 178.030785 
L 192.680909 177.456569 
" style="fill:none;stroke:#2f4858;stroke-linecap:square;stroke-width:0.5;"/>
   </g>
   <g id="line2d_38">
    <path clip-path="url(#p2670d7519c)" d="M 43.099091 188.113437 
L 45.120467 188.113437 
L 47.141843 188.113437 
L 49.163219 188.113437 
L 51.184595 188.113437 
L 53.205971 188.113437 
L 55.227346 188.113437 
L 57.248722 188.113437 
L 59.270098 188.113437 
L 61.291474 188.113437 
L 63.31285 188.113437 
L 65.334226 188.113437 
L 67.355602 188.113437 
L 69.376978 188.113437 
L 71.398354 188.113437 
L 73.41973 188.113437 
L 75.441106 188.113437 
L 77.462482 188.113437 
L 79.483857 188.113437 
L 81.505233 188.113437 
L 83.526609 188.113437 
L 85.547985 188.113437 
L 87.569361 188.113437 
L 89.590737 188.113437 
L 91.612113 188.113437 
L 93.633489 188.113437 
L 95.654865 188.113437 
L 97.676241 188.113437 
L 99.697617 188.113437 
L 101.718993 188.113437 
L 103.740369 188.113437 
L 105.761744 188.113437 
L 107.78312 188.113437 
L 109.804496 188.113437 
L 111.825872 188.113437 
L 113.847248 188.113437 
L 115.868624 188.113437 
L 117.89 188.113437 
L 119.911376 188.113437 
L 121.932752 188.113437 
L 123.954128 188.113437 
L 125.975504 188.113437 
L 127.99688 188.113437 
L 130.018256 188.113437 
L 132.039631 188.113437 
L 134.061007 188.113437 
L 136.082383 188.113437 
L 138.103759 188.113437 
L 140.125135 188.113437 
L 142.146511 188.113437 
L 144.167887 188.113437 
L 146.189263 188.113437 
L 148.210639 188.113437 
L 150.232015 188.113437 
L 152.253391 188.113437 
L 154.274767 188.113437 
L 156.296143 188.113437 
L 158.317518 188.113437 
L 160.338894 188.113437 
L 162.36027 188.113437 
L 164.381646 188.113437 
L 166.403022 188.113437 
L 168.424398 188.113437 
L 170.445774 188.113437 
L 172.46715 188.113437 
L 174.488526 188.113437 
L 176.509902 188.113437 
L 178.531278 188.113437 
L 180.552654 188.113437 
L 182.574029 188.113437 
L 184.595405 188.113437 
L 186.616781 188.113437 
L 188.638157 188.113437 
L 190.659533 188.113437 
L 192.680909 188.113437 
" style="fill:none;stroke:#ff0000;stroke-linecap:square;stroke-width:2;"/>
   </g>
   <g id="patch_5">
    <path d="M 35.62 191.398437 
L 200.16 191.398437 
" style="fill:none;stroke:#000000;stroke-linecap:square;stroke-linejoin:miter;stroke-width:0.8;"/>
   </g>
   <g id="text_16">
    <!-- Phoneme Features -->
    <g transform="translate(71.37125 113.128437)scale(0.1 -0.1)">
     <defs>
      <path d="M 1259 4147 
L 1259 2394 
L 2053 2394 
Q 2494 2394 2734 2622 
Q 2975 2850 2975 3272 
Q 2975 3691 2734 3919 
Q 2494 4147 2053 4147 
L 1259 4147 
z
M 628 4666 
L 2053 4666 
Q 2838 4666 3239 4311 
Q 3641 3956 3641 3272 
Q 3641 2581 3239 2228 
Q 2838 1875 2053 1875 
L 1259 1875 
L 1259 0 
L 628 0 
L 628 4666 
z
" id="DejaVuSans-50" transform="scale(0.015625)"/>
      <path d="M 3513 2113 
L 3513 0 
L 2938 0 
L 2938 2094 
Q 2938 2591 2744 2837 
Q 2550 3084 2163 3084 
Q 1697 3084 1428 2787 
Q 1159 2491 1159 1978 
L 1159 0 
L 581 0 
L 581 4863 
L 1159 4863 
L 1159 2956 
Q 1366 3272 1645 3428 
Q 1925 3584 2291 3584 
Q 2894 3584 3203 3211 
Q 3513 2838 3513 2113 
z
" id="DejaVuSans-68" transform="scale(0.015625)"/>
      <path d="M 3513 2113 
L 3513 0 
L 2938 0 
L 2938 2094 
Q 2938 2591 2744 2837 
Q 2550 3084 2163 3084 
Q 1697 3084 1428 2787 
Q 1159 2491 1159 1978 
L 1159 0 
L 581 0 
L 581 3500 
L 1159 3500 
L 1159 2956 
Q 1366 3272 1645 3428 
Q 1925 3584 2291 3584 
Q 2894 3584 3203 3211 
Q 3513 2838 3513 2113 
z
" id="DejaVuSans-6e" transform="scale(0.015625)"/>
      <path d="M 3328 2828 
Q 3544 3216 3844 3400 
Q 4144 3584 4550 3584 
Q 5097 3584 5394 3201 
Q 5691 2819 5691 2113 
L 5691 0 
L 5113 0 
L 5113 2094 
Q 5113 2597 4934 2840 
Q 4756 3084 4391 3084 
Q 3944 3084 3684 2787 
Q 3425 2491 3425 1978 
L 3425 0 
L 2847 0 
L 2847 2094 
Q 2847 2600 2669 2842 
Q 2491 3084 2119 3084 
Q 1678 3084 1418 2786 
Q 1159 2488 1159 1978 
L 1159 0 
L 581 0 
L 581 3500 
L 1159 3500 
L 1159 2956 
Q 1356 3278 1631 3431 
Q 1906 3584 2284 3584 
Q 2666 3584 2933 3390 
Q 3200 3197 3328 2828 
z
" id="DejaVuSans-6d" transform="scale(0.015625)"/>
      <path d="M 628 4666 
L 3309 4666 
L 3309 4134 
L 1259 4134 
L 1259 2759 
L 3109 2759 
L 3109 2228 
L 1259 2228 
L 1259 0 
L 628 0 
L 628 4666 
z
" id="DejaVuSans-46" transform="scale(0.015625)"/>
      <path d="M 2194 1759 
Q 1497 1759 1228 1600 
Q 959 1441 959 1056 
Q 959 750 1161 570 
Q 1363 391 1709 391 
Q 2188 391 2477 730 
Q 2766 1069 2766 1631 
L 2766 1759 
L 2194 1759 
z
M 3341 1997 
L 3341 0 
L 2766 0 
L 2766 531 
Q 2569 213 2275 61 
Q 1981 -91 1556 -91 
Q 1019 -91 701 211 
Q 384 513 384 1019 
Q 384 1609 779 1909 
Q 1175 2209 1959 2209 
L 2766 2209 
L 2766 2266 
Q 2766 2663 2505 2880 
Q 2244 3097 1772 3097 
Q 1472 3097 1187 3025 
Q 903 2953 641 2809 
L 641 3341 
Q 956 3463 1253 3523 
Q 1550 3584 1831 3584 
Q 2591 3584 2966 3190 
Q 3341 2797 3341 1997 
z
" id="DejaVuSans-61" transform="scale(0.015625)"/>
      <path d="M 2631 2963 
Q 2534 3019 2420 3045 
Q 2306 3072 2169 3072 
Q 1681 3072 1420 2755 
Q 1159 2438 1159 1844 
L 1159 0 
L 581 0 
L 581 3500 
L 1159 3500 
L 1159 2956 
Q 1341 3275 1631 3429 
Q 1922 3584 2338 3584 
Q 2397 3584 2469 3576 
Q 2541 3569 2628 3553 
L 2631 2963 
z
" id="DejaVuSans-72" transform="scale(0.015625)"/>
     </defs>
     <use xlink:href="#DejaVuSans-50"/>
     <use x="60.302734" xlink:href="#DejaVuSans-68"/>
     <use x="123.681641" xlink:href="#DejaVuSans-6f"/>
     <use x="184.863281" xlink:href="#DejaVuSans-6e"/>
     <use x="248.242188" xlink:href="#DejaVuSans-65"/>
     <use x="309.765625" xlink:href="#DejaVuSans-6d"/>
     <use x="407.177734" xlink:href="#DejaVuSans-65"/>
     <use x="468.701172" xlink:href="#DejaVuSans-20"/>
     <use x="500.488281" xlink:href="#DejaVuSans-46"/>
     <use x="552.507812" xlink:href="#DejaVuSans-65"/>
     <use x="614.03125" xlink:href="#DejaVuSans-61"/>
     <use x="675.310547" xlink:href="#DejaVuSans-74"/>
     <use x="714.519531" xlink:href="#DejaVuSans-75"/>
     <use x="777.898438" xlink:href="#DejaVuSans-72"/>
     <use x="816.761719" xlink:href="#DejaVuSans-65"/>
     <use x="878.285156" xlink:href="#DejaVuSans-73"/>
    </g>
   </g>
  </g>
  <g id="text_17">
   <!-- Time (sec) -->
   <g transform="translate(76.614375 214.238437)scale(0.12 -0.12)">
    <defs>
     <path d="M -19 4666 
L 3928 4666 
L 3928 4134 
L 2272 4134 
L 2272 0 
L 1638 0 
L 1638 4134 
L -19 4134 
L -19 4666 
z
" id="DejaVuSans-54" transform="scale(0.015625)"/>
     <path d="M 1984 4856 
Q 1566 4138 1362 3434 
Q 1159 2731 1159 2009 
Q 1159 1288 1364 580 
Q 1569 -128 1984 -844 
L 1484 -844 
Q 1016 -109 783 600 
Q 550 1309 550 2009 
Q 550 2706 781 3412 
Q 1013 4119 1484 4856 
L 1984 4856 
z
" id="DejaVuSans-28" transform="scale(0.015625)"/>
     <path d="M 513 4856 
L 1013 4856 
Q 1481 4119 1714 3412 
Q 1947 2706 1947 2009 
Q 1947 1309 1714 600 
Q 1481 -109 1013 -844 
L 513 -844 
Q 928 -128 1133 580 
Q 1338 1288 1338 2009 
Q 1338 2731 1133 3434 
Q 928 4138 513 4856 
z
" id="DejaVuSans-29" transform="scale(0.015625)"/>
    </defs>
    <use xlink:href="#DejaVuSans-54"/>
    <use x="57.958984" xlink:href="#DejaVuSans-69"/>
    <use x="85.742188" xlink:href="#DejaVuSans-6d"/>
    <use x="183.154297" xlink:href="#DejaVuSans-65"/>
    <use x="244.677734" xlink:href="#DejaVuSans-20"/>
    <use x="276.464844" xlink:href="#DejaVuSans-28"/>
    <use x="315.478516" xlink:href="#DejaVuSans-73"/>
    <use x="367.578125" xlink:href="#DejaVuSans-65"/>
    <use x="429.101562" xlink:href="#DejaVuSans-63"/>
    <use x="484.082031" xlink:href="#DejaVuSans-29"/>
   </g>
  </g>
  <g id="text_18">
   <!-- Power of Weights $\mathregular{\sqrt{w^{2}}}$ -->
   <g transform="translate(22.56 173.978437)rotate(-90)scale(0.12 -0.12)">
    <defs>
     <path d="M 269 3500 
L 844 3500 
L 1563 769 
L 2278 3500 
L 2956 3500 
L 3675 769 
L 4391 3500 
L 4966 3500 
L 4050 0 
L 3372 0 
L 2619 2869 
L 1863 0 
L 1184 0 
L 269 3500 
z
" id="DejaVuSans-77" transform="scale(0.015625)"/>
     <path d="M 2375 4863 
L 2375 4384 
L 1825 4384 
Q 1516 4384 1395 4259 
Q 1275 4134 1275 3809 
L 1275 3500 
L 2222 3500 
L 2222 3053 
L 1275 3053 
L 1275 0 
L 697 0 
L 697 3053 
L 147 3053 
L 147 3500 
L 697 3500 
L 697 3744 
Q 697 4328 969 4595 
Q 1241 4863 1831 4863 
L 2375 4863 
z
" id="DejaVuSans-66" transform="scale(0.015625)"/>
     <path d="M 213 4666 
L 850 4666 
L 1831 722 
L 2809 4666 
L 3519 4666 
L 4500 722 
L 5478 4666 
L 6119 4666 
L 4947 0 
L 4153 0 
L 3169 4050 
L 2175 0 
L 1381 0 
L 213 4666 
z
" id="DejaVuSans-57" transform="scale(0.015625)"/>
     <path d="M 6970 9933 
L 3373 -1888 
L 3104 -1888 
L 1626 2918 
Q 1555 3149 1465 3251 
Q 1376 3354 1229 3354 
Q 1011 3354 794 3181 
L 717 3309 
L 1766 4115 
L 1926 4115 
L 3379 -602 
L 3405 -602 
L 6605 9933 
L 6970 9933 
z
" id="STIXSizeOneSym-Regular-221a" transform="scale(0.015625)"/>
    </defs>
    <use transform="translate(0 0.09375)" xlink:href="#DejaVuSans-50"/>
    <use transform="translate(60.302734 0.09375)" xlink:href="#DejaVuSans-6f"/>
    <use transform="translate(121.484375 0.09375)" xlink:href="#DejaVuSans-77"/>
    <use transform="translate(203.271484 0.09375)" xlink:href="#DejaVuSans-65"/>
    <use transform="translate(264.794922 0.09375)" xlink:href="#DejaVuSans-72"/>
    <use transform="translate(305.908203 0.09375)" xlink:href="#DejaVuSans-20"/>
    <use transform="translate(337.695312 0.09375)" xlink:href="#DejaVuSans-6f"/>
    <use transform="translate(398.876953 0.09375)" xlink:href="#DejaVuSans-66"/>
    <use transform="translate(434.082031 0.09375)" xlink:href="#DejaVuSans-20"/>
    <use transform="translate(465.869141 0.09375)" xlink:href="#DejaVuSans-57"/>
    <use transform="translate(564.746094 0.09375)" xlink:href="#DejaVuSans-65"/>
    <use transform="translate(626.269531 0.09375)" xlink:href="#DejaVuSans-69"/>
    <use transform="translate(654.052734 0.09375)" xlink:href="#DejaVuSans-67"/>
    <use transform="translate(717.529297 0.09375)" xlink:href="#DejaVuSans-68"/>
    <use transform="translate(780.908203 0.09375)" xlink:href="#DejaVuSans-74"/>
    <use transform="translate(820.117188 0.09375)" xlink:href="#DejaVuSans-73"/>
    <use transform="translate(872.216797 0.09375)" xlink:href="#DejaVuSans-20"/>
    <use transform="translate(904.003906 19.5625)scale(0.657728)" xlink:href="#STIXSizeOneSym-Regular-221a"/>
    <use transform="translate(986.001648 0.515625)" xlink:href="#DejaVuSans-77"/>
    <use transform="translate(1068.745789 38.796875)scale(0.7)" xlink:href="#DejaVuSans-32"/>
    <path d="M 973.501648 115.5 
L 973.501648 121.75 
L 1128.516296 121.75 
L 1128.516296 115.5 
L 973.501648 115.5 
z
"/>
   </g>
  </g>
 </g>
 <defs>
  <clipPath id="p21466d77d7">
   <rect height="72.27" width="164.54" x="35.62" y="20.798438"/>
  </clipPath>
  <clipPath id="p2670d7519c">
   <rect height="72.27" width="164.54" x="35.62" y="119.128437"/>
  </clipPath>
 </defs>
</svg>
